<svg xmlns="http://www.w3.org/2000/svg" xmlns:xlink="http://www.w3.org/1999/xlink" width="1080" zoomAndPan="magnify" viewBox="0 0 810 809.999993" height="1080" preserveAspectRatio="xMidYMid meet" version="1.0"><defs><g/><clipPath id="fb49f55bdd"><path d="M 170 376 L 645.859375 376 L 645.859375 498.171875 L 170 498.171875 Z M 170 376 " clip-rule="nonzero"/></clipPath><clipPath id="153ff2f605"><path d="M 170 376 L 271 376 L 271 498.171875 L 170 498.171875 Z M 170 376 " clip-rule="nonzero"/></clipPath><clipPath id="736b07e0be"><path d="M 166.128906 18.441406 L 645.859375 18.441406 L 645.859375 53 L 166.128906 53 Z M 166.128906 18.441406 " clip-rule="nonzero"/></clipPath></defs><g fill="#e30523" fill-opacity="1"><g transform="translate(144.110493, 637.016239)"><g><path d="M 52.671875 -12.703125 L 22.546875 -12.703125 L 17.53125 0 L -0.5 0 L 29.234375 -68.921875 L 47.25 -68.921875 L 76.296875 0 L 57.59375 0 Z M 47.546875 -25.984375 L 37.703125 -51.484375 L 27.671875 -25.984375 Z M 47.546875 -25.984375 "/></g></g></g><g fill="#e30523" fill-opacity="1"><g transform="translate(219.919048, 637.016239)"><g><path d="M 24.3125 0 L 7.28125 0 L 7.28125 -73.046875 L 24.3125 -73.046875 Z M 24.3125 0 "/></g></g></g><g fill="#e30523" fill-opacity="1"><g transform="translate(251.5224, 637.016239)"><g><path d="M 8.90625 -74.765625 C 10.582031 -76.441406 12.734375 -77.28125 15.359375 -77.28125 C 17.984375 -77.28125 20.128906 -76.441406 21.796875 -74.765625 C 23.472656 -73.097656 24.3125 -70.953125 24.3125 -68.328125 C 24.3125 -65.703125 23.472656 -63.535156 21.796875 -61.828125 C 20.128906 -60.117188 17.984375 -59.265625 15.359375 -59.265625 C 12.734375 -59.265625 10.582031 -60.117188 8.90625 -61.828125 C 7.238281 -63.535156 6.40625 -65.703125 6.40625 -68.328125 C 6.40625 -70.953125 7.238281 -73.097656 8.90625 -74.765625 Z M 23.734375 0 L 6.796875 0 L 6.796875 -53.0625 L 23.734375 -53.0625 Z M 23.734375 0 "/></g></g></g><g fill="#e30523" fill-opacity="1"><g transform="translate(282.141205, 637.016239)"><g><path d="M 77.671875 -53.859375 C 83.515625 -53.859375 88.160156 -52.003906 91.609375 -48.296875 C 95.054688 -44.585938 96.78125 -39.644531 96.78125 -33.46875 L 96.78125 0 L 79.84375 0 L 79.84375 -28.75 C 79.84375 -31.894531 79.019531 -34.367188 77.375 -36.171875 C 75.738281 -37.984375 73.507812 -38.890625 70.6875 -38.890625 C 67.539062 -38.828125 65.03125 -37.628906 63.15625 -35.296875 C 61.289062 -32.960938 60.359375 -29.957031 60.359375 -26.28125 L 60.359375 0 L 43.3125 0 L 43.3125 -28.75 C 43.3125 -31.894531 42.507812 -34.367188 40.90625 -36.171875 C 39.300781 -37.984375 37.085938 -38.890625 34.265625 -38.890625 C 31.046875 -38.828125 28.484375 -37.613281 26.578125 -35.25 C 24.679688 -32.882812 23.734375 -29.894531 23.734375 -26.28125 L 23.734375 0 L 6.796875 0 L 6.796875 -53.0625 L 23.734375 -53.0625 L 23.734375 -44.296875 C 27.335938 -50.535156 33.175781 -53.722656 41.25 -53.859375 C 45.519531 -53.859375 49.210938 -52.789062 52.328125 -50.65625 C 55.441406 -48.519531 57.65625 -45.582031 58.96875 -41.84375 C 62.445312 -49.71875 68.679688 -53.722656 77.671875 -53.859375 Z M 77.671875 -53.859375 "/></g></g></g><g fill="#e30523" fill-opacity="1"><g transform="translate(384.236687, 637.016239)"><g><path d="M 30.03125 -53.65625 C 39.21875 -53.65625 46.125 -50.832031 50.75 -45.1875 C 55.375 -39.539062 57.394531 -31.796875 56.8125 -21.953125 L 19.5 -21.953125 C 20.351562 -18.804688 21.859375 -16.378906 24.015625 -14.671875 C 26.179688 -12.960938 28.84375 -12.109375 32 -12.109375 C 36.851562 -12.109375 41.085938 -13.914062 44.703125 -17.53125 L 53.65625 -8.765625 C 47.945312 -2.523438 40.234375 0.59375 30.515625 0.59375 C 21.921875 0.59375 15.078125 -1.863281 9.984375 -6.78125 C 4.898438 -11.707031 2.359375 -18.242188 2.359375 -26.390625 C 2.359375 -34.585938 4.898438 -41.179688 9.984375 -46.171875 C 15.078125 -51.160156 21.757812 -53.65625 30.03125 -53.65625 Z M 19.203125 -31.109375 L 40.46875 -31.109375 C 40.46875 -34.328125 39.53125 -36.921875 37.65625 -38.890625 C 35.789062 -40.859375 33.3125 -41.84375 30.21875 -41.84375 C 27.332031 -41.84375 24.90625 -40.875 22.9375 -38.9375 C 20.96875 -37 19.722656 -34.390625 19.203125 -31.109375 Z M 19.203125 -31.109375 "/></g></g></g><g fill="#e30523" fill-opacity="1"><g transform="translate(443.505202, 637.016239)"><g><path d="M 41.546875 -53.859375 C 47.390625 -53.859375 52.082031 -52.003906 55.625 -48.296875 C 59.164062 -44.585938 60.9375 -39.644531 60.9375 -33.46875 L 60.9375 0 L 44.015625 0 L 44.015625 -28.75 C 44.015625 -31.832031 43.175781 -34.273438 41.5 -36.078125 C 39.820312 -37.890625 37.539062 -38.796875 34.65625 -38.796875 C 31.632812 -38.796875 29.15625 -37.8125 27.21875 -35.84375 C 25.28125 -33.875 24.148438 -31.28125 23.828125 -28.0625 L 23.828125 0 L 6.796875 0 L 6.796875 -53.0625 L 23.828125 -53.0625 L 23.828125 -44.40625 C 27.566406 -50.570312 33.472656 -53.722656 41.546875 -53.859375 Z M 41.546875 -53.859375 "/></g></g></g><g fill="#e30523" fill-opacity="1"><g transform="translate(509.763853, 637.016239)"><g><path d="M 37.703125 -14.671875 L 41.0625 -2.859375 C 36.925781 -0.429688 32.195312 0.78125 26.875 0.78125 C 21.625 0.78125 17.375 -0.675781 14.125 -3.59375 C 10.875 -6.507812 9.25 -10.660156 9.25 -16.046875 L 9.25 -39.484375 L 1.875 -39.484375 L 1.875 -50.609375 L 9.25 -50.609375 L 9.25 -65.375 L 26.1875 -65.375 L 26.1875 -50.703125 L 40.078125 -50.703125 L 40.078125 -39.484375 L 26.1875 -39.484375 L 26.1875 -18.703125 C 26.1875 -16.671875 26.597656 -15.175781 27.421875 -14.21875 C 28.242188 -13.269531 29.472656 -12.828125 31.109375 -12.890625 C 32.679688 -12.890625 34.878906 -13.484375 37.703125 -14.671875 Z M 37.703125 -14.671875 "/></g></g></g><g fill="#e30523" fill-opacity="1"><g transform="translate(552.590726, 637.016239)"><g><path d="M 31.40625 -53.65625 C 40.070312 -53.65625 47.0625 -51.175781 52.375 -46.21875 C 57.695312 -41.269531 60.359375 -34.722656 60.359375 -26.578125 C 60.359375 -18.441406 57.695312 -11.878906 52.375 -6.890625 C 47.0625 -1.898438 40.070312 0.59375 31.40625 0.59375 C 22.675781 0.59375 15.648438 -1.898438 10.328125 -6.890625 C 5.015625 -11.878906 2.359375 -18.441406 2.359375 -26.578125 C 2.359375 -34.722656 5.015625 -41.269531 10.328125 -46.21875 C 15.648438 -51.175781 22.675781 -53.65625 31.40625 -53.65625 Z M 31.40625 -40.171875 C 27.863281 -40.171875 24.992188 -38.890625 22.796875 -36.328125 C 20.597656 -33.765625 19.5 -30.453125 19.5 -26.390625 C 19.5 -22.253906 20.597656 -18.921875 22.796875 -16.390625 C 24.992188 -13.867188 27.863281 -12.609375 31.40625 -12.609375 C 34.882812 -12.609375 37.722656 -13.867188 39.921875 -16.390625 C 42.117188 -18.921875 43.21875 -22.253906 43.21875 -26.390625 C 43.21875 -30.453125 42.117188 -33.765625 39.921875 -36.328125 C 37.722656 -38.890625 34.882812 -40.171875 31.40625 -40.171875 Z M 31.40625 -40.171875 "/></g></g></g><g fill="#e30523" fill-opacity="1"><g transform="translate(615.305063, 637.016239)"><g><path d="M 25.796875 -53.859375 C 33.609375 -53.859375 40.894531 -51.851562 47.65625 -47.84375 L 41.84375 -36.828125 C 35.28125 -40.367188 29.703125 -42.140625 25.109375 -42.140625 C 21.628906 -42.140625 19.890625 -40.925781 19.890625 -38.5 C 19.890625 -37.1875 20.835938 -36.085938 22.734375 -35.203125 C 24.640625 -34.316406 26.972656 -33.507812 29.734375 -32.78125 C 32.492188 -32.0625 35.234375 -31.160156 37.953125 -30.078125 C 40.679688 -28.992188 42.992188 -27.269531 44.890625 -24.90625 C 46.796875 -22.539062 47.75 -19.65625 47.75 -16.25 C 47.75 -10.925781 45.679688 -6.769531 41.546875 -3.78125 C 37.410156 -0.800781 32.03125 0.6875 25.40625 0.6875 C 16.019531 0.6875 8.078125 -1.804688 1.578125 -6.796875 L 6.984375 -17.625 C 13.222656 -13.226562 19.492188 -11.03125 25.796875 -11.03125 C 29.671875 -11.03125 31.609375 -12.242188 31.609375 -14.671875 C 31.609375 -16.046875 30.671875 -17.191406 28.796875 -18.109375 C 26.921875 -19.035156 24.640625 -19.859375 21.953125 -20.578125 C 19.265625 -21.296875 16.570312 -22.195312 13.875 -23.28125 C 11.1875 -24.363281 8.90625 -26.050781 7.03125 -28.34375 C 5.164062 -30.644531 4.234375 -33.535156 4.234375 -37.015625 C 4.234375 -42.335938 6.234375 -46.472656 10.234375 -49.421875 C 14.242188 -52.378906 19.429688 -53.859375 25.796875 -53.859375 Z M 25.796875 -53.859375 "/></g></g></g><g fill="#e30523" fill-opacity="1"><g transform="translate(164.01251, 747.775288)"><g><path d="M 57.796875 -53.0625 L 34.859375 5.515625 C 30.910156 15.097656 24.082031 19.890625 14.375 19.890625 C 8.726562 19.890625 3.578125 18.082031 -1.078125 14.46875 L 6 2.859375 C 8.363281 4.753906 10.695312 5.703125 13 5.703125 C 16.019531 5.703125 18.21875 4.296875 19.59375 1.484375 L 20.875 -1.1875 L -1.1875 -53.0625 L 16.34375 -53.0625 L 29.34375 -17.8125 L 40.859375 -53.0625 Z M 57.796875 -53.0625 "/></g></g></g><g fill="#e30523" fill-opacity="1"><g transform="translate(221.115039, 747.775288)"><g/></g></g><g fill="#e30523" fill-opacity="1"><g transform="translate(243.956051, 747.775288)"><g><path d="M 40.171875 -53.65625 C 47.648438 -53.65625 53.671875 -51.144531 58.234375 -46.125 C 62.796875 -41.101562 65.078125 -34.488281 65.078125 -26.28125 C 65.078125 -18.207031 62.84375 -11.707031 58.375 -6.78125 C 53.914062 -1.863281 47.976562 0.59375 40.5625 0.59375 C 33.601562 0.59375 28.1875 -1.96875 24.3125 -7.09375 L 24.3125 0 L 7.28125 0 L 7.28125 -73.046875 L 24.3125 -73.046875 L 24.3125 -46.078125 C 28.25 -51.128906 33.535156 -53.65625 40.171875 -53.65625 Z M 36.03125 -12.890625 C 39.570312 -12.890625 42.441406 -14.1875 44.640625 -16.78125 C 46.847656 -19.375 47.953125 -22.707031 47.953125 -26.78125 C 47.953125 -30.851562 46.847656 -34.164062 44.640625 -36.71875 C 42.441406 -39.28125 39.570312 -40.5625 36.03125 -40.5625 C 32.625 -40.5625 29.816406 -39.28125 27.609375 -36.71875 C 25.410156 -34.164062 24.3125 -30.851562 24.3125 -26.78125 C 24.3125 -22.644531 25.394531 -19.296875 27.5625 -16.734375 C 29.726562 -14.171875 32.550781 -12.890625 36.03125 -12.890625 Z M 36.03125 -12.890625 "/></g></g></g><g fill="#e30523" fill-opacity="1"><g transform="translate(311.39614, 747.775288)"><g><path d="M 30.03125 -53.65625 C 39.21875 -53.65625 46.125 -50.832031 50.75 -45.1875 C 55.375 -39.539062 57.394531 -31.796875 56.8125 -21.953125 L 19.5 -21.953125 C 20.351562 -18.804688 21.859375 -16.378906 24.015625 -14.671875 C 26.179688 -12.960938 28.84375 -12.109375 32 -12.109375 C 36.851562 -12.109375 41.085938 -13.914062 44.703125 -17.53125 L 53.65625 -8.765625 C 47.945312 -2.523438 40.234375 0.59375 30.515625 0.59375 C 21.921875 0.59375 15.078125 -1.863281 9.984375 -6.78125 C 4.898438 -11.707031 2.359375 -18.242188 2.359375 -26.390625 C 2.359375 -34.585938 4.898438 -41.179688 9.984375 -46.171875 C 15.078125 -51.160156 21.757812 -53.65625 30.03125 -53.65625 Z M 19.203125 -31.109375 L 40.46875 -31.109375 C 40.46875 -34.328125 39.53125 -36.921875 37.65625 -38.890625 C 35.789062 -40.859375 33.3125 -41.84375 30.21875 -41.84375 C 27.332031 -41.84375 24.90625 -40.875 22.9375 -38.9375 C 20.96875 -37 19.722656 -34.390625 19.203125 -31.109375 Z M 19.203125 -31.109375 "/></g></g></g><g fill="#e30523" fill-opacity="1"><g transform="translate(370.664655, 747.775288)"><g><path d="M 40.171875 -53.65625 C 47.648438 -53.65625 53.671875 -51.144531 58.234375 -46.125 C 62.796875 -41.101562 65.078125 -34.488281 65.078125 -26.28125 C 65.078125 -18.207031 62.84375 -11.707031 58.375 -6.78125 C 53.914062 -1.863281 47.976562 0.59375 40.5625 0.59375 C 33.601562 0.59375 28.1875 -1.96875 24.3125 -7.09375 L 24.3125 0 L 7.28125 0 L 7.28125 -73.046875 L 24.3125 -73.046875 L 24.3125 -46.078125 C 28.25 -51.128906 33.535156 -53.65625 40.171875 -53.65625 Z M 36.03125 -12.890625 C 39.570312 -12.890625 42.441406 -14.1875 44.640625 -16.78125 C 46.847656 -19.375 47.953125 -22.707031 47.953125 -26.78125 C 47.953125 -30.851562 46.847656 -34.164062 44.640625 -36.71875 C 42.441406 -39.28125 39.570312 -40.5625 36.03125 -40.5625 C 32.625 -40.5625 29.816406 -39.28125 27.609375 -36.71875 C 25.410156 -34.164062 24.3125 -30.851562 24.3125 -26.78125 C 24.3125 -22.644531 25.394531 -19.296875 27.5625 -16.734375 C 29.726562 -14.171875 32.550781 -12.890625 36.03125 -12.890625 Z M 36.03125 -12.890625 "/></g></g></g><g fill="#e30523" fill-opacity="1"><g transform="translate(438.104744, 747.775288)"><g><path d="M 8.90625 -74.765625 C 10.582031 -76.441406 12.734375 -77.28125 15.359375 -77.28125 C 17.984375 -77.28125 20.128906 -76.441406 21.796875 -74.765625 C 23.472656 -73.097656 24.3125 -70.953125 24.3125 -68.328125 C 24.3125 -65.703125 23.472656 -63.535156 21.796875 -61.828125 C 20.128906 -60.117188 17.984375 -59.265625 15.359375 -59.265625 C 12.734375 -59.265625 10.582031 -60.117188 8.90625 -61.828125 C 7.238281 -63.535156 6.40625 -65.703125 6.40625 -68.328125 C 6.40625 -70.953125 7.238281 -73.097656 8.90625 -74.765625 Z M 23.734375 0 L 6.796875 0 L 6.796875 -53.0625 L 23.734375 -53.0625 Z M 23.734375 0 "/></g></g></g><g fill="#e30523" fill-opacity="1"><g transform="translate(468.723549, 747.775288)"><g><path d="M 60.25 -73.046875 L 60.25 0 L 43.21875 0 L 43.21875 -6.984375 C 39.34375 -1.867188 34.023438 0.6875 27.265625 0.6875 C 19.785156 0.6875 13.78125 -1.835938 9.25 -6.890625 C 4.726562 -11.941406 2.46875 -18.570312 2.46875 -26.78125 C 2.46875 -34.914062 4.695312 -41.441406 9.15625 -46.359375 C 13.613281 -51.285156 19.519531 -53.75 26.875 -53.75 C 33.894531 -53.75 39.34375 -51.191406 43.21875 -46.078125 L 43.21875 -73.046875 Z M 22.84375 -16.34375 C 25.007812 -13.78125 27.863281 -12.5 31.40625 -12.5 C 34.945312 -12.5 37.800781 -13.78125 39.96875 -16.34375 C 42.132812 -18.90625 43.21875 -22.253906 43.21875 -26.390625 C 43.21875 -30.453125 42.132812 -33.765625 39.96875 -36.328125 C 37.800781 -38.890625 34.945312 -40.171875 31.40625 -40.171875 C 27.863281 -40.171875 25.007812 -38.90625 22.84375 -36.375 C 20.675781 -33.851562 19.5625 -30.523438 19.5 -26.390625 C 19.5625 -22.253906 20.675781 -18.90625 22.84375 -16.34375 Z M 22.84375 -16.34375 "/></g></g></g><g fill="#e30523" fill-opacity="1"><g transform="translate(536.262131, 747.775288)"><g><path d="M 30.625 -53.859375 C 37.90625 -53.859375 43.5625 -52.164062 47.59375 -48.78125 C 51.632812 -45.40625 53.6875 -40.695312 53.75 -34.65625 L 53.75 0 L 37.109375 0 L 37.109375 -6.109375 C 33.640625 -1.515625 28.226562 0.78125 20.875 0.78125 C 15.289062 0.78125 10.859375 -0.757812 7.578125 -3.84375 C 4.296875 -6.925781 2.65625 -10.925781 2.65625 -15.84375 C 2.65625 -20.90625 4.410156 -24.828125 7.921875 -27.609375 C 11.429688 -30.398438 16.46875 -31.832031 23.03125 -31.90625 L 37.015625 -31.90625 L 37.015625 -32.6875 C 37.015625 -35.3125 36.144531 -37.363281 34.40625 -38.84375 C 32.664062 -40.320312 30.09375 -41.0625 26.6875 -41.0625 C 21.894531 -41.0625 16.609375 -39.582031 10.828125 -36.625 L 6 -47.84375 C 14.601562 -51.851562 22.8125 -53.859375 30.625 -53.859375 Z M 26.09375 -10.734375 C 28.78125 -10.734375 31.140625 -11.40625 33.171875 -12.75 C 35.210938 -14.09375 36.492188 -15.847656 37.015625 -18.015625 L 37.015625 -22.75 L 26.28125 -22.75 C 21.164062 -22.75 18.609375 -20.84375 18.609375 -17.03125 C 18.609375 -15.0625 19.265625 -13.519531 20.578125 -12.40625 C 21.890625 -11.289062 23.726562 -10.734375 26.09375 -10.734375 Z M 26.09375 -10.734375 "/></g></g></g><g fill="#e30523" fill-opacity="1"><g transform="translate(595.333755, 747.775288)"><g><path d="M 25.796875 -53.859375 C 33.609375 -53.859375 40.894531 -51.851562 47.65625 -47.84375 L 41.84375 -36.828125 C 35.28125 -40.367188 29.703125 -42.140625 25.109375 -42.140625 C 21.628906 -42.140625 19.890625 -40.925781 19.890625 -38.5 C 19.890625 -37.1875 20.835938 -36.085938 22.734375 -35.203125 C 24.640625 -34.316406 26.972656 -33.507812 29.734375 -32.78125 C 32.492188 -32.0625 35.234375 -31.160156 37.953125 -30.078125 C 40.679688 -28.992188 42.992188 -27.269531 44.890625 -24.90625 C 46.796875 -22.539062 47.75 -19.65625 47.75 -16.25 C 47.75 -10.925781 45.679688 -6.769531 41.546875 -3.78125 C 37.410156 -0.800781 32.03125 0.6875 25.40625 0.6875 C 16.019531 0.6875 8.078125 -1.804688 1.578125 -6.796875 L 6.984375 -17.625 C 13.222656 -13.226562 19.492188 -11.03125 25.796875 -11.03125 C 29.671875 -11.03125 31.609375 -12.242188 31.609375 -14.671875 C 31.609375 -16.046875 30.671875 -17.191406 28.796875 -18.109375 C 26.921875 -19.035156 24.640625 -19.859375 21.953125 -20.578125 C 19.265625 -21.296875 16.570312 -22.195312 13.875 -23.28125 C 11.1875 -24.363281 8.90625 -26.050781 7.03125 -28.34375 C 5.164062 -30.644531 4.234375 -33.535156 4.234375 -37.015625 C 4.234375 -42.335938 6.234375 -46.472656 10.234375 -49.421875 C 14.242188 -52.378906 19.429688 -53.859375 25.796875 -53.859375 Z M 25.796875 -53.859375 "/></g></g></g><path fill="#808080" d="M 430.800781 112.421875 L 356.566406 112.421875 C 352.535156 112.421875 349.269531 109.152344 349.269531 105.121094 C 349.269531 101.09375 352.535156 97.828125 356.566406 97.828125 L 430.800781 97.828125 C 432.480469 97.828125 433.898438 96.40625 433.898438 94.722656 L 433.898438 52.230469 C 433.898438 48.203125 437.167969 44.9375 441.195312 44.9375 C 445.226562 44.9375 448.492188 48.203125 448.492188 52.230469 L 448.492188 94.722656 C 448.492188 104.480469 440.554688 112.421875 430.800781 112.421875 Z M 430.800781 112.421875 " fill-opacity="1" fill-rule="nonzero"/><path fill="#e8e8e8" d="M 325.539062 126.84375 L 356.566406 126.84375 L 356.566406 81.097656 L 341.050781 66.652344 L 325.539062 81.097656 Z M 325.539062 126.84375 " fill-opacity="1" fill-rule="evenodd"/><path fill="#cccccc" d="M 325.539062 81.097656 L 342.882812 81.097656 L 342.882812 126.84375 L 325.539062 126.84375 Z M 325.539062 81.097656 " fill-opacity="1" fill-rule="evenodd"/><path fill="#e8e8e8" d="M 323.761719 223.160156 L 337.90625 233.339844 L 352.023438 223.160156 L 352.023438 188.277344 L 336.484375 180.859375 L 323.761719 188.277344 Z M 323.761719 223.160156 " fill-opacity="1" fill-rule="evenodd"/><path fill="#cccccc" d="M 323.761719 188.277344 L 339.164062 188.277344 L 339.164062 223.160156 L 323.761719 223.160156 Z M 323.761719 188.277344 " fill-opacity="1" fill-rule="evenodd"/><path fill="#808080" d="M 323.761719 188.277344 L 357.109375 188.277344 C 359.304688 188.277344 361.082031 186.496094 361.082031 184.308594 L 361.082031 165.730469 C 361.082031 163.539062 359.304688 161.761719 357.109375 161.761719 L 320.394531 161.761719 C 318.203125 161.761719 316.425781 163.539062 316.425781 165.730469 L 316.425781 184.308594 C 316.425781 186.496094 318.203125 188.277344 320.394531 188.277344 Z M 323.761719 188.277344 " fill-opacity="1" fill-rule="evenodd"/><path fill="#525252" d="M 320.398438 188.277344 L 335.773438 188.277344 C 333.585938 188.277344 331.804688 186.496094 331.804688 184.308594 L 331.804688 165.730469 C 331.804688 163.539062 333.585938 161.761719 335.773438 161.761719 L 320.398438 161.761719 C 318.203125 161.761719 316.429688 163.539062 316.429688 165.730469 L 316.429688 184.308594 C 316.425781 186.496094 318.203125 188.277344 320.398438 188.277344 Z M 320.398438 188.277344 " fill-opacity="1" fill-rule="evenodd"/><path fill="#fa6969" d="M 299.191406 266.007812 L 335.933594 283.382812 L 376.59375 266.007812 L 376.59375 258.074219 C 376.59375 239.058594 357.632812 224.308594 352.023438 223.160156 L 323.761719 223.160156 C 318.148438 224.308594 299.191406 239.058594 299.191406 258.074219 Z M 299.191406 266.007812 " fill-opacity="1" fill-rule="evenodd"/><path fill="#fa6969" d="M 338.753906 394.171875 L 376.59375 376.195312 L 376.59375 340.730469 L 335.414062 322.347656 L 299.191406 340.730469 L 299.191406 376.195312 Z M 338.753906 394.171875 " fill-opacity="1" fill-rule="evenodd"/><path fill="#d0ffb5" d="M 299.191406 266.007812 L 376.59375 266.007812 L 376.59375 340.730469 L 299.191406 340.730469 Z M 299.191406 266.007812 " fill-opacity="1" fill-rule="evenodd"/><path fill="#c92858" d="M 299.191406 266.007812 L 314.566406 266.007812 L 314.566406 258.074219 C 314.566406 245.160156 323.320312 234.210938 330.710938 228.167969 C 334.183594 225.292969 337.359375 223.542969 339.160156 223.160156 L 323.757812 223.160156 C 318.148438 224.308594 299.1875 239.058594 299.1875 258.074219 L 299.1875 266.007812 Z M 299.191406 266.007812 " fill-opacity="1" fill-rule="evenodd"/><path fill="#aaf589" d="M 299.191406 266.007812 L 314.566406 266.007812 L 314.566406 340.730469 L 299.191406 340.730469 Z M 299.191406 266.007812 " fill-opacity="1" fill-rule="evenodd"/><path fill="#c92858" d="M 299.191406 340.730469 L 314.566406 340.730469 L 314.566406 376.195312 L 299.191406 376.195312 Z M 299.191406 340.730469 " fill-opacity="1" fill-rule="evenodd"/><path fill="#e8e8e8" d="M 484.617188 223.160156 L 498.738281 233.339844 L 512.882812 223.160156 L 512.882812 188.277344 L 497.34375 180.859375 L 484.617188 188.277344 Z M 484.617188 223.160156 " fill-opacity="1" fill-rule="evenodd"/><path fill="#cccccc" d="M 484.617188 188.277344 L 499.996094 188.277344 L 499.996094 223.160156 L 484.617188 223.160156 Z M 484.617188 188.277344 " fill-opacity="1" fill-rule="evenodd"/><path fill="#808080" d="M 484.617188 188.277344 L 517.96875 188.277344 C 520.160156 188.277344 521.9375 186.496094 521.9375 184.308594 L 521.9375 165.730469 C 521.9375 163.539062 520.160156 161.761719 517.96875 161.761719 L 481.253906 161.761719 C 479.0625 161.761719 477.285156 163.539062 477.285156 165.730469 L 477.285156 184.308594 C 477.285156 186.496094 479.0625 188.277344 481.253906 188.277344 Z M 484.617188 188.277344 " fill-opacity="1" fill-rule="evenodd"/><path fill="#525252" d="M 481.253906 188.277344 L 496.628906 188.277344 C 494.441406 188.277344 492.660156 186.496094 492.660156 184.308594 L 492.660156 165.730469 C 492.660156 163.539062 494.441406 161.761719 496.628906 161.761719 L 481.253906 161.761719 C 479.0625 161.761719 477.285156 163.539062 477.285156 165.730469 L 477.285156 184.308594 C 477.285156 186.496094 479.0625 188.277344 481.253906 188.277344 Z M 481.253906 188.277344 " fill-opacity="1" fill-rule="evenodd"/><path fill="#fa6969" d="M 460.046875 266.007812 L 496.792969 283.382812 L 537.457031 266.007812 L 537.457031 258.074219 C 537.457031 239.058594 518.492188 224.308594 512.882812 223.160156 L 484.617188 223.160156 C 479.007812 224.308594 460.046875 239.058594 460.046875 258.074219 Z M 460.046875 266.007812 " fill-opacity="1" fill-rule="evenodd"/><path fill="#fa6969" d="M 498.738281 393.566406 L 537.453125 376.195312 L 537.453125 340.730469 L 496.273438 322.347656 L 460.046875 340.730469 L 460.046875 376.195312 Z M 498.738281 393.566406 " fill-opacity="1" fill-rule="evenodd"/><path fill="#d0ffb5" d="M 460.046875 266.007812 L 537.453125 266.007812 L 537.453125 340.730469 L 460.046875 340.730469 Z M 460.046875 266.007812 " fill-opacity="1" fill-rule="evenodd"/><path fill="#c92858" d="M 460.046875 266.007812 L 475.425781 266.007812 L 475.425781 258.074219 C 475.425781 245.160156 484.179688 234.210938 491.542969 228.167969 C 495.042969 225.292969 498.191406 223.542969 499.996094 223.160156 L 484.617188 223.160156 C 479.007812 224.308594 460.046875 239.058594 460.046875 258.074219 Z M 460.046875 266.007812 " fill-opacity="1" fill-rule="evenodd"/><path fill="#aaf589" d="M 460.046875 266.007812 L 475.425781 266.007812 L 475.425781 340.730469 L 460.046875 340.730469 Z M 460.046875 266.007812 " fill-opacity="1" fill-rule="evenodd"/><path fill="#c92858" d="M 460.046875 340.730469 L 475.425781 340.730469 L 475.425781 376.195312 L 460.046875 376.195312 Z M 460.046875 340.730469 " fill-opacity="1" fill-rule="evenodd"/><g clip-path="url(#fb49f55bdd)"><path fill="#e8e8e8" d="M 219.921875 377.289062 C 192.121094 382.648438 170.972656 407.25 170.972656 436.550781 L 170.972656 437.8125 C 170.972656 471 198.113281 498.171875 231.304688 498.171875 L 585.503906 498.171875 C 618.691406 498.171875 645.859375 471 645.859375 437.8125 L 645.859375 436.550781 C 645.859375 403.363281 618.691406 376.195312 585.503906 376.195312 L 431.289062 376.195312 C 424.699219 376.304688 418.921875 376.414062 414.078125 376.550781 L 414.078125 376.195312 L 231.304688 376.195312 C 227.421875 376.195312 223.617188 376.574219 219.921875 377.289062 Z M 219.921875 377.289062 " fill-opacity="1" fill-rule="evenodd"/></g><path fill="#808080" d="M 195.949219 437.179688 C 195.949219 456.992188 212.152344 473.191406 231.960938 473.191406 L 584.871094 473.191406 C 604.679688 473.191406 620.878906 456.992188 620.878906 437.179688 C 620.878906 417.402344 604.679688 401.203125 584.871094 401.203125 L 231.960938 401.203125 C 230.730469 401.203125 229.554688 401.257812 228.378906 401.367188 C 210.238281 403.171875 195.949219 418.601562 195.949219 437.179688 Z M 195.949219 437.179688 " fill-opacity="1" fill-rule="evenodd"/><path fill="#e8e8e8" d="M 317.328125 437.371094 C 317.328125 445.390625 323.839844 451.875 331.832031 451.875 C 339.851562 451.875 346.332031 445.390625 346.332031 437.371094 C 346.332031 429.386719 339.847656 422.875 331.832031 422.875 C 323.839844 422.875 317.328125 429.386719 317.328125 437.371094 Z M 317.328125 437.371094 " fill-opacity="1" fill-rule="evenodd"/><path fill="#e8e8e8" d="M 393.203125 437.179688 C 393.203125 445.199219 399.6875 451.6875 407.703125 451.6875 C 415.722656 451.6875 422.207031 445.199219 422.207031 437.179688 C 422.207031 429.164062 415.722656 422.679688 407.703125 422.679688 C 399.6875 422.683594 393.203125 429.164062 393.203125 437.179688 Z M 393.203125 437.179688 " fill-opacity="1" fill-rule="evenodd"/><path fill="#e8e8e8" d="M 483.769531 422.683594 C 475.75 422.683594 469.269531 429.164062 469.269531 437.183594 C 469.269531 445.199219 475.75 451.6875 483.769531 451.6875 C 491.761719 451.6875 498.273438 445.199219 498.273438 437.183594 C 498.273438 429.164062 491.761719 422.683594 483.769531 422.683594 Z M 483.769531 422.683594 " fill-opacity="1" fill-rule="evenodd"/><path fill="#e8e8e8" d="M 559.613281 422.488281 C 551.597656 422.488281 545.113281 428.976562 545.113281 436.992188 C 545.113281 444.980469 551.597656 451.492188 559.613281 451.492188 C 567.632812 451.492188 574.121094 444.980469 574.121094 436.992188 C 574.121094 428.976562 567.632812 422.488281 559.613281 422.488281 Z M 559.613281 422.488281 " fill-opacity="1" fill-rule="evenodd"/><path fill="#525252" d="M 228.378906 401.367188 C 210.238281 403.171875 195.953125 418.601562 195.953125 437.183594 C 195.953125 456.992188 212.152344 473.191406 231.960938 473.191406 L 584.871094 473.191406 C 586.15625 473.191406 587.417969 473.113281 588.675781 472.972656 L 265.507812 472.972656 C 245.699219 472.972656 229.5 456.773438 229.5 436.992188 C 229.5 425.992188 234.507812 416.117188 242.332031 409.492188 C 247.695312 404.980469 254.371094 401.96875 261.703125 401.203125 L 231.960938 401.203125 C 230.730469 401.203125 229.554688 401.257812 228.378906 401.367188 Z M 228.378906 401.367188 " fill-opacity="1" fill-rule="evenodd"/><g clip-path="url(#153ff2f605)"><path fill="#cccccc" d="M 219.921875 377.289062 C 192.121094 382.648438 170.972656 407.25 170.972656 436.550781 L 170.972656 437.8125 C 170.972656 471 198.113281 498.171875 231.304688 498.171875 L 270.183594 498.171875 C 249.253906 498.171875 230.757812 487.390625 219.921875 471.085938 C 205.996094 466.101562 195.949219 452.75 195.949219 437.179688 C 195.949219 421.613281 205.996094 408.257812 219.921875 403.28125 C 221.398438 401.039062 223.011719 398.90625 224.792969 396.90625 C 233.464844 386.972656 245.367188 379.886719 258.800781 377.289062 C 262.5 376.574219 266.300781 376.195312 270.183594 376.195312 L 231.304688 376.195312 C 227.421875 376.195312 223.617188 376.574219 219.921875 377.289062 Z M 219.921875 377.289062 " fill-opacity="1" fill-rule="evenodd"/></g><path fill="#e8e8e8" d="M 241.480469 437.59375 C 241.480469 445.582031 247.96875 452.097656 255.984375 452.097656 C 264.003906 452.097656 270.488281 445.582031 270.488281 437.59375 C 270.488281 429.574219 264.003906 423.089844 255.984375 423.089844 C 247.96875 423.089844 241.480469 429.574219 241.480469 437.59375 Z M 241.480469 437.59375 " fill-opacity="1" fill-rule="evenodd"/><path fill="#808080" d="M 325.539062 81.097656 L 387.210938 81.097656 C 393.941406 81.097656 399.46875 75.601562 399.46875 68.839844 L 399.46875 52.230469 L 340.339844 39.589844 L 282.660156 52.230469 L 282.660156 68.839844 C 282.660156 75.601562 288.164062 81.097656 294.917969 81.097656 Z M 325.539062 81.097656 " fill-opacity="1" fill-rule="evenodd"/><path fill="#525252" d="M 282.660156 68.839844 C 282.660156 75.601562 288.164062 81.097656 294.917969 81.097656 L 312.238281 81.097656 C 305.507812 81.097656 300.011719 75.601562 300.011719 68.839844 L 300.011719 52.230469 L 282.660156 52.230469 Z M 282.660156 68.839844 " fill-opacity="1" fill-rule="evenodd"/><g clip-path="url(#736b07e0be)"><path fill="#e8e8e8" d="M 282.660156 52.230469 L 628.949219 52.230469 C 638.253906 52.230469 645.859375 44.625 645.859375 35.320312 C 645.859375 26.046875 638.253906 18.441406 628.949219 18.441406 L 183.011719 18.441406 C 173.734375 18.441406 166.128906 26.046875 166.128906 35.324219 C 166.128906 44.628906 173.734375 52.234375 183.011719 52.234375 L 282.660156 52.234375 Z M 282.660156 52.230469 " fill-opacity="1" fill-rule="evenodd"/></g><path fill="#808080" d="M 390.683594 163.773438 C 386.65625 163.773438 383.390625 160.511719 383.390625 156.480469 C 383.390625 144.164062 373.382812 134.144531 361.082031 134.144531 L 321.050781 134.144531 C 308.734375 134.144531 298.714844 144.164062 298.714844 156.480469 C 298.714844 160.511719 295.449219 163.773438 291.421875 163.773438 C 287.386719 163.773438 284.121094 160.511719 284.121094 156.480469 C 284.121094 136.117188 300.6875 119.550781 321.050781 119.550781 L 361.082031 119.550781 C 381.429688 119.550781 397.984375 136.117188 397.984375 156.480469 C 397.984375 160.511719 394.71875 163.773438 390.683594 163.773438 Z M 390.683594 163.773438 " fill-opacity="1" fill-rule="nonzero"/></svg>