<svg xmlns="http://www.w3.org/2000/svg" xmlns:xlink="http://www.w3.org/1999/xlink" width="1080" zoomAndPan="magnify" viewBox="0 0 810 809.999993" height="1080" preserveAspectRatio="xMidYMid meet" version="1.0"><defs><g/><clipPath id="aab03c97c2"><path d="M 223.460938 169 L 448 169 L 448 366 L 223.460938 366 Z M 223.460938 169 " clip-rule="nonzero"/></clipPath><clipPath id="03feb0e526"><path d="M 223.460938 169 L 413 169 L 413 338 L 223.460938 338 Z M 223.460938 169 " clip-rule="nonzero"/></clipPath><clipPath id="0925e314a7"><path d="M 223.460938 169 L 385 169 L 385 310 L 223.460938 310 Z M 223.460938 169 " clip-rule="nonzero"/></clipPath><clipPath id="3e1bae8865"><path d="M 223.460938 407 L 482 407 L 482 449.363281 L 223.460938 449.363281 Z M 223.460938 407 " clip-rule="nonzero"/></clipPath><clipPath id="809ba1ac9d"><path d="M 300 30.113281 L 399 30.113281 L 399 59 L 300 59 Z M 300 30.113281 " clip-rule="nonzero"/></clipPath><clipPath id="171016c837"><path d="M 544 421 L 642.710938 421 L 642.710938 449.363281 L 544 449.363281 Z M 544 421 " clip-rule="nonzero"/></clipPath><clipPath id="a38b02fdb6"><path d="M 544 323 L 642.710938 323 L 642.710938 352 L 544 352 Z M 544 323 " clip-rule="nonzero"/></clipPath><clipPath id="8901185433"><path d="M 300 30.113281 L 392 30.113281 L 392 52 L 300 52 Z M 300 30.113281 " clip-rule="nonzero"/></clipPath><clipPath id="615ab7631c"><path d="M 300 30.113281 L 385 30.113281 L 385 45 L 300 45 Z M 300 30.113281 " clip-rule="nonzero"/></clipPath><clipPath id="0a063f4b3e"><path d="M 223.460938 407 L 455 407 L 455 429 L 223.460938 429 Z M 223.460938 407 " clip-rule="nonzero"/></clipPath></defs><g clip-path="url(#aab03c97c2)"><path fill="#858789" d="M 251.414062 169.863281 L 447.0625 169.863281 L 447.0625 365.515625 L 251.414062 365.515625 C 250.496094 365.515625 249.582031 365.46875 248.671875 365.378906 C 247.761719 365.289062 246.855469 365.15625 245.960938 364.976562 C 245.0625 364.796875 244.175781 364.578125 243.300781 364.3125 C 242.421875 364.042969 241.5625 363.738281 240.714844 363.386719 C 239.871094 363.035156 239.042969 362.644531 238.238281 362.214844 C 237.429688 361.78125 236.644531 361.3125 235.882812 360.804688 C 235.121094 360.296875 234.386719 359.75 233.679688 359.167969 C 232.972656 358.589844 232.296875 357.976562 231.648438 357.328125 C 231 356.679688 230.386719 356.003906 229.808594 355.296875 C 229.226562 354.585938 228.679688 353.851562 228.171875 353.09375 C 227.664062 352.332031 227.195312 351.546875 226.761719 350.738281 C 226.332031 349.933594 225.941406 349.105469 225.589844 348.261719 C 225.238281 347.414062 224.929688 346.554688 224.664062 345.675781 C 224.398438 344.800781 224.179688 343.914062 224 343.015625 C 223.820312 342.117188 223.6875 341.214844 223.597656 340.304688 C 223.507812 339.394531 223.460938 338.480469 223.460938 337.5625 L 223.460938 197.8125 C 223.460938 196.898438 223.507812 195.984375 223.597656 195.074219 C 223.6875 194.164062 223.820312 193.257812 224 192.363281 C 224.179688 191.464844 224.398438 190.578125 224.664062 189.699219 C 224.929688 188.824219 225.238281 187.964844 225.589844 187.117188 C 225.941406 186.273438 226.332031 185.445312 226.761719 184.636719 C 227.195312 183.832031 227.664062 183.046875 228.171875 182.285156 C 228.679688 181.523438 229.226562 180.789062 229.808594 180.082031 C 230.386719 179.375 231 178.699219 231.648438 178.050781 C 232.296875 177.402344 232.972656 176.789062 233.679688 176.207031 C 234.386719 175.628906 235.121094 175.082031 235.882812 174.574219 C 236.644531 174.066406 237.429688 173.597656 238.238281 173.164062 C 239.042969 172.734375 239.871094 172.34375 240.714844 171.992188 C 241.5625 171.640625 242.421875 171.332031 243.300781 171.066406 C 244.175781 170.800781 245.0625 170.578125 245.960938 170.402344 C 246.855469 170.222656 247.761719 170.089844 248.671875 170 C 249.582031 169.910156 250.496094 169.863281 251.414062 169.863281 Z M 251.414062 169.863281 " fill-opacity="1" fill-rule="nonzero"/></g><g clip-path="url(#03feb0e526)"><path fill="#b2b4b6" d="M 412.125 323.589844 L 412.125 169.863281 L 251.414062 169.863281 C 250.496094 169.863281 249.582031 169.910156 248.671875 170 C 247.761719 170.089844 246.855469 170.222656 245.960938 170.402344 C 245.0625 170.578125 244.175781 170.800781 243.300781 171.066406 C 242.421875 171.332031 241.5625 171.640625 240.714844 171.992188 C 239.871094 172.34375 239.042969 172.734375 238.238281 173.164062 C 237.429688 173.597656 236.644531 174.066406 235.882812 174.574219 C 235.121094 175.082031 234.386719 175.628906 233.679688 176.207031 C 232.972656 176.789062 232.296875 177.402344 231.648438 178.050781 C 231 178.699219 230.386719 179.375 229.808594 180.082031 C 229.226562 180.789062 228.679688 181.523438 228.171875 182.285156 C 227.664062 183.046875 227.195312 183.832031 226.761719 184.636719 C 226.332031 185.445312 225.941406 186.273438 225.589844 187.117188 C 225.238281 187.964844 224.929688 188.824219 224.664062 189.699219 C 224.398438 190.578125 224.179688 191.464844 224 192.363281 C 223.820312 193.257812 223.6875 194.164062 223.597656 195.074219 C 223.507812 195.984375 223.460938 196.898438 223.460938 197.8125 L 223.460938 337.5625 L 398.148438 337.5625 C 399.066406 337.5625 399.976562 337.476562 400.875 337.296875 C 401.777344 337.117188 402.648438 336.851562 403.496094 336.5 C 404.34375 336.148438 405.152344 335.71875 405.914062 335.207031 C 406.675781 334.699219 407.382812 334.121094 408.03125 333.472656 C 408.679688 332.820312 409.261719 332.117188 409.769531 331.351562 C 410.28125 330.589844 410.710938 329.785156 411.0625 328.9375 C 411.414062 328.089844 411.675781 327.214844 411.855469 326.316406 C 412.035156 325.414062 412.125 324.507812 412.125 323.589844 Z M 412.125 323.589844 " fill-opacity="1" fill-rule="nonzero"/></g><g clip-path="url(#0925e314a7)"><path fill="#d6d8da" d="M 251.414062 169.863281 C 250.496094 169.863281 249.582031 169.910156 248.671875 170 C 247.761719 170.089844 246.855469 170.222656 245.960938 170.402344 C 245.0625 170.578125 244.175781 170.800781 243.300781 171.066406 C 242.421875 171.332031 241.5625 171.640625 240.714844 171.992188 C 239.871094 172.34375 239.042969 172.734375 238.238281 173.164062 C 237.429688 173.597656 236.644531 174.066406 235.882812 174.574219 C 235.121094 175.082031 234.386719 175.628906 233.679688 176.207031 C 232.972656 176.789062 232.296875 177.402344 231.648438 178.050781 C 231 178.699219 230.386719 179.375 229.808594 180.082031 C 229.226562 180.789062 228.679688 181.523438 228.171875 182.285156 C 227.664062 183.046875 227.195312 183.832031 226.761719 184.636719 C 226.332031 185.445312 225.941406 186.273438 225.589844 187.117188 C 225.238281 187.964844 224.929688 188.824219 224.664062 189.699219 C 224.398438 190.578125 224.179688 191.464844 224 192.363281 C 223.820312 193.257812 223.6875 194.164062 223.597656 195.074219 C 223.507812 195.984375 223.460938 196.898438 223.460938 197.8125 L 223.460938 309.613281 L 370.199219 309.613281 C 371.117188 309.613281 372.027344 309.523438 372.925781 309.34375 C 373.828125 309.167969 374.699219 308.902344 375.546875 308.550781 C 376.394531 308.199219 377.199219 307.769531 377.964844 307.257812 C 378.726562 306.75 379.433594 306.167969 380.082031 305.519531 C 380.730469 304.871094 381.308594 304.167969 381.820312 303.402344 C 382.328125 302.640625 382.761719 301.835938 383.109375 300.988281 C 383.460938 300.140625 383.726562 299.265625 383.90625 298.367188 C 384.085938 297.464844 384.175781 296.558594 384.175781 295.640625 L 384.175781 169.863281 Z M 251.414062 169.863281 " fill-opacity="1" fill-rule="nonzero"/></g><g clip-path="url(#3e1bae8865)"><path fill="#2e2f30" d="M 223.460938 407.4375 L 482 407.4375 L 482 449.363281 L 223.460938 449.363281 Z M 223.460938 407.4375 " fill-opacity="1" fill-rule="nonzero"/></g><path fill="#2e2f30" d="M 440.074219 365.515625 L 265.386719 365.515625 L 251.414062 407.4375 L 454.050781 407.4375 Z M 440.074219 365.515625 " fill-opacity="1" fill-rule="nonzero"/><path fill="#fcba12" d="M 475.011719 225.765625 L 502.960938 225.765625 L 502.960938 309.613281 L 475.011719 309.613281 Z M 475.011719 225.765625 " fill-opacity="1" fill-rule="nonzero"/><path fill="#858789" d="M 565.851562 351.539062 L 565.851562 421.414062 L 621.75 421.414062 L 621.75 281.664062 C 621.75 280.292969 621.683594 278.921875 621.546875 277.554688 C 621.414062 276.1875 621.210938 274.832031 620.945312 273.484375 C 620.675781 272.136719 620.34375 270.808594 619.945312 269.492188 C 619.546875 268.179688 619.082031 266.890625 618.558594 265.621094 C 618.03125 264.351562 617.445312 263.113281 616.800781 261.902344 C 616.152344 260.691406 615.445312 259.511719 614.683594 258.371094 C 613.921875 257.230469 613.105469 256.128906 612.234375 255.066406 C 611.363281 254.003906 610.441406 252.988281 609.46875 252.019531 C 608.5 251.046875 607.484375 250.125 606.421875 249.253906 C 605.359375 248.382812 604.257812 247.566406 603.117188 246.804688 C 601.976562 246.042969 600.800781 245.335938 599.589844 244.691406 C 598.378906 244.042969 597.136719 243.457031 595.867188 242.929688 C 594.601562 242.40625 593.308594 241.941406 591.996094 241.542969 C 590.679688 241.144531 589.351562 240.8125 588.003906 240.542969 C 586.65625 240.277344 585.300781 240.074219 583.933594 239.941406 C 582.566406 239.804688 581.199219 239.738281 579.824219 239.738281 L 502.960938 239.738281 L 502.960938 295.640625 L 551.875 295.640625 C 552.792969 295.640625 553.703125 295.730469 554.601562 295.90625 C 555.5 296.085938 556.375 296.351562 557.222656 296.703125 C 558.070312 297.054688 558.875 297.484375 559.640625 297.996094 C 560.402344 298.503906 561.109375 299.082031 561.757812 299.730469 C 562.40625 300.382812 562.984375 301.085938 563.496094 301.851562 C 564.003906 302.613281 564.433594 303.417969 564.785156 304.265625 C 565.136719 305.113281 565.402344 305.988281 565.582031 306.886719 C 565.761719 307.789062 565.851562 308.695312 565.851562 309.613281 Z M 565.851562 351.539062 " fill-opacity="1" fill-rule="nonzero"/><path fill="#fcba12" d="M 300.324219 141.914062 L 398.148438 141.914062 L 398.148438 169.863281 L 300.324219 169.863281 Z M 300.324219 141.914062 " fill-opacity="1" fill-rule="nonzero"/><g clip-path="url(#809ba1ac9d)"><path fill="#fcba12" d="M 300.324219 30.113281 L 398.148438 30.113281 L 398.148438 58.0625 L 300.324219 58.0625 Z M 300.324219 30.113281 " fill-opacity="1" fill-rule="nonzero"/></g><path fill="#858789" d="M 321.289062 58.0625 L 377.1875 58.0625 L 377.1875 141.914062 L 321.289062 141.914062 Z M 321.289062 58.0625 " fill-opacity="1" fill-rule="nonzero"/><path fill="#fc9a03" d="M 447.0625 197.8125 L 475.011719 197.8125 L 475.011719 337.5625 L 447.0625 337.5625 Z M 447.0625 197.8125 " fill-opacity="1" fill-rule="nonzero"/><path fill="#2e2f30" d="M 258.398438 169.863281 L 272.375 169.863281 L 272.375 365.515625 L 258.398438 365.515625 Z M 258.398438 169.863281 " fill-opacity="1" fill-rule="nonzero"/><path fill="#2e2f30" d="M 349.238281 302.625 L 293.335938 302.625 C 292.878906 302.625 292.425781 302.671875 291.972656 302.761719 C 291.523438 302.851562 291.085938 302.984375 290.664062 303.160156 C 290.238281 303.335938 289.835938 303.550781 289.457031 303.804688 C 289.074219 304.058594 288.722656 304.347656 288.394531 304.671875 C 288.070312 304.996094 287.78125 305.351562 287.527344 305.730469 C 287.273438 306.113281 287.058594 306.515625 286.882812 306.941406 C 286.707031 307.363281 286.574219 307.800781 286.484375 308.25 C 286.394531 308.699219 286.351562 309.15625 286.351562 309.613281 L 286.351562 337.5625 C 286.351562 338.023438 286.394531 338.476562 286.484375 338.925781 C 286.574219 339.378906 286.707031 339.8125 286.882812 340.238281 C 287.058594 340.660156 287.273438 341.066406 287.527344 341.445312 C 287.78125 341.828125 288.070312 342.179688 288.394531 342.503906 C 288.722656 342.828125 289.074219 343.117188 289.457031 343.375 C 289.835938 343.628906 290.238281 343.84375 290.664062 344.019531 C 291.085938 344.195312 291.523438 344.328125 291.972656 344.417969 C 292.425781 344.507812 292.878906 344.550781 293.335938 344.550781 L 349.238281 344.550781 C 349.695312 344.550781 350.152344 344.507812 350.601562 344.417969 C 351.050781 344.328125 351.488281 344.195312 351.910156 344.019531 C 352.335938 343.84375 352.738281 343.628906 353.121094 343.375 C 353.5 343.117188 353.855469 342.828125 354.179688 342.503906 C 354.503906 342.179688 354.792969 341.828125 355.046875 341.445312 C 355.300781 341.066406 355.515625 340.660156 355.691406 340.238281 C 355.867188 339.8125 356 339.378906 356.089844 338.925781 C 356.179688 338.476562 356.226562 338.023438 356.226562 337.5625 L 356.226562 309.613281 C 356.226562 309.15625 356.179688 308.699219 356.089844 308.25 C 356 307.800781 355.867188 307.363281 355.691406 306.941406 C 355.515625 306.515625 355.300781 306.113281 355.046875 305.730469 C 354.792969 305.351562 354.503906 304.996094 354.179688 304.671875 C 353.855469 304.347656 353.5 304.058594 353.121094 303.804688 C 352.738281 303.550781 352.335938 303.335938 351.910156 303.160156 C 351.488281 302.984375 351.050781 302.851562 350.601562 302.761719 C 350.152344 302.671875 349.695312 302.625 349.238281 302.625 Z M 300.324219 316.601562 L 314.300781 316.601562 L 314.300781 330.578125 L 300.324219 330.578125 Z M 342.25 330.578125 L 328.273438 330.578125 L 328.273438 316.601562 L 342.25 316.601562 Z M 342.25 330.578125 " fill-opacity="1" fill-rule="nonzero"/><path fill="#2e2f30" d="M 370.199219 302.625 L 426.101562 302.625 L 426.101562 316.601562 L 370.199219 316.601562 Z M 370.199219 302.625 " fill-opacity="1" fill-rule="nonzero"/><path fill="#2e2f30" d="M 370.199219 330.578125 L 384.175781 330.578125 L 384.175781 344.550781 L 370.199219 344.550781 Z M 370.199219 330.578125 " fill-opacity="1" fill-rule="nonzero"/><path fill="#2e2f30" d="M 398.148438 330.578125 L 426.101562 330.578125 L 426.101562 344.550781 L 398.148438 344.550781 Z M 398.148438 330.578125 " fill-opacity="1" fill-rule="nonzero"/><path fill="#2e2f30" d="M 409.230469 225.765625 L 310.207031 225.765625 L 298.277344 213.835938 L 288.398438 223.71875 L 302.371094 237.691406 C 303.027344 238.347656 303.78125 238.851562 304.636719 239.207031 C 305.496094 239.5625 306.386719 239.738281 307.3125 239.738281 L 412.125 239.738281 C 413.050781 239.738281 413.941406 239.5625 414.796875 239.207031 C 415.65625 238.851562 416.410156 238.347656 417.066406 237.691406 L 431.039062 223.71875 L 421.160156 213.835938 Z M 409.230469 225.765625 " fill-opacity="1" fill-rule="nonzero"/><path fill="#2e2f30" d="M 409.230469 253.714844 L 310.207031 253.714844 L 298.277344 241.785156 L 288.398438 251.667969 L 302.371094 265.640625 C 303.027344 266.296875 303.78125 266.800781 304.636719 267.15625 C 305.496094 267.511719 306.386719 267.6875 307.3125 267.6875 L 412.125 267.6875 C 413.050781 267.6875 413.941406 267.511719 414.796875 267.15625 C 415.65625 266.800781 416.410156 266.296875 417.066406 265.640625 L 431.039062 251.667969 L 421.160156 241.785156 Z M 409.230469 253.714844 " fill-opacity="1" fill-rule="nonzero"/><path fill="#2e2f30" d="M 307.3125 211.789062 L 412.125 211.789062 C 413.050781 211.789062 413.941406 211.613281 414.796875 211.257812 C 415.65625 210.902344 416.410156 210.398438 417.066406 209.742188 L 431.039062 195.765625 L 421.160156 185.886719 L 409.230469 197.8125 L 310.207031 197.8125 L 298.277344 185.886719 L 288.398438 195.765625 L 302.371094 209.742188 C 303.027344 210.398438 303.78125 210.902344 304.636719 211.257812 C 305.496094 211.613281 306.386719 211.789062 307.3125 211.789062 Z M 307.3125 211.789062 " fill-opacity="1" fill-rule="nonzero"/><path fill="#15c2cf" d="M 293.335938 309.613281 L 349.238281 309.613281 L 349.238281 337.5625 L 293.335938 337.5625 Z M 293.335938 309.613281 " fill-opacity="1" fill-rule="nonzero"/><path fill="#89f4de" d="M 293.335938 309.613281 L 321.289062 309.613281 L 321.289062 337.5625 L 293.335938 337.5625 Z M 293.335938 309.613281 " fill-opacity="1" fill-rule="nonzero"/><path fill="#4f5153" d="M 565.851562 281.664062 L 502.960938 281.664062 L 502.960938 295.640625 L 551.875 295.640625 C 552.792969 295.640625 553.703125 295.730469 554.601562 295.90625 C 555.5 296.085938 556.375 296.351562 557.222656 296.703125 C 558.070312 297.054688 558.875 297.484375 559.640625 297.996094 C 560.402344 298.503906 561.109375 299.082031 561.757812 299.730469 C 562.40625 300.382812 562.984375 301.085938 563.496094 301.851562 C 564.003906 302.613281 564.433594 303.417969 564.785156 304.265625 C 565.136719 305.113281 565.402344 305.988281 565.582031 306.886719 C 565.761719 307.789062 565.851562 308.695312 565.851562 309.613281 L 565.851562 421.414062 L 579.824219 421.414062 L 579.824219 295.640625 C 579.824219 294.722656 579.734375 293.8125 579.554688 292.914062 C 579.378906 292.011719 579.113281 291.140625 578.761719 290.292969 C 578.410156 289.441406 577.980469 288.636719 577.46875 287.875 C 576.960938 287.113281 576.378906 286.40625 575.730469 285.757812 C 575.082031 285.109375 574.375 284.527344 573.613281 284.019531 C 572.851562 283.507812 572.046875 283.078125 571.199219 282.726562 C 570.351562 282.375 569.476562 282.113281 568.578125 281.933594 C 567.675781 281.753906 566.765625 281.664062 565.851562 281.664062 Z M 565.851562 281.664062 " fill-opacity="1" fill-rule="nonzero"/><path fill="#b2b4b6" d="M 621.75 323.589844 L 621.75 281.664062 C 621.75 280.292969 621.683594 278.921875 621.546875 277.554688 C 621.414062 276.1875 621.210938 274.832031 620.945312 273.484375 C 620.675781 272.136719 620.34375 270.808594 619.945312 269.492188 C 619.546875 268.179688 619.082031 266.890625 618.558594 265.621094 C 618.03125 264.351562 617.445312 263.113281 616.800781 261.902344 C 616.152344 260.691406 615.445312 259.511719 614.683594 258.371094 C 613.921875 257.230469 613.105469 256.128906 612.234375 255.066406 C 611.363281 254.003906 610.441406 252.988281 609.46875 252.019531 C 608.5 251.046875 607.484375 250.125 606.421875 249.253906 C 605.359375 248.382812 604.257812 247.566406 603.117188 246.804688 C 601.976562 246.042969 600.800781 245.335938 599.589844 244.691406 C 598.378906 244.042969 597.136719 243.457031 595.867188 242.929688 C 594.601562 242.40625 593.308594 241.941406 591.996094 241.542969 C 590.679688 241.144531 589.351562 240.8125 588.003906 240.542969 C 586.65625 240.277344 585.300781 240.074219 583.933594 239.941406 C 582.566406 239.804688 581.199219 239.738281 579.824219 239.738281 L 502.960938 239.738281 L 502.960938 253.714844 L 579.824219 253.714844 C 580.742188 253.714844 581.652344 253.757812 582.5625 253.847656 C 583.476562 253.9375 584.378906 254.074219 585.277344 254.25 C 586.175781 254.429688 587.0625 254.652344 587.9375 254.917969 C 588.8125 255.183594 589.675781 255.492188 590.519531 255.839844 C 591.367188 256.191406 592.191406 256.582031 593 257.015625 C 593.808594 257.445312 594.59375 257.914062 595.351562 258.425781 C 596.113281 258.933594 596.847656 259.476562 597.554688 260.058594 C 598.265625 260.640625 598.941406 261.253906 599.589844 261.902344 C 600.234375 262.546875 600.851562 263.226562 601.429688 263.933594 C 602.011719 264.640625 602.554688 265.375 603.0625 266.136719 C 603.574219 266.898438 604.042969 267.679688 604.472656 268.488281 C 604.90625 269.296875 605.296875 270.121094 605.648438 270.96875 C 605.996094 271.8125 606.304688 272.675781 606.570312 273.550781 C 606.835938 274.425781 607.058594 275.3125 607.238281 276.210938 C 607.417969 277.109375 607.550781 278.011719 607.640625 278.925781 C 607.730469 279.835938 607.773438 280.75 607.773438 281.664062 L 607.773438 421.414062 L 621.75 421.414062 Z M 621.75 323.589844 " fill-opacity="1" fill-rule="nonzero"/><g clip-path="url(#171016c837)"><path fill="#fc9a03" d="M 544.886719 421.414062 L 642.710938 421.414062 L 642.710938 449.363281 L 544.886719 449.363281 Z M 544.886719 421.414062 " fill-opacity="1" fill-rule="nonzero"/></g><g clip-path="url(#a38b02fdb6)"><path fill="#fcba12" d="M 544.886719 323.589844 L 642.710938 323.589844 L 642.710938 351.539062 L 544.886719 351.539062 Z M 544.886719 323.589844 " fill-opacity="1" fill-rule="nonzero"/></g><path fill="#fde348" d="M 544.886719 323.589844 L 544.886719 344.550781 L 628.738281 344.550781 C 629.195312 344.550781 629.652344 344.507812 630.101562 344.417969 C 630.550781 344.328125 630.988281 344.195312 631.410156 344.019531 C 631.835938 343.84375 632.238281 343.628906 632.621094 343.375 C 633 343.117188 633.355469 342.828125 633.679688 342.503906 C 634.003906 342.179688 634.292969 341.828125 634.546875 341.445312 C 634.800781 341.066406 635.015625 340.660156 635.191406 340.238281 C 635.367188 339.8125 635.5 339.378906 635.589844 338.925781 C 635.679688 338.476562 635.726562 338.023438 635.726562 337.5625 L 635.726562 323.589844 Z M 544.886719 323.589844 " fill-opacity="1" fill-rule="nonzero"/><path fill="#fcfd76" d="M 628.738281 323.589844 L 544.886719 323.589844 L 544.886719 337.5625 L 621.75 337.5625 C 622.207031 337.5625 622.664062 337.519531 623.113281 337.429688 C 623.5625 337.339844 624 337.207031 624.421875 337.03125 C 624.847656 336.855469 625.25 336.640625 625.632812 336.386719 C 626.011719 336.132812 626.367188 335.84375 626.691406 335.515625 C 627.015625 335.191406 627.304688 334.839844 627.558594 334.457031 C 627.816406 334.078125 628.03125 333.675781 628.207031 333.25 C 628.382812 332.828125 628.511719 332.390625 628.601562 331.941406 C 628.691406 331.488281 628.738281 331.035156 628.738281 330.578125 Z M 628.738281 323.589844 " fill-opacity="1" fill-rule="nonzero"/><path fill="#fde348" d="M 300.324219 141.914062 L 300.324219 162.875 L 384.175781 162.875 C 384.632812 162.875 385.089844 162.832031 385.539062 162.742188 C 385.988281 162.652344 386.425781 162.519531 386.847656 162.34375 C 387.273438 162.167969 387.675781 161.953125 388.058594 161.699219 C 388.4375 161.445312 388.792969 161.15625 389.117188 160.828125 C 389.441406 160.503906 389.730469 160.152344 389.984375 159.769531 C 390.238281 159.390625 390.453125 158.988281 390.628906 158.5625 C 390.804688 158.140625 390.9375 157.703125 391.027344 157.253906 C 391.117188 156.800781 391.164062 156.347656 391.164062 155.890625 L 391.164062 141.914062 Z M 300.324219 141.914062 " fill-opacity="1" fill-rule="nonzero"/><path fill="#fcfd76" d="M 384.175781 141.914062 L 300.324219 141.914062 L 300.324219 155.890625 L 377.1875 155.890625 C 377.644531 155.890625 378.101562 155.84375 378.550781 155.753906 C 379 155.664062 379.4375 155.53125 379.859375 155.355469 C 380.285156 155.183594 380.6875 154.964844 381.070312 154.710938 C 381.449219 154.457031 381.804688 154.167969 382.128906 153.84375 C 382.453125 153.519531 382.742188 153.164062 382.996094 152.785156 C 383.253906 152.402344 383.46875 152 383.644531 151.574219 C 383.820312 151.152344 383.949219 150.714844 384.039062 150.265625 C 384.128906 149.816406 384.175781 149.359375 384.175781 148.902344 Z M 384.175781 141.914062 " fill-opacity="1" fill-rule="nonzero"/><g clip-path="url(#8901185433)"><path fill="#fde348" d="M 300.324219 30.113281 L 300.324219 51.078125 L 384.175781 51.078125 C 384.632812 51.078125 385.089844 51.03125 385.539062 50.941406 C 385.988281 50.851562 386.425781 50.71875 386.847656 50.542969 C 387.273438 50.371094 387.675781 50.152344 388.058594 49.898438 C 388.4375 49.644531 388.792969 49.355469 389.117188 49.03125 C 389.441406 48.707031 389.730469 48.351562 389.984375 47.972656 C 390.238281 47.589844 390.453125 47.1875 390.628906 46.761719 C 390.804688 46.339844 390.9375 45.902344 391.027344 45.453125 C 391.117188 45.003906 391.164062 44.546875 391.164062 44.089844 L 391.164062 30.113281 Z M 300.324219 30.113281 " fill-opacity="1" fill-rule="nonzero"/></g><g clip-path="url(#615ab7631c)"><path fill="#fcfd76" d="M 384.175781 30.113281 L 300.324219 30.113281 L 300.324219 44.089844 L 377.1875 44.089844 C 377.644531 44.089844 378.101562 44.042969 378.550781 43.953125 C 379 43.867188 379.4375 43.734375 379.859375 43.558594 C 380.285156 43.382812 380.6875 43.167969 381.070312 42.910156 C 381.449219 42.65625 381.804688 42.367188 382.128906 42.042969 C 382.453125 41.71875 382.742188 41.363281 382.996094 40.984375 C 383.253906 40.601562 383.46875 40.199219 383.644531 39.777344 C 383.820312 39.351562 383.949219 38.914062 384.039062 38.464844 C 384.128906 38.015625 384.175781 37.558594 384.175781 37.101562 Z M 384.175781 30.113281 " fill-opacity="1" fill-rule="nonzero"/></g><path fill="#fcba12" d="M 544.886719 421.414062 L 544.886719 442.375 L 628.738281 442.375 C 629.195312 442.375 629.652344 442.332031 630.101562 442.242188 C 630.550781 442.152344 630.988281 442.019531 631.410156 441.84375 C 631.835938 441.667969 632.238281 441.453125 632.621094 441.199219 C 633 440.945312 633.355469 440.65625 633.679688 440.328125 C 634.003906 440.003906 634.292969 439.652344 634.546875 439.269531 C 634.800781 438.890625 635.015625 438.488281 635.191406 438.0625 C 635.367188 437.640625 635.5 437.203125 635.589844 436.753906 C 635.679688 436.300781 635.726562 435.847656 635.726562 435.390625 L 635.726562 421.414062 Z M 544.886719 421.414062 " fill-opacity="1" fill-rule="nonzero"/><path fill="#fde348" d="M 628.738281 421.414062 L 544.886719 421.414062 L 544.886719 435.390625 L 621.75 435.390625 C 622.207031 435.390625 622.664062 435.34375 623.113281 435.253906 C 623.5625 435.164062 624 435.03125 624.421875 434.855469 C 624.847656 434.679688 625.25 434.464844 625.632812 434.210938 C 626.011719 433.957031 626.367188 433.667969 626.691406 433.34375 C 627.015625 433.019531 627.304688 432.664062 627.558594 432.285156 C 627.816406 431.902344 628.03125 431.5 628.207031 431.074219 C 628.382812 430.652344 628.511719 430.214844 628.601562 429.765625 C 628.691406 429.316406 628.738281 428.859375 628.738281 428.402344 Z M 628.738281 421.414062 " fill-opacity="1" fill-rule="nonzero"/><path fill="#fcba12" d="M 447.0625 197.8125 L 461.039062 197.8125 L 461.039062 337.5625 L 447.0625 337.5625 Z M 447.0625 197.8125 " fill-opacity="1" fill-rule="nonzero"/><path fill="#fde348" d="M 475.011719 225.765625 L 502.960938 225.765625 L 502.960938 281.664062 L 475.011719 281.664062 Z M 475.011719 225.765625 " fill-opacity="1" fill-rule="nonzero"/><path fill="#fcfd76" d="M 475.011719 225.765625 L 502.960938 225.765625 L 502.960938 253.714844 L 475.011719 253.714844 Z M 475.011719 225.765625 " fill-opacity="1" fill-rule="nonzero"/><path fill="#b2b4b6" d="M 321.289062 58.0625 L 321.289062 127.9375 L 356.226562 127.9375 C 356.683594 127.9375 357.136719 127.894531 357.589844 127.804688 C 358.039062 127.714844 358.476562 127.582031 358.898438 127.40625 C 359.324219 127.230469 359.726562 127.015625 360.105469 126.761719 C 360.488281 126.507812 360.839844 126.21875 361.164062 125.890625 C 361.488281 125.566406 361.78125 125.214844 362.035156 124.832031 C 362.289062 124.453125 362.503906 124.050781 362.679688 123.625 C 362.855469 123.203125 362.988281 122.765625 363.078125 122.316406 C 363.167969 121.863281 363.210938 121.410156 363.210938 120.953125 L 363.210938 58.0625 Z M 321.289062 58.0625 " fill-opacity="1" fill-rule="nonzero"/><path fill="#d6d8da" d="M 321.289062 58.0625 L 321.289062 113.964844 L 342.25 113.964844 C 342.707031 113.964844 343.164062 113.917969 343.613281 113.828125 C 344.0625 113.742188 344.5 113.609375 344.921875 113.433594 C 345.347656 113.257812 345.75 113.042969 346.132812 112.785156 C 346.511719 112.53125 346.867188 112.242188 347.191406 111.917969 C 347.515625 111.59375 347.804688 111.238281 348.058594 110.859375 C 348.316406 110.476562 348.53125 110.074219 348.707031 109.652344 C 348.882812 109.226562 349.011719 108.789062 349.101562 108.339844 C 349.191406 107.890625 349.238281 107.433594 349.238281 106.976562 L 349.238281 58.0625 Z M 321.289062 58.0625 " fill-opacity="1" fill-rule="nonzero"/><g clip-path="url(#0a063f4b3e)"><path fill="#858789" d="M 223.460938 407.4375 L 454.050781 407.4375 L 454.050781 421.414062 C 454.050781 421.871094 454.003906 422.328125 453.914062 422.777344 C 453.824219 423.226562 453.695312 423.664062 453.519531 424.089844 C 453.34375 424.511719 453.128906 424.914062 452.871094 425.296875 C 452.617188 425.675781 452.328125 426.03125 452.003906 426.355469 C 451.679688 426.679688 451.324219 426.96875 450.945312 427.222656 C 450.5625 427.480469 450.160156 427.695312 449.734375 427.871094 C 449.3125 428.046875 448.875 428.179688 448.425781 428.265625 C 447.976562 428.355469 447.519531 428.402344 447.0625 428.402344 L 223.460938 428.402344 Z M 223.460938 407.4375 " fill-opacity="1" fill-rule="nonzero"/></g><path fill="#4f5153" d="M 251.414062 407.4375 L 454.050781 407.4375 L 447.0625 386.476562 L 258.398438 386.476562 Z M 251.414062 407.4375 " fill-opacity="1" fill-rule="nonzero"/><g fill="#e30523" fill-opacity="1"><g transform="translate(248.009406, 630.443962)"><g><path d="M 53.953125 -13.015625 L 23.09375 -13.015625 L 17.953125 0 L -0.5 0 L 29.953125 -70.609375 L 48.40625 -70.609375 L 78.171875 0 L 59 0 Z M 48.71875 -26.625 L 38.625 -52.75 L 28.34375 -26.625 Z M 48.71875 -26.625 "/></g></g></g><g fill="#e30523" fill-opacity="1"><g transform="translate(325.670571, 630.443962)"><g><path d="M 58.90625 -54.359375 L 58.90625 -4.9375 C 58.90625 2.726562 56.195312 8.84375 50.78125 13.40625 C 45.363281 17.976562 38.253906 20.265625 29.453125 20.265625 C 20.441406 20.265625 12.375 17.878906 5.25 13.109375 L 11.296875 1.3125 C 16.535156 4.9375 22.148438 6.75 28.140625 6.75 C 32.304688 6.75 35.582031 5.738281 37.96875 3.71875 C 40.351562 1.707031 41.546875 -1.007812 41.546875 -4.4375 L 41.546875 -10.1875 C 37.847656 -5.34375 32.640625 -2.921875 25.921875 -2.921875 C 18.992188 -2.921875 13.359375 -5.34375 9.015625 -10.1875 C 4.679688 -15.03125 2.515625 -21.382812 2.515625 -29.25 C 2.515625 -36.914062 4.632812 -43.117188 8.875 -47.859375 C 13.113281 -52.597656 18.660156 -54.96875 25.515625 -54.96875 C 32.441406 -55.03125 37.785156 -52.609375 41.546875 -47.703125 L 41.546875 -54.359375 Z M 30.265625 -15.53125 C 33.617188 -15.53125 36.335938 -16.753906 38.421875 -19.203125 C 40.503906 -21.660156 41.546875 -24.84375 41.546875 -28.75 C 41.546875 -32.71875 40.503906 -35.925781 38.421875 -38.375 C 36.335938 -40.832031 33.617188 -42.0625 30.265625 -42.0625 C 26.828125 -42.0625 24.050781 -40.832031 21.9375 -38.375 C 19.820312 -35.925781 18.765625 -32.71875 18.765625 -28.75 C 18.765625 -24.84375 19.820312 -21.660156 21.9375 -19.203125 C 24.050781 -16.753906 26.828125 -15.53125 30.265625 -15.53125 Z M 30.265625 -15.53125 "/></g></g></g><g fill="#e30523" fill-opacity="1"><g transform="translate(390.926129, 630.443962)"><g><path d="M 59.90625 -54.359375 L 59.90625 0 L 42.46875 0 L 42.46875 -8.96875 C 38.769531 -2.519531 32.882812 0.703125 24.8125 0.703125 C 18.894531 0.703125 14.171875 -1.175781 10.640625 -4.9375 C 7.109375 -8.707031 5.34375 -13.753906 5.34375 -20.078125 L 5.34375 -54.359375 L 22.796875 -54.359375 L 22.796875 -25.015625 C 22.796875 -21.785156 23.617188 -19.242188 25.265625 -17.390625 C 26.910156 -15.546875 29.113281 -14.625 31.875 -14.625 C 35.164062 -14.6875 37.753906 -15.910156 39.640625 -18.296875 C 41.523438 -20.691406 42.46875 -23.769531 42.46875 -27.53125 L 42.46875 -54.359375 Z M 59.90625 -54.359375 "/></g></g></g><g fill="#e30523" fill-opacity="1"><g transform="translate(457.795403, 630.443962)"><g><path d="M 31.375 -55.171875 C 38.832031 -55.171875 44.628906 -53.4375 48.765625 -49.96875 C 52.898438 -46.507812 55 -41.6875 55.0625 -35.5 L 55.0625 0 L 38.03125 0 L 38.03125 -6.25 C 34.457031 -1.539062 28.90625 0.8125 21.375 0.8125 C 15.664062 0.8125 11.128906 -0.765625 7.765625 -3.921875 C 4.398438 -7.085938 2.71875 -11.191406 2.71875 -16.234375 C 2.71875 -21.410156 4.515625 -25.425781 8.109375 -28.28125 C 11.710938 -31.144531 16.875 -32.609375 23.59375 -32.671875 L 37.921875 -32.671875 L 37.921875 -33.484375 C 37.921875 -36.171875 37.03125 -38.269531 35.25 -39.78125 C 33.46875 -41.300781 30.828125 -42.0625 27.328125 -42.0625 C 22.421875 -42.0625 17.007812 -40.546875 11.09375 -37.515625 L 6.15625 -49.015625 C 14.957031 -53.117188 23.363281 -55.171875 31.375 -55.171875 Z M 26.734375 -11 C 29.484375 -11 31.898438 -11.6875 33.984375 -13.0625 C 36.066406 -14.4375 37.378906 -16.234375 37.921875 -18.453125 L 37.921875 -23.296875 L 26.921875 -23.296875 C 21.679688 -23.296875 19.0625 -21.347656 19.0625 -17.453125 C 19.0625 -15.429688 19.734375 -13.847656 21.078125 -12.703125 C 22.421875 -11.566406 24.304688 -11 26.734375 -11 Z M 26.734375 -11 "/></g></g></g><g fill="#e30523" fill-opacity="1"><g transform="translate(518.31062, 630.443962)"><g><path d="M 26.421875 -55.171875 C 34.421875 -55.171875 41.882812 -53.117188 48.8125 -49.015625 L 42.859375 -37.71875 C 36.140625 -41.351562 30.425781 -43.171875 25.71875 -43.171875 C 22.15625 -43.171875 20.375 -41.925781 20.375 -39.4375 C 20.375 -38.09375 21.347656 -36.96875 23.296875 -36.0625 C 25.242188 -35.15625 27.628906 -34.332031 30.453125 -33.59375 C 33.285156 -32.851562 36.09375 -31.925781 38.875 -30.8125 C 41.664062 -29.695312 44.035156 -27.929688 45.984375 -25.515625 C 47.941406 -23.097656 48.921875 -20.140625 48.921875 -16.640625 C 48.921875 -11.191406 46.800781 -6.9375 42.5625 -3.875 C 38.320312 -0.820312 32.804688 0.703125 26.015625 0.703125 C 16.398438 0.703125 8.265625 -1.847656 1.609375 -6.953125 L 7.15625 -18.046875 C 13.550781 -13.546875 19.972656 -11.296875 26.421875 -11.296875 C 30.390625 -11.296875 32.375 -12.539062 32.375 -15.03125 C 32.375 -16.4375 31.414062 -17.609375 29.5 -18.546875 C 27.582031 -19.492188 25.242188 -20.335938 22.484375 -21.078125 C 19.734375 -21.816406 16.976562 -22.738281 14.21875 -23.84375 C 11.46875 -24.957031 9.132812 -26.691406 7.21875 -29.046875 C 5.300781 -31.398438 4.34375 -34.359375 4.34375 -37.921875 C 4.34375 -43.367188 6.390625 -47.601562 10.484375 -50.625 C 14.585938 -53.65625 19.898438 -55.171875 26.421875 -55.171875 Z M 26.421875 -55.171875 "/></g></g></g><g fill="#e30523" fill-opacity="1"><g transform="translate(129.914381, 743.909742)"><g><path d="M 49.625 0 L 39.140625 -19.875 L 25.015625 -19.875 L 25.015625 0 L 7.0625 0 L 7.0625 -70.609375 L 38.625 -70.609375 C 47.976562 -70.609375 55.207031 -68.472656 60.3125 -64.203125 C 65.425781 -59.929688 67.984375 -53.859375 67.984375 -45.984375 C 67.984375 -35.097656 63.710938 -27.535156 55.171875 -23.296875 L 70 0 Z M 25.015625 -33.984375 L 38.625 -33.984375 C 42.53125 -33.984375 45.554688 -34.957031 47.703125 -36.90625 C 49.859375 -38.863281 50.9375 -41.691406 50.9375 -45.390625 C 50.9375 -49.015625 49.859375 -51.769531 47.703125 -53.65625 C 45.554688 -55.539062 42.53125 -56.484375 38.625 -56.484375 L 25.015625 -56.484375 Z M 25.015625 -33.984375 "/></g></g></g><g fill="#e30523" fill-opacity="1"><g transform="translate(202.936104, 743.909742)"><g><path d="M 30.765625 -54.96875 C 40.171875 -54.96875 47.242188 -52.078125 51.984375 -46.296875 C 56.734375 -40.515625 58.804688 -32.578125 58.203125 -22.484375 L 19.96875 -22.484375 C 20.84375 -19.265625 22.390625 -16.78125 24.609375 -15.03125 C 26.828125 -13.28125 29.550781 -12.40625 32.78125 -12.40625 C 37.757812 -12.40625 42.097656 -14.253906 45.796875 -17.953125 L 54.96875 -8.96875 C 49.113281 -2.582031 41.210938 0.609375 31.265625 0.609375 C 22.453125 0.609375 15.441406 -1.910156 10.234375 -6.953125 C 5.023438 -12.003906 2.421875 -18.695312 2.421875 -27.03125 C 2.421875 -35.4375 5.023438 -42.191406 10.234375 -47.296875 C 15.441406 -52.410156 22.285156 -54.96875 30.765625 -54.96875 Z M 19.671875 -31.875 L 41.453125 -31.875 C 41.453125 -35.164062 40.492188 -37.816406 38.578125 -39.828125 C 36.660156 -41.847656 34.125 -42.859375 30.96875 -42.859375 C 28.007812 -42.859375 25.519531 -41.867188 23.5 -39.890625 C 21.476562 -37.910156 20.203125 -35.238281 19.671875 -31.875 Z M 19.671875 -31.875 "/></g></g></g><g fill="#e30523" fill-opacity="1"><g transform="translate(263.653023, 743.909742)"><g><path d="M 26.421875 -55.171875 C 34.421875 -55.171875 41.882812 -53.117188 48.8125 -49.015625 L 42.859375 -37.71875 C 36.140625 -41.351562 30.425781 -43.171875 25.71875 -43.171875 C 22.15625 -43.171875 20.375 -41.925781 20.375 -39.4375 C 20.375 -38.09375 21.347656 -36.96875 23.296875 -36.0625 C 25.242188 -35.15625 27.628906 -34.332031 30.453125 -33.59375 C 33.285156 -32.851562 36.09375 -31.925781 38.875 -30.8125 C 41.664062 -29.695312 44.035156 -27.929688 45.984375 -25.515625 C 47.941406 -23.097656 48.921875 -20.140625 48.921875 -16.640625 C 48.921875 -11.191406 46.800781 -6.9375 42.5625 -3.875 C 38.320312 -0.820312 32.804688 0.703125 26.015625 0.703125 C 16.398438 0.703125 8.265625 -1.847656 1.609375 -6.953125 L 7.15625 -18.046875 C 13.550781 -13.546875 19.972656 -11.296875 26.421875 -11.296875 C 30.390625 -11.296875 32.375 -12.539062 32.375 -15.03125 C 32.375 -16.4375 31.414062 -17.609375 29.5 -18.546875 C 27.582031 -19.492188 25.242188 -20.335938 22.484375 -21.078125 C 19.734375 -21.816406 16.976562 -22.738281 14.21875 -23.84375 C 11.46875 -24.957031 9.132812 -26.691406 7.21875 -29.046875 C 5.300781 -31.398438 4.34375 -34.359375 4.34375 -37.921875 C 4.34375 -43.367188 6.390625 -47.601562 10.484375 -50.625 C 14.585938 -53.65625 19.898438 -55.171875 26.421875 -55.171875 Z M 26.421875 -55.171875 "/></g></g></g><g fill="#e30523" fill-opacity="1"><g transform="translate(315.393564, 743.909742)"><g><path d="M 9.125 -76.59375 C 10.84375 -78.3125 13.046875 -79.171875 15.734375 -79.171875 C 18.421875 -79.171875 20.617188 -78.3125 22.328125 -76.59375 C 24.046875 -74.882812 24.90625 -72.6875 24.90625 -70 C 24.90625 -67.3125 24.046875 -65.09375 22.328125 -63.34375 C 20.617188 -61.59375 18.421875 -60.71875 15.734375 -60.71875 C 13.046875 -60.71875 10.84375 -61.59375 9.125 -63.34375 C 7.414062 -65.09375 6.5625 -67.3125 6.5625 -70 C 6.5625 -72.6875 7.414062 -74.882812 9.125 -76.59375 Z M 24.3125 0 L 6.953125 0 L 6.953125 -54.359375 L 24.3125 -54.359375 Z M 24.3125 0 "/></g></g></g><g fill="#e30523" fill-opacity="1"><g transform="translate(346.760631, 743.909742)"><g><path d="M 61.71875 -74.84375 L 61.71875 0 L 44.28125 0 L 44.28125 -7.15625 C 40.3125 -1.914062 34.863281 0.703125 27.9375 0.703125 C 20.269531 0.703125 14.113281 -1.882812 9.46875 -7.0625 C 4.832031 -12.238281 2.515625 -19.03125 2.515625 -27.4375 C 2.515625 -35.769531 4.800781 -42.457031 9.375 -47.5 C 13.945312 -52.539062 20 -55.0625 27.53125 -55.0625 C 34.726562 -55.0625 40.3125 -52.441406 44.28125 -47.203125 L 44.28125 -74.84375 Z M 23.40625 -16.734375 C 25.625 -14.117188 28.546875 -12.8125 32.171875 -12.8125 C 35.804688 -12.8125 38.734375 -14.117188 40.953125 -16.734375 C 43.171875 -19.359375 44.28125 -22.789062 44.28125 -27.03125 C 44.28125 -31.195312 43.171875 -34.59375 40.953125 -37.21875 C 38.734375 -39.84375 35.804688 -41.15625 32.171875 -41.15625 C 28.546875 -41.15625 25.625 -39.859375 23.40625 -37.265625 C 21.1875 -34.679688 20.039062 -31.269531 19.96875 -27.03125 C 20.039062 -22.789062 21.1875 -19.359375 23.40625 -16.734375 Z M 23.40625 -16.734375 "/></g></g></g><g fill="#e30523" fill-opacity="1"><g transform="translate(415.949721, 743.909742)"><g><path d="M 59.90625 -54.359375 L 59.90625 0 L 42.46875 0 L 42.46875 -8.96875 C 38.769531 -2.519531 32.882812 0.703125 24.8125 0.703125 C 18.894531 0.703125 14.171875 -1.175781 10.640625 -4.9375 C 7.109375 -8.707031 5.34375 -13.753906 5.34375 -20.078125 L 5.34375 -54.359375 L 22.796875 -54.359375 L 22.796875 -25.015625 C 22.796875 -21.785156 23.617188 -19.242188 25.265625 -17.390625 C 26.910156 -15.546875 29.113281 -14.625 31.875 -14.625 C 35.164062 -14.6875 37.753906 -15.910156 39.640625 -18.296875 C 41.523438 -20.691406 42.46875 -23.769531 42.46875 -27.53125 L 42.46875 -54.359375 Z M 59.90625 -54.359375 "/></g></g></g><g fill="#e30523" fill-opacity="1"><g transform="translate(482.818994, 743.909742)"><g><path d="M 31.375 -55.171875 C 38.832031 -55.171875 44.628906 -53.4375 48.765625 -49.96875 C 52.898438 -46.507812 55 -41.6875 55.0625 -35.5 L 55.0625 0 L 38.03125 0 L 38.03125 -6.25 C 34.457031 -1.539062 28.90625 0.8125 21.375 0.8125 C 15.664062 0.8125 11.128906 -0.765625 7.765625 -3.921875 C 4.398438 -7.085938 2.71875 -11.191406 2.71875 -16.234375 C 2.71875 -21.410156 4.515625 -25.425781 8.109375 -28.28125 C 11.710938 -31.144531 16.875 -32.609375 23.59375 -32.671875 L 37.921875 -32.671875 L 37.921875 -33.484375 C 37.921875 -36.171875 37.03125 -38.269531 35.25 -39.78125 C 33.46875 -41.300781 30.828125 -42.0625 27.328125 -42.0625 C 22.421875 -42.0625 17.007812 -40.546875 11.09375 -37.515625 L 6.15625 -49.015625 C 14.957031 -53.117188 23.363281 -55.171875 31.375 -55.171875 Z M 26.734375 -11 C 29.484375 -11 31.898438 -11.6875 33.984375 -13.0625 C 36.066406 -14.4375 37.378906 -16.234375 37.921875 -18.453125 L 37.921875 -23.296875 L 26.921875 -23.296875 C 21.679688 -23.296875 19.0625 -21.347656 19.0625 -17.453125 C 19.0625 -15.429688 19.734375 -13.847656 21.078125 -12.703125 C 22.421875 -11.566406 24.304688 -11 26.734375 -11 Z M 26.734375 -11 "/></g></g></g><g fill="#e30523" fill-opacity="1"><g transform="translate(543.334211, 743.909742)"><g><path d="M 24.90625 0 L 7.46875 0 L 7.46875 -74.84375 L 24.90625 -74.84375 Z M 24.90625 0 "/></g></g></g><g fill="#e30523" fill-opacity="1"><g transform="translate(575.709886, 743.909742)"><g><path d="M 30.765625 -54.96875 C 40.171875 -54.96875 47.242188 -52.078125 51.984375 -46.296875 C 56.734375 -40.515625 58.804688 -32.578125 58.203125 -22.484375 L 19.96875 -22.484375 C 20.84375 -19.265625 22.390625 -16.78125 24.609375 -15.03125 C 26.828125 -13.28125 29.550781 -12.40625 32.78125 -12.40625 C 37.757812 -12.40625 42.097656 -14.253906 45.796875 -17.953125 L 54.96875 -8.96875 C 49.113281 -2.582031 41.210938 0.609375 31.265625 0.609375 C 22.453125 0.609375 15.441406 -1.910156 10.234375 -6.953125 C 5.023438 -12.003906 2.421875 -18.695312 2.421875 -27.03125 C 2.421875 -35.4375 5.023438 -42.191406 10.234375 -47.296875 C 15.441406 -52.410156 22.285156 -54.96875 30.765625 -54.96875 Z M 19.671875 -31.875 L 41.453125 -31.875 C 41.453125 -35.164062 40.492188 -37.816406 38.578125 -39.828125 C 36.660156 -41.847656 34.125 -42.859375 30.96875 -42.859375 C 28.007812 -42.859375 25.519531 -41.867188 23.5 -39.890625 C 21.476562 -37.910156 20.203125 -35.238281 19.671875 -31.875 Z M 19.671875 -31.875 "/></g></g></g><g fill="#e30523" fill-opacity="1"><g transform="translate(636.426805, 743.909742)"><g><path d="M 26.421875 -55.171875 C 34.421875 -55.171875 41.882812 -53.117188 48.8125 -49.015625 L 42.859375 -37.71875 C 36.140625 -41.351562 30.425781 -43.171875 25.71875 -43.171875 C 22.15625 -43.171875 20.375 -41.925781 20.375 -39.4375 C 20.375 -38.09375 21.347656 -36.96875 23.296875 -36.0625 C 25.242188 -35.15625 27.628906 -34.332031 30.453125 -33.59375 C 33.285156 -32.851562 36.09375 -31.925781 38.875 -30.8125 C 41.664062 -29.695312 44.035156 -27.929688 45.984375 -25.515625 C 47.941406 -23.097656 48.921875 -20.140625 48.921875 -16.640625 C 48.921875 -11.191406 46.800781 -6.9375 42.5625 -3.875 C 38.320312 -0.820312 32.804688 0.703125 26.015625 0.703125 C 16.398438 0.703125 8.265625 -1.847656 1.609375 -6.953125 L 7.15625 -18.046875 C 13.550781 -13.546875 19.972656 -11.296875 26.421875 -11.296875 C 30.390625 -11.296875 32.375 -12.539062 32.375 -15.03125 C 32.375 -16.4375 31.414062 -17.609375 29.5 -18.546875 C 27.582031 -19.492188 25.242188 -20.335938 22.484375 -21.078125 C 19.734375 -21.816406 16.976562 -22.738281 14.21875 -23.84375 C 11.46875 -24.957031 9.132812 -26.691406 7.21875 -29.046875 C 5.300781 -31.398438 4.34375 -34.359375 4.34375 -37.921875 C 4.34375 -43.367188 6.390625 -47.601562 10.484375 -50.625 C 14.585938 -53.65625 19.898438 -55.171875 26.421875 -55.171875 Z M 26.421875 -55.171875 "/></g></g></g></svg>