<svg xmlns="http://www.w3.org/2000/svg" xmlns:xlink="http://www.w3.org/1999/xlink" width="1080" zoomAndPan="magnify" viewBox="0 0 810 809.999993" height="1080" preserveAspectRatio="xMidYMid meet" version="1.0"><defs><g/><clipPath id="9319ba35b5"><path d="M 176 375 L 656.671875 375 L 656.671875 498.460938 L 176 498.460938 Z M 176 375 " clip-rule="nonzero"/></clipPath><clipPath id="815293555d"><path d="M 176 375 L 277 375 L 277 498.460938 L 176 498.460938 Z M 176 375 " clip-rule="nonzero"/></clipPath><clipPath id="f468fd75a9"><path d="M 171.792969 13.578125 L 656.671875 13.578125 L 656.671875 48 L 171.792969 48 Z M 171.792969 13.578125 " clip-rule="nonzero"/></clipPath></defs><g fill="#e30523" fill-opacity="1"><g transform="translate(149.536707, 638.793361)"><g><path d="M 53.234375 -12.84375 L 22.796875 -12.84375 L 17.71875 0 L -0.5 0 L 29.5625 -69.65625 L 47.765625 -69.65625 L 77.125 0 L 58.21875 0 Z M 48.0625 -26.265625 L 38.109375 -52.046875 L 27.96875 -26.265625 Z M 48.0625 -26.265625 "/></g></g></g><g fill="#e30523" fill-opacity="1"><g transform="translate(226.1588, 638.793361)"><g><path d="M 24.578125 0 L 7.359375 0 L 7.359375 -73.84375 L 24.578125 -73.84375 Z M 24.578125 0 "/></g></g></g><g fill="#e30523" fill-opacity="1"><g transform="translate(258.101303, 638.793361)"><g><path d="M 9 -75.578125 C 10.695312 -77.273438 12.867188 -78.125 15.515625 -78.125 C 18.171875 -78.125 20.34375 -77.273438 22.03125 -75.578125 C 23.726562 -73.890625 24.578125 -71.71875 24.578125 -69.0625 C 24.578125 -66.40625 23.726562 -64.210938 22.03125 -62.484375 C 20.34375 -60.765625 18.171875 -59.90625 15.515625 -59.90625 C 12.867188 -59.90625 10.695312 -60.765625 9 -62.484375 C 7.3125 -64.210938 6.46875 -66.40625 6.46875 -69.0625 C 6.46875 -71.71875 7.3125 -73.890625 9 -75.578125 Z M 23.984375 0 L 6.859375 0 L 6.859375 -53.640625 L 23.984375 -53.640625 Z M 23.984375 0 "/></g></g></g><g fill="#e30523" fill-opacity="1"><g transform="translate(289.048693, 638.793361)"><g><path d="M 78.515625 -54.4375 C 84.421875 -54.4375 89.113281 -52.5625 92.59375 -48.8125 C 96.082031 -45.0625 97.828125 -40.066406 97.828125 -33.828125 L 97.828125 0 L 80.703125 0 L 80.703125 -29.0625 C 80.703125 -32.238281 79.875 -34.738281 78.21875 -36.5625 C 76.5625 -38.394531 74.304688 -39.3125 71.453125 -39.3125 C 68.265625 -39.238281 65.722656 -38.023438 63.828125 -35.671875 C 61.941406 -33.316406 61 -30.285156 61 -26.578125 L 61 0 L 43.78125 0 L 43.78125 -29.0625 C 43.78125 -32.238281 42.96875 -34.738281 41.34375 -36.5625 C 39.71875 -38.394531 37.476562 -39.3125 34.625 -39.3125 C 31.375 -39.238281 28.785156 -38.007812 26.859375 -35.625 C 24.941406 -33.238281 23.984375 -30.222656 23.984375 -26.578125 L 23.984375 0 L 6.859375 0 L 6.859375 -53.640625 L 23.984375 -53.640625 L 23.984375 -44.78125 C 27.628906 -51.082031 33.535156 -54.300781 41.703125 -54.4375 C 46.015625 -54.4375 49.742188 -53.359375 52.890625 -51.203125 C 56.046875 -49.046875 58.285156 -46.078125 59.609375 -42.296875 C 63.128906 -50.253906 69.429688 -54.300781 78.515625 -54.4375 Z M 78.515625 -54.4375 "/></g></g></g><g fill="#e30523" fill-opacity="1"><g transform="translate(392.239811, 638.793361)"><g><path d="M 30.359375 -54.234375 C 39.640625 -54.234375 46.617188 -51.378906 51.296875 -45.671875 C 55.972656 -39.972656 58.015625 -32.144531 57.421875 -22.1875 L 19.703125 -22.1875 C 20.566406 -19.007812 22.09375 -16.554688 24.28125 -14.828125 C 26.46875 -13.097656 29.15625 -12.234375 32.34375 -12.234375 C 37.25 -12.234375 41.53125 -14.0625 45.1875 -17.71875 L 54.234375 -8.859375 C 48.460938 -2.554688 40.664062 0.59375 30.84375 0.59375 C 22.15625 0.59375 15.238281 -1.890625 10.09375 -6.859375 C 4.957031 -11.835938 2.390625 -18.441406 2.390625 -26.671875 C 2.390625 -34.960938 4.957031 -41.628906 10.09375 -46.671875 C 15.238281 -51.710938 21.992188 -54.234375 30.359375 -54.234375 Z M 19.40625 -31.453125 L 40.90625 -31.453125 C 40.90625 -34.703125 39.957031 -37.320312 38.0625 -39.3125 C 36.175781 -41.300781 33.671875 -42.296875 30.546875 -42.296875 C 27.628906 -42.296875 25.175781 -41.316406 23.1875 -39.359375 C 21.195312 -37.398438 19.9375 -34.765625 19.40625 -31.453125 Z M 19.40625 -31.453125 "/></g></g></g><g fill="#e30523" fill-opacity="1"><g transform="translate(452.144365, 638.793361)"><g><path d="M 42 -54.4375 C 47.90625 -54.4375 52.644531 -52.5625 56.21875 -48.8125 C 59.800781 -45.0625 61.59375 -40.066406 61.59375 -33.828125 L 61.59375 0 L 44.484375 0 L 44.484375 -29.0625 C 44.484375 -32.175781 43.632812 -34.644531 41.9375 -36.46875 C 40.25 -38.289062 37.945312 -39.203125 35.03125 -39.203125 C 31.976562 -39.203125 29.472656 -38.207031 27.515625 -36.21875 C 25.554688 -34.226562 24.410156 -31.609375 24.078125 -28.359375 L 24.078125 0 L 6.859375 0 L 6.859375 -53.640625 L 24.078125 -53.640625 L 24.078125 -44.875 C 27.859375 -51.113281 33.832031 -54.300781 42 -54.4375 Z M 42 -54.4375 "/></g></g></g><g fill="#e30523" fill-opacity="1"><g transform="translate(519.11407, 638.793361)"><g><path d="M 38.109375 -14.828125 L 41.5 -2.890625 C 37.320312 -0.429688 32.546875 0.796875 27.171875 0.796875 C 21.859375 0.796875 17.5625 -0.675781 14.28125 -3.625 C 11 -6.582031 9.359375 -10.78125 9.359375 -16.21875 L 9.359375 -39.90625 L 1.890625 -39.90625 L 1.890625 -51.15625 L 9.359375 -51.15625 L 9.359375 -66.078125 L 26.46875 -66.078125 L 26.46875 -51.25 L 40.5 -51.25 L 40.5 -39.90625 L 26.46875 -39.90625 L 26.46875 -18.90625 C 26.46875 -16.851562 26.878906 -15.34375 27.703125 -14.375 C 28.535156 -13.414062 29.785156 -12.96875 31.453125 -13.03125 C 33.035156 -13.03125 35.253906 -13.628906 38.109375 -14.828125 Z M 38.109375 -14.828125 "/></g></g></g><g fill="#e30523" fill-opacity="1"><g transform="translate(562.400539, 638.793361)"><g><path d="M 31.75 -54.234375 C 40.5 -54.234375 47.5625 -51.726562 52.9375 -46.71875 C 58.3125 -41.707031 61 -35.085938 61 -26.859375 C 61 -18.640625 58.3125 -12.007812 52.9375 -6.96875 C 47.5625 -1.925781 40.5 0.59375 31.75 0.59375 C 22.925781 0.59375 15.828125 -1.925781 10.453125 -6.96875 C 5.078125 -12.007812 2.390625 -18.640625 2.390625 -26.859375 C 2.390625 -35.085938 5.078125 -41.707031 10.453125 -46.71875 C 15.828125 -51.726562 22.925781 -54.234375 31.75 -54.234375 Z M 31.75 -40.609375 C 28.164062 -40.609375 25.257812 -39.3125 23.03125 -36.71875 C 20.8125 -34.132812 19.703125 -30.785156 19.703125 -26.671875 C 19.703125 -22.492188 20.8125 -19.125 23.03125 -16.5625 C 25.257812 -14.007812 28.164062 -12.734375 31.75 -12.734375 C 35.257812 -12.734375 38.125 -14.007812 40.34375 -16.5625 C 42.570312 -19.125 43.6875 -22.492188 43.6875 -26.671875 C 43.6875 -30.785156 42.570312 -34.132812 40.34375 -36.71875 C 38.125 -39.3125 35.257812 -40.609375 31.75 -40.609375 Z M 31.75 -40.609375 "/></g></g></g><g fill="#e30523" fill-opacity="1"><g transform="translate(625.787894, 638.793361)"><g><path d="M 26.078125 -54.4375 C 33.972656 -54.4375 41.335938 -52.410156 48.171875 -48.359375 L 42.296875 -37.21875 C 35.660156 -40.800781 30.019531 -42.59375 25.375 -42.59375 C 21.863281 -42.59375 20.109375 -41.363281 20.109375 -38.90625 C 20.109375 -37.582031 21.066406 -36.472656 22.984375 -35.578125 C 24.910156 -34.679688 27.265625 -33.867188 30.046875 -33.140625 C 32.835938 -32.410156 35.609375 -31.5 38.359375 -30.40625 C 41.117188 -29.3125 43.457031 -27.566406 45.375 -25.171875 C 47.300781 -22.785156 48.265625 -19.867188 48.265625 -16.421875 C 48.265625 -11.046875 46.171875 -6.847656 41.984375 -3.828125 C 37.804688 -0.804688 32.367188 0.703125 25.671875 0.703125 C 16.179688 0.703125 8.15625 -1.816406 1.59375 -6.859375 L 7.0625 -17.8125 C 13.363281 -13.363281 19.703125 -11.140625 26.078125 -11.140625 C 29.984375 -11.140625 31.9375 -12.367188 31.9375 -14.828125 C 31.9375 -16.222656 30.988281 -17.382812 29.09375 -18.3125 C 27.207031 -19.238281 24.90625 -20.066406 22.1875 -20.796875 C 19.46875 -21.523438 16.75 -22.4375 14.03125 -23.53125 C 11.3125 -24.625 9.003906 -26.332031 7.109375 -28.65625 C 5.222656 -30.976562 4.28125 -33.898438 4.28125 -37.421875 C 4.28125 -42.796875 6.300781 -46.972656 10.34375 -49.953125 C 14.394531 -52.941406 19.640625 -54.4375 26.078125 -54.4375 Z M 26.078125 -54.4375 "/></g></g></g><g fill="#e30523" fill-opacity="1"><g transform="translate(169.652301, 750.741019)"><g><path d="M 58.421875 -53.640625 L 35.234375 5.578125 C 31.242188 15.265625 24.34375 20.109375 14.53125 20.109375 C 8.820312 20.109375 3.613281 18.28125 -1.09375 14.625 L 6.078125 2.890625 C 8.460938 4.804688 10.816406 5.765625 13.140625 5.765625 C 16.191406 5.765625 18.410156 4.34375 19.796875 1.5 L 21.09375 -1.1875 L -1.1875 -53.640625 L 16.515625 -53.640625 L 29.65625 -18.015625 L 41.296875 -53.640625 Z M 58.421875 -53.640625 "/></g></g></g><g fill="#e30523" fill-opacity="1"><g transform="translate(227.367625, 750.741019)"><g/></g></g><g fill="#e30523" fill-opacity="1"><g transform="translate(250.453755, 750.741019)"><g><path d="M 40.609375 -54.234375 C 48.171875 -54.234375 54.253906 -51.695312 58.859375 -46.625 C 63.472656 -41.550781 65.78125 -34.867188 65.78125 -26.578125 C 65.78125 -18.410156 63.523438 -11.835938 59.015625 -6.859375 C 54.503906 -1.890625 48.5 0.59375 41 0.59375 C 33.96875 0.59375 28.492188 -1.992188 24.578125 -7.171875 L 24.578125 0 L 7.359375 0 L 7.359375 -73.84375 L 24.578125 -73.84375 L 24.578125 -46.578125 C 28.554688 -51.679688 33.898438 -54.234375 40.609375 -54.234375 Z M 36.421875 -13.03125 C 40.003906 -13.03125 42.90625 -14.335938 45.125 -16.953125 C 47.351562 -19.578125 48.46875 -22.945312 48.46875 -27.0625 C 48.46875 -31.175781 47.351562 -34.523438 45.125 -37.109375 C 42.90625 -39.703125 40.003906 -41 36.421875 -41 C 32.972656 -41 30.132812 -39.703125 27.90625 -37.109375 C 25.6875 -34.523438 24.578125 -31.175781 24.578125 -27.0625 C 24.578125 -22.882812 25.671875 -19.5 27.859375 -16.90625 C 30.046875 -14.320312 32.898438 -13.03125 36.421875 -13.03125 Z M 36.421875 -13.03125 "/></g></g></g><g fill="#e30523" fill-opacity="1"><g transform="translate(318.617577, 750.741019)"><g><path d="M 30.359375 -54.234375 C 39.640625 -54.234375 46.617188 -51.378906 51.296875 -45.671875 C 55.972656 -39.972656 58.015625 -32.144531 57.421875 -22.1875 L 19.703125 -22.1875 C 20.566406 -19.007812 22.09375 -16.554688 24.28125 -14.828125 C 26.46875 -13.097656 29.15625 -12.234375 32.34375 -12.234375 C 37.25 -12.234375 41.53125 -14.0625 45.1875 -17.71875 L 54.234375 -8.859375 C 48.460938 -2.554688 40.664062 0.59375 30.84375 0.59375 C 22.15625 0.59375 15.238281 -1.890625 10.09375 -6.859375 C 4.957031 -11.835938 2.390625 -18.441406 2.390625 -26.671875 C 2.390625 -34.960938 4.957031 -41.628906 10.09375 -46.671875 C 15.238281 -51.710938 21.992188 -54.234375 30.359375 -54.234375 Z M 19.40625 -31.453125 L 40.90625 -31.453125 C 40.90625 -34.703125 39.957031 -37.320312 38.0625 -39.3125 C 36.175781 -41.300781 33.671875 -42.296875 30.546875 -42.296875 C 27.628906 -42.296875 25.175781 -41.316406 23.1875 -39.359375 C 21.195312 -37.398438 19.9375 -34.765625 19.40625 -31.453125 Z M 19.40625 -31.453125 "/></g></g></g><g fill="#e30523" fill-opacity="1"><g transform="translate(378.522131, 750.741019)"><g><path d="M 40.609375 -54.234375 C 48.171875 -54.234375 54.253906 -51.695312 58.859375 -46.625 C 63.472656 -41.550781 65.78125 -34.867188 65.78125 -26.578125 C 65.78125 -18.410156 63.523438 -11.835938 59.015625 -6.859375 C 54.503906 -1.890625 48.5 0.59375 41 0.59375 C 33.96875 0.59375 28.492188 -1.992188 24.578125 -7.171875 L 24.578125 0 L 7.359375 0 L 7.359375 -73.84375 L 24.578125 -73.84375 L 24.578125 -46.578125 C 28.554688 -51.679688 33.898438 -54.234375 40.609375 -54.234375 Z M 36.421875 -13.03125 C 40.003906 -13.03125 42.90625 -14.335938 45.125 -16.953125 C 47.351562 -19.578125 48.46875 -22.945312 48.46875 -27.0625 C 48.46875 -31.175781 47.351562 -34.523438 45.125 -37.109375 C 42.90625 -39.703125 40.003906 -41 36.421875 -41 C 32.972656 -41 30.132812 -39.703125 27.90625 -37.109375 C 25.6875 -34.523438 24.578125 -31.175781 24.578125 -27.0625 C 24.578125 -22.882812 25.671875 -19.5 27.859375 -16.90625 C 30.046875 -14.320312 32.898438 -13.03125 36.421875 -13.03125 Z M 36.421875 -13.03125 "/></g></g></g><g fill="#e30523" fill-opacity="1"><g transform="translate(446.685952, 750.741019)"><g><path d="M 9 -75.578125 C 10.695312 -77.273438 12.867188 -78.125 15.515625 -78.125 C 18.171875 -78.125 20.34375 -77.273438 22.03125 -75.578125 C 23.726562 -73.890625 24.578125 -71.71875 24.578125 -69.0625 C 24.578125 -66.40625 23.726562 -64.210938 22.03125 -62.484375 C 20.34375 -60.765625 18.171875 -59.90625 15.515625 -59.90625 C 12.867188 -59.90625 10.695312 -60.765625 9 -62.484375 C 7.3125 -64.210938 6.46875 -66.40625 6.46875 -69.0625 C 6.46875 -71.71875 7.3125 -73.890625 9 -75.578125 Z M 23.984375 0 L 6.859375 0 L 6.859375 -53.640625 L 23.984375 -53.640625 Z M 23.984375 0 "/></g></g></g><g fill="#e30523" fill-opacity="1"><g transform="translate(477.633343, 750.741019)"><g><path d="M 60.90625 -73.84375 L 60.90625 0 L 43.6875 0 L 43.6875 -7.0625 C 39.769531 -1.882812 34.394531 0.703125 27.5625 0.703125 C 20 0.703125 13.925781 -1.847656 9.34375 -6.953125 C 4.769531 -12.066406 2.484375 -18.769531 2.484375 -27.0625 C 2.484375 -35.289062 4.738281 -41.890625 9.25 -46.859375 C 13.757812 -51.835938 19.734375 -54.328125 27.171875 -54.328125 C 34.265625 -54.328125 39.769531 -51.742188 43.6875 -46.578125 L 43.6875 -73.84375 Z M 23.078125 -16.515625 C 25.273438 -13.929688 28.164062 -12.640625 31.75 -12.640625 C 35.332031 -12.640625 38.21875 -13.929688 40.40625 -16.515625 C 42.59375 -19.109375 43.6875 -22.492188 43.6875 -26.671875 C 43.6875 -30.785156 42.59375 -34.132812 40.40625 -36.71875 C 38.21875 -39.3125 35.332031 -40.609375 31.75 -40.609375 C 28.164062 -40.609375 25.273438 -39.328125 23.078125 -36.765625 C 20.890625 -34.210938 19.765625 -30.847656 19.703125 -26.671875 C 19.765625 -22.492188 20.890625 -19.109375 23.078125 -16.515625 Z M 23.078125 -16.515625 "/></g></g></g><g fill="#e30523" fill-opacity="1"><g transform="translate(545.896713, 750.741019)"><g><path d="M 30.953125 -54.4375 C 38.316406 -54.4375 44.035156 -52.726562 48.109375 -49.3125 C 52.191406 -45.894531 54.265625 -41.132812 54.328125 -35.03125 L 54.328125 0 L 37.515625 0 L 37.515625 -6.171875 C 34.003906 -1.523438 28.53125 0.796875 21.09375 0.796875 C 15.457031 0.796875 10.976562 -0.757812 7.65625 -3.875 C 4.34375 -7 2.6875 -11.046875 2.6875 -16.015625 C 2.6875 -21.128906 4.457031 -25.09375 8 -27.90625 C 11.550781 -30.726562 16.644531 -32.175781 23.28125 -32.25 L 37.421875 -32.25 L 37.421875 -33.046875 C 37.421875 -35.691406 36.539062 -37.757812 34.78125 -39.25 C 33.019531 -40.75 30.414062 -41.5 26.96875 -41.5 C 22.125 -41.5 16.785156 -40.003906 10.953125 -37.015625 L 6.078125 -48.359375 C 14.765625 -52.410156 23.054688 -54.4375 30.953125 -54.4375 Z M 26.375 -10.84375 C 29.09375 -10.84375 31.476562 -11.519531 33.53125 -12.875 C 35.59375 -14.238281 36.890625 -16.019531 37.421875 -18.21875 L 37.421875 -22.984375 L 26.578125 -22.984375 C 21.398438 -22.984375 18.8125 -21.0625 18.8125 -17.21875 C 18.8125 -15.226562 19.472656 -13.664062 20.796875 -12.53125 C 22.128906 -11.40625 23.988281 -10.84375 26.375 -10.84375 Z M 26.375 -10.84375 "/></g></g></g><g fill="#e30523" fill-opacity="1"><g transform="translate(605.602264, 750.741019)"><g><path d="M 26.078125 -54.4375 C 33.972656 -54.4375 41.335938 -52.410156 48.171875 -48.359375 L 42.296875 -37.21875 C 35.660156 -40.800781 30.019531 -42.59375 25.375 -42.59375 C 21.863281 -42.59375 20.109375 -41.363281 20.109375 -38.90625 C 20.109375 -37.582031 21.066406 -36.472656 22.984375 -35.578125 C 24.910156 -34.679688 27.265625 -33.867188 30.046875 -33.140625 C 32.835938 -32.410156 35.609375 -31.5 38.359375 -30.40625 C 41.117188 -29.3125 43.457031 -27.566406 45.375 -25.171875 C 47.300781 -22.785156 48.265625 -19.867188 48.265625 -16.421875 C 48.265625 -11.046875 46.171875 -6.847656 41.984375 -3.828125 C 37.804688 -0.804688 32.367188 0.703125 25.671875 0.703125 C 16.179688 0.703125 8.15625 -1.816406 1.59375 -6.859375 L 7.0625 -17.8125 C 13.363281 -13.363281 19.703125 -11.140625 26.078125 -11.140625 C 29.984375 -11.140625 31.9375 -12.367188 31.9375 -14.828125 C 31.9375 -16.222656 30.988281 -17.382812 29.09375 -18.3125 C 27.207031 -19.238281 24.90625 -20.066406 22.1875 -20.796875 C 19.46875 -21.523438 16.75 -22.4375 14.03125 -23.53125 C 11.3125 -24.625 9.003906 -26.332031 7.109375 -28.65625 C 5.222656 -30.976562 4.28125 -33.898438 4.28125 -37.421875 C 4.28125 -42.796875 6.300781 -46.972656 10.34375 -49.953125 C 14.394531 -52.941406 19.640625 -54.4375 26.078125 -54.4375 Z M 26.078125 -54.4375 "/></g></g></g><path fill="#808080" d="M 439.300781 108.566406 L 364.273438 108.566406 C 360.199219 108.566406 356.898438 105.265625 356.898438 101.191406 C 356.898438 97.117188 360.199219 93.820312 364.273438 93.820312 L 439.300781 93.820312 C 441 93.820312 442.433594 92.382812 442.433594 90.679688 L 442.433594 47.730469 C 442.433594 43.660156 445.738281 40.359375 449.8125 40.359375 C 453.882812 40.359375 457.183594 43.660156 457.183594 47.730469 L 457.183594 90.679688 C 457.183594 100.542969 449.164062 108.566406 439.300781 108.566406 Z M 439.300781 108.566406 " fill-opacity="1" fill-rule="nonzero"/><path fill="#e8e8e8" d="M 332.914062 123.148438 L 364.273438 123.148438 L 364.273438 76.910156 L 348.589844 62.308594 L 332.914062 76.910156 Z M 332.914062 123.148438 " fill-opacity="1" fill-rule="evenodd"/><path fill="#cccccc" d="M 332.914062 76.910156 L 350.445312 76.910156 L 350.445312 123.148438 L 332.914062 123.148438 Z M 332.914062 76.910156 " fill-opacity="1" fill-rule="evenodd"/><path fill="#e8e8e8" d="M 331.113281 220.496094 L 345.414062 230.78125 L 359.679688 220.496094 L 359.679688 185.238281 L 343.972656 177.742188 L 331.113281 185.238281 Z M 331.113281 220.496094 " fill-opacity="1" fill-rule="evenodd"/><path fill="#cccccc" d="M 331.113281 185.238281 L 346.683594 185.238281 L 346.683594 220.496094 L 331.113281 220.496094 Z M 331.113281 185.238281 " fill-opacity="1" fill-rule="evenodd"/><path fill="#808080" d="M 331.113281 185.238281 L 364.824219 185.238281 C 367.039062 185.238281 368.835938 183.4375 368.835938 181.226562 L 368.835938 162.449219 C 368.835938 160.238281 367.039062 158.4375 364.824219 158.4375 L 327.710938 158.4375 C 325.5 158.4375 323.699219 160.238281 323.699219 162.449219 L 323.699219 181.226562 C 323.699219 183.4375 325.5 185.238281 327.710938 185.238281 Z M 331.113281 185.238281 " fill-opacity="1" fill-rule="evenodd"/><path fill="#525252" d="M 327.714844 185.238281 L 343.253906 185.238281 C 341.042969 185.238281 339.246094 183.4375 339.246094 181.226562 L 339.246094 162.449219 C 339.246094 160.238281 341.042969 158.4375 343.253906 158.4375 L 327.714844 158.4375 C 325.5 158.4375 323.703125 160.238281 323.703125 162.449219 L 323.703125 181.226562 C 323.699219 183.4375 325.5 185.238281 327.714844 185.238281 Z M 327.714844 185.238281 " fill-opacity="1" fill-rule="evenodd"/><path fill="#fa6969" d="M 306.28125 263.804688 L 343.417969 281.363281 L 384.515625 263.804688 L 384.515625 255.78125 C 384.515625 236.566406 365.351562 221.65625 359.679688 220.496094 L 331.113281 220.496094 C 325.445312 221.65625 306.28125 236.566406 306.28125 255.78125 Z M 306.28125 263.804688 " fill-opacity="1" fill-rule="evenodd"/><path fill="#fa6969" d="M 346.265625 393.34375 L 384.515625 375.171875 L 384.515625 339.328125 L 342.894531 320.746094 L 306.28125 339.328125 L 306.28125 375.171875 Z M 346.265625 393.34375 " fill-opacity="1" fill-rule="evenodd"/><path fill="#d0ffb5" d="M 306.28125 263.804688 L 384.515625 263.804688 L 384.515625 339.328125 L 306.28125 339.328125 Z M 306.28125 263.804688 " fill-opacity="1" fill-rule="evenodd"/><path fill="#c92858" d="M 306.28125 263.804688 L 321.820312 263.804688 L 321.820312 255.78125 C 321.820312 242.730469 330.671875 231.667969 338.140625 225.554688 C 341.648438 222.652344 344.859375 220.882812 346.679688 220.496094 L 331.109375 220.496094 C 325.445312 221.65625 306.277344 236.566406 306.277344 255.78125 L 306.277344 263.804688 Z M 306.28125 263.804688 " fill-opacity="1" fill-rule="evenodd"/><path fill="#aaf589" d="M 306.28125 263.804688 L 321.820312 263.804688 L 321.820312 339.328125 L 306.28125 339.328125 Z M 306.28125 263.804688 " fill-opacity="1" fill-rule="evenodd"/><path fill="#c92858" d="M 306.28125 339.328125 L 321.820312 339.328125 L 321.820312 375.171875 L 306.28125 375.171875 Z M 306.28125 339.328125 " fill-opacity="1" fill-rule="evenodd"/><path fill="#e8e8e8" d="M 493.695312 220.496094 L 507.96875 230.78125 L 522.265625 220.496094 L 522.265625 185.238281 L 506.558594 177.742188 L 493.695312 185.238281 Z M 493.695312 220.496094 " fill-opacity="1" fill-rule="evenodd"/><path fill="#cccccc" d="M 493.695312 185.238281 L 509.242188 185.238281 L 509.242188 220.496094 L 493.695312 220.496094 Z M 493.695312 185.238281 " fill-opacity="1" fill-rule="evenodd"/><path fill="#808080" d="M 493.695312 185.238281 L 527.410156 185.238281 C 529.621094 185.238281 531.417969 183.4375 531.417969 181.226562 L 531.417969 162.449219 C 531.417969 160.238281 529.621094 158.4375 527.410156 158.4375 L 490.296875 158.4375 C 488.085938 158.4375 486.285156 160.238281 486.285156 162.449219 L 486.285156 181.226562 C 486.285156 183.4375 488.085938 185.238281 490.296875 185.238281 Z M 493.695312 185.238281 " fill-opacity="1" fill-rule="evenodd"/><path fill="#525252" d="M 490.296875 185.238281 L 505.839844 185.238281 C 503.625 185.238281 501.828125 183.4375 501.828125 181.226562 L 501.828125 162.449219 C 501.828125 160.238281 503.625 158.4375 505.839844 158.4375 L 490.296875 158.4375 C 488.085938 158.4375 486.285156 160.238281 486.285156 162.449219 L 486.285156 181.226562 C 486.285156 183.4375 488.085938 185.238281 490.296875 185.238281 Z M 490.296875 185.238281 " fill-opacity="1" fill-rule="evenodd"/><path fill="#fa6969" d="M 468.863281 263.804688 L 506.003906 281.363281 L 547.105469 263.804688 L 547.105469 255.78125 C 547.105469 236.566406 527.9375 221.65625 522.265625 220.496094 L 493.695312 220.496094 C 488.03125 221.65625 468.863281 236.566406 468.863281 255.78125 Z M 468.863281 263.804688 " fill-opacity="1" fill-rule="evenodd"/><path fill="#fa6969" d="M 507.96875 392.734375 L 547.101562 375.171875 L 547.101562 339.328125 L 505.480469 320.746094 L 468.863281 339.328125 L 468.863281 375.171875 Z M 507.96875 392.734375 " fill-opacity="1" fill-rule="evenodd"/><path fill="#d0ffb5" d="M 468.863281 263.804688 L 547.101562 263.804688 L 547.101562 339.328125 L 468.863281 339.328125 Z M 468.863281 263.804688 " fill-opacity="1" fill-rule="evenodd"/><path fill="#c92858" d="M 468.863281 263.804688 L 484.40625 263.804688 L 484.40625 255.78125 C 484.40625 242.730469 493.257812 231.667969 500.695312 225.554688 C 504.234375 222.652344 507.417969 220.882812 509.242188 220.496094 L 493.695312 220.496094 C 488.03125 221.65625 468.863281 236.566406 468.863281 255.78125 Z M 468.863281 263.804688 " fill-opacity="1" fill-rule="evenodd"/><path fill="#aaf589" d="M 468.863281 263.804688 L 484.40625 263.804688 L 484.40625 339.328125 L 468.863281 339.328125 Z M 468.863281 263.804688 " fill-opacity="1" fill-rule="evenodd"/><path fill="#c92858" d="M 468.863281 339.328125 L 484.40625 339.328125 L 484.40625 375.171875 L 468.863281 375.171875 Z M 468.863281 339.328125 " fill-opacity="1" fill-rule="evenodd"/><g clip-path="url(#9319ba35b5)"><path fill="#e8e8e8" d="M 226.160156 376.277344 C 198.0625 381.699219 176.6875 406.558594 176.6875 436.175781 L 176.6875 437.449219 C 176.6875 470.996094 204.121094 498.460938 237.664062 498.460938 L 595.664062 498.460938 C 629.210938 498.460938 656.671875 470.996094 656.671875 437.449219 L 656.671875 436.175781 C 656.671875 402.632812 629.210938 375.171875 595.664062 375.171875 L 439.796875 375.171875 C 433.136719 375.28125 427.296875 375.394531 422.402344 375.53125 L 422.402344 375.171875 L 237.664062 375.171875 C 233.742188 375.171875 229.898438 375.554688 226.160156 376.277344 Z M 226.160156 376.277344 " fill-opacity="1" fill-rule="evenodd"/></g><path fill="#808080" d="M 201.933594 436.8125 C 201.933594 456.839844 218.308594 473.210938 238.332031 473.210938 L 595.027344 473.210938 C 615.050781 473.210938 631.421875 456.839844 631.421875 436.8125 C 631.421875 416.824219 615.050781 400.449219 595.027344 400.449219 L 238.332031 400.449219 C 237.085938 400.449219 235.898438 400.503906 234.710938 400.617188 C 216.371094 402.441406 201.933594 418.035156 201.933594 436.8125 Z M 201.933594 436.8125 " fill-opacity="1" fill-rule="evenodd"/><path fill="#e8e8e8" d="M 324.613281 437.007812 C 324.613281 445.113281 331.195312 451.667969 339.273438 451.667969 C 347.375 451.667969 353.929688 445.113281 353.929688 437.007812 C 353.929688 428.933594 347.375 422.351562 339.273438 422.351562 C 331.195312 422.351562 324.613281 428.933594 324.613281 437.007812 Z M 324.613281 437.007812 " fill-opacity="1" fill-rule="evenodd"/><path fill="#e8e8e8" d="M 401.300781 436.8125 C 401.300781 444.917969 407.855469 451.472656 415.957031 451.472656 C 424.0625 451.472656 430.621094 444.917969 430.621094 436.8125 C 430.621094 428.710938 424.0625 422.15625 415.957031 422.15625 C 407.855469 422.160156 401.300781 428.710938 401.300781 436.8125 Z M 401.300781 436.8125 " fill-opacity="1" fill-rule="evenodd"/><path fill="#e8e8e8" d="M 492.84375 422.160156 C 484.738281 422.160156 478.183594 428.710938 478.183594 436.816406 C 478.183594 444.917969 484.738281 451.472656 492.84375 451.472656 C 500.917969 451.472656 507.5 444.917969 507.5 436.816406 C 507.5 428.710938 500.917969 422.160156 492.84375 422.160156 Z M 492.84375 422.160156 " fill-opacity="1" fill-rule="evenodd"/><path fill="#e8e8e8" d="M 569.5 421.964844 C 561.398438 421.964844 554.84375 428.519531 554.84375 436.621094 C 554.84375 444.695312 561.398438 451.277344 569.5 451.277344 C 577.605469 451.277344 584.160156 444.695312 584.160156 436.621094 C 584.160156 428.519531 577.605469 421.964844 569.5 421.964844 Z M 569.5 421.964844 " fill-opacity="1" fill-rule="evenodd"/><path fill="#525252" d="M 234.710938 400.617188 C 216.371094 402.441406 201.9375 418.035156 201.9375 436.816406 C 201.9375 456.839844 218.308594 473.210938 238.332031 473.210938 L 595.027344 473.210938 C 596.328125 473.210938 597.601562 473.128906 598.871094 472.988281 L 272.234375 472.988281 C 252.214844 472.988281 235.84375 456.617188 235.84375 436.621094 C 235.84375 425.503906 240.902344 415.523438 248.8125 408.828125 C 254.230469 404.265625 260.984375 401.222656 268.390625 400.449219 L 238.332031 400.449219 C 237.085938 400.449219 235.898438 400.503906 234.710938 400.617188 Z M 234.710938 400.617188 " fill-opacity="1" fill-rule="evenodd"/><g clip-path="url(#815293555d)"><path fill="#cccccc" d="M 226.160156 376.277344 C 198.0625 381.699219 176.6875 406.558594 176.6875 436.175781 L 176.6875 437.449219 C 176.6875 470.996094 204.121094 498.460938 237.664062 498.460938 L 276.964844 498.460938 C 255.808594 498.460938 237.113281 487.5625 226.160156 471.082031 C 212.085938 466.046875 201.933594 452.550781 201.933594 436.8125 C 201.933594 421.078125 212.085938 407.582031 226.160156 402.550781 C 227.65625 400.28125 229.285156 398.125 231.085938 396.105469 C 239.851562 386.066406 251.878906 378.902344 265.457031 376.277344 C 269.195312 375.554688 273.039062 375.171875 276.964844 375.171875 L 237.664062 375.171875 C 233.742188 375.171875 229.898438 375.554688 226.160156 376.277344 Z M 226.160156 376.277344 " fill-opacity="1" fill-rule="evenodd"/></g><path fill="#e8e8e8" d="M 247.953125 437.230469 C 247.953125 445.304688 254.507812 451.886719 262.609375 451.886719 C 270.714844 451.886719 277.269531 445.304688 277.269531 437.230469 C 277.269531 429.125 270.714844 422.570312 262.609375 422.570312 C 254.507812 422.570312 247.953125 429.125 247.953125 437.230469 Z M 247.953125 437.230469 " fill-opacity="1" fill-rule="evenodd"/><path fill="#808080" d="M 332.914062 76.910156 L 395.246094 76.910156 C 402.050781 76.910156 407.636719 71.351562 407.636719 64.519531 L 407.636719 47.730469 L 347.871094 34.953125 L 289.574219 47.730469 L 289.574219 64.519531 C 289.574219 71.351562 295.136719 76.910156 301.964844 76.910156 Z M 332.914062 76.910156 " fill-opacity="1" fill-rule="evenodd"/><path fill="#525252" d="M 289.574219 64.519531 C 289.574219 71.351562 295.136719 76.910156 301.964844 76.910156 L 319.46875 76.910156 C 312.664062 76.910156 307.109375 71.351562 307.109375 64.519531 L 307.109375 47.730469 L 289.574219 47.730469 Z M 289.574219 64.519531 " fill-opacity="1" fill-rule="evenodd"/><g clip-path="url(#f468fd75a9)"><path fill="#e8e8e8" d="M 289.574219 47.730469 L 639.582031 47.730469 C 648.984375 47.730469 656.671875 40.046875 656.671875 30.640625 C 656.671875 21.265625 648.984375 13.578125 639.582031 13.578125 L 188.855469 13.578125 C 179.480469 13.578125 171.792969 21.265625 171.792969 30.644531 C 171.792969 40.046875 179.480469 47.734375 188.855469 47.734375 L 289.574219 47.734375 Z M 289.574219 47.730469 " fill-opacity="1" fill-rule="evenodd"/></g><path fill="#808080" d="M 398.757812 160.472656 C 394.683594 160.472656 391.382812 157.171875 391.382812 153.101562 C 391.382812 140.652344 381.269531 130.523438 368.835938 130.523438 L 328.378906 130.523438 C 315.929688 130.523438 305.800781 140.652344 305.800781 153.101562 C 305.800781 157.171875 302.5 160.472656 298.425781 160.472656 C 294.351562 160.472656 291.050781 157.171875 291.050781 153.101562 C 291.050781 132.515625 307.792969 115.773438 328.378906 115.773438 L 368.835938 115.773438 C 389.402344 115.773438 406.132812 132.515625 406.132812 153.101562 C 406.132812 157.171875 402.832031 160.472656 398.757812 160.472656 Z M 398.757812 160.472656 " fill-opacity="1" fill-rule="nonzero"/></svg>