<svg xmlns="http://www.w3.org/2000/svg" xmlns:xlink="http://www.w3.org/1999/xlink" width="1080" zoomAndPan="magnify" viewBox="0 0 810 809.999993" height="1080" preserveAspectRatio="xMidYMid meet" version="1.0"><defs><g/><clipPath id="9950d4caa1"><path d="M 200.003906 57.257812 L 641 57.257812 L 641 519 L 200.003906 519 Z M 200.003906 57.257812 " clip-rule="nonzero"/></clipPath></defs><path fill="#66757f" d="M 563.21875 163.398438 C 563.21875 161.523438 561.707031 160 559.816406 160 L 553.667969 160 C 551.792969 160 550.265625 161.523438 550.265625 163.398438 L 550.265625 311.691406 C 550.265625 313.5625 551.777344 315.089844 553.667969 315.089844 L 559.816406 315.089844 C 561.691406 315.089844 563.21875 313.578125 563.21875 311.691406 Z M 563.21875 163.398438 " fill-opacity="1" fill-rule="nonzero"/><path fill="#f19020" d="M 576.164062 308.613281 C 576.164062 309.25 576.132812 309.882812 576.070312 310.515625 C 576.007812 311.144531 575.914062 311.773438 575.792969 312.394531 C 575.667969 313.019531 575.511719 313.632812 575.328125 314.242188 C 575.144531 314.847656 574.929688 315.445312 574.6875 316.03125 C 574.441406 316.621094 574.171875 317.191406 573.871094 317.753906 C 573.570312 318.3125 573.246094 318.855469 572.890625 319.382812 C 572.539062 319.910156 572.160156 320.421875 571.757812 320.910156 C 571.355469 321.402344 570.925781 321.871094 570.476562 322.320312 C 570.027344 322.769531 569.558594 323.195312 569.066406 323.597656 C 568.574219 324 568.0625 324.378906 567.535156 324.730469 C 567.007812 325.085938 566.460938 325.410156 565.902344 325.710938 C 565.339844 326.007812 564.765625 326.28125 564.179688 326.523438 C 563.589844 326.765625 562.992188 326.980469 562.386719 327.164062 C 561.777344 327.347656 561.160156 327.503906 560.535156 327.625 C 559.914062 327.75 559.285156 327.84375 558.652344 327.90625 C 558.019531 327.96875 557.382812 328 556.75 328 C 556.113281 328 555.480469 327.96875 554.847656 327.90625 C 554.214844 327.84375 553.585938 327.75 552.960938 327.625 C 552.335938 327.503906 551.722656 327.347656 551.113281 327.164062 C 550.503906 326.980469 549.90625 326.765625 549.320312 326.523438 C 548.730469 326.28125 548.15625 326.007812 547.597656 325.710938 C 547.035156 325.410156 546.492188 325.085938 545.960938 324.730469 C 545.433594 324.378906 544.921875 324 544.433594 323.597656 C 543.941406 323.195312 543.46875 322.769531 543.019531 322.320312 C 542.570312 321.871094 542.144531 321.402344 541.742188 320.910156 C 541.335938 320.421875 540.957031 319.910156 540.605469 319.382812 C 540.253906 318.855469 539.925781 318.3125 539.625 317.753906 C 539.324219 317.191406 539.054688 316.621094 538.8125 316.03125 C 538.566406 315.445312 538.355469 314.847656 538.167969 314.242188 C 537.984375 313.632812 537.832031 313.019531 537.707031 312.394531 C 537.582031 311.773438 537.488281 311.144531 537.425781 310.515625 C 537.363281 309.882812 537.332031 309.25 537.332031 308.613281 C 537.332031 307.980469 537.363281 307.347656 537.425781 306.714844 C 537.488281 306.082031 537.582031 305.457031 537.707031 304.832031 C 537.832031 304.210938 537.984375 303.59375 538.167969 302.988281 C 538.355469 302.378906 538.566406 301.78125 538.8125 301.195312 C 539.054688 300.609375 539.324219 300.035156 539.625 299.476562 C 539.925781 298.917969 540.253906 298.371094 540.605469 297.84375 C 540.957031 297.316406 541.335938 296.808594 541.742188 296.316406 C 542.144531 295.828125 542.570312 295.355469 543.019531 294.90625 C 543.46875 294.457031 543.941406 294.03125 544.433594 293.628906 C 544.921875 293.226562 545.433594 292.847656 545.960938 292.496094 C 546.492188 292.144531 547.035156 291.816406 547.597656 291.519531 C 548.15625 291.21875 548.730469 290.949219 549.320312 290.707031 C 549.90625 290.460938 550.503906 290.25 551.113281 290.066406 C 551.722656 289.878906 552.335938 289.726562 552.960938 289.601562 C 553.585938 289.476562 554.214844 289.386719 554.847656 289.324219 C 555.480469 289.261719 556.113281 289.230469 556.75 289.230469 C 557.382812 289.230469 558.019531 289.261719 558.652344 289.324219 C 559.285156 289.386719 559.914062 289.476562 560.535156 289.601562 C 561.160156 289.726562 561.777344 289.878906 562.386719 290.066406 C 562.992188 290.25 563.589844 290.460938 564.179688 290.707031 C 564.765625 290.949219 565.339844 291.21875 565.902344 291.519531 C 566.460938 291.816406 567.007812 292.144531 567.535156 292.496094 C 568.0625 292.847656 568.574219 293.226562 569.066406 293.628906 C 569.558594 294.03125 570.027344 294.457031 570.476562 294.90625 C 570.925781 295.355469 571.355469 295.828125 571.757812 296.316406 C 572.160156 296.808594 572.539062 297.316406 572.890625 297.84375 C 573.246094 298.371094 573.570312 298.917969 573.871094 299.476562 C 574.171875 300.035156 574.441406 300.609375 574.6875 301.195312 C 574.929688 301.78125 575.144531 302.378906 575.328125 302.988281 C 575.511719 303.59375 575.667969 304.210938 575.792969 304.832031 C 575.914062 305.457031 576.007812 306.082031 576.070312 306.714844 C 576.132812 307.347656 576.164062 307.980469 576.164062 308.613281 Z M 576.164062 308.613281 " fill-opacity="1" fill-rule="nonzero"/><path fill="#f19020" d="M 569.691406 340.921875 C 569.691406 341.769531 569.609375 342.613281 569.445312 343.445312 C 569.277344 344.277344 569.03125 345.082031 568.707031 345.867188 C 568.382812 346.652344 567.984375 347.398438 567.511719 348.101562 C 567.039062 348.808594 566.503906 349.460938 565.902344 350.058594 C 565.300781 350.660156 564.648438 351.195312 563.941406 351.667969 C 563.234375 352.140625 562.488281 352.535156 561.703125 352.863281 C 560.917969 353.1875 560.109375 353.433594 559.273438 353.597656 C 558.441406 353.761719 557.597656 353.84375 556.75 353.84375 C 555.898438 353.84375 555.058594 353.761719 554.222656 353.597656 C 553.390625 353.433594 552.582031 353.1875 551.796875 352.863281 C 551.011719 352.535156 550.265625 352.140625 549.558594 351.667969 C 548.851562 351.195312 548.195312 350.660156 547.597656 350.058594 C 546.996094 349.460938 546.457031 348.808594 545.988281 348.101562 C 545.515625 347.394531 545.117188 346.652344 544.789062 345.867188 C 544.464844 345.082031 544.21875 344.277344 544.054688 343.445312 C 543.886719 342.609375 543.804688 341.769531 543.804688 340.921875 C 543.804688 340.074219 543.886719 339.234375 544.054688 338.402344 C 544.21875 337.570312 544.464844 336.761719 544.789062 335.976562 C 545.117188 335.191406 545.515625 334.449219 545.988281 333.742188 C 546.457031 333.035156 546.996094 332.382812 547.597656 331.785156 C 548.195312 331.183594 548.851562 330.648438 549.558594 330.175781 C 550.265625 329.707031 551.011719 329.308594 551.796875 328.984375 C 552.582031 328.660156 553.390625 328.414062 554.222656 328.246094 C 555.058594 328.082031 555.898438 328 556.75 328 C 557.597656 328 558.441406 328.082031 559.273438 328.246094 C 560.109375 328.414062 560.917969 328.660156 561.703125 328.984375 C 562.488281 329.308594 563.234375 329.707031 563.941406 330.175781 C 564.648438 330.648438 565.300781 331.183594 565.902344 331.785156 C 566.503906 332.382812 567.039062 333.035156 567.511719 333.742188 C 567.984375 334.449219 568.382812 335.191406 568.707031 335.976562 C 569.03125 336.761719 569.277344 337.570312 569.445312 338.402344 C 569.609375 339.234375 569.691406 340.074219 569.691406 340.921875 Z M 569.691406 340.921875 " fill-opacity="1" fill-rule="nonzero"/><g clip-path="url(#9950d4caa1)"><path fill="#bd2032" d="M 627.9375 160 L 574.496094 160 L 326.300781 57.128906 L 326.273438 57.117188 L 326.261719 57.117188 C 326.054688 57.027344 325.847656 57.050781 325.652344 56.988281 C 325.042969 56.808594 324.433594 56.613281 323.761719 56.613281 L 323.738281 56.613281 C 322.882812 56.613281 322.054688 56.792969 321.277344 57.105469 C 320.695312 57.363281 320.191406 57.75 319.699219 58.164062 C 319.542969 58.28125 319.363281 58.34375 319.21875 58.488281 C 318.609375 59.082031 318.117188 59.804688 317.796875 60.605469 L 317.796875 60.621094 C 317.742188 60.734375 317.757812 60.878906 317.71875 60.992188 L 245.996094 161.925781 C 245.957031 161.976562 245.957031 162.054688 245.917969 162.105469 C 242.230469 164.378906 239.628906 168.269531 239.628906 172.921875 L 239.628906 198.769531 C 239.628906 205.902344 245.425781 211.691406 252.570312 211.691406 L 271.921875 211.691406 L 223.851562 492.769531 L 200.796875 492.769531 L 200.796875 518.617188 L 446.183594 518.617188 L 446.183594 492.769531 L 423.660156 492.769531 L 375.601562 211.691406 L 627.9375 211.691406 C 635.097656 211.691406 640.882812 205.902344 640.882812 198.769531 L 640.882812 172.921875 C 640.882812 165.789062 635.097656 160 627.9375 160 Z M 346.167969 211.691406 L 323.761719 229.640625 L 301.371094 211.691406 Z M 323.761719 328.644531 L 371.226562 359.710938 L 323.761719 385.558594 L 276.296875 359.710938 Z M 276.660156 337.820312 L 282.796875 301.84375 L 306.949219 317.648438 Z M 340.578125 317.648438 L 364.78125 301.816406 L 370.953125 337.859375 Z M 323.761719 306.457031 L 287.15625 282.097656 L 323.761719 252.089844 L 360.367188 282.097656 Z M 290.585938 256.222656 L 295.273438 228.738281 L 309.914062 240.730469 Z M 337.613281 240.742188 L 352.265625 228.738281 L 356.976562 256.261719 Z M 263.226562 160 L 317.289062 83.90625 L 317.289062 134.152344 L 291.402344 134.152344 C 284.257812 134.152344 278.460938 139.941406 278.460938 147.074219 L 278.460938 160 Z M 270.085938 376.304688 L 305.421875 395.546875 L 262.835938 418.734375 Z M 397.449219 492.769531 L 250.203125 492.769531 L 259.082031 440.765625 L 323.761719 405.539062 L 388.558594 440.832031 Z M 377.515625 376.265625 L 384.792969 418.796875 L 342.105469 395.546875 Z M 369.066406 160 L 369.066406 147.074219 C 369.066406 139.941406 363.265625 134.152344 356.121094 134.152344 L 330.234375 134.152344 L 330.234375 72.753906 L 540.738281 160 Z M 394.953125 198.769531 L 379.9375 198.769531 L 379.9375 172.921875 L 394.953125 172.921875 Z M 433.785156 198.769531 L 407.894531 198.769531 L 407.894531 172.921875 L 433.785156 172.921875 Z M 472.613281 198.769531 L 446.726562 198.769531 L 446.726562 172.921875 L 472.613281 172.921875 Z M 511.445312 198.769531 L 485.558594 198.769531 L 485.558594 172.921875 L 511.445312 172.921875 Z M 550.277344 198.769531 L 524.390625 198.769531 L 524.390625 172.921875 L 550.277344 172.921875 Z M 589.109375 198.769531 L 563.21875 198.769531 L 563.21875 172.921875 L 589.109375 172.921875 Z M 627.9375 192.304688 C 627.9375 195.871094 625.039062 198.769531 621.46875 198.769531 L 602.050781 198.769531 L 602.050781 172.921875 L 621.46875 172.921875 C 625.039062 172.921875 627.9375 175.816406 627.9375 179.382812 Z M 627.9375 192.304688 " fill-opacity="1" fill-rule="nonzero"/></g><path fill="#4b545d" d="M 356.121094 147.074219 L 330.234375 147.074219 C 323.089844 147.074219 317.289062 152.863281 317.289062 160 L 317.289062 185.84375 C 317.289062 192.976562 323.089844 198.769531 330.234375 198.769531 L 369.066406 198.769531 L 369.066406 147.074219 Z M 356.121094 147.074219 " fill-opacity="1" fill-rule="nonzero"/><path fill="#cdd7df" d="M 343.179688 147.074219 L 369.066406 147.074219 L 369.066406 198.769531 L 343.179688 198.769531 Z M 343.179688 147.074219 " fill-opacity="1" fill-rule="nonzero"/><path fill="#66757f" d="M 648.570312 363.539062 L 648.570312 350.613281 L 464.925781 350.613281 L 464.925781 363.539062 L 475.851562 363.539062 L 475.851562 395.445312 L 464.925781 395.445312 L 464.925781 408.367188 L 648.570312 408.367188 L 648.570312 395.445312 L 637.648438 395.445312 L 637.648438 363.539062 Z M 648.570312 363.539062 " fill-opacity="1" fill-rule="nonzero"/><g fill="#e30523" fill-opacity="1"><g transform="translate(35.732254, 720.111385)"><g><path d="M 44.328125 -78.625 C 50.109375 -78.625 55.800781 -77.4375 61.40625 -75.0625 C 67.019531 -72.6875 71.789062 -69.492188 75.71875 -65.484375 L 64.25 -51.890625 C 61.726562 -55.015625 58.703125 -57.484375 55.171875 -59.296875 C 51.648438 -61.117188 48.144531 -62.03125 44.65625 -62.03125 C 38.488281 -62.03125 33.328125 -59.859375 29.171875 -55.515625 C 25.015625 -51.171875 22.9375 -45.804688 22.9375 -39.421875 C 22.9375 -32.890625 25.015625 -27.429688 29.171875 -23.046875 C 33.328125 -18.671875 38.488281 -16.484375 44.65625 -16.484375 C 47.925781 -16.484375 51.320312 -17.296875 54.84375 -18.921875 C 58.375 -20.554688 61.507812 -22.785156 64.25 -25.609375 L 75.828125 -13.359375 C 71.597656 -9.054688 66.609375 -5.601562 60.859375 -3 C 55.109375 -0.40625 49.375 0.890625 43.65625 0.890625 C 31.925781 0.890625 22.160156 -2.929688 14.359375 -10.578125 C 6.566406 -18.222656 2.671875 -27.765625 2.671875 -39.203125 C 2.671875 -50.410156 6.640625 -59.78125 14.578125 -67.3125 C 22.523438 -74.851562 32.441406 -78.625 44.328125 -78.625 Z M 44.328125 -78.625 "/></g></g></g><g fill="#e30523" fill-opacity="1"><g transform="translate(112.795242, 720.111385)"><g><path d="M 35.53125 -60.6875 C 45.320312 -60.6875 53.222656 -57.882812 59.234375 -52.28125 C 65.253906 -46.675781 68.265625 -39.269531 68.265625 -30.0625 C 68.265625 -20.863281 65.253906 -13.441406 59.234375 -7.796875 C 53.222656 -2.148438 45.320312 0.671875 35.53125 0.671875 C 25.65625 0.671875 17.707031 -2.148438 11.6875 -7.796875 C 5.675781 -13.441406 2.671875 -20.863281 2.671875 -30.0625 C 2.671875 -39.269531 5.675781 -46.675781 11.6875 -52.28125 C 17.707031 -57.882812 25.65625 -60.6875 35.53125 -60.6875 Z M 35.53125 -45.4375 C 31.519531 -45.4375 28.269531 -43.988281 25.78125 -41.09375 C 23.289062 -38.195312 22.046875 -34.445312 22.046875 -29.84375 C 22.046875 -25.164062 23.289062 -21.394531 25.78125 -18.53125 C 28.269531 -15.675781 31.519531 -14.25 35.53125 -14.25 C 39.457031 -14.25 42.664062 -15.675781 45.15625 -18.53125 C 47.644531 -21.394531 48.890625 -25.164062 48.890625 -29.84375 C 48.890625 -34.445312 47.644531 -38.195312 45.15625 -41.09375 C 42.664062 -43.988281 39.457031 -45.4375 35.53125 -45.4375 Z M 35.53125 -45.4375 "/></g></g></g><g fill="#e30523" fill-opacity="1"><g transform="translate(183.733259, 720.111385)"><g><path d="M 47 -60.90625 C 53.601562 -60.90625 58.910156 -58.804688 62.921875 -54.609375 C 66.929688 -50.421875 68.9375 -44.835938 68.9375 -37.859375 L 68.9375 0 L 49.78125 0 L 49.78125 -32.515625 C 49.78125 -36.003906 48.832031 -38.769531 46.9375 -40.8125 C 45.039062 -42.851562 42.460938 -43.875 39.203125 -43.875 C 35.785156 -43.875 32.976562 -42.757812 30.78125 -40.53125 C 28.59375 -38.300781 27.316406 -35.367188 26.953125 -31.734375 L 26.953125 0 L 7.6875 0 L 7.6875 -60.015625 L 26.953125 -60.015625 L 26.953125 -50.21875 C 31.179688 -57.195312 37.863281 -60.757812 47 -60.90625 Z M 47 -60.90625 "/></g></g></g><g fill="#e30523" fill-opacity="1"><g transform="translate(258.680353, 720.111385)"><g><path d="M 29.171875 -60.90625 C 38.003906 -60.90625 46.242188 -58.644531 53.890625 -54.125 L 47.328125 -41.640625 C 39.898438 -45.648438 33.585938 -47.65625 28.390625 -47.65625 C 24.460938 -47.65625 22.5 -46.285156 22.5 -43.546875 C 22.5 -42.054688 23.570312 -40.8125 25.71875 -39.8125 C 27.875 -38.8125 30.507812 -37.898438 33.625 -37.078125 C 36.75 -36.265625 39.847656 -35.242188 42.921875 -34.015625 C 46.003906 -32.796875 48.625 -30.847656 50.78125 -28.171875 C 52.9375 -25.503906 54.015625 -22.238281 54.015625 -18.375 C 54.015625 -12.363281 51.675781 -7.664062 47 -4.28125 C 42.320312 -0.90625 36.234375 0.78125 28.734375 0.78125 C 18.117188 0.78125 9.132812 -2.039062 1.78125 -7.6875 L 7.90625 -19.9375 C 14.957031 -14.957031 22.046875 -12.46875 29.171875 -12.46875 C 33.554688 -12.46875 35.75 -13.84375 35.75 -16.59375 C 35.75 -18.15625 34.691406 -19.453125 32.578125 -20.484375 C 30.460938 -21.523438 27.878906 -22.453125 24.828125 -23.265625 C 21.785156 -24.085938 18.742188 -25.109375 15.703125 -26.328125 C 12.660156 -27.554688 10.078125 -29.46875 7.953125 -32.0625 C 5.835938 -34.664062 4.78125 -37.9375 4.78125 -41.875 C 4.78125 -47.882812 7.046875 -52.554688 11.578125 -55.890625 C 16.109375 -59.234375 21.972656 -60.90625 29.171875 -60.90625 Z M 29.171875 -60.90625 "/></g></g></g><g fill="#e30523" fill-opacity="1"><g transform="translate(315.809467, 720.111385)"><g><path d="M 42.65625 -16.59375 L 46.4375 -3.234375 C 41.757812 -0.484375 36.414062 0.890625 30.40625 0.890625 C 24.46875 0.890625 19.660156 -0.757812 15.984375 -4.0625 C 12.304688 -7.363281 10.46875 -12.0625 10.46875 -18.15625 L 10.46875 -44.65625 L 2.109375 -44.65625 L 2.109375 -57.234375 L 10.46875 -57.234375 L 10.46875 -73.9375 L 29.625 -73.9375 L 29.625 -57.34375 L 45.328125 -57.34375 L 45.328125 -44.65625 L 29.625 -44.65625 L 29.625 -21.15625 C 29.625 -18.851562 30.085938 -17.164062 31.015625 -16.09375 C 31.941406 -15.019531 33.332031 -14.519531 35.1875 -14.59375 C 36.96875 -14.59375 39.457031 -15.257812 42.65625 -16.59375 Z M 42.65625 -16.59375 "/></g></g></g><g fill="#e30523" fill-opacity="1"><g transform="translate(364.252194, 720.111385)"><g><path d="M 26.953125 -60.015625 L 26.953125 -49.890625 C 31.179688 -57.085938 37.675781 -60.757812 46.4375 -60.90625 L 46.4375 -43.546875 C 40.945312 -44.066406 36.457031 -43.15625 32.96875 -40.8125 C 29.476562 -38.476562 27.472656 -35.15625 26.953125 -30.84375 L 26.953125 0 L 7.6875 0 L 7.6875 -60.015625 Z M 26.953125 -60.015625 "/></g></g></g><g fill="#e30523" fill-opacity="1"><g transform="translate(411.804085, 720.111385)"><g><path d="M 66.140625 -60.015625 L 66.140625 0 L 46.875 0 L 46.875 -9.90625 C 42.789062 -2.78125 36.296875 0.78125 27.390625 0.78125 C 20.859375 0.78125 15.644531 -1.296875 11.75 -5.453125 C 7.851562 -9.609375 5.90625 -15.175781 5.90625 -22.15625 L 5.90625 -60.015625 L 25.171875 -60.015625 L 25.171875 -27.609375 C 25.171875 -24.046875 26.078125 -21.242188 27.890625 -19.203125 C 29.710938 -17.160156 32.144531 -16.140625 35.1875 -16.140625 C 38.820312 -16.222656 41.675781 -17.582031 43.75 -20.21875 C 45.832031 -22.851562 46.875 -26.25 46.875 -30.40625 L 46.875 -60.015625 Z M 66.140625 -60.015625 "/></g></g></g><g fill="#e30523" fill-opacity="1"><g transform="translate(485.63753, 720.111385)"><g><path d="M 33.859375 -60.6875 C 39.796875 -60.6875 45.082031 -59.515625 49.71875 -57.171875 C 54.363281 -54.835938 57.984375 -51.519531 60.578125 -47.21875 L 46.765625 -38.859375 C 43.796875 -43.015625 39.75 -45.09375 34.625 -45.09375 C 30.914062 -45.09375 27.890625 -43.703125 25.546875 -40.921875 C 23.210938 -38.140625 22.046875 -34.484375 22.046875 -29.953125 C 22.046875 -25.347656 23.195312 -21.65625 25.5 -18.875 C 27.800781 -16.09375 30.84375 -14.703125 34.625 -14.703125 C 40.269531 -14.703125 44.351562 -16.96875 46.875 -21.5 L 60.90625 -13.25 C 58.457031 -8.789062 54.875 -5.351562 50.15625 -2.9375 C 45.445312 -0.53125 39.9375 0.671875 33.625 0.671875 C 24.34375 0.671875 16.863281 -2.128906 11.1875 -7.734375 C 5.507812 -13.335938 2.671875 -20.707031 2.671875 -29.84375 C 2.671875 -39.050781 5.546875 -46.492188 11.296875 -52.171875 C 17.054688 -57.847656 24.578125 -60.6875 33.859375 -60.6875 Z M 33.859375 -60.6875 "/></g></g></g><g fill="#e30523" fill-opacity="1"><g transform="translate(548.223382, 720.111385)"><g><path d="M 33.859375 -60.6875 C 39.796875 -60.6875 45.082031 -59.515625 49.71875 -57.171875 C 54.363281 -54.835938 57.984375 -51.519531 60.578125 -47.21875 L 46.765625 -38.859375 C 43.796875 -43.015625 39.75 -45.09375 34.625 -45.09375 C 30.914062 -45.09375 27.890625 -43.703125 25.546875 -40.921875 C 23.210938 -38.140625 22.046875 -34.484375 22.046875 -29.953125 C 22.046875 -25.347656 23.195312 -21.65625 25.5 -18.875 C 27.800781 -16.09375 30.84375 -14.703125 34.625 -14.703125 C 40.269531 -14.703125 44.351562 -16.96875 46.875 -21.5 L 60.90625 -13.25 C 58.457031 -8.789062 54.875 -5.351562 50.15625 -2.9375 C 45.445312 -0.53125 39.9375 0.671875 33.625 0.671875 C 24.34375 0.671875 16.863281 -2.128906 11.1875 -7.734375 C 5.507812 -13.335938 2.671875 -20.707031 2.671875 -29.84375 C 2.671875 -39.050781 5.546875 -46.492188 11.296875 -52.171875 C 17.054688 -57.847656 24.578125 -60.6875 33.859375 -60.6875 Z M 33.859375 -60.6875 "/></g></g></g><g fill="#e30523" fill-opacity="1"><g transform="translate(610.809235, 720.111385)"><g><path d="M 10.078125 -84.578125 C 11.972656 -86.472656 14.40625 -87.421875 17.375 -87.421875 C 20.34375 -87.421875 22.769531 -86.472656 24.65625 -84.578125 C 26.550781 -82.679688 27.5 -80.25 27.5 -77.28125 C 27.5 -74.3125 26.550781 -71.859375 24.65625 -69.921875 C 22.769531 -67.992188 20.34375 -67.03125 17.375 -67.03125 C 14.40625 -67.03125 11.972656 -67.992188 10.078125 -69.921875 C 8.179688 -71.859375 7.234375 -74.3125 7.234375 -77.28125 C 7.234375 -80.25 8.179688 -82.679688 10.078125 -84.578125 Z M 26.84375 0 L 7.6875 0 L 7.6875 -60.015625 L 26.84375 -60.015625 Z M 26.84375 0 "/></g></g></g><g fill="#e30523" fill-opacity="1"><g transform="translate(645.443059, 720.111385)"><g><path d="M 55.015625 -79.40625 L 40.53125 -66.8125 L 25.828125 -66.8125 L 37.640625 -85.53125 Z M 35.53125 -60.6875 C 45.320312 -60.6875 53.222656 -57.882812 59.234375 -52.28125 C 65.253906 -46.675781 68.265625 -39.269531 68.265625 -30.0625 C 68.265625 -20.863281 65.253906 -13.441406 59.234375 -7.796875 C 53.222656 -2.148438 45.320312 0.671875 35.53125 0.671875 C 25.65625 0.671875 17.707031 -2.148438 11.6875 -7.796875 C 5.675781 -13.441406 2.671875 -20.863281 2.671875 -30.0625 C 2.671875 -39.269531 5.675781 -46.675781 11.6875 -52.28125 C 17.707031 -57.882812 25.65625 -60.6875 35.53125 -60.6875 Z M 35.53125 -45.4375 C 31.519531 -45.4375 28.269531 -43.988281 25.78125 -41.09375 C 23.289062 -38.195312 22.046875 -34.445312 22.046875 -29.84375 C 22.046875 -25.164062 23.289062 -21.394531 25.78125 -18.53125 C 28.269531 -15.675781 31.519531 -14.25 35.53125 -14.25 C 39.457031 -14.25 42.664062 -15.675781 45.15625 -18.53125 C 47.644531 -21.394531 48.890625 -25.164062 48.890625 -29.84375 C 48.890625 -34.445312 47.644531 -38.195312 45.15625 -41.09375 C 42.664062 -43.988281 39.457031 -45.4375 35.53125 -45.4375 Z M 35.53125 -45.4375 "/></g></g></g><g fill="#e30523" fill-opacity="1"><g transform="translate(716.381076, 720.111385)"><g><path d="M 47 -60.90625 C 53.601562 -60.90625 58.910156 -58.804688 62.921875 -54.609375 C 66.929688 -50.421875 68.9375 -44.835938 68.9375 -37.859375 L 68.9375 0 L 49.78125 0 L 49.78125 -32.515625 C 49.78125 -36.003906 48.832031 -38.769531 46.9375 -40.8125 C 45.039062 -42.851562 42.460938 -43.875 39.203125 -43.875 C 35.785156 -43.875 32.976562 -42.757812 30.78125 -40.53125 C 28.59375 -38.300781 27.316406 -35.367188 26.953125 -31.734375 L 26.953125 0 L 7.6875 0 L 7.6875 -60.015625 L 26.953125 -60.015625 L 26.953125 -50.21875 C 31.179688 -57.195312 37.863281 -60.757812 47 -60.90625 Z M 47 -60.90625 "/></g></g></g></svg>