<svg xmlns="http://www.w3.org/2000/svg" xmlns:xlink="http://www.w3.org/1999/xlink" width="1080" zoomAndPan="magnify" viewBox="0 0 810 809.999993" height="1080" preserveAspectRatio="xMidYMid meet" version="1.0"><defs><g/><clipPath id="adad943180"><path d="M 159.210938 471 L 170 471 L 170 477 L 159.210938 477 Z M 159.210938 471 " clip-rule="nonzero"/></clipPath><clipPath id="4f01630e42"><path d="M 258 37.863281 L 308 37.863281 L 308 67 L 258 67 Z M 258 37.863281 " clip-rule="nonzero"/></clipPath><clipPath id="ef480bde98"><path d="M 626 207 L 648.972656 207 L 648.972656 230 L 626 230 Z M 626 207 " clip-rule="nonzero"/></clipPath></defs><path fill="#f7e547" d="M 425.507812 505.570312 L 422.066406 506.632812 C 422.066406 506.632812 422.171875 507.199219 422.328125 508.046875 C 422.476562 508.890625 422.699219 510.023438 423.023438 511.242188 C 423.296875 512.429688 423.636719 513.617188 423.96875 514.515625 C 424.273438 515.40625 424.476562 516.011719 424.476562 516.011719 L 427.792969 514.710938 C 427.792969 514.710938 427.605469 514.171875 427.347656 513.371094 C 427.042969 512.585938 426.722656 511.492188 426.464844 510.339844 C 426.164062 509.257812 425.945312 508.027344 425.785156 507.097656 C 425.621094 506.1875 425.507812 505.570312 425.507812 505.570312 " fill-opacity="1" fill-rule="nonzero"/><path fill="#f7e547" d="M 424.085938 490.816406 L 420.691406 492.988281 C 420.691406 492.988281 420.851562 495.277344 421.007812 497.578125 C 421.230469 499.875 421.449219 502.164062 421.449219 502.164062 L 424.875 500.75 C 424.875 500.75 424.648438 498.269531 424.421875 495.789062 C 424.25 493.300781 424.085938 490.816406 424.085938 490.816406 " fill-opacity="1" fill-rule="nonzero"/><path fill="#f7e547" d="M 423.40625 476.054688 L 420.105469 479.269531 L 420.460938 488.480469 L 423.828125 485.949219 L 423.40625 476.054688 " fill-opacity="1" fill-rule="nonzero"/><path fill="#f7e547" d="M 422.664062 461.46875 L 419.5625 465.546875 L 419.949219 474.757812 L 423.1875 471.234375 L 422.664062 461.46875 " fill-opacity="1" fill-rule="nonzero"/><path fill="#f7e547" d="M 421.398438 447.121094 L 418.582031 451.871094 C 418.582031 451.871094 418.792969 454.15625 418.996094 456.457031 C 419.152344 458.757812 419.320312 461.046875 419.320312 461.046875 L 422.328125 456.730469 C 422.328125 456.730469 422.117188 454.316406 421.914062 451.914062 C 421.65625 449.511719 421.398438 447.121094 421.398438 447.121094 " fill-opacity="1" fill-rule="nonzero"/><path fill="#f7e547" d="M 419.101562 433.027344 L 416.628906 438.292969 C 416.628906 438.292969 417.09375 440.535156 417.433594 442.832031 C 417.839844 445.089844 418.078125 447.378906 418.078125 447.378906 L 420.785156 442.449219 C 420.785156 442.449219 420.488281 440.074219 420.023438 437.722656 C 419.628906 435.363281 419.101562 433.027344 419.101562 433.027344 " fill-opacity="1" fill-rule="nonzero"/><path fill="#f7e547" d="M 415.007812 419.445312 L 412.9375 425.085938 C 412.9375 425.085938 413.804688 427.226562 414.433594 429.4375 C 415.164062 431.632812 415.660156 433.882812 415.660156 433.890625 L 418 428.492188 C 418 428.492188 417.449219 426.171875 416.644531 423.921875 C 415.949219 421.632812 415.007812 419.445312 415.007812 419.445312 " fill-opacity="1" fill-rule="nonzero"/><path fill="#f7e547" d="M 407.941406 407.128906 L 406.355469 413.097656 C 406.355469 413.097656 407.753906 414.9375 408.964844 416.898438 C 409.539062 417.894531 410.113281 418.886719 410.539062 419.648438 C 410.914062 420.425781 411.164062 420.9375 411.164062 420.9375 L 413.078125 415.1875 C 413.078125 415.1875 412.8125 414.640625 412.414062 413.847656 C 411.953125 413.078125 411.335938 412.046875 410.726562 411.027344 C 409.417969 409.011719 407.941406 407.128906 407.941406 407.128906 " fill-opacity="1" fill-rule="nonzero"/><path fill="#f7e547" d="M 396.746094 398.3125 L 395.800781 404.539062 C 395.800781 404.539062 397.917969 405.460938 399.75 406.882812 C 401.71875 408.097656 403.25 409.863281 403.304688 409.800781 L 404.691406 403.722656 C 404.691406 403.722656 404.234375 403.320312 403.546875 402.734375 C 402.898438 402.121094 401.953125 401.363281 400.925781 400.730469 C 398.988281 399.273438 396.746094 398.300781 396.746094 398.3125 " fill-opacity="1" fill-rule="nonzero"/><path fill="#f7e547" d="M 382.867188 394.714844 L 382.625 401.039062 C 382.625 401.039062 384.925781 401.214844 387.183594 401.65625 C 388.308594 401.914062 389.429688 402.171875 390.269531 402.371094 C 391.109375 402.578125 391.640625 402.816406 391.640625 402.816406 L 392.359375 396.53125 C 392.359375 396.53125 391.804688 396.289062 390.914062 396.066406 C 390.03125 395.871094 388.855469 395.609375 387.671875 395.347656 C 385.292969 394.890625 382.867188 394.714844 382.867188 394.714844 " fill-opacity="1" fill-rule="nonzero"/><path fill="#f7e547" d="M 368.710938 396.675781 L 369.191406 402.972656 C 369.222656 403.074219 371.28125 401.917969 373.570312 401.589844 C 374.699219 401.375 375.832031 401.183594 376.683594 401.027344 C 377.546875 401.011719 378.121094 400.996094 378.121094 400.996094 L 378.121094 394.652344 C 378.121094 394.652344 377.515625 394.671875 376.605469 394.699219 C 375.714844 394.851562 374.519531 395.054688 373.324219 395.253906 C 370.914062 395.597656 368.742188 396.785156 368.710938 396.675781 " fill-opacity="1" fill-rule="nonzero"/><path fill="#f7e547" d="M 357.859375 405.667969 L 358.9375 411.789062 C 358.871094 411.738281 360.359375 409.964844 361.785156 408.175781 C 363.503906 406.628906 365.1875 405.058594 365.269531 405.167969 L 364.574219 398.925781 C 364.488281 398.800781 362.695312 400.410156 360.882812 401.980469 C 360.117188 402.898438 359.355469 403.808594 358.773438 404.5 C 358.179688 405.167969 357.859375 405.667969 357.859375 405.667969 " fill-opacity="1" fill-rule="nonzero"/><path fill="#f7e547" d="M 351.722656 418.34375 L 353.25 424.230469 C 353.25 424.230469 354.019531 422.058594 354.789062 419.886719 C 355.675781 417.761719 356.675781 415.6875 356.675781 415.6875 L 355.433594 409.644531 C 355.433594 409.644531 354.355469 411.765625 353.402344 413.925781 C 352.558594 416.132812 351.722656 418.34375 351.722656 418.34375 " fill-opacity="1" fill-rule="nonzero"/><path fill="#f7e547" d="M 348.160156 431.988281 L 350.058594 437.570312 C 350.058594 437.570312 350.445312 435.292969 350.964844 433.054688 C 351.492188 430.8125 352.023438 428.574219 352.023438 428.574219 L 350.363281 422.769531 C 350.359375 422.769531 349.773438 425.074219 349.1875 427.359375 C 348.609375 429.648438 348.160156 431.988281 348.160156 431.988281 " fill-opacity="1" fill-rule="nonzero"/><path fill="#f7e547" d="M 345.632812 445.972656 L 347.890625 451.121094 L 349.277344 442.011719 L 347.261719 436.554688 L 345.632812 445.972656 " fill-opacity="1" fill-rule="nonzero"/><path fill="#f7e547" d="M 343.402344 460.242188 L 345.996094 464.710938 L 347.277344 455.59375 L 344.902344 450.628906 L 343.402344 460.242188 " fill-opacity="1" fill-rule="nonzero"/><path fill="#f7e547" d="M 340.871094 474.773438 L 343.730469 478.253906 C 343.730469 478.253906 344.160156 475.984375 344.582031 473.71875 C 344.949219 471.453125 345.328125 469.171875 345.328125 469.171875 L 342.628906 464.984375 C 342.628906 464.984375 342.214844 467.4375 341.792969 469.871094 C 341.332031 472.328125 340.871094 474.773438 340.871094 474.773438 " fill-opacity="1" fill-rule="nonzero"/><path fill="#f7e547" d="M 337.351562 489.253906 L 340.386719 491.554688 C 340.386719 491.554688 341.082031 489.355469 341.675781 487.128906 C 342.347656 484.929688 342.785156 482.667969 342.785156 482.667969 L 339.863281 479.570312 C 339.863281 479.570312 339.398438 482.027344 338.699219 484.433594 C 338.070312 486.863281 337.351562 489.253906 337.351562 489.253906 " fill-opacity="1" fill-rule="nonzero"/><path fill="#f7e547" d="M 331.644531 502.507812 L 334.675781 504.367188 C 334.675781 504.367188 335.867188 502.207031 337.050781 500.03125 C 337.972656 497.921875 338.894531 495.808594 338.894531 495.808594 L 335.792969 493.894531 C 335.792969 493.894531 334.820312 496.167969 333.859375 498.460938 C 332.75 500.484375 331.644531 502.507812 331.644531 502.507812 " fill-opacity="1" fill-rule="nonzero"/><path fill="#f7e547" d="M 322.558594 512.296875 L 324.542969 515.253906 C 324.542969 515.253906 326.621094 513.777344 328.484375 512.09375 C 330.222656 510.257812 331.957031 508.445312 331.878906 508.367188 L 329.085938 506.164062 C 329.164062 506.234375 327.582031 507.851562 326.046875 509.492188 C 324.375 510.984375 322.558594 512.296875 322.558594 512.296875 " fill-opacity="1" fill-rule="nonzero"/><path fill="#f7e547" d="M 310.085938 516.84375 L 310.578125 520.378906 C 310.578125 520.378906 311.195312 520.28125 312.117188 520.125 C 313.042969 519.925781 314.308594 519.875 315.484375 519.386719 C 317.886719 518.601562 320.269531 517.792969 320.226562 517.667969 L 318.738281 514.4375 C 318.785156 514.558594 316.648438 515.246094 314.519531 515.964844 C 313.480469 516.40625 312.308594 516.433594 311.484375 516.621094 C 310.640625 516.761719 310.085938 516.84375 310.085938 516.84375 " fill-opacity="1" fill-rule="nonzero"/><path fill="#f7e547" d="M 296.421875 516.625 L 295.902344 520.144531 C 295.902344 520.144531 298.347656 520.394531 300.789062 520.652344 C 302.011719 520.824219 303.246094 520.832031 304.179688 520.777344 C 305.105469 520.765625 305.730469 520.742188 305.730469 520.742188 L 305.636719 517.179688 C 305.632812 517.089844 303.347656 517.4375 301.039062 517.089844 C 298.734375 516.859375 296.421875 516.625 296.421875 516.625 " fill-opacity="1" fill-rule="nonzero"/><path fill="#f7e547" d="M 284.949219 510.816406 L 282.441406 513.351562 C 282.441406 513.351562 284.34375 515.058594 286.429688 516.589844 C 288.785156 517.847656 291.203125 519.144531 291.175781 518.941406 L 292.109375 515.511719 C 291.941406 515.648438 290.226562 514.515625 288.359375 513.59375 C 286.628906 512.296875 284.949219 510.828125 284.949219 510.816406 " fill-opacity="1" fill-rule="nonzero"/><path fill="#f7e547" d="M 277.644531 499.503906 L 274.382812 500.949219 C 274.382812 500.949219 274.640625 501.511719 275.023438 502.359375 C 275.394531 503.195312 275.878906 504.335938 276.574219 505.375 C 277.847656 507.523438 279.144531 509.640625 279.246094 509.597656 L 282.109375 507.46875 C 282.027344 507.546875 280.847656 505.585938 279.675781 503.617188 C 279.035156 502.6875 278.585938 501.613281 278.234375 500.816406 C 277.875 500.023438 277.644531 499.503906 277.644531 499.503906 " fill-opacity="1" fill-rule="nonzero"/><path fill="#f7e547" d="M 273.269531 486.308594 L 269.816406 487.152344 C 269.816406 487.152344 270.429688 489.511719 271.050781 491.863281 C 271.757812 494.183594 272.597656 496.488281 272.597656 496.488281 L 275.945312 495.28125 C 275.945312 495.28125 275.152344 493.09375 274.464844 490.855469 C 273.867188 488.582031 273.269531 486.308594 273.269531 486.308594 " fill-opacity="1" fill-rule="nonzero"/><path fill="#f7e547" d="M 270.65625 472.492188 L 267.136719 473 C 267.136719 473 267.503906 475.390625 267.859375 477.777344 C 268.328125 480.148438 268.789062 482.519531 268.789062 482.519531 L 272.28125 481.808594 C 272.28125 481.808594 271.828125 479.484375 271.375 477.175781 C 271.015625 474.824219 270.65625 472.492188 270.65625 472.492188 " fill-opacity="1" fill-rule="nonzero"/><path fill="#f7e547" d="M 269.097656 458.4375 L 265.550781 458.742188 C 265.550781 458.742188 265.769531 461.136719 265.972656 463.539062 C 266.242188 465.921875 266.515625 468.320312 266.515625 468.320312 L 270.058594 467.890625 C 270.058594 467.890625 269.78125 465.53125 269.511719 463.179688 C 269.308594 460.8125 269.097656 458.4375 269.097656 458.4375 " fill-opacity="1" fill-rule="nonzero"/><path fill="#f7e547" d="M 268.195312 444.308594 L 264.640625 444.457031 L 265.171875 454.054688 L 268.722656 453.800781 L 268.195312 444.308594 " fill-opacity="1" fill-rule="nonzero"/><path fill="#f7e547" d="M 267.796875 430.109375 L 264.234375 430.171875 L 264.476562 439.769531 L 268.039062 439.636719 L 267.796875 430.109375 " fill-opacity="1" fill-rule="nonzero"/><path fill="#f7e547" d="M 267.6875 415.898438 L 264.121094 415.898438 L 264.160156 425.476562 L 267.71875 425.4375 L 267.6875 415.898438 " fill-opacity="1" fill-rule="nonzero"/><path fill="#f7e547" d="M 267.789062 401.675781 L 264.230469 401.632812 L 264.144531 411.207031 L 267.707031 411.222656 L 267.789062 401.675781 " fill-opacity="1" fill-rule="nonzero"/><path fill="#f7e547" d="M 268.011719 387.445312 L 264.453125 387.382812 L 264.292969 396.953125 L 267.855469 397 L 268.011719 387.445312 " fill-opacity="1" fill-rule="nonzero"/><path fill="#f7e547" d="M 268.277344 373.203125 L 264.714844 373.132812 L 264.546875 382.703125 L 268.101562 382.757812 L 268.277344 373.203125 " fill-opacity="1" fill-rule="nonzero"/><path fill="#f7e547" d="M 268.496094 358.941406 L 264.929688 358.902344 L 264.800781 368.457031 L 268.359375 368.503906 L 268.496094 358.941406 " fill-opacity="1" fill-rule="nonzero"/><path fill="#f7e547" d="M 268.554688 344.671875 L 265 344.679688 L 264.976562 354.226562 L 268.535156 354.257812 L 268.554688 344.671875 " fill-opacity="1" fill-rule="nonzero"/><path fill="#f7e547" d="M 268.335938 330.371094 L 264.773438 330.480469 L 264.96875 340.011719 L 268.523438 339.96875 L 268.335938 330.371094 " fill-opacity="1" fill-rule="nonzero"/><path fill="#f7e547" d="M 267.597656 316.066406 L 264.046875 316.347656 C 264.046875 316.347656 264.257812 318.707031 264.363281 321.078125 C 264.5 323.449219 264.625 325.832031 264.625 325.832031 L 268.175781 325.675781 C 268.175781 325.675781 268.050781 323.269531 267.917969 320.867188 C 267.8125 318.464844 267.597656 316.066406 267.597656 316.066406 " fill-opacity="1" fill-rule="nonzero"/><path fill="#f7e547" d="M 265.875 301.757812 L 262.363281 302.375 C 262.363281 302.375 262.835938 304.675781 263.078125 307.023438 C 263.371094 309.371094 263.644531 311.71875 263.644531 311.71875 L 267.191406 311.363281 C 267.191406 311.363281 266.910156 308.949219 266.605469 306.554688 C 266.351562 304.148438 265.875 301.757812 265.875 301.757812 " fill-opacity="1" fill-rule="nonzero"/><path fill="#f7e547" d="M 261.925781 287.660156 L 258.65625 289.078125 L 258.789062 289.34375 L 260.332031 293.527344 C 260.757812 294.957031 261.085938 296.429688 261.476562 297.875 L 264.933594 297.070312 C 264.535156 295.53125 264.191406 293.980469 263.730469 292.449219 L 262.058594 287.941406 L 261.925781 287.660156 " fill-opacity="1" fill-rule="nonzero"/><path fill="#f7e547" d="M 254.5 275.058594 L 251.65625 277.203125 C 251.65625 277.203125 253.023438 279.050781 254.394531 280.925781 C 255.472656 282.988281 256.542969 285.046875 256.542969 285.046875 L 259.695312 283.386719 C 259.695312 283.386719 258.5625 281.214844 257.417969 279.035156 C 255.960938 277.050781 254.5 275.058594 254.5 275.058594 " fill-opacity="1" fill-rule="nonzero"/><path fill="#f7e547" d="M 244.191406 264.574219 L 242.09375 267.441406 C 242.09375 267.441406 242.601562 267.71875 243.28125 268.242188 C 243.90625 268.835938 244.75 269.628906 245.574219 270.414062 C 247.257812 271.996094 248.9375 273.566406 248.9375 273.566406 L 251.585938 271.195312 C 251.585938 271.195312 249.785156 269.484375 247.96875 267.785156 C 247.066406 266.933594 246.160156 266.074219 245.476562 265.445312 C 244.746094 264.867188 244.195312 264.574219 244.191406 264.574219 " fill-opacity="1" fill-rule="nonzero"/><path fill="#f7e547" d="M 230.902344 258.015625 L 229.960938 261.445312 C 229.992188 261.320312 232.085938 262.257812 234.21875 263.066406 C 235.273438 263.507812 236.371094 263.84375 237.109375 264.265625 C 237.835938 264.734375 238.316406 265.039062 238.316406 265.039062 L 240.070312 261.933594 C 240.070312 261.933594 239.542969 261.605469 238.757812 261.101562 C 237.941406 260.640625 236.738281 260.265625 235.585938 259.78125 C 233.253906 258.886719 230.941406 257.898438 230.902344 258.015625 " fill-opacity="1" fill-rule="nonzero"/><path fill="#f7e547" d="M 216.113281 256.757812 L 216.464844 260.296875 C 216.464844 260.273438 217.039062 260.257812 217.898438 260.265625 C 218.75 260.265625 219.894531 260.265625 221.039062 260.265625 C 223.335938 260.070312 225.566406 260.640625 225.566406 260.640625 L 226.082031 257.117188 C 226.082031 257.117188 223.628906 256.523438 221.117188 256.695312 C 219.867188 256.699219 218.613281 256.703125 217.683594 256.710938 C 216.738281 256.699219 216.117188 256.726562 216.113281 256.757812 " fill-opacity="1" fill-rule="nonzero"/><path fill="#f7e547" d="M 201.859375 260.710938 L 203.359375 263.9375 C 203.359375 263.9375 211.949219 260.679688 212.0625 261.125 L 211.3125 257.640625 C 211.3125 257.640625 208.816406 257.960938 206.519531 258.96875 C 204.183594 259.835938 201.859375 260.710938 201.859375 260.710938 " fill-opacity="1" fill-rule="nonzero"/><path fill="#f7e547" d="M 189.625 268.964844 L 192.035156 271.578125 C 192.035156 271.578125 193.832031 270.152344 195.640625 268.710938 C 197.347656 267.140625 199.449219 266.15625 199.449219 266.15625 L 197.621094 263.101562 C 197.617188 263.101562 195.355469 264.183594 193.507812 265.859375 C 191.5625 267.40625 189.625 268.964844 189.625 268.964844 " fill-opacity="1" fill-rule="nonzero"/><path fill="#f7e547" d="M 180.425781 280.449219 L 183.480469 282.277344 C 183.480469 282.277344 184.75 280.34375 186.019531 278.425781 C 187.222656 276.441406 189.035156 274.941406 188.953125 274.878906 L 186.304688 272.507812 C 186.382812 272.558594 184.457031 274.195312 183.148438 276.308594 C 181.785156 278.386719 180.425781 280.449219 180.425781 280.449219 " fill-opacity="1" fill-rule="nonzero"/><path fill="#f7e547" d="M 174.824219 294.023438 L 178.265625 294.9375 C 178.265625 294.9375 178.835938 292.691406 179.515625 290.480469 C 180.460938 288.382812 181.417969 286.269531 181.417969 286.269531 L 178.191406 284.75 C 178.191406 284.75 177.175781 287.003906 176.167969 289.269531 C 175.4375 291.625 174.824219 294.023438 174.824219 294.023438 " fill-opacity="1" fill-rule="nonzero"/><path fill="#f7e547" d="M 172.851562 308.597656 L 176.40625 308.515625 C 176.40625 308.515625 176.390625 307.945312 176.363281 307.074219 C 176.457031 306.21875 176.585938 305.078125 176.707031 303.929688 C 176.941406 301.628906 177.191406 299.328125 177.191406 299.328125 L 173.683594 298.726562 C 173.683594 298.726562 173.425781 301.175781 173.160156 303.636719 C 173.03125 304.867188 172.902344 306.109375 172.800781 307.042969 C 172.828125 307.96875 172.851562 308.597656 172.851562 308.597656 " fill-opacity="1" fill-rule="nonzero"/><path fill="#f7e547" d="M 175.179688 323.027344 L 178.625 322.144531 C 178.625 322.144531 178.050781 319.855469 177.570312 317.5625 C 177.285156 316.425781 177.085938 315.273438 176.984375 314.425781 C 176.863281 313.566406 176.78125 312.996094 176.78125 312.996094 L 173.246094 313.421875 C 173.246094 313.421875 173.328125 314.042969 173.46875 314.957031 C 173.570312 315.886719 173.792969 317.105469 174.082031 318.285156 C 174.582031 320.675781 175.179688 323.027344 175.179688 323.027344 " fill-opacity="1" fill-rule="nonzero"/><path fill="#f7e547" d="M 179.324219 336.789062 L 182.703125 335.667969 C 182.703125 335.667969 181.90625 333.417969 181.230469 331.140625 C 180.542969 328.875 179.839844 326.605469 179.839844 326.605469 L 176.421875 327.601562 C 176.421875 327.601562 177.132812 329.90625 177.839844 332.214844 C 178.527344 334.53125 179.324219 336.789062 179.324219 336.789062 " fill-opacity="1" fill-rule="nonzero"/><path fill="#f7e547" d="M 184.070312 350.277344 L 187.417969 349.054688 L 184.203125 340.078125 L 180.835938 341.25 L 184.070312 350.277344 " fill-opacity="1" fill-rule="nonzero"/><path fill="#f7e547" d="M 189.019531 363.644531 L 192.351562 362.394531 L 189.023438 353.441406 L 185.683594 354.675781 L 189.019531 363.644531 " fill-opacity="1" fill-rule="nonzero"/><path fill="#f7e547" d="M 193.964844 377 L 197.304688 375.765625 L 193.992188 366.785156 L 190.652344 368.042969 L 193.964844 377 " fill-opacity="1" fill-rule="nonzero"/><path fill="#f7e547" d="M 198.707031 390.386719 L 202.074219 389.230469 L 198.894531 380.1875 L 195.550781 381.390625 L 198.707031 390.386719 " fill-opacity="1" fill-rule="nonzero"/><path fill="#f7e547" d="M 203.074219 403.878906 L 206.480469 402.847656 L 203.578125 393.679688 L 200.191406 394.804688 L 203.074219 403.878906 " fill-opacity="1" fill-rule="nonzero"/><path fill="#f7e547" d="M 206.824219 417.515625 L 210.285156 416.660156 C 210.285156 416.671875 209.738281 414.320312 209.089844 412 C 208.457031 409.675781 207.832031 407.355469 207.832031 407.355469 L 204.410156 408.332031 C 204.410156 408.332031 205.027344 410.621094 205.644531 412.914062 C 206.285156 415.195312 206.824219 417.515625 206.824219 417.515625 " fill-opacity="1" fill-rule="nonzero"/><path fill="#f7e547" d="M 209.542969 431.3125 L 213.066406 430.796875 C 213.066406 430.796875 212.71875 428.398438 212.265625 426.027344 C 211.867188 423.628906 211.34375 421.28125 211.34375 421.28125 L 207.855469 422.027344 C 207.855469 422.027344 208.375 424.335938 208.761719 426.65625 C 209.207031 428.972656 209.542969 431.3125 209.542969 431.3125 " fill-opacity="1" fill-rule="nonzero"/><path fill="#f7e547" d="M 210.449219 445.183594 L 214.003906 445.300781 C 214 445.300781 214.167969 442.832031 213.960938 440.394531 C 213.90625 439.179688 213.847656 437.957031 213.800781 437.039062 C 213.742188 436.128906 213.644531 435.519531 213.640625 435.519531 L 210.105469 435.875 C 210.105469 435.875 210.199219 436.449219 210.25 437.328125 C 210.289062 438.203125 210.355469 439.371094 210.40625 440.535156 C 210.601562 442.878906 210.449219 445.183594 210.449219 445.183594 " fill-opacity="1" fill-rule="nonzero"/><path fill="#f7e547" d="M 208.078125 458.515625 L 211.386719 459.828125 C 211.386719 459.828125 212.140625 457.421875 212.898438 455.027344 C 213.300781 452.566406 213.699219 450.109375 213.699219 450.109375 L 210.160156 449.699219 C 210.160156 449.699219 209.792969 451.953125 209.433594 454.210938 C 208.757812 456.359375 208.078125 458.515625 208.078125 458.515625 " fill-opacity="1" fill-rule="nonzero"/><path fill="#f7e547" d="M 200.082031 468.71875 L 202.109375 471.636719 C 202.109375 471.636719 202.613281 471.246094 203.367188 470.652344 C 204.070312 470 205.273438 469.40625 206.011719 468.332031 C 207.683594 466.375 209.273438 464.351562 209.140625 464.28125 L 206.113281 462.398438 C 206.238281 462.492188 204.832031 464.183594 203.429688 465.882812 C 201.941406 467.476562 200.023438 468.640625 200.082031 468.71875 " fill-opacity="1" fill-rule="nonzero"/><path fill="#f7e547" d="M 187.617188 473.253906 L 188.148438 476.777344 C 188.191406 477.203125 197.898438 474.488281 197.757812 474.039062 L 196.289062 470.792969 C 196.484375 471.171875 187.714844 473.632812 187.617188 473.253906 " fill-opacity="1" fill-rule="nonzero"/><path fill="#f7e547" d="M 173.828125 473.585938 L 173.550781 477.132812 C 173.550781 477.144531 174.152344 477.265625 175.078125 477.261719 C 175.996094 477.265625 177.21875 477.289062 178.441406 477.3125 C 179.667969 477.328125 180.890625 477.355469 181.804688 477.359375 C 182.722656 477.417969 183.339844 477.300781 183.339844 477.300781 L 183.136719 473.746094 C 183.148438 473.84375 180.820312 473.792969 178.492188 473.75 C 177.328125 473.730469 176.164062 473.710938 175.289062 473.695312 C 174.421875 473.710938 173.828125 473.585938 173.828125 473.585938 " fill-opacity="1" fill-rule="nonzero"/><g clip-path="url(#adad943180)"><path fill="#f7e547" d="M 159.992188 471.488281 L 159.285156 474.984375 C 159.285156 474.984375 161.660156 475.457031 164.027344 475.9375 C 166.402344 476.386719 168.835938 476.589844 168.835938 476.589844 L 169.273438 473.054688 C 169.273438 473.054688 166.933594 472.867188 164.621094 472.417969 C 162.304688 471.945312 159.992188 471.488281 159.992188 471.488281 " fill-opacity="1" fill-rule="nonzero"/></g><path fill="#cfeef6" d="M 447.410156 239.289062 C 446.804688 253.75 434.578125 264.945312 420.128906 264.328125 C 405.667969 263.695312 394.464844 251.480469 395.0625 237.007812 C 395.707031 222.554688 407.933594 211.363281 422.367188 211.96875 C 436.832031 212.597656 448.03125 224.816406 447.410156 239.289062 " fill-opacity="1" fill-rule="nonzero"/><path fill="#cfeef6" d="M 418.347656 306.078125 C 380.859375 304.457031 351.769531 272.730469 353.394531 235.214844 C 355.019531 197.707031 386.71875 168.609375 424.214844 170.222656 C 461.683594 171.851562 490.816406 203.570312 489.164062 241.082031 C 487.554688 278.59375 455.867188 307.695312 418.347656 306.078125 Z M 512.347656 223.59375 C 504.105469 216.246094 499.734375 203.753906 501.371094 193.171875 C 502.398438 186.542969 521.007812 175.019531 521.007812 175.019531 L 493.246094 144.828125 C 493.246094 144.828125 480.214844 162.492188 473.558594 162.953125 C 463.367188 163.691406 451.84375 158.460938 445.648438 149.949219 C 441.707031 144.53125 446.804688 123.234375 446.804688 123.234375 L 405.792969 121.464844 C 405.792969 121.464844 409.007812 143.152344 404.648438 148.179688 C 398.59375 155.132812 387.820312 158.671875 379.011719 156.914062 C 372.445312 155.605469 361.835938 136.457031 361.835938 136.457031 L 330.417969 162.851562 C 330.417969 162.851562 347.421875 176.640625 347.601562 183.308594 C 347.871094 194.519531 341.925781 206.878906 332.53125 213.574219 C 327.078125 217.46875 305.804688 212.085938 305.804688 212.085938 L 303.507812 253.085938 C 303.507812 253.085938 325.179688 250.109375 330.144531 254.546875 C 338.390625 261.929688 342.777344 274.429688 341.136719 285.003906 C 340.121094 291.609375 321.476562 303.128906 321.476562 303.128906 L 349.242188 333.316406 C 349.242188 333.316406 362.257812 315.667969 368.9375 315.207031 C 379.101562 314.484375 390.664062 319.722656 396.871094 328.199219 C 400.808594 333.628906 395.742188 354.914062 395.742188 354.914062 L 436.722656 356.683594 C 436.722656 356.683594 433.472656 335.007812 437.839844 329.976562 C 443.90625 323.027344 454.714844 319.476562 463.519531 321.246094 C 470.058594 322.566406 480.683594 341.710938 480.683594 341.710938 L 512.089844 315.304688 C 512.089844 315.304688 495.097656 301.515625 494.898438 294.839844 C 494.644531 283.644531 500.582031 271.289062 509.980469 264.574219 C 515.429688 260.71875 536.722656 266.085938 536.722656 266.085938 L 538.984375 225.09375 C 538.984375 225.09375 517.34375 228.039062 512.347656 223.59375 " fill-opacity="1" fill-rule="nonzero"/><path fill="#cfeef6" d="M 473.160156 241.316406 C 471.933594 269.996094 447.703125 292.242188 419.035156 290.988281 C 390.390625 289.75 368.167969 265.511719 369.40625 236.855469 C 370.632812 208.15625 394.863281 185.9375 423.523438 187.15625 C 452.183594 188.40625 474.410156 212.648438 473.160156 241.316406 " fill-opacity="1" fill-rule="nonzero"/><path fill="#414872" d="M 325.636719 167.367188 L 281.605469 121.980469 L 238.847656 167.335938 L 234.921875 163.636719 L 281.546875 114.167969 L 329.507812 163.605469 L 325.636719 167.367188 " fill-opacity="1" fill-rule="nonzero"/><path fill="#414872" d="M 325.636719 245.140625 L 281.605469 199.757812 L 238.847656 245.105469 L 234.921875 241.410156 L 281.546875 191.945312 L 329.507812 241.378906 L 325.636719 245.140625 " fill-opacity="1" fill-rule="nonzero"/><path fill="#414872" d="M 325.636719 330.6875 L 281.605469 285.304688 L 238.847656 330.65625 L 234.921875 326.957031 L 281.546875 277.496094 L 329.507812 326.921875 L 325.636719 330.6875 " fill-opacity="1" fill-rule="nonzero"/><path fill="#686fa6" d="M 307.980469 515.320312 L 258.164062 515.320312 L 269.375 54.292969 L 296.769531 54.292969 L 307.980469 515.320312 " fill-opacity="1" fill-rule="nonzero"/><path fill="#414872" d="M 295.527344 501.390625 L 270.621094 501.390625 L 276.226562 54.292969 L 289.921875 54.292969 L 295.527344 501.390625 " fill-opacity="1" fill-rule="nonzero"/><path fill="#686fa6" d="M 340.078125 521.253906 L 230.710938 521.253906 L 241.929688 496 L 328.859375 496 L 340.078125 521.253906 " fill-opacity="1" fill-rule="nonzero"/><g clip-path="url(#4f01630e42)"><path fill="#414872" d="M 307.980469 66.234375 L 258.167969 66.234375 L 258.167969 37.851562 L 307.980469 37.851562 L 307.980469 66.234375 " fill-opacity="1" fill-rule="nonzero"/></g><path fill="#414872" d="M 371.867188 173.308594 L 198.914062 173.308594 L 198.914062 157.664062 L 371.867188 157.664062 L 371.867188 173.308594 " fill-opacity="1" fill-rule="nonzero"/><path fill="#414872" d="M 371.867188 336.632812 L 198.914062 336.632812 L 198.914062 320.980469 L 371.867188 320.980469 L 371.867188 336.632812 " fill-opacity="1" fill-rule="nonzero"/><path fill="#414872" d="M 394.277344 251.082031 L 168.867188 251.082031 L 168.867188 235.433594 L 394.277344 235.433594 L 394.277344 251.082031 " fill-opacity="1" fill-rule="nonzero"/><path fill="#686fa6" d="M 205.796875 195.855469 L 198.914062 195.855469 L 198.914062 157.664062 L 205.796875 157.664062 L 205.796875 195.855469 " fill-opacity="1" fill-rule="nonzero"/><path fill="#686fa6" d="M 371.867188 195.855469 L 364.992188 195.855469 L 364.992188 157.664062 L 371.867188 157.664062 L 371.867188 195.855469 " fill-opacity="1" fill-rule="nonzero"/><path fill="#6fb8db" d="M 209.1875 205.738281 L 196.070312 205.738281 L 196.070312 180.460938 L 209.1875 180.460938 L 209.1875 205.738281 " fill-opacity="1" fill-rule="nonzero"/><path fill="#686fa6" d="M 175.890625 273.621094 L 169.007812 273.621094 L 169.007812 235.433594 L 175.890625 235.433594 L 175.890625 273.621094 " fill-opacity="1" fill-rule="nonzero"/><path fill="#6fb8db" d="M 179.28125 283.511719 L 166.164062 283.511719 L 166.164062 258.238281 L 179.28125 258.238281 L 179.28125 283.511719 " fill-opacity="1" fill-rule="nonzero"/><path fill="#686fa6" d="M 374.761719 359.167969 L 367.878906 359.167969 L 367.878906 320.980469 L 374.761719 320.980469 L 374.761719 359.167969 " fill-opacity="1" fill-rule="nonzero"/><path fill="#6fb8db" d="M 378.152344 369.058594 L 365.035156 369.058594 L 365.035156 343.78125 L 378.152344 343.78125 L 378.152344 369.058594 " fill-opacity="1" fill-rule="nonzero"/><path fill="#686fa6" d="M 205.796875 359.167969 L 198.914062 359.167969 L 198.914062 320.980469 L 205.796875 320.980469 L 205.796875 359.167969 " fill-opacity="1" fill-rule="nonzero"/><path fill="#6fb8db" d="M 209.1875 369.058594 L 196.070312 369.058594 L 196.070312 343.78125 L 209.1875 343.78125 L 209.1875 369.058594 " fill-opacity="1" fill-rule="nonzero"/><path fill="#686fa6" d="M 394.289062 273.621094 L 387.414062 273.621094 L 387.414062 235.433594 L 394.289062 235.433594 L 394.289062 273.621094 " fill-opacity="1" fill-rule="nonzero"/><path fill="#6fb8db" d="M 397.683594 283.511719 L 384.5625 283.511719 L 384.5625 258.238281 L 397.683594 258.238281 L 397.683594 283.511719 " fill-opacity="1" fill-rule="nonzero"/><path fill="#6fb8db" d="M 374.988281 205.738281 L 361.867188 205.738281 L 361.867188 180.460938 L 374.988281 180.460938 L 374.988281 205.738281 " fill-opacity="1" fill-rule="nonzero"/><path fill="#414872" d="M 558.707031 220.925781 L 521.699219 182.777344 L 485.769531 220.894531 L 481.84375 217.195312 L 521.640625 174.96875 L 562.582031 217.164062 L 558.707031 220.925781 " fill-opacity="1" fill-rule="nonzero"/><path fill="#414872" d="M 558.707031 286.824219 L 521.699219 248.679688 L 485.769531 286.792969 L 481.84375 283.089844 L 521.640625 240.867188 L 562.582031 283.0625 L 558.707031 286.824219 " fill-opacity="1" fill-rule="nonzero"/><path fill="#414872" d="M 558.707031 359.300781 L 521.699219 321.160156 L 485.769531 359.269531 L 481.84375 355.570312 L 521.640625 313.347656 L 562.582031 355.539062 L 558.707031 359.300781 " fill-opacity="1" fill-rule="nonzero"/><path fill="#686fa6" d="M 544.042969 515.453125 L 501.832031 515.453125 L 511.332031 124.835938 L 534.542969 124.835938 L 544.042969 515.453125 " fill-opacity="1" fill-rule="nonzero"/><path fill="#414872" d="M 533.332031 513.214844 L 512.546875 513.214844 L 517.21875 124.835938 L 528.65625 124.835938 L 533.332031 513.214844 " fill-opacity="1" fill-rule="nonzero"/><path fill="#686fa6" d="M 571.234375 520.476562 L 478.570312 520.476562 L 488.078125 499.082031 L 561.726562 499.082031 L 571.234375 520.476562 " fill-opacity="1" fill-rule="nonzero"/><path fill="#414872" d="M 544.042969 134.953125 L 501.835938 134.953125 L 501.835938 110.90625 L 544.042969 110.90625 L 544.042969 134.953125 " fill-opacity="1" fill-rule="nonzero"/><path fill="#414872" d="M 598.171875 225.679688 L 451.628906 225.679688 L 451.628906 212.421875 L 598.171875 212.421875 L 598.171875 225.679688 " fill-opacity="1" fill-rule="nonzero"/><path fill="#414872" d="M 598.171875 364.054688 L 451.628906 364.054688 L 451.628906 350.796875 L 598.171875 350.796875 L 598.171875 364.054688 " fill-opacity="1" fill-rule="nonzero"/><path fill="#414872" d="M 617.160156 291.566406 L 426.175781 291.566406 L 426.175781 278.308594 L 617.160156 278.308594 L 617.160156 291.566406 " fill-opacity="1" fill-rule="nonzero"/><path fill="#686fa6" d="M 457.464844 244.769531 L 451.628906 244.769531 L 451.628906 212.417969 L 457.464844 212.417969 L 457.464844 244.769531 " fill-opacity="1" fill-rule="nonzero"/><path fill="#686fa6" d="M 598.171875 244.769531 L 592.34375 244.769531 L 592.34375 212.421875 L 598.171875 212.421875 L 598.171875 244.769531 " fill-opacity="1" fill-rule="nonzero"/><path fill="#6fb8db" d="M 460.332031 253.152344 L 449.222656 253.152344 L 449.222656 231.730469 L 460.332031 231.730469 L 460.332031 253.152344 " fill-opacity="1" fill-rule="nonzero"/><path fill="#686fa6" d="M 432.125 310.664062 L 426.296875 310.664062 L 426.296875 278.308594 L 432.125 278.308594 L 432.125 310.664062 " fill-opacity="1" fill-rule="nonzero"/><path fill="#6fb8db" d="M 435 319.042969 L 423.882812 319.042969 L 423.882812 297.625 L 435 297.625 L 435 319.042969 " fill-opacity="1" fill-rule="nonzero"/><path fill="#686fa6" d="M 600.625 383.148438 L 594.796875 383.148438 L 594.796875 350.792969 L 600.625 350.792969 L 600.625 383.148438 " fill-opacity="1" fill-rule="nonzero"/><path fill="#6fb8db" d="M 603.5 391.527344 L 592.390625 391.527344 L 592.390625 370.109375 L 603.5 370.109375 L 603.5 391.527344 " fill-opacity="1" fill-rule="nonzero"/><path fill="#686fa6" d="M 457.464844 383.148438 L 451.628906 383.148438 L 451.628906 350.796875 L 457.464844 350.796875 L 457.464844 383.148438 " fill-opacity="1" fill-rule="nonzero"/><path fill="#6fb8db" d="M 460.332031 391.527344 L 449.222656 391.527344 L 449.222656 370.109375 L 460.332031 370.109375 L 460.332031 391.527344 " fill-opacity="1" fill-rule="nonzero"/><path fill="#686fa6" d="M 617.167969 310.664062 L 611.347656 310.664062 L 611.347656 278.308594 L 617.167969 278.308594 L 617.167969 310.664062 " fill-opacity="1" fill-rule="nonzero"/><path fill="#6fb8db" d="M 620.042969 319.042969 L 608.929688 319.042969 L 608.929688 297.625 L 620.042969 297.625 L 620.042969 319.042969 " fill-opacity="1" fill-rule="nonzero"/><path fill="#6fb8db" d="M 600.816406 253.152344 L 589.710938 253.152344 L 589.710938 231.730469 L 600.816406 231.730469 L 600.816406 253.152344 " fill-opacity="1" fill-rule="nonzero"/><path fill="#fabcad" d="M 390.679688 266.84375 C 388.808594 264.425781 381.128906 259.472656 373.484375 263.578125 C 363.265625 269.070312 350.207031 288.800781 334.210938 288.277344 C 318.15625 287.734375 313.117188 278.160156 308.882812 272.210938 C 304.664062 266.226562 305.789062 261.867188 302.933594 258.675781 C 300.085938 255.460938 296.4375 259.007812 300.910156 270.210938 C 303.046875 275.574219 310.457031 303.304688 329.410156 307.464844 C 354.253906 312.925781 401.65625 281.238281 390.679688 266.84375 " fill-opacity="1" fill-rule="nonzero"/><path fill="#ea9e11" d="M 388.191406 261.34375 C 388.191406 261.34375 397.746094 269.722656 385.679688 284.300781 C 373.605469 298.875 366.335938 303.554688 366.335938 303.554688 C 366.335938 303.554688 354.902344 298.792969 345.570312 281.769531 C 345.570312 281.769531 376.441406 247.605469 388.191406 261.34375 " fill-opacity="1" fill-rule="nonzero"/><path fill="#f9ad0c" d="M 421 261.101562 L 420.972656 261.054688 C 414.734375 257.382812 406.621094 256.328125 400.398438 255.46875 C 386.703125 253.558594 364.183594 254.726562 359.082031 278.679688 C 357.417969 286.574219 356.617188 298.175781 356.933594 310.0625 C 356.964844 312.648438 357.027344 315.292969 357.28125 317.894531 C 357.984375 329.5 354.222656 337.175781 358.15625 343.21875 C 369.570312 360.792969 434.554688 373.652344 424.09375 351.945312 C 423.898438 351.441406 419.488281 347.480469 426.886719 345.101562 C 423.710938 335.121094 419.792969 316.699219 426.886719 290.492188 C 432.15625 271.003906 428.261719 265.5 421 261.101562 " fill-opacity="1" fill-rule="nonzero"/><path fill="#1e2640" d="M 410.78125 277.640625 C 407.972656 289.535156 397.9375 325.84375 426.886719 344 C 426.886719 344 378.945312 379.121094 351.523438 348.734375 C 351.523438 348.734375 357.039062 296.90625 364.703125 276.324219 C 366.90625 270.410156 372.746094 252.25 383.273438 254.875 C 383.273438 254.875 364.777344 284.023438 373.214844 291.71875 C 381.648438 299.425781 389.621094 292.949219 393.34375 287.148438 C 399.3125 277.820312 405.683594 256.246094 405.683594 256.246094 L 417.332031 258 C 417.332031 258 413.171875 267.5 410.78125 277.640625 " fill-opacity="1" fill-rule="nonzero"/><path fill="#f7a497" d="M 401.554688 238.109375 C 401.554688 238.109375 395.410156 247.765625 401.945312 254.203125 C 408.660156 260.789062 377.792969 272.433594 379.289062 266.496094 C 381.203125 258.84375 385.765625 254.757812 383.121094 245.339844 L 401.554688 238.109375 " fill-opacity="1" fill-rule="nonzero"/><path fill="#fabcad" d="M 387.683594 216.460938 C 380.257812 221.84375 369.648438 248.320312 375.800781 255.25 C 378.523438 258.273438 391.335938 256.890625 400.742188 245.863281 C 404.621094 241.363281 409.8125 232.589844 406.015625 222.640625 C 404.28125 218.117188 396.296875 210.210938 387.683594 216.460938 " fill-opacity="1" fill-rule="nonzero"/><path fill="#1d1d33" d="M 380.515625 218.902344 C 378.621094 222.15625 378.9375 222.992188 389.085938 225.898438 C 399.203125 228.808594 401.078125 228.347656 399.710938 230.667969 C 395.691406 237.535156 403.242188 237.058594 398.339844 245.199219 C 393.464844 253.367188 402.816406 249.234375 407.53125 242.652344 C 408.464844 241.316406 413.710938 234.933594 410.0625 223.546875 C 405.820312 210.234375 387.550781 206.984375 380.515625 218.902344 " fill-opacity="1" fill-rule="nonzero"/><path fill="#ea9e11" d="M 401.070312 236.699219 C 401.070312 236.699219 369.6875 227.824219 371.144531 218.03125 C 372.046875 212.003906 390.269531 214.367188 390.269531 214.367188 L 401.070312 236.699219 " fill-opacity="1" fill-rule="nonzero"/><path fill="#f9ad0c" d="M 380.515625 218.902344 C 383.03125 228.347656 390.4375 233.542969 409.671875 239.691406 C 409.671875 239.691406 420.085938 221.023438 406.589844 211.136719 C 394.679688 202.433594 378.921875 212.855469 380.515625 218.902344 " fill-opacity="1" fill-rule="nonzero"/><path fill="#fabcad" d="M 422.710938 259.695312 C 419.921875 258.789062 413.101562 259.4375 409.386719 266.828125 C 404.398438 276.722656 404.976562 299.292969 392.1875 307.632812 C 379.351562 315.992188 370.179688 311.269531 363.605469 308.933594 C 357.042969 306.578125 355.542969 302.570312 351.570312 301.609375 C 347.578125 300.664062 346.660156 305.453125 356.289062 311.742188 C 360.898438 314.753906 381.84375 332.378906 398.933594 325.257812 C 421.335938 315.933594 439.144531 264.917969 422.710938 259.695312 " fill-opacity="1" fill-rule="nonzero"/><path fill="#ea9e11" d="M 420.269531 258.273438 C 420.269531 258.273438 432.339844 259.605469 430.855469 277.621094 C 429.386719 295.597656 426.265625 303.234375 426.265625 303.234375 C 426.265625 303.234375 414.726562 305.773438 398.125 297.578125 C 398.125 297.578125 403.585938 253.980469 420.269531 258.273438 " fill-opacity="1" fill-rule="nonzero"/><path fill="#fabcad" d="M 343.949219 398.851562 C 346.628906 433.09375 360.601562 486.386719 362.550781 515.210938 C 362.699219 517.203125 363.039062 517.578125 354.988281 519.28125 C 345.683594 521.207031 352.839844 525.238281 367.40625 525.144531 C 381.078125 525.03125 387.175781 471.066406 388.5 442.519531 C 388.90625 434.492188 385.472656 410.21875 390.136719 387.347656 C 390.691406 395.910156 391.5 405.660156 392.675781 416.324219 C 396.164062 447.550781 437.214844 488.511719 440.308594 514.78125 C 440.53125 516.804688 440.238281 517.589844 433.035156 519.621094 C 425.839844 521.636719 432.820312 525.417969 445.304688 525.144531 C 457.804688 524.832031 450.175781 470.4375 443.671875 444.972656 C 438.007812 422.703125 340.855469 359.332031 343.949219 398.851562 " fill-opacity="1" fill-rule="nonzero"/><path fill="#f9ad0c" d="M 375.074219 518.644531 C 375.074219 518.644531 364.214844 522.957031 357.5 518.644531 C 357.5 518.644531 345.257812 520.296875 352.945312 523.277344 C 360.667969 526.269531 375.535156 528.734375 375.074219 518.644531 " fill-opacity="1" fill-rule="nonzero"/><path fill="#f9ad0c" d="M 450.609375 519.621094 C 450.609375 519.621094 439.738281 523.914062 433.035156 519.621094 C 433.035156 519.621094 420.785156 521.292969 428.511719 524.253906 C 436.21875 527.246094 451.0625 529.722656 450.609375 519.621094 " fill-opacity="1" fill-rule="nonzero"/><path fill="#1e2640" d="M 353.613281 331.703125 C 378.507812 348.324219 413.332031 346.632812 426.886719 344 C 430.550781 373.640625 452.808594 484.832031 455.320312 500.09375 C 444.390625 503.71875 440.753906 504.484375 437.589844 504.484375 C 384.808594 436.378906 390.875 407.167969 390.316406 398.609375 C 388.324219 408.496094 394.839844 456.957031 383.445312 504.484375 C 379.625 506.953125 368.058594 510.15625 359.777344 504.484375 C 359.359375 501.445312 343.871094 446.863281 344.210938 404.136719 C 344.441406 375.011719 349.3125 355.019531 353.613281 331.703125 " fill-opacity="1" fill-rule="nonzero"/><path fill="#ffffff" d="M 425.148438 369.105469 C 409.664062 364.191406 408.300781 348.875 408.285156 348.730469 L 410.339844 348.578125 C 410.382812 349.132812 411.636719 362.660156 425.773438 367.152344 L 425.148438 369.105469 " fill-opacity="1" fill-rule="nonzero"/><path fill="#ffffff" d="M 352.6875 365.289062 L 352.054688 363.324219 C 366.242188 358.832031 367.484375 344.890625 367.496094 344.75 L 369.546875 344.90625 C 369.53125 345.070312 368.167969 360.382812 352.6875 365.289062 " fill-opacity="1" fill-rule="nonzero"/><g clip-path="url(#ef480bde98)"><path fill="#6fb8db" d="M 637.484375 212.167969 C 634.007812 212.167969 631.171875 215 631.171875 218.484375 C 631.171875 221.960938 634.007812 224.785156 637.484375 224.785156 C 640.960938 224.785156 643.792969 221.960938 643.792969 218.484375 C 643.792969 215 640.960938 212.167969 637.484375 212.167969 Z M 637.484375 229.867188 C 631.207031 229.867188 626.097656 224.757812 626.097656 218.484375 C 626.097656 212.199219 631.207031 207.089844 637.484375 207.089844 C 643.761719 207.089844 648.871094 212.199219 648.871094 218.484375 C 648.871094 224.757812 643.761719 229.867188 637.484375 229.867188 " fill-opacity="1" fill-rule="nonzero"/></g><path fill="#f9ad0c" d="M 233.855469 396.277344 C 234.785156 395.039062 235.175781 390.8125 236.726562 390.785156 C 238.269531 390.757812 238.683594 395.09375 239.800781 396.160156 C 240.917969 397.238281 245.355469 397.480469 245.289062 399.035156 C 245.222656 400.582031 240.84375 400.871094 239.917969 402.113281 C 238.988281 403.351562 238.597656 407.675781 237.046875 407.597656 C 235.5 407.53125 235.207031 403.160156 233.972656 402.230469 C 232.730469 401.296875 228.414062 400.910156 228.480469 399.351562 C 228.550781 397.808594 232.925781 397.519531 233.855469 396.277344 " fill-opacity="1" fill-rule="nonzero"/><path fill="#1e2640" d="M 636.566406 267.839844 L 641.082031 267.820312 L 641.019531 257.089844 L 636.515625 257.109375 L 636.566406 267.839844 " fill-opacity="1" fill-rule="nonzero"/><path fill="#1e2640" d="M 636.648438 283.820312 L 641.160156 283.800781 L 641.101562 273.066406 L 636.589844 273.085938 L 636.648438 283.820312 " fill-opacity="1" fill-rule="nonzero"/><path fill="#1e2640" d="M 636.726562 299.796875 L 641.242188 299.777344 L 641.1875 289.046875 L 636.679688 289.066406 L 636.726562 299.796875 " fill-opacity="1" fill-rule="nonzero"/><path fill="#1e2640" d="M 636.804688 315.78125 L 641.316406 315.753906 L 641.265625 305.03125 L 636.757812 305.046875 L 636.804688 315.78125 " fill-opacity="1" fill-rule="nonzero"/><path fill="#1e2640" d="M 636.890625 331.761719 L 641.40625 331.742188 L 641.347656 321.011719 L 636.835938 321.027344 L 636.890625 331.761719 " fill-opacity="1" fill-rule="nonzero"/><path fill="#1e2640" d="M 636.96875 347.742188 L 641.480469 347.71875 L 641.425781 336.992188 L 636.914062 337.011719 L 636.96875 347.742188 " fill-opacity="1" fill-rule="nonzero"/><path fill="#1e2640" d="M 637.046875 363.722656 L 641.558594 363.699219 L 641.503906 352.96875 L 636.996094 352.992188 L 637.046875 363.722656 " fill-opacity="1" fill-rule="nonzero"/><path fill="#1e2640" d="M 637.132812 379.703125 L 641.644531 379.6875 L 641.59375 368.953125 L 637.078125 368.976562 L 637.132812 379.703125 " fill-opacity="1" fill-rule="nonzero"/><path fill="#1e2640" d="M 637.210938 395.683594 L 641.71875 395.660156 L 641.667969 384.9375 L 637.15625 384.953125 L 637.210938 395.683594 " fill-opacity="1" fill-rule="nonzero"/><path fill="#1e2640" d="M 637.289062 411.664062 L 641.808594 411.648438 L 641.75 400.917969 L 637.242188 400.933594 L 637.289062 411.664062 " fill-opacity="1" fill-rule="nonzero"/><path fill="#1e2640" d="M 637.367188 427.652344 L 641.875 427.625 L 641.832031 416.898438 L 637.320312 416.921875 L 637.367188 427.652344 " fill-opacity="1" fill-rule="nonzero"/><path fill="#1e2640" d="M 637.449219 443.628906 L 641.957031 443.613281 L 641.90625 432.878906 L 637.398438 432.894531 L 637.449219 443.628906 " fill-opacity="1" fill-rule="nonzero"/><path fill="#1e2640" d="M 637.527344 459.613281 L 642.039062 459.585938 L 641.992188 448.863281 L 637.476562 448.878906 L 637.527344 459.613281 " fill-opacity="1" fill-rule="nonzero"/><path fill="#1e2640" d="M 637.613281 475.589844 L 642.121094 475.566406 L 642.078125 464.835938 L 637.558594 464.863281 L 637.613281 475.589844 " fill-opacity="1" fill-rule="nonzero"/><g fill="#e30523" fill-opacity="1"><g transform="translate(171.281508, 739.480201)"><g><path d="M 73.171875 -66.296875 L 29.359375 -66.296875 L 29.359375 -49.84375 L 68.90625 -49.84375 L 68.90625 -33.265625 L 29.359375 -33.265625 L 29.359375 -16.578125 L 74.46875 -16.578125 L 74.46875 0 L 8.28125 0 L 8.28125 -82.875 L 73.171875 -82.875 Z M 73.171875 -66.296875 "/></g></g></g><g fill="#e30523" fill-opacity="1"><g transform="translate(251.081124, 739.480201)"><g><path d="M 49.953125 -64.765625 C 56.984375 -64.765625 62.628906 -62.53125 66.890625 -58.0625 C 71.148438 -53.601562 73.28125 -47.664062 73.28125 -40.25 L 73.28125 0 L 52.921875 0 L 52.921875 -34.5625 C 52.921875 -38.28125 51.910156 -41.222656 49.890625 -43.390625 C 47.878906 -45.554688 45.140625 -46.640625 41.671875 -46.640625 C 38.046875 -46.640625 35.066406 -45.457031 32.734375 -43.09375 C 30.410156 -40.726562 29.050781 -37.609375 28.65625 -33.734375 L 28.65625 0 L 8.171875 0 L 8.171875 -63.8125 L 28.65625 -63.8125 L 28.65625 -53.390625 C 33.15625 -60.804688 40.253906 -64.597656 49.953125 -64.765625 Z M 49.953125 -64.765625 "/></g></g></g><g fill="#e30523" fill-opacity="1"><g transform="translate(330.762296, 739.480201)"><g><path d="M 36.109375 -64.515625 C 47.160156 -64.515625 55.46875 -61.117188 61.03125 -54.328125 C 66.59375 -47.546875 69.019531 -38.238281 68.3125 -26.40625 L 23.4375 -26.40625 C 24.46875 -22.613281 26.285156 -19.691406 28.890625 -17.640625 C 31.492188 -15.585938 34.691406 -14.5625 38.484375 -14.5625 C 44.316406 -14.5625 49.40625 -16.734375 53.75 -21.078125 L 64.515625 -10.53125 C 57.648438 -3.039062 48.378906 0.703125 36.703125 0.703125 C 26.359375 0.703125 18.128906 -2.253906 12.015625 -8.171875 C 5.898438 -14.085938 2.84375 -21.941406 2.84375 -31.734375 C 2.84375 -41.597656 5.898438 -49.523438 12.015625 -55.515625 C 18.128906 -61.515625 26.160156 -64.515625 36.109375 -64.515625 Z M 23.09375 -37.40625 L 48.65625 -37.40625 C 48.65625 -41.28125 47.53125 -44.398438 45.28125 -46.765625 C 43.03125 -49.128906 40.050781 -50.3125 36.34375 -50.3125 C 32.875 -50.3125 29.953125 -49.144531 27.578125 -46.8125 C 25.210938 -44.488281 23.71875 -41.351562 23.09375 -37.40625 Z M 23.09375 -37.40625 "/></g></g></g><g fill="#e30523" fill-opacity="1"><g transform="translate(402.037285, 739.480201)"><g><path d="M 28.65625 -63.8125 L 28.65625 -53.03125 C 33.15625 -60.6875 40.0625 -64.597656 49.375 -64.765625 L 49.375 -46.296875 C 43.53125 -46.847656 38.753906 -45.878906 35.046875 -43.390625 C 31.335938 -40.898438 29.207031 -37.367188 28.65625 -32.796875 L 28.65625 0 L 8.171875 0 L 8.171875 -63.8125 Z M 28.65625 -63.8125 "/></g></g></g><g fill="#e30523" fill-opacity="1"><g transform="translate(452.59282, 739.480201)"><g><path d="M 69.140625 -63.8125 L 69.140625 -5.796875 C 69.140625 3.203125 65.960938 10.382812 59.609375 15.75 C 53.253906 21.113281 44.90625 23.796875 34.5625 23.796875 C 23.988281 23.796875 14.519531 20.992188 6.15625 15.390625 L 13.265625 1.546875 C 19.421875 5.804688 26.007812 7.9375 33.03125 7.9375 C 37.925781 7.9375 41.773438 6.75 44.578125 4.375 C 47.378906 2.007812 48.78125 -1.179688 48.78125 -5.203125 L 48.78125 -11.953125 C 44.4375 -6.273438 38.316406 -3.4375 30.421875 -3.4375 C 22.296875 -3.4375 15.6875 -6.273438 10.59375 -11.953125 C 5.5 -17.640625 2.953125 -25.097656 2.953125 -34.328125 C 2.953125 -43.328125 5.4375 -50.609375 10.40625 -56.171875 C 15.382812 -61.734375 21.898438 -64.515625 29.953125 -64.515625 C 38.078125 -64.597656 44.351562 -61.757812 48.78125 -56 L 48.78125 -63.8125 Z M 35.515625 -18.234375 C 39.460938 -18.234375 42.660156 -19.671875 45.109375 -22.546875 C 47.554688 -25.429688 48.78125 -29.160156 48.78125 -33.734375 C 48.78125 -38.390625 47.554688 -42.160156 45.109375 -45.046875 C 42.660156 -47.929688 39.460938 -49.375 35.515625 -49.375 C 31.492188 -49.375 28.238281 -47.929688 25.75 -45.046875 C 23.257812 -42.160156 22.015625 -38.390625 22.015625 -33.734375 C 22.015625 -29.160156 23.257812 -25.429688 25.75 -22.546875 C 28.238281 -19.671875 31.492188 -18.234375 35.515625 -18.234375 Z M 35.515625 -18.234375 "/></g></g></g><g fill="#e30523" fill-opacity="1"><g transform="translate(529.195674, 739.480201)"><g><path d="M 39.1875 -84.40625 L 23.796875 -71.03125 L 8.171875 -71.03125 L 20.71875 -90.921875 Z M 28.53125 0 L 8.171875 0 L 8.171875 -63.8125 L 28.53125 -63.8125 Z M 28.53125 0 "/></g></g></g><g fill="#e30523" fill-opacity="1"><g transform="translate(566.017164, 739.480201)"><g><path d="M 36.8125 -64.765625 C 45.570312 -64.765625 52.378906 -62.726562 57.234375 -58.65625 C 62.085938 -54.59375 64.554688 -48.929688 64.640625 -41.671875 L 64.640625 0 L 44.640625 0 L 44.640625 -7.34375 C 40.453125 -1.8125 33.9375 0.953125 25.09375 0.953125 C 18.382812 0.953125 13.054688 -0.898438 9.109375 -4.609375 C 5.171875 -8.328125 3.203125 -13.144531 3.203125 -19.0625 C 3.203125 -25.132812 5.3125 -29.847656 9.53125 -33.203125 C 13.75 -36.554688 19.804688 -38.273438 27.703125 -38.359375 L 44.515625 -38.359375 L 44.515625 -39.3125 C 44.515625 -42.46875 43.46875 -44.929688 41.375 -46.703125 C 39.28125 -48.484375 36.179688 -49.375 32.078125 -49.375 C 26.316406 -49.375 19.960938 -47.597656 13.015625 -44.046875 L 7.21875 -57.53125 C 17.5625 -62.351562 27.425781 -64.765625 36.8125 -64.765625 Z M 31.375 -12.90625 C 34.613281 -12.90625 37.453125 -13.710938 39.890625 -15.328125 C 42.335938 -16.953125 43.878906 -19.066406 44.515625 -21.671875 L 44.515625 -27.34375 L 31.609375 -27.34375 C 25.453125 -27.34375 22.375 -25.054688 22.375 -20.484375 C 22.375 -18.117188 23.160156 -16.265625 24.734375 -14.921875 C 26.316406 -13.578125 28.53125 -12.90625 31.375 -12.90625 Z M 31.375 -12.90625 "/></g></g></g></svg>