<svg xmlns="http://www.w3.org/2000/svg" xmlns:xlink="http://www.w3.org/1999/xlink" width="1080" zoomAndPan="magnify" viewBox="0 0 810 809.999993" height="1080" preserveAspectRatio="xMidYMid meet" version="1.0"><defs><g/><clipPath id="d49f9ea11c"><path d="M 432 310 L 599.296875 310 L 599.296875 603 L 432 603 Z M 432 310 " clip-rule="nonzero"/></clipPath><clipPath id="5f15deac36"><path d="M 177.796875 359 L 259 359 L 259 497 L 177.796875 497 Z M 177.796875 359 " clip-rule="nonzero"/></clipPath><clipPath id="d7e78f97db"><path d="M 177.796875 433 L 210 433 L 210 462 L 177.796875 462 Z M 177.796875 433 " clip-rule="nonzero"/></clipPath><clipPath id="00d8e751fc"><path d="M 177.796875 387 L 259 387 L 259 497 L 177.796875 497 Z M 177.796875 387 " clip-rule="nonzero"/></clipPath></defs><path fill="#999999" d="M 431.835938 289.578125 C 431.773438 289.753906 431.332031 290.757812 431.332031 290.757812 L 429.824219 293.882812 L 426.484375 300.75 L 423.503906 306.910156 L 419.996094 314.125 L 417.011719 320.273438 L 413.242188 328.054688 L 410.320312 334.078125 L 406.535156 341.878906 L 403.480469 348.171875 L 399.433594 356.523438 L 399.421875 356.527344 L 396.027344 363.511719 L 391.992188 371.828125 L 388.941406 378.132812 L 384.925781 386.421875 L 381.972656 392.492188 L 377.570312 401.597656 L 374.585938 407.746094 L 370.273438 416.613281 L 366.992188 423.390625 L 362.675781 432.296875 L 359.691406 438.441406 L 354.902344 448.308594 L 351.4375 455.4375 L 346.707031 465.199219 L 343.480469 471.839844 L 338.722656 481.679688 L 338.707031 481.683594 L 335.679688 487.964844 L 330.691406 498.222656 L 327.324219 505.167969 L 322.558594 515.007812 L 322.570312 515.023438 L 319.546875 521.214844 L 314.777344 531.023438 L 311.996094 536.78125 L 306.835938 547.421875 L 306.816406 547.425781 L 303.117188 555.0625 L 298.011719 565.597656 L 294.003906 573.851562 L 288.96875 584.242188 L 285.257812 591.902344 L 278.632812 588.691406 L 265.886719 582.523438 L 285.277344 544.417969 L 285.308594 544.355469 L 285.324219 544.351562 L 302.445312 510.683594 L 302.480469 510.621094 L 310.480469 494.894531 L 327.070312 462.277344 L 327.066406 462.261719 C 327.066406 462.261719 327.066406 462.261719 327.085938 462.257812 L 335.378906 445.9375 L 335.402344 445.910156 L 343.871094 429.261719 L 343.890625 429.222656 L 351.730469 413.808594 L 351.75 413.765625 L 359.550781 398.453125 L 359.582031 398.375 L 367.039062 383.722656 L 374.582031 368.886719 L 374.609375 368.824219 L 381.882812 354.507812 L 381.917969 354.460938 L 389.4375 339.667969 L 389.46875 339.644531 L 396.734375 325.359375 L 396.757812 325.28125 L 403.605469 311.84375 L 403.625 311.804688 L 417.816406 283.902344 C 417.816406 283.902344 418.230469 283.183594 418.292969 283.058594 C 419.394531 281.207031 421.648438 280.199219 424.257812 280.421875 C 425.195312 280.503906 426.195312 280.734375 427.195312 281.160156 C 427.3125 281.191406 427.433594 281.253906 427.554688 281.304688 C 428.96875 281.945312 429.984375 282.761719 430.679688 283.644531 C 432.378906 285.730469 432.3125 288.183594 431.835938 289.578125 " fill-opacity="1" fill-rule="nonzero"/><path fill="#999999" d="M 431.09375 291.246094 L 285.257812 591.910156 L 288.53125 593.582031 L 433.515625 292.464844 L 431.09375 291.246094 " fill-opacity="1" fill-rule="nonzero"/><path fill="#666666" d="M 415.28125 282.722656 L 263.320312 579.382812 L 266.582031 581.15625 L 417.828125 283.902344 L 415.28125 282.722656 " fill-opacity="1" fill-rule="nonzero"/><path fill="#999999" d="M 263.320312 579.382812 L 262.007812 582.609375 L 265.152344 584.414062 L 266.582031 581.15625 L 263.320312 579.382812 " fill-opacity="1" fill-rule="nonzero"/><path fill="#808080" d="M 285.257812 591.910156 L 283.535156 594.527344 L 286.992188 596.070312 L 288.53125 593.582031 L 285.257812 591.910156 " fill-opacity="1" fill-rule="nonzero"/><path fill="#4d4d4d" d="M 431.835938 289.578125 C 431.773438 289.753906 431.332031 290.757812 431.332031 290.757812 L 429.824219 293.882812 L 426.484375 300.75 L 423.503906 306.910156 L 419.996094 314.125 L 417.011719 320.273438 L 413.242188 328.054688 L 410.320312 334.078125 L 406.535156 341.878906 L 403.480469 348.171875 L 399.433594 356.523438 L 399.421875 356.527344 L 396.027344 363.511719 L 391.992188 371.828125 L 388.941406 378.132812 L 384.925781 386.421875 L 381.972656 392.492188 L 377.570312 401.597656 L 374.585938 407.746094 L 370.273438 416.613281 L 366.992188 423.390625 L 362.675781 432.296875 L 359.691406 438.441406 L 354.902344 448.308594 L 351.4375 455.4375 L 346.707031 465.199219 L 343.480469 471.839844 L 338.722656 481.679688 L 338.707031 481.683594 L 335.679688 487.964844 L 330.691406 498.222656 L 327.324219 505.167969 L 322.558594 515.007812 L 322.570312 515.023438 L 319.546875 521.214844 L 314.777344 531.023438 L 311.996094 536.78125 L 306.835938 547.421875 L 306.816406 547.425781 L 303.117188 555.0625 L 298.011719 565.597656 L 294.003906 573.851562 L 288.96875 584.242188 L 285.257812 591.902344 L 278.632812 588.691406 L 279.59375 588.628906 L 430.679688 283.644531 C 432.378906 285.730469 432.3125 288.183594 431.835938 289.578125 " fill-opacity="1" fill-rule="nonzero"/><path fill="#cccccc" d="M 427.195312 281.160156 L 277.269531 584.410156 L 271.601562 582.363281 L 424.257812 280.421875 C 425.195312 280.503906 426.195312 280.734375 427.195312 281.160156 " fill-opacity="1" fill-rule="nonzero"/><path fill="#b3b3b3" d="M 283.535156 594.523438 C 279.957031 598.132812 273.402344 597.988281 268.871094 594.199219 C 267.371094 592.949219 266.289062 591.445312 265.648438 589.867188 C 264.332031 586.695312 264.785156 583.234375 267.164062 580.835938 C 270.523438 577.453125 276.5 577.367188 280.964844 580.503906 C 281.253906 580.707031 281.535156 580.929688 281.8125 581.152344 C 286.34375 584.941406 287.101562 590.917969 283.535156 594.523438 " fill-opacity="1" fill-rule="nonzero"/><path fill="#808080" d="M 279.460938 589.566406 C 276.101562 592.949219 270.097656 593.011719 265.648438 589.867188 C 264.332031 586.695312 264.785156 583.234375 267.164062 580.835938 C 270.523438 577.453125 276.5 577.367188 280.964844 580.503906 C 282.300781 583.671875 281.851562 587.148438 279.460938 589.566406 " fill-opacity="1" fill-rule="nonzero"/><path fill="#4d4d4d" d="M 294.003906 573.851562 L 288.96875 584.242188 L 288.957031 584.25 L 275.992188 562.726562 C 275.992188 562.726562 285.953125 558.332031 294.003906 573.851562 " fill-opacity="1" fill-rule="nonzero"/><path fill="#e6e6e6" d="M 275.988281 562.722656 C 275.988281 562.722656 276.367188 566.46875 288.960938 584.25 C 288.960938 584.25 288.882812 562.183594 275.988281 562.722656 " fill-opacity="1" fill-rule="nonzero"/><path fill="#4d4d4d" d="M 303.117188 555.0625 L 298.011719 565.597656 L 285.277344 544.417969 L 285.246094 544.375 C 285.246094 544.375 285.277344 544.367188 285.308594 544.355469 L 285.324219 544.351562 C 286.265625 544.050781 295.566406 541.507812 303.117188 555.0625 " fill-opacity="1" fill-rule="nonzero"/><path fill="#e6e6e6" d="M 285.242188 544.378906 C 285.242188 544.378906 285.421875 547.855469 298.015625 565.636719 C 298.015625 565.636719 298.136719 543.839844 285.242188 544.378906 " fill-opacity="1" fill-rule="nonzero"/><path fill="#4d4d4d" d="M 311.996094 536.78125 L 306.835938 547.421875 L 306.816406 547.425781 L 294.460938 526.398438 C 294.460938 526.398438 304.054688 522.535156 311.996094 536.78125 " fill-opacity="1" fill-rule="nonzero"/><path fill="#e6e6e6" d="M 294.472656 526.402344 C 294.472656 526.402344 294.222656 529.648438 306.816406 547.429688 C 306.816406 547.429688 307.367188 525.863281 294.472656 526.402344 " fill-opacity="1" fill-rule="nonzero"/><path fill="#4d4d4d" d="M 319.546875 521.214844 L 314.777344 531.023438 L 302.445312 510.683594 L 302.417969 510.640625 C 302.417969 510.640625 302.433594 510.636719 302.480469 510.621094 C 303.367188 510.320312 312.402344 507.738281 319.546875 521.214844 " fill-opacity="1" fill-rule="nonzero"/><path fill="#e6e6e6" d="M 302.421875 510.632812 C 302.421875 510.632812 303.011719 514.417969 314.804688 531.066406 C 314.804688 531.066406 314.496094 510.125 302.421875 510.632812 " fill-opacity="1" fill-rule="nonzero"/><path fill="#4d4d4d" d="M 327.324219 505.167969 L 322.558594 515.007812 L 310.480469 494.894531 C 310.480469 494.894531 319.832031 491.417969 327.324219 505.167969 " fill-opacity="1" fill-rule="nonzero"/><path fill="#e6e6e6" d="M 310.472656 494.902344 C 310.472656 494.902344 310.777344 498.371094 322.574219 515.023438 C 322.574219 515.023438 322.550781 494.394531 310.472656 494.902344 " fill-opacity="1" fill-rule="nonzero"/><path fill="#4d4d4d" d="M 335.679688 487.964844 L 330.691406 498.222656 L 319.238281 477.757812 C 319.238281 477.757812 328.253906 474.734375 335.679688 487.964844 " fill-opacity="1" fill-rule="nonzero"/><path fill="#e6e6e6" d="M 319.238281 477.761719 C 319.238281 477.761719 318.894531 481.570312 330.691406 498.21875 C 330.691406 498.21875 331.3125 477.257812 319.238281 477.761719 " fill-opacity="1" fill-rule="nonzero"/><path fill="#4d4d4d" d="M 343.480469 471.839844 L 338.722656 481.679688 L 338.707031 481.683594 L 327.070312 462.277344 L 327.066406 462.261719 C 327.066406 462.261719 327.066406 462.261719 327.085938 462.257812 C 327.46875 462.117188 336.292969 459.253906 343.480469 471.839844 " fill-opacity="1" fill-rule="nonzero"/><path fill="#e6e6e6" d="M 327.0625 462.269531 C 327.0625 462.269531 327.011719 465.183594 338.707031 481.691406 C 338.707031 481.691406 339.035156 461.765625 327.0625 462.269531 " fill-opacity="1" fill-rule="nonzero"/><path fill="#4d4d4d" d="M 351.4375 455.4375 L 346.707031 465.199219 C 346.691406 465.207031 346.691406 465.207031 346.675781 465.210938 L 335.378906 445.9375 L 335.371094 445.921875 C 335.371094 445.921875 335.386719 445.917969 335.402344 445.910156 C 335.980469 445.675781 344.324219 442.644531 351.4375 455.4375 " fill-opacity="1" fill-rule="nonzero"/><path fill="#e6e6e6" d="M 335.371094 445.914062 C 335.371094 445.914062 334.988281 448.695312 346.679688 465.203125 C 346.679688 465.203125 347.34375 445.410156 335.371094 445.914062 " fill-opacity="1" fill-rule="nonzero"/><path fill="#4d4d4d" d="M 359.691406 438.441406 L 354.902344 448.308594 L 343.871094 429.261719 L 343.859375 429.230469 C 343.859375 429.230469 343.875 429.226562 343.890625 429.222656 C 344.464844 428.96875 352.582031 425.730469 359.691406 438.441406 " fill-opacity="1" fill-rule="nonzero"/><path fill="#e6e6e6" d="M 343.855469 429.234375 C 343.855469 429.234375 343.214844 431.804688 354.902344 448.308594 C 354.902344 448.308594 355.824219 428.734375 343.855469 429.234375 " fill-opacity="1" fill-rule="nonzero"/><path fill="#4d4d4d" d="M 366.992188 423.390625 L 362.675781 432.296875 L 362.660156 432.300781 L 351.730469 413.808594 L 351.699219 413.78125 C 351.699219 413.78125 351.71875 413.777344 351.75 413.765625 C 352.457031 413.492188 360.398438 410.738281 366.992188 423.390625 " fill-opacity="1" fill-rule="nonzero"/><path fill="#e6e6e6" d="M 351.699219 413.785156 C 351.699219 413.785156 351.875 417.082031 362.652344 432.296875 C 362.652344 432.296875 362.734375 413.324219 351.699219 413.785156 " fill-opacity="1" fill-rule="nonzero"/><path fill="#4d4d4d" d="M 374.585938 407.746094 L 370.273438 416.613281 L 370.257812 416.617188 L 359.550781 398.453125 L 359.519531 398.394531 C 359.519531 398.394531 359.53125 398.390625 359.582031 398.375 C 360.339844 398.046875 368.074219 395.242188 374.585938 407.746094 " fill-opacity="1" fill-rule="nonzero"/><path fill="#e6e6e6" d="M 359.519531 398.402344 C 359.519531 398.402344 359.488281 401.410156 370.261719 416.625 C 370.261719 416.625 370.546875 397.9375 359.519531 398.402344 " fill-opacity="1" fill-rule="nonzero"/><path fill="#4d4d4d" d="M 381.972656 392.492188 L 377.570312 401.597656 L 377.519531 401.613281 L 367.039062 383.722656 C 367.039062 383.722656 375.1875 380.523438 381.972656 392.492188 " fill-opacity="1" fill-rule="nonzero"/><path fill="#e6e6e6" d="M 367.039062 383.726562 C 367.039062 383.726562 366.746094 386.390625 377.519531 401.605469 C 377.519531 401.605469 378.070312 383.265625 367.039062 383.726562 " fill-opacity="1" fill-rule="nonzero"/><path fill="#4d4d4d" d="M 388.941406 378.132812 L 384.925781 386.421875 C 384.90625 386.410156 384.890625 386.417969 384.878906 386.421875 L 374.582031 368.886719 L 374.546875 368.84375 C 374.546875 368.84375 374.566406 368.839844 374.609375 368.824219 C 375.347656 368.539062 382.730469 366.136719 388.84375 377.941406 C 388.878906 377.996094 388.902344 378.074219 388.941406 378.132812 " fill-opacity="1" fill-rule="nonzero"/><path fill="#e6e6e6" d="M 374.554688 368.84375 C 374.554688 368.84375 374.816406 372.207031 384.882812 386.414062 C 384.882812 386.414062 384.859375 368.410156 374.554688 368.84375 " fill-opacity="1" fill-rule="nonzero"/><path fill="#4d4d4d" d="M 396.027344 363.511719 L 391.992188 371.828125 L 391.980469 371.832031 L 381.882812 354.507812 L 381.875 354.476562 C 381.875 354.476562 381.890625 354.46875 381.917969 354.460938 C 382.558594 354.1875 389.816406 351.5 395.96875 363.378906 C 396 363.417969 396.011719 363.464844 396.027344 363.511719 " fill-opacity="1" fill-rule="nonzero"/><path fill="#e6e6e6" d="M 381.878906 354.472656 C 381.878906 354.472656 381.914062 357.617188 391.980469 371.824219 C 391.980469 371.824219 392.1875 354.042969 381.878906 354.472656 " fill-opacity="1" fill-rule="nonzero"/><path fill="#4d4d4d" d="M 403.480469 348.171875 L 399.433594 356.523438 L 399.421875 356.527344 L 389.4375 339.667969 L 389.433594 339.652344 C 389.433594 339.652344 389.449219 339.644531 389.46875 339.644531 C 390.007812 339.398438 397.308594 336.507812 403.480469 348.171875 " fill-opacity="1" fill-rule="nonzero"/><path fill="#e6e6e6" d="M 389.441406 339.65625 C 389.441406 339.65625 389.351562 342.324219 399.414062 356.53125 C 399.414062 356.53125 399.746094 339.222656 389.441406 339.65625 " fill-opacity="1" fill-rule="nonzero"/><path fill="#4d4d4d" d="M 410.320312 334.078125 L 406.535156 341.878906 L 406.519531 341.882812 L 396.734375 325.359375 L 396.699219 325.304688 C 396.699219 325.304688 396.714844 325.296875 396.757812 325.28125 C 397.511719 324.992188 404.472656 322.777344 410.21875 333.867188 C 410.265625 333.941406 410.300781 334.015625 410.320312 334.078125 " fill-opacity="1" fill-rule="nonzero"/><path fill="#e6e6e6" d="M 396.695312 325.3125 C 396.695312 325.3125 397.027344 328.488281 406.515625 341.886719 C 406.515625 341.886719 406.414062 324.902344 396.695312 325.3125 " fill-opacity="1" fill-rule="nonzero"/><path fill="#4d4d4d" d="M 417.011719 320.273438 L 413.242188 328.054688 L 403.605469 311.84375 L 403.582031 311.816406 C 403.582031 311.816406 403.597656 311.8125 403.625 311.804688 C 404.261719 311.53125 411.140625 308.945312 416.949219 320.121094 C 416.980469 320.164062 417 320.226562 417.011719 320.273438 " fill-opacity="1" fill-rule="nonzero"/><path fill="#e6e6e6" d="M 403.570312 311.816406 C 403.570312 311.816406 403.777344 314.679688 413.265625 328.078125 C 413.265625 328.078125 413.289062 311.40625 403.570312 311.816406 " fill-opacity="1" fill-rule="nonzero"/><path fill="#4d4d4d" d="M 423.503906 306.910156 L 419.996094 314.125 C 419.984375 314.128906 419.984375 314.128906 419.96875 314.132812 L 410.570312 298.195312 C 410.570312 298.195312 417.261719 294.804688 423.0625 306.015625 C 423.234375 306.324219 423.378906 306.621094 423.503906 306.910156 " fill-opacity="1" fill-rule="nonzero"/><path fill="#e6e6e6" d="M 410.5625 298.203125 C 410.5625 298.203125 410.898438 301.3125 419.972656 314.128906 C 419.972656 314.128906 419.859375 297.8125 410.5625 298.203125 " fill-opacity="1" fill-rule="nonzero"/><path fill="#4d4d4d" d="M 429.824219 293.882812 L 426.484375 300.75 L 417.21875 285.164062 C 417.21875 285.164062 424.007812 282.570312 429.402344 292.996094 C 429.570312 293.304688 429.695312 293.59375 429.824219 293.882812 " fill-opacity="1" fill-rule="nonzero"/><path fill="#e6e6e6" d="M 417.21875 285.15625 C 417.21875 285.15625 418.050781 288.839844 426.480469 300.75 C 426.480469 300.75 425.851562 284.796875 417.21875 285.15625 " fill-opacity="1" fill-rule="nonzero"/><path fill="#999999" d="M 453.617188 294.578125 C 453.515625 294.738281 452.882812 295.628906 452.882812 295.628906 L 450.765625 298.378906 L 446.101562 304.421875 L 441.933594 309.851562 L 437.03125 316.195312 L 432.863281 321.609375 L 427.585938 328.460938 L 423.5 333.761719 L 418.210938 340.632812 L 413.9375 346.171875 L 408.28125 353.523438 L 408.269531 353.523438 L 403.527344 359.671875 L 397.882812 366.992188 L 393.613281 372.546875 L 388.003906 379.84375 L 383.875 385.1875 L 377.710938 393.203125 L 373.539062 398.617188 L 367.515625 406.417969 L 362.925781 412.386719 L 356.890625 420.226562 L 352.71875 425.636719 L 346.027344 434.320312 L 341.183594 440.597656 L 334.5625 449.191406 L 330.058594 455.035156 L 323.402344 463.699219 L 323.382812 463.699219 L 319.144531 469.234375 L 312.171875 478.265625 L 307.460938 484.375 L 300.800781 493.039062 L 300.804688 493.058594 L 296.589844 498.507812 L 289.921875 507.136719 L 286.03125 512.207031 L 278.816406 521.574219 L 278.796875 521.574219 L 273.621094 528.300781 L 266.480469 537.574219 L 260.882812 544.839844 L 253.839844 553.992188 L 248.648438 560.730469 L 242.8125 556.238281 L 231.585938 547.605469 L 258.316406 514.246094 L 258.363281 514.191406 L 258.378906 514.1875 L 281.988281 484.710938 L 282.03125 484.65625 L 293.058594 470.890625 L 315.933594 442.332031 L 315.933594 442.3125 C 315.933594 442.3125 315.933594 442.3125 315.949219 442.3125 L 327.386719 428.023438 L 327.421875 428.003906 L 339.089844 413.429688 L 339.121094 413.390625 L 349.929688 399.898438 L 349.960938 399.863281 L 360.710938 386.457031 L 360.753906 386.386719 L 371.035156 373.558594 L 381.433594 360.566406 L 381.476562 360.511719 L 391.507812 347.976562 L 391.550781 347.9375 L 401.921875 334.984375 L 401.949219 334.964844 L 411.972656 322.464844 L 412.011719 322.390625 L 421.449219 310.628906 L 421.476562 310.589844 L 441.039062 286.164062 C 441.039062 286.164062 441.589844 285.542969 441.679688 285.4375 C 443.132812 283.847656 445.542969 283.316406 448.050781 284.066406 C 448.957031 284.335938 449.886719 284.769531 450.785156 285.386719 C 450.886719 285.445312 450.992188 285.53125 451.101562 285.601562 C 452.351562 286.515625 453.183594 287.523438 453.683594 288.53125 C 454.925781 290.917969 454.363281 293.308594 453.617188 294.578125 " fill-opacity="1" fill-rule="nonzero"/><path fill="#999999" d="M 452.550781 296.058594 L 248.648438 560.742188 L 251.511719 563.042969 L 454.671875 297.746094 L 452.550781 296.058594 " fill-opacity="1" fill-rule="nonzero"/><path fill="#666666" d="M 438.796875 284.492188 L 229.710938 544.007812 L 232.546875 546.40625 L 441.046875 286.167969 L 438.796875 284.492188 " fill-opacity="1" fill-rule="nonzero"/><path fill="#999999" d="M 229.710938 544.007812 L 227.773438 546.902344 L 230.484375 549.304688 L 232.546875 546.40625 L 229.710938 544.007812 " fill-opacity="1" fill-rule="nonzero"/><path fill="#808080" d="M 248.648438 560.742188 L 246.425781 562.953125 L 249.496094 565.164062 L 251.511719 563.042969 L 248.648438 560.742188 " fill-opacity="1" fill-rule="nonzero"/><path fill="#4d4d4d" d="M 453.617188 294.578125 C 453.515625 294.738281 452.882812 295.628906 452.882812 295.628906 L 450.765625 298.378906 L 446.101562 304.421875 L 441.933594 309.851562 L 437.03125 316.195312 L 432.863281 321.609375 L 427.585938 328.460938 L 423.5 333.761719 L 418.210938 340.632812 L 413.9375 346.171875 L 408.28125 353.523438 L 408.269531 353.523438 L 403.527344 359.671875 L 397.882812 366.992188 L 393.613281 372.546875 L 388.003906 379.84375 L 383.875 385.1875 L 377.710938 393.203125 L 373.539062 398.617188 L 367.515625 406.417969 L 362.925781 412.386719 L 356.890625 420.226562 L 352.71875 425.636719 L 346.027344 434.320312 L 341.183594 440.597656 L 334.5625 449.191406 L 330.058594 455.035156 L 323.402344 463.699219 L 323.382812 463.699219 L 319.144531 469.234375 L 312.171875 478.265625 L 307.460938 484.375 L 300.800781 493.039062 L 300.804688 493.058594 L 296.589844 498.507812 L 289.921875 507.136719 L 286.03125 512.207031 L 278.816406 521.574219 L 278.796875 521.574219 L 273.621094 528.300781 L 266.480469 537.574219 L 260.882812 544.839844 L 253.839844 553.992188 L 248.648438 560.730469 L 242.8125 556.238281 L 243.769531 556.371094 L 453.683594 288.53125 C 454.925781 290.917969 454.363281 293.308594 453.617188 294.578125 " fill-opacity="1" fill-rule="nonzero"/><path fill="#cccccc" d="M 450.785156 285.386719 L 242.351562 551.769531 L 237.214844 548.613281 L 448.050781 284.066406 C 448.957031 284.335938 449.886719 284.769531 450.785156 285.386719 " fill-opacity="1" fill-rule="nonzero"/><path fill="#b3b3b3" d="M 246.429688 562.945312 C 242.191406 565.75 235.804688 564.277344 232.136719 559.644531 C 230.921875 558.113281 230.167969 556.421875 229.863281 554.75 C 229.21875 551.375 230.367188 548.078125 233.179688 546.214844 C 237.160156 543.585938 243.027344 544.714844 246.765625 548.699219 C 247.003906 548.957031 247.230469 549.230469 247.457031 549.503906 C 251.128906 554.140625 250.65625 560.144531 246.429688 562.945312 " fill-opacity="1" fill-rule="nonzero"/><path fill="#808080" d="M 243.449219 557.265625 C 239.46875 559.894531 233.578125 558.730469 229.863281 554.75 C 229.21875 551.375 230.367188 548.078125 233.179688 546.214844 C 237.160156 543.585938 243.027344 544.714844 246.765625 548.699219 C 247.425781 552.074219 246.28125 555.386719 243.449219 557.265625 " fill-opacity="1" fill-rule="nonzero"/><path fill="#4d4d4d" d="M 260.882812 544.839844 L 253.839844 553.992188 L 253.824219 553.992188 L 245.507812 530.28125 C 245.507812 530.28125 256.152344 528.003906 260.882812 544.839844 " fill-opacity="1" fill-rule="nonzero"/><path fill="#e6e6e6" d="M 245.503906 530.277344 C 245.503906 530.277344 245.113281 534.019531 253.832031 553.996094 C 253.832031 553.996094 258.238281 532.375 245.503906 530.277344 " fill-opacity="1" fill-rule="nonzero"/><path fill="#4d4d4d" d="M 273.621094 528.300781 L 266.480469 537.574219 L 258.316406 514.246094 L 258.296875 514.195312 C 258.296875 514.195312 258.328125 514.195312 258.363281 514.191406 L 258.378906 514.1875 C 259.359375 514.085938 268.984375 513.488281 273.621094 528.300781 " fill-opacity="1" fill-rule="nonzero"/><path fill="#e6e6e6" d="M 258.292969 514.199219 C 258.292969 514.199219 257.761719 517.640625 266.480469 537.617188 C 266.480469 537.617188 271.027344 516.296875 258.292969 514.199219 " fill-opacity="1" fill-rule="nonzero"/><path fill="#4d4d4d" d="M 286.03125 512.207031 L 278.816406 521.574219 L 278.796875 521.574219 L 270.976562 498.472656 C 270.976562 498.472656 281.152344 496.644531 286.03125 512.207031 " fill-opacity="1" fill-rule="nonzero"/><path fill="#e6e6e6" d="M 270.980469 498.476562 C 270.980469 498.476562 270.082031 501.601562 278.796875 521.578125 C 278.796875 521.578125 283.71875 500.574219 270.980469 498.476562 " fill-opacity="1" fill-rule="nonzero"/><path fill="#4d4d4d" d="M 296.589844 498.507812 L 289.921875 507.136719 L 281.988281 484.710938 L 281.964844 484.664062 C 281.964844 484.664062 281.980469 484.660156 282.03125 484.65625 C 282.960938 484.542969 292.332031 483.855469 296.589844 498.507812 " fill-opacity="1" fill-rule="nonzero"/><path fill="#e6e6e6" d="M 281.96875 484.65625 C 281.96875 484.65625 281.78125 488.484375 289.945312 507.1875 C 289.945312 507.1875 293.894531 486.621094 281.96875 484.65625 " fill-opacity="1" fill-rule="nonzero"/><path fill="#4d4d4d" d="M 307.460938 484.375 L 300.800781 493.039062 L 293.058594 470.890625 C 293.058594 470.890625 302.921875 469.390625 307.460938 484.375 " fill-opacity="1" fill-rule="nonzero"/><path fill="#e6e6e6" d="M 293.050781 470.894531 C 293.050781 470.894531 292.644531 474.355469 300.808594 493.058594 C 300.808594 493.058594 304.976562 472.859375 293.050781 470.894531 " fill-opacity="1" fill-rule="nonzero"/><path fill="#4d4d4d" d="M 319.144531 469.234375 L 312.171875 478.265625 L 305.117188 455.894531 C 305.117188 455.894531 314.558594 454.765625 319.144531 469.234375 " fill-opacity="1" fill-rule="nonzero"/><path fill="#e6e6e6" d="M 305.117188 455.898438 C 305.117188 455.898438 304.007812 459.554688 312.171875 478.261719 C 312.171875 478.261719 317.042969 457.863281 305.117188 455.898438 " fill-opacity="1" fill-rule="nonzero"/><path fill="#4d4d4d" d="M 330.058594 455.035156 L 323.402344 463.699219 L 323.382812 463.699219 L 315.933594 442.332031 L 315.933594 442.3125 C 315.933594 442.3125 315.933594 442.3125 315.949219 442.3125 C 316.359375 442.253906 325.582031 441.253906 330.058594 455.035156 " fill-opacity="1" fill-rule="nonzero"/><path fill="#e6e6e6" d="M 315.929688 442.320312 C 315.929688 442.320312 315.289062 445.167969 323.382812 463.707031 C 323.382812 463.707031 327.746094 444.265625 315.929688 442.320312 " fill-opacity="1" fill-rule="nonzero"/><path fill="#4d4d4d" d="M 341.183594 440.597656 L 334.5625 449.191406 C 334.550781 449.195312 334.550781 449.195312 334.53125 449.195312 L 327.386719 428.023438 L 327.386719 428.007812 C 327.386719 428.007812 327.402344 428.007812 327.421875 428.003906 C 328.035156 427.890625 336.8125 426.621094 341.183594 440.597656 " fill-opacity="1" fill-rule="nonzero"/><path fill="#e6e6e6" d="M 327.390625 428 C 327.390625 428 326.445312 430.644531 334.542969 449.1875 C 334.542969 449.1875 339.210938 429.949219 327.390625 428 " fill-opacity="1" fill-rule="nonzero"/><path fill="#4d4d4d" d="M 352.71875 425.636719 L 346.027344 434.320312 L 339.089844 413.429688 L 339.085938 413.394531 C 339.085938 413.394531 339.105469 413.394531 339.121094 413.390625 C 339.734375 413.261719 348.34375 411.746094 352.71875 425.636719 " fill-opacity="1" fill-rule="nonzero"/><path fill="#e6e6e6" d="M 339.085938 413.398438 C 339.085938 413.398438 337.933594 415.78125 346.023438 434.320312 C 346.023438 434.320312 350.90625 415.34375 339.085938 413.398438 " fill-opacity="1" fill-rule="nonzero"/><path fill="#4d4d4d" d="M 362.925781 412.386719 L 356.890625 420.226562 L 356.871094 420.226562 L 349.929688 399.898438 L 349.910156 399.867188 C 349.910156 399.867188 349.925781 399.863281 349.960938 399.863281 C 350.703125 399.734375 359.042969 398.65625 362.925781 412.386719 " fill-opacity="1" fill-rule="nonzero"/><path fill="#e6e6e6" d="M 349.910156 399.871094 C 349.910156 399.871094 349.40625 403.132812 356.863281 420.222656 C 356.863281 420.222656 360.800781 401.664062 349.910156 399.871094 " fill-opacity="1" fill-rule="nonzero"/><path fill="#4d4d4d" d="M 373.539062 398.617188 L 367.515625 406.417969 L 367.5 406.421875 L 360.710938 386.457031 L 360.683594 386.390625 C 360.683594 386.390625 360.703125 386.390625 360.753906 386.386719 C 361.5625 386.21875 369.707031 385.046875 373.539062 398.617188 " fill-opacity="1" fill-rule="nonzero"/><path fill="#e6e6e6" d="M 360.683594 386.394531 C 360.683594 386.394531 360.046875 389.339844 367.503906 406.429688 C 367.503906 406.429688 371.582031 388.191406 360.683594 386.394531 " fill-opacity="1" fill-rule="nonzero"/><path fill="#4d4d4d" d="M 383.875 385.1875 L 377.710938 393.203125 L 377.660156 393.207031 L 371.035156 373.558594 C 371.035156 373.558594 379.660156 372.085938 383.875 385.1875 " fill-opacity="1" fill-rule="nonzero"/><path fill="#e6e6e6" d="M 371.03125 373.5625 C 371.03125 373.5625 370.203125 376.109375 377.660156 393.199219 C 377.660156 393.199219 381.929688 375.355469 371.03125 373.5625 " fill-opacity="1" fill-rule="nonzero"/><path fill="#4d4d4d" d="M 393.613281 372.546875 L 388.003906 379.84375 C 387.984375 379.832031 387.96875 379.832031 387.949219 379.832031 L 381.433594 360.566406 L 381.414062 360.519531 C 381.414062 360.519531 381.429688 360.519531 381.476562 360.511719 C 382.253906 360.382812 389.972656 359.535156 393.5625 372.335938 C 393.578125 372.398438 393.589844 372.480469 393.613281 372.546875 " fill-opacity="1" fill-rule="nonzero"/><path fill="#e6e6e6" d="M 381.417969 360.519531 C 381.417969 360.519531 380.988281 363.867188 387.957031 379.828125 C 387.957031 379.828125 391.59375 362.195312 381.417969 360.519531 " fill-opacity="1" fill-rule="nonzero"/><path fill="#4d4d4d" d="M 403.527344 359.671875 L 397.882812 366.992188 L 397.867188 366.992188 L 391.507812 347.976562 L 391.503906 347.945312 C 391.503906 347.945312 391.519531 347.941406 391.550781 347.9375 C 392.230469 347.800781 399.882812 346.648438 403.496094 359.527344 C 403.519531 359.574219 403.523438 359.625 403.527344 359.671875 " fill-opacity="1" fill-rule="nonzero"/><path fill="#e6e6e6" d="M 391.511719 347.945312 C 391.511719 347.945312 390.902344 351.027344 397.867188 366.988281 C 397.867188 366.988281 401.6875 349.617188 391.511719 347.945312 " fill-opacity="1" fill-rule="nonzero"/><path fill="#4d4d4d" d="M 413.9375 346.171875 L 408.28125 353.523438 L 408.269531 353.523438 L 401.921875 334.984375 L 401.921875 334.96875 C 401.921875 334.96875 401.9375 334.96875 401.949219 334.964844 C 402.535156 334.839844 410.265625 333.496094 413.9375 346.171875 " fill-opacity="1" fill-rule="nonzero"/><path fill="#e6e6e6" d="M 401.925781 334.972656 C 401.925781 334.972656 401.292969 337.566406 408.257812 353.527344 C 408.257812 353.527344 412.101562 336.648438 401.925781 334.972656 " fill-opacity="1" fill-rule="nonzero"/><path fill="#4d4d4d" d="M 423.5 333.761719 L 418.210938 340.632812 L 418.191406 340.632812 L 411.972656 322.464844 L 411.945312 322.398438 C 411.945312 322.398438 411.960938 322.398438 412.011719 322.390625 C 412.808594 322.261719 420.070312 321.507812 423.449219 333.535156 C 423.472656 333.617188 423.496094 333.699219 423.5 333.761719 " fill-opacity="1" fill-rule="nonzero"/><path fill="#e6e6e6" d="M 411.941406 322.40625 C 411.941406 322.40625 411.621094 325.582031 418.191406 340.632812 C 418.191406 340.632812 421.539062 323.988281 411.941406 322.40625 " fill-opacity="1" fill-rule="nonzero"/><path fill="#4d4d4d" d="M 432.863281 321.609375 L 427.585938 328.460938 L 421.449219 310.628906 L 421.425781 310.597656 C 421.425781 310.597656 421.441406 310.59375 421.476562 310.589844 C 422.152344 310.453125 429.414062 309.324219 432.828125 321.449219 C 432.851562 321.496094 432.855469 321.5625 432.863281 321.609375 " fill-opacity="1" fill-rule="nonzero"/><path fill="#e6e6e6" d="M 421.417969 310.59375 C 421.417969 310.59375 421.039062 313.441406 427.609375 328.492188 C 427.609375 328.492188 431.015625 312.171875 421.417969 310.59375 " fill-opacity="1" fill-rule="nonzero"/><path fill="#4d4d4d" d="M 441.933594 309.851562 L 437.03125 316.195312 C 437.015625 316.199219 437.015625 316.199219 437 316.199219 L 431.039062 298.683594 C 431.039062 298.683594 438.28125 296.726562 441.683594 308.882812 C 441.785156 309.21875 441.867188 309.542969 441.933594 309.851562 " fill-opacity="1" fill-rule="nonzero"/><path fill="#e6e6e6" d="M 431.035156 298.6875 C 431.035156 298.6875 430.722656 301.800781 437.007812 316.195312 C 437.007812 316.195312 440.214844 300.199219 431.035156 298.6875 " fill-opacity="1" fill-rule="nonzero"/><path fill="#4d4d4d" d="M 450.765625 298.378906 L 446.101562 304.421875 L 440.199219 287.277344 C 440.199219 287.277344 447.367188 286.121094 450.535156 297.425781 C 450.636719 297.765625 450.703125 298.070312 450.765625 298.378906 " fill-opacity="1" fill-rule="nonzero"/><path fill="#e6e6e6" d="M 440.199219 287.269531 C 440.199219 287.269531 440.261719 291.046875 446.097656 304.421875 C 446.097656 304.421875 448.726562 288.675781 440.199219 287.269531 " fill-opacity="1" fill-rule="nonzero"/><path fill="#999999" d="M 585.136719 269.453125 C 585.097656 269.636719 584.800781 270.691406 584.800781 270.691406 L 583.746094 273.996094 L 581.40625 281.265625 L 579.328125 287.785156 L 576.863281 295.421875 L 574.773438 301.929688 L 572.132812 310.164062 L 570.09375 316.539062 L 567.441406 324.796875 L 565.300781 331.457031 L 562.472656 340.292969 L 562.457031 340.300781 L 560.082031 347.691406 L 557.253906 356.492188 L 555.121094 363.167969 L 552.316406 371.941406 L 550.242188 378.363281 L 547.15625 388.003906 L 545.070312 394.507812 L 542.050781 403.894531 L 539.753906 411.066406 L 536.734375 420.492188 L 534.644531 426.996094 L 531.292969 437.4375 L 528.863281 444.984375 L 525.546875 455.316406 L 523.289062 462.34375 L 519.960938 472.753906 L 519.945312 472.761719 L 517.832031 479.410156 L 514.335938 490.269531 L 511.980469 497.617188 L 508.652344 508.03125 L 508.65625 508.046875 L 506.539062 514.601562 L 503.195312 524.984375 L 501.253906 531.074219 L 497.636719 542.335938 L 497.625 542.34375 L 495.035156 550.425781 L 491.457031 561.578125 L 488.652344 570.3125 L 485.128906 581.308594 L 482.53125 589.414062 L 475.515625 587.167969 L 462.03125 582.855469 L 475.871094 542.402344 L 475.890625 542.335938 L 475.914062 542.328125 L 488.128906 506.582031 L 488.152344 506.515625 L 493.859375 489.820312 L 505.699219 455.1875 L 505.691406 455.175781 C 505.691406 455.175781 505.691406 455.175781 505.707031 455.167969 L 511.625 437.84375 L 511.648438 437.8125 L 517.6875 420.136719 L 517.703125 420.09375 L 523.296875 403.730469 L 523.308594 403.6875 L 528.882812 387.425781 L 528.894531 387.34375 L 534.222656 371.785156 L 539.597656 356.035156 L 539.625 355.96875 L 544.808594 340.769531 L 544.839844 340.71875 L 550.203125 325.015625 L 550.226562 324.984375 L 555.417969 309.824219 L 555.429688 309.742188 L 560.316406 295.472656 L 560.332031 295.429688 L 570.460938 265.808594 C 570.460938 265.808594 570.765625 265.039062 570.808594 264.90625 C 571.640625 262.917969 573.722656 261.601562 576.339844 261.453125 C 577.28125 261.402344 578.308594 261.488281 579.359375 261.769531 C 579.476562 261.785156 579.609375 261.832031 579.730469 261.863281 C 581.21875 262.296875 582.34375 262.960938 583.15625 263.738281 C 585.128906 265.566406 585.410156 268.007812 585.136719 269.453125 " fill-opacity="1" fill-rule="nonzero"/><path fill="#999999" d="M 584.636719 271.207031 L 482.535156 589.421875 L 486.003906 590.617188 L 587.207031 272.074219 L 584.636719 271.207031 " fill-opacity="1" fill-rule="nonzero"/><path fill="#666666" d="M 567.78125 264.996094 L 459.046875 580.109375 L 462.53125 581.40625 L 570.464844 265.808594 L 567.78125 264.996094 " fill-opacity="1" fill-rule="nonzero"/><path fill="#999999" d="M 459.046875 580.109375 L 458.207031 583.492188 L 461.574219 584.832031 L 462.53125 581.40625 L 459.046875 580.109375 " fill-opacity="1" fill-rule="nonzero"/><path fill="#808080" d="M 482.535156 589.421875 L 481.191406 592.257812 L 484.832031 593.296875 L 486.003906 590.617188 L 482.535156 589.421875 " fill-opacity="1" fill-rule="nonzero"/><path fill="#4d4d4d" d="M 585.136719 269.453125 C 585.097656 269.636719 584.800781 270.691406 584.800781 270.691406 L 583.746094 273.996094 L 581.40625 281.265625 L 579.328125 287.785156 L 576.863281 295.421875 L 574.773438 301.929688 L 572.132812 310.164062 L 570.09375 316.539062 L 567.441406 324.796875 L 565.300781 331.457031 L 562.472656 340.292969 L 562.457031 340.300781 L 560.082031 347.691406 L 557.253906 356.492188 L 555.121094 363.167969 L 552.316406 371.941406 L 550.242188 378.363281 L 547.15625 388.003906 L 545.070312 394.507812 L 542.050781 403.894531 L 539.753906 411.066406 L 536.734375 420.492188 L 534.644531 426.996094 L 531.292969 437.4375 L 528.863281 444.984375 L 525.546875 455.316406 L 523.289062 462.34375 L 519.960938 472.753906 L 519.945312 472.761719 L 517.832031 479.410156 L 514.335938 490.269531 L 511.980469 497.617188 L 508.652344 508.03125 L 508.65625 508.046875 L 506.539062 514.601562 L 503.195312 524.984375 L 501.253906 531.074219 L 497.636719 542.335938 L 497.625 542.34375 L 495.035156 550.425781 L 491.457031 561.578125 L 488.652344 570.3125 L 485.128906 581.308594 L 482.53125 589.414062 L 475.515625 587.167969 L 476.460938 586.96875 L 583.15625 263.738281 C 585.128906 265.566406 585.410156 268.007812 585.136719 269.453125 " fill-opacity="1" fill-rule="nonzero"/><path fill="#cccccc" d="M 579.359375 261.769531 L 473.570312 583.121094 L 467.667969 581.894531 L 576.339844 261.453125 C 577.28125 261.402344 578.308594 261.488281 579.359375 261.769531 " fill-opacity="1" fill-rule="nonzero"/><path fill="#b3b3b3" d="M 481.199219 592.25 C 478.160156 596.328125 471.652344 597.109375 466.632812 593.996094 C 464.964844 592.96875 463.6875 591.632812 462.828125 590.164062 C 461.078125 587.207031 461.042969 583.71875 463.058594 581.007812 C 465.910156 577.1875 471.820312 576.257812 476.679688 578.734375 C 476.992188 578.894531 477.296875 579.074219 477.605469 579.257812 C 482.628906 582.371094 484.21875 588.179688 481.199219 592.25 " fill-opacity="1" fill-rule="nonzero"/><path fill="#808080" d="M 476.460938 587.917969 C 473.613281 591.742188 467.675781 592.648438 462.828125 590.164062 C 461.078125 587.207031 461.042969 583.71875 463.058594 581.007812 C 465.910156 577.1875 471.820312 576.257812 476.679688 578.734375 C 478.445312 581.683594 478.492188 585.1875 476.460938 587.917969 " fill-opacity="1" fill-rule="nonzero"/><path fill="#4d4d4d" d="M 488.652344 570.3125 L 485.128906 581.308594 L 485.117188 581.316406 L 469.253906 561.832031 C 469.253906 561.832031 478.496094 556.078125 488.652344 570.3125 " fill-opacity="1" fill-rule="nonzero"/><path fill="#e6e6e6" d="M 469.25 561.832031 C 469.25 561.832031 470.152344 565.488281 485.125 581.316406 C 485.125 581.316406 481.941406 559.480469 469.25 561.832031 " fill-opacity="1" fill-rule="nonzero"/><path fill="#4d4d4d" d="M 495.035156 550.425781 L 491.457031 561.578125 L 475.871094 542.402344 L 475.835938 542.363281 C 475.835938 542.363281 475.863281 542.347656 475.890625 542.335938 L 475.914062 542.328125 C 476.796875 541.898438 485.648438 538.070312 495.035156 550.425781 " fill-opacity="1" fill-rule="nonzero"/><path fill="#e6e6e6" d="M 475.835938 542.367188 C 475.835938 542.367188 476.496094 545.785156 491.464844 561.613281 C 491.464844 561.613281 488.523438 540.015625 475.835938 542.367188 " fill-opacity="1" fill-rule="nonzero"/><path fill="#4d4d4d" d="M 501.253906 531.074219 L 497.636719 542.335938 L 497.625 542.34375 L 482.433594 523.265625 C 482.433594 523.265625 491.386719 518.089844 501.253906 531.074219 " fill-opacity="1" fill-rule="nonzero"/><path fill="#e6e6e6" d="M 482.441406 523.269531 C 482.441406 523.269531 482.652344 526.515625 497.625 542.347656 C 497.625 542.347656 495.128906 520.917969 482.441406 523.269531 " fill-opacity="1" fill-rule="nonzero"/><path fill="#4d4d4d" d="M 506.539062 514.601562 L 503.195312 524.984375 L 488.128906 506.582031 L 488.089844 506.542969 C 488.089844 506.542969 488.101562 506.535156 488.152344 506.515625 C 488.988281 506.09375 497.570312 502.265625 506.539062 514.601562 " fill-opacity="1" fill-rule="nonzero"/><path fill="#e6e6e6" d="M 488.09375 506.535156 C 488.09375 506.535156 489.210938 510.199219 503.230469 525.023438 C 503.230469 525.023438 499.980469 504.335938 488.09375 506.535156 " fill-opacity="1" fill-rule="nonzero"/><path fill="#4d4d4d" d="M 511.980469 497.617188 L 508.652344 508.03125 L 493.859375 489.820312 C 493.859375 489.820312 502.628906 485.0625 511.980469 497.617188 " fill-opacity="1" fill-rule="nonzero"/><path fill="#e6e6e6" d="M 493.855469 489.828125 C 493.855469 489.828125 494.644531 493.222656 508.660156 508.046875 C 508.660156 508.046875 505.734375 487.625 493.855469 489.828125 " fill-opacity="1" fill-rule="nonzero"/><path fill="#4d4d4d" d="M 517.832031 479.410156 L 514.335938 490.269531 L 500.121094 471.621094 C 500.121094 471.621094 508.617188 467.355469 517.832031 479.410156 " fill-opacity="1" fill-rule="nonzero"/><path fill="#e6e6e6" d="M 500.125 471.625 C 500.125 471.625 500.320312 475.441406 514.335938 490.265625 C 514.335938 490.265625 512.007812 469.421875 500.125 471.625 " fill-opacity="1" fill-rule="nonzero"/><path fill="#4d4d4d" d="M 523.289062 462.34375 L 519.960938 472.753906 L 519.945312 472.761719 L 505.699219 455.1875 L 505.691406 455.175781 C 505.691406 455.175781 505.691406 455.175781 505.707031 455.167969 C 506.070312 454.972656 514.402344 450.898438 523.289062 462.34375 " fill-opacity="1" fill-rule="nonzero"/><path fill="#e6e6e6" d="M 505.6875 455.183594 C 505.6875 455.183594 506.050781 458.074219 519.945312 472.769531 C 519.945312 472.769531 517.46875 453 505.6875 455.183594 " fill-opacity="1" fill-rule="nonzero"/><path fill="#4d4d4d" d="M 528.863281 444.984375 L 525.546875 455.316406 C 525.53125 455.324219 525.53125 455.324219 525.519531 455.332031 L 511.625 437.84375 L 511.617188 437.828125 C 511.617188 437.828125 511.632812 437.820312 511.648438 437.8125 C 512.1875 437.496094 520.015625 433.320312 528.863281 444.984375 " fill-opacity="1" fill-rule="nonzero"/><path fill="#e6e6e6" d="M 511.617188 437.820312 C 511.617188 437.820312 511.628906 440.628906 525.523438 455.324219 C 525.523438 455.324219 523.394531 435.636719 511.617188 437.820312 " fill-opacity="1" fill-rule="nonzero"/><path fill="#4d4d4d" d="M 534.644531 426.996094 L 531.292969 437.4375 L 517.6875 420.136719 L 517.675781 420.109375 C 517.675781 420.109375 517.6875 420.101562 517.703125 420.09375 C 518.238281 419.761719 525.816406 415.414062 534.644531 426.996094 " fill-opacity="1" fill-rule="nonzero"/><path fill="#e6e6e6" d="M 517.667969 420.113281 C 517.667969 420.113281 517.390625 422.746094 531.292969 437.4375 C 531.292969 437.4375 529.453125 417.929688 517.667969 420.113281 " fill-opacity="1" fill-rule="nonzero"/><path fill="#999999" d="M 597.835938 308.515625 C 597.757812 308.6875 597.253906 309.660156 597.253906 309.660156 L 595.546875 312.679688 L 591.773438 319.320312 L 588.414062 325.28125 L 584.457031 332.257812 L 581.089844 338.203125 L 576.832031 345.726562 L 573.53125 351.550781 L 569.257812 359.097656 L 565.804688 365.183594 L 561.242188 373.261719 L 561.226562 373.265625 L 557.398438 380.019531 L 552.839844 388.058594 L 549.394531 394.160156 L 544.867188 402.175781 L 541.53125 408.046875 L 536.550781 416.851562 L 533.183594 422.796875 L 528.316406 431.371094 L 524.613281 437.929688 L 519.738281 446.539062 L 516.371094 452.484375 L 510.96875 462.023438 L 507.054688 468.917969 L 501.710938 478.359375 L 498.074219 484.78125 L 492.699219 494.296875 L 492.683594 494.300781 L 489.261719 500.378906 L 483.632812 510.296875 L 479.824219 517.011719 L 474.453125 526.527344 L 474.457031 526.546875 L 471.046875 532.535156 L 465.660156 542.019531 L 462.523438 547.585938 L 456.699219 557.875 L 456.675781 557.878906 L 452.503906 565.265625 L 446.734375 575.457031 L 442.214844 583.4375 L 436.53125 593.488281 L 432.339844 600.894531 L 425.925781 597.269531 L 413.601562 590.296875 L 435.371094 553.507812 L 435.410156 553.445312 L 435.425781 553.441406 L 454.652344 520.933594 L 454.6875 520.871094 L 463.671875 505.691406 L 482.300781 474.191406 L 482.296875 474.175781 C 482.296875 474.175781 482.296875 474.175781 482.316406 474.171875 L 491.632812 458.414062 L 491.65625 458.390625 L 501.164062 442.316406 L 501.191406 442.277344 L 509.988281 427.390625 L 510.011719 427.351562 L 518.773438 412.566406 L 518.808594 412.492188 L 527.183594 398.339844 L 535.648438 384.015625 L 535.683594 383.957031 L 543.851562 370.128906 L 543.890625 370.085938 L 552.335938 355.800781 L 552.363281 355.777344 L 560.527344 341.988281 L 560.554688 341.914062 L 568.238281 328.9375 L 568.265625 328.898438 L 584.203125 301.957031 C 584.203125 301.957031 584.65625 301.265625 584.730469 301.148438 C 585.945312 299.367188 588.257812 298.5 590.847656 298.890625 C 591.78125 299.03125 592.769531 299.328125 593.738281 299.816406 C 593.847656 299.855469 593.964844 299.929688 594.082031 299.984375 C 595.449219 300.710938 596.414062 301.59375 597.050781 302.519531 C 598.613281 304.707031 598.394531 307.152344 597.835938 308.515625 " fill-opacity="1" fill-rule="nonzero"/><g clip-path="url(#d49f9ea11c)"><path fill="#999999" d="M 596.988281 310.128906 L 432.332031 600.902344 L 435.492188 602.777344 L 599.324219 311.5 L 596.988281 310.128906 " fill-opacity="1" fill-rule="nonzero"/></g><path fill="#666666" d="M 581.746094 300.617188 L 411.238281 587.003906 L 414.378906 588.980469 L 584.207031 301.957031 L 581.746094 300.617188 " fill-opacity="1" fill-rule="nonzero"/><path fill="#999999" d="M 411.238281 587.003906 L 409.722656 590.140625 L 412.746094 592.140625 L 414.378906 588.980469 L 411.238281 587.003906 " fill-opacity="1" fill-rule="nonzero"/><path fill="#808080" d="M 432.332031 600.902344 L 430.453125 603.402344 L 433.800781 605.164062 L 435.492188 602.777344 L 432.332031 600.902344 " fill-opacity="1" fill-rule="nonzero"/><path fill="#4d4d4d" d="M 597.835938 308.515625 C 597.757812 308.6875 597.253906 309.660156 597.253906 309.660156 L 595.546875 312.679688 L 591.773438 319.320312 L 588.414062 325.28125 L 584.457031 332.257812 L 581.089844 338.203125 L 576.832031 345.726562 L 573.53125 351.550781 L 569.257812 359.097656 L 565.804688 365.183594 L 561.242188 373.261719 L 561.226562 373.265625 L 557.398438 380.019531 L 552.839844 388.058594 L 549.394531 394.160156 L 544.867188 402.175781 L 541.53125 408.046875 L 536.550781 416.851562 L 533.183594 422.796875 L 528.316406 431.371094 L 524.613281 437.929688 L 519.738281 446.539062 L 516.371094 452.484375 L 510.96875 462.023438 L 507.054688 468.917969 L 501.710938 478.359375 L 498.074219 484.78125 L 492.699219 494.296875 L 492.683594 494.300781 L 489.261719 500.378906 L 483.632812 510.296875 L 479.824219 517.011719 L 474.453125 526.527344 L 474.457031 526.546875 L 471.046875 532.535156 L 465.660156 542.019531 L 462.523438 547.585938 L 456.699219 557.875 L 456.675781 557.878906 L 452.503906 565.265625 L 446.734375 575.457031 L 442.214844 583.4375 L 436.53125 593.488281 L 432.339844 600.894531 L 425.925781 597.269531 L 426.894531 597.265625 L 597.050781 302.519531 C 598.613281 304.707031 598.394531 307.152344 597.835938 308.515625 " fill-opacity="1" fill-rule="nonzero"/><path fill="#cccccc" d="M 593.738281 299.816406 L 424.839844 592.90625 L 419.3125 590.503906 L 590.847656 298.890625 C 591.78125 299.03125 592.769531 299.328125 593.738281 299.816406 " fill-opacity="1" fill-rule="nonzero"/><path fill="#b3b3b3" d="M 430.453125 603.398438 C 426.648438 606.773438 420.121094 606.210938 415.835938 602.140625 C 414.414062 600.800781 413.429688 599.230469 412.898438 597.617188 C 411.78125 594.367188 412.453125 590.941406 414.980469 588.699219 C 418.550781 585.535156 424.519531 585.828125 428.777344 589.246094 C 429.054688 589.464844 429.316406 589.703125 429.578125 589.945312 C 433.863281 594.015625 434.242188 600.027344 430.453125 603.398438 " fill-opacity="1" fill-rule="nonzero"/><path fill="#808080" d="M 426.699219 598.195312 C 423.128906 601.355469 417.132812 601.039062 412.898438 597.617188 C 411.78125 594.367188 412.453125 590.941406 414.980469 588.699219 C 418.550781 585.535156 424.519531 585.828125 428.777344 589.246094 C 429.90625 592.492188 429.238281 595.933594 426.699219 598.195312 " fill-opacity="1" fill-rule="nonzero"/><path fill="#4d4d4d" d="M 442.214844 583.4375 L 436.53125 593.488281 L 436.511719 593.492188 L 424.941406 571.1875 C 424.941406 571.1875 435.164062 567.433594 442.214844 583.4375 " fill-opacity="1" fill-rule="nonzero"/><path fill="#e6e6e6" d="M 424.941406 571.183594 C 424.941406 571.183594 425.078125 574.945312 436.519531 593.496094 C 436.519531 593.496094 437.84375 571.46875 424.941406 571.183594 " fill-opacity="1" fill-rule="nonzero"/><path fill="#4d4d4d" d="M 452.503906 565.265625 L 446.734375 575.457031 L 435.371094 553.507812 L 435.339844 553.464844 C 435.339844 553.464844 435.375 553.453125 435.410156 553.445312 L 435.425781 553.441406 C 436.382812 553.203125 445.828125 551.257812 452.503906 565.265625 " fill-opacity="1" fill-rule="nonzero"/><path fill="#e6e6e6" d="M 435.335938 553.46875 C 435.335938 553.46875 435.296875 556.945312 446.734375 575.496094 C 446.734375 575.496094 448.242188 553.75 435.335938 553.46875 " fill-opacity="1" fill-rule="nonzero"/><path fill="#4d4d4d" d="M 462.523438 547.585938 L 456.699219 557.875 L 456.675781 557.878906 L 445.683594 536.109375 C 445.683594 536.109375 455.503906 532.863281 462.523438 547.585938 " fill-opacity="1" fill-rule="nonzero"/><path fill="#e6e6e6" d="M 445.695312 536.113281 C 445.695312 536.113281 445.242188 539.332031 456.675781 557.882812 C 456.675781 557.882812 458.59375 536.394531 445.695312 536.113281 " fill-opacity="1" fill-rule="nonzero"/><path fill="#4d4d4d" d="M 471.046875 532.535156 L 465.660156 542.019531 L 454.652344 520.933594 L 454.625 520.886719 C 454.625 520.886719 454.640625 520.882812 454.6875 520.871094 C 455.59375 520.628906 464.773438 518.628906 471.046875 532.535156 " fill-opacity="1" fill-rule="nonzero"/><path fill="#e6e6e6" d="M 454.628906 520.882812 C 454.628906 520.882812 454.980469 524.695312 465.691406 542.0625 C 465.691406 542.0625 466.710938 521.144531 454.628906 520.882812 " fill-opacity="1" fill-rule="nonzero"/><path fill="#4d4d4d" d="M 479.824219 517.011719 L 474.453125 526.527344 L 463.671875 505.691406 C 463.671875 505.691406 473.222656 502.816406 479.824219 517.011719 " fill-opacity="1" fill-rule="nonzero"/><path fill="#e6e6e6" d="M 463.660156 505.695312 C 463.660156 505.695312 463.75 509.175781 474.460938 526.546875 C 474.460938 526.546875 475.746094 505.957031 463.660156 505.695312 " fill-opacity="1" fill-rule="nonzero"/><path fill="#4d4d4d" d="M 489.261719 500.378906 L 483.632812 510.296875 L 473.5 489.144531 C 473.5 489.144531 482.6875 486.699219 489.261719 500.378906 " fill-opacity="1" fill-rule="nonzero"/><path fill="#e6e6e6" d="M 473.503906 489.148438 C 473.503906 489.148438 472.917969 492.925781 483.632812 510.292969 C 483.632812 510.292969 485.585938 489.414062 473.503906 489.148438 " fill-opacity="1" fill-rule="nonzero"/><path fill="#4d4d4d" d="M 498.074219 484.78125 L 492.699219 494.296875 L 492.683594 494.300781 L 482.300781 474.191406 L 482.296875 474.175781 C 482.296875 474.175781 482.296875 474.175781 482.316406 474.171875 C 482.710938 474.058594 491.699219 471.765625 498.074219 484.78125 " fill-opacity="1" fill-rule="nonzero"/><path fill="#e6e6e6" d="M 482.292969 474.183594 C 482.292969 474.183594 482.058594 477.089844 492.679688 494.308594 C 492.679688 494.308594 494.269531 474.445312 482.292969 474.183594 " fill-opacity="1" fill-rule="nonzero"/><path fill="#4d4d4d" d="M 507.054688 468.917969 L 501.710938 478.359375 C 501.695312 478.363281 501.695312 478.363281 501.683594 478.367188 L 491.632812 458.414062 L 491.628906 458.398438 C 491.628906 458.398438 491.640625 458.394531 491.65625 458.390625 C 492.25 458.191406 500.765625 455.695312 507.054688 468.917969 " fill-opacity="1" fill-rule="nonzero"/><path fill="#e6e6e6" d="M 491.632812 458.390625 C 491.632812 458.390625 491.066406 461.144531 501.6875 478.359375 C 501.6875 478.359375 503.609375 458.652344 491.632812 458.390625 " fill-opacity="1" fill-rule="nonzero"/><path fill="#4d4d4d" d="M 516.371094 452.484375 L 510.96875 462.023438 L 501.164062 442.316406 L 501.15625 442.285156 C 501.15625 442.285156 501.171875 442.28125 501.191406 442.277344 C 501.777344 442.0625 510.085938 439.34375 516.371094 452.484375 " fill-opacity="1" fill-rule="nonzero"/><path fill="#e6e6e6" d="M 501.15625 442.285156 C 501.15625 442.285156 500.347656 444.808594 510.96875 462.023438 C 510.96875 462.023438 513.128906 442.550781 501.15625 442.285156 " fill-opacity="1" fill-rule="nonzero"/><path fill="#4d4d4d" d="M 524.613281 437.929688 L 519.738281 446.539062 L 519.722656 446.542969 L 509.988281 427.390625 L 509.964844 427.363281 C 509.964844 427.363281 509.984375 427.359375 510.011719 427.351562 C 510.738281 427.121094 518.839844 424.882812 524.613281 437.929688 " fill-opacity="1" fill-rule="nonzero"/><path fill="#e6e6e6" d="M 509.964844 427.367188 C 509.964844 427.367188 509.925781 430.667969 519.71875 446.539062 C 519.71875 446.539062 521.007812 427.609375 509.964844 427.367188 " fill-opacity="1" fill-rule="nonzero"/><path fill="#4d4d4d" d="M 533.183594 422.796875 L 528.316406 431.371094 L 528.304688 431.375 L 518.773438 412.566406 L 518.742188 412.503906 C 518.742188 412.503906 518.757812 412.5 518.808594 412.492188 C 519.582031 412.210938 527.484375 409.902344 533.183594 422.796875 " fill-opacity="1" fill-rule="nonzero"/><path fill="#e6e6e6" d="M 518.742188 412.511719 C 518.742188 412.511719 518.519531 415.511719 528.308594 431.378906 C 528.308594 431.378906 529.777344 412.753906 518.742188 412.511719 " fill-opacity="1" fill-rule="nonzero"/><path fill="#4d4d4d" d="M 392.839844 202.925781 L 392.839844 188.3125 L 224.179688 387.832031 L 224.179688 462.003906 L 392.839844 202.925781 " fill-opacity="1" fill-rule="nonzero"/><path fill="#cccccc" d="M 189.4375 359.703125 L 377.050781 170.347656 L 400.714844 172.507812 L 250.699219 368.300781 L 189.4375 359.703125 " fill-opacity="1" fill-rule="nonzero"/><path fill="#808080" d="M 400.714844 172.507812 L 400.714844 182.269531 L 250.699219 385.296875 L 250.699219 368.300781 L 400.714844 172.507812 " fill-opacity="1" fill-rule="nonzero"/><g clip-path="url(#5f15deac36)"><path fill="#999999" d="M 224.179688 462.003906 L 224.179688 387.832031 L 250.699219 385.296875 L 250.699219 368.300781 L 189.4375 359.703125 L 189.4375 374.382812 L 209.378906 384.984375 L 209.378906 459.664062 L 177.839844 461.3125 L 177.839844 478.324219 L 258.695312 496.839844 L 258.695312 475.703125 L 224.179688 462.003906 " fill-opacity="1" fill-rule="nonzero"/></g><path fill="#808080" d="M 258.695312 475.703125 L 400.714844 206.039062 L 400.714844 216.425781 L 258.695312 496.839844 L 258.695312 475.703125 " fill-opacity="1" fill-rule="nonzero"/><path fill="#999999" d="M 224.179688 462.003906 L 392.839844 202.925781 L 400.714844 206.039062 L 258.695312 475.703125 L 224.179688 462.003906 " fill-opacity="1" fill-rule="nonzero"/><g clip-path="url(#d7e78f97db)"><path fill="#666666" d="M 177.839844 461.3125 L 209.378906 433.332031 L 209.378906 459.664062 Z M 177.839844 461.3125 " fill-opacity="1" fill-rule="nonzero"/></g><path fill="#999999" d="M 377.050781 170.347656 L 388.125 171.359375 L 214.097656 363.164062 L 189.4375 359.703125 L 377.050781 170.347656 " fill-opacity="1" fill-rule="nonzero"/><path fill="#e6e6e6" d="M 388.65625 175.523438 L 227.828125 359.703125 L 240.535156 361.265625 L 392.84375 175.890625 L 388.65625 175.523438 " fill-opacity="1" fill-rule="nonzero"/><path fill="#e6e6e6" d="M 189.4375 359.703125 L 250.699219 368.300781 L 400.714844 172.507812 L 248.585938 363.164062 L 189.4375 359.703125 " fill-opacity="1" fill-rule="nonzero"/><path fill="#666666" d="M 189.4375 359.703125 L 377.050781 170.347656 L 384.421875 171.019531 Z M 189.4375 359.703125 " fill-opacity="1" fill-rule="nonzero"/><g clip-path="url(#00d8e751fc)"><path fill="#666666" d="M 177.839844 478.324219 L 214.636719 472.164062 L 224.179688 387.832031 L 224.179688 462.003906 L 258.695312 475.703125 L 258.695312 496.839844 L 177.839844 478.324219 " fill-opacity="1" fill-rule="nonzero"/></g><path fill="#333333" d="M 209.378906 433.332031 L 209.378906 459.664062 L 193.371094 460.5 Z M 209.378906 433.332031 " fill-opacity="1" fill-rule="nonzero"/><path fill="#333333" d="M 224.179688 387.832031 L 224.179688 433.332031 L 392.839844 198.113281 L 392.839844 192.921875 L 250.699219 385.296875 L 224.179688 387.832031 " fill-opacity="1" fill-rule="nonzero"/><path fill="#666666" d="M 224.179688 462.003906 L 392.839844 202.925781 L 396.949219 204.550781 Z M 224.179688 462.003906 " fill-opacity="1" fill-rule="nonzero"/><path fill="#e6e6e6" d="M 224.179688 462.003906 L 258.695312 475.703125 L 400.714844 206.039062 L 256.164062 464.6875 L 224.179688 462.003906 " fill-opacity="1" fill-rule="nonzero"/><path fill="#4d4d4d" d="M 534.546875 279.96875 L 534.546875 263.9375 L 375.203125 453.300781 L 375.203125 536.101562 L 534.546875 279.96875 " fill-opacity="1" fill-rule="nonzero"/><path fill="#cccccc" d="M 509.652344 232.941406 L 317.382812 421.484375 L 415.128906 439.496094 L 551.203125 235.355469 L 509.652344 232.941406 " fill-opacity="1" fill-rule="nonzero"/><path fill="#999999" d="M 415.128906 461.109375 L 415.128906 439.496094 L 317.382812 421.484375 L 317.382812 441.992188 L 354.375 449.226562 L 354.375 530.898438 L 317.382812 521.65625 L 317.382812 544.015625 L 415.128906 570.265625 L 415.128906 546.214844 L 375.203125 536.101562 L 375.203125 453.300781 L 415.128906 461.109375 " fill-opacity="1" fill-rule="nonzero"/><path fill="#808080" d="M 415.128906 461.109375 L 551.203125 246.816406 L 551.203125 235.355469 L 415.128906 439.496094 L 415.128906 461.109375 " fill-opacity="1" fill-rule="nonzero"/><path fill="#808080" d="M 415.128906 546.214844 L 415.128906 570.265625 L 551.203125 292.320312 L 551.203125 279.96875 L 415.128906 546.214844 " fill-opacity="1" fill-rule="nonzero"/><path fill="#999999" d="M 375.203125 536.101562 L 534.546875 279.96875 L 551.203125 279.96875 L 415.128906 546.214844 L 375.203125 536.101562 " fill-opacity="1" fill-rule="nonzero"/><path fill="#666666" d="M 317.382812 521.65625 L 354.375 485.699219 L 354.375 530.898438 Z M 317.382812 521.65625 " fill-opacity="1" fill-rule="nonzero"/><path fill="#999999" d="M 317.382812 421.484375 L 509.652344 232.941406 L 530.851562 234.273438 L 361.027344 429.527344 L 317.382812 421.484375 " fill-opacity="1" fill-rule="nonzero"/><path fill="#666666" d="M 317.382812 421.484375 L 509.652344 232.941406 L 520.132812 233.550781 Z M 317.382812 421.484375 " fill-opacity="1" fill-rule="nonzero"/><path fill="#e6e6e6" d="M 534.132812 239.304688 L 378.726562 425.914062 L 400.105469 429.527344 L 540.824219 239.695312 L 534.132812 239.304688 " fill-opacity="1" fill-rule="nonzero"/><path fill="#e6e6e6" d="M 317.382812 421.484375 L 415.128906 439.496094 L 551.203125 235.355469 L 411.617188 431.015625 L 317.382812 421.484375 " fill-opacity="1" fill-rule="nonzero"/><path fill="#333333" d="M 375.234375 453.28125 L 375.171875 507.246094 L 408.328125 459.789062 Z M 375.234375 453.28125 " fill-opacity="1" fill-rule="nonzero"/><path fill="#333333" d="M 354.375 485.699219 L 354.375 530.898438 L 337.773438 526.75 Z M 354.375 485.699219 " fill-opacity="1" fill-rule="nonzero"/><path fill="#666666" d="M 375.203125 536.101562 L 534.546875 279.96875 L 545.390625 279.96875 Z M 375.203125 536.101562 " fill-opacity="1" fill-rule="nonzero"/><path fill="#e6e6e6" d="M 375.203125 536.101562 L 415.128906 546.214844 L 551.203125 279.96875 L 412.4375 539.917969 L 375.203125 536.101562 " fill-opacity="1" fill-rule="nonzero"/><path fill="#666666" d="M 375.203125 453.300781 L 362.28125 544.421875 L 317.382812 544.015625 L 415.128906 570.265625 L 415.128906 546.214844 L 375.203125 536.101562 L 375.203125 453.300781 " fill-opacity="1" fill-rule="nonzero"/><path fill="#cccccc" d="M 466.308594 48.011719 L 262.421875 276.109375 L 385.800781 290.519531 L 521.132812 52.316406 L 466.308594 48.011719 " fill-opacity="1" fill-rule="nonzero"/><path fill="#808080" d="M 521.132812 52.316406 L 385.800781 290.519531 L 385.800781 362.761719 L 521.132812 83.058594 L 521.132812 52.316406 " fill-opacity="1" fill-rule="nonzero"/><path fill="#b3b3b3" d="M 262.421875 276.109375 L 385.800781 290.519531 L 385.800781 362.761719 L 262.933594 346.230469 L 262.421875 276.109375 " fill-opacity="1" fill-rule="nonzero"/><path fill="#333333" d="M 270.613281 285.363281 L 271.105469 339.3125 L 306.414062 289.542969 Z M 270.613281 285.363281 " fill-opacity="1" fill-rule="nonzero"/><path fill="#333333" d="M 306.414062 289.542969 L 271.105469 339.3125 L 377.582031 352.960938 L 377.484375 297.84375 L 306.414062 289.542969 " fill-opacity="1" fill-rule="nonzero"/><path fill="#999999" d="M 262.421875 276.109375 L 466.308594 48.011719 L 494.566406 50.226562 L 309.546875 279.984375 L 262.421875 276.109375 " fill-opacity="1" fill-rule="nonzero"/><path fill="#f2f2f2" d="M 262.421875 276.109375 L 380.691406 282.476562 L 521.132812 52.316406 L 385.800781 290.519531 L 262.421875 276.109375 " fill-opacity="1" fill-rule="nonzero"/><path fill="#666666" d="M 262.421875 276.109375 L 466.308594 48.011719 L 475.082031 48.699219 Z M 262.421875 276.109375 " fill-opacity="1" fill-rule="nonzero"/><path fill="#4d4d4d" d="M 385.800781 290.519531 L 514.316406 73.023438 L 514.316406 85.285156 L 385.800781 337.667969 L 386.21875 361.894531 L 521.132812 83.058594 L 521.132812 52.316406 L 385.800781 290.519531 " fill-opacity="1" fill-rule="nonzero"/><path fill="#4d4d4d" d="M 271.105469 339.3125 L 306.414062 289.542969 L 377.484375 297.84375 Z M 271.105469 339.3125 " fill-opacity="1" fill-rule="nonzero"/><path fill="#1a1a1a" d="M 270.613281 285.363281 L 271.105469 339.3125 L 278.664062 296.472656 L 377.484375 297.84375 L 270.613281 285.363281 " fill-opacity="1" fill-rule="nonzero"/><path fill="#e6e6e6" d="M 496.21875 55.609375 L 333.921875 269.699219 L 354.792969 271.101562 L 502.378906 56.222656 L 496.21875 55.609375 " fill-opacity="1" fill-rule="nonzero"/><path fill="#b3b3b3" d="M 561.777344 134.597656 C 561.5625 135.496094 519.800781 319.492188 505.328125 366.015625 C 503.140625 373.050781 501.882812 377.101562 501.882812 377.101562 L 403.625 341.007812 C 403.625 341.007812 405.558594 336.808594 408.871094 329.539062 C 429.828125 283.769531 514.511719 119.101562 514.792969 118.542969 C 515.074219 118.003906 516.449219 116.394531 518.960938 114.820312 C 520.59375 113.78125 522.707031 112.761719 525.328125 112.070312 C 528.074219 111.308594 531.394531 110.925781 535.261719 111.226562 C 537.890625 111.449219 540.800781 111.996094 543.972656 112.984375 C 544.234375 113.0625 544.496094 113.140625 544.757812 113.234375 C 548.011719 114.308594 550.664062 115.707031 552.800781 117.300781 C 557.25 120.582031 559.585938 124.625 560.753906 127.976562 C 561.894531 131.253906 561.9375 133.890625 561.777344 134.597656 " fill-opacity="1" fill-rule="nonzero"/><path fill="#e6e6e6" d="M 543.972656 112.984375 L 465.023438 332.398438 L 446.714844 326.824219 L 535.261719 111.226562 C 537.890625 111.449219 540.800781 111.996094 543.972656 112.984375 " fill-opacity="1" fill-rule="nonzero"/><path fill="#666666" d="M 560.753906 127.976562 L 499.035156 363.832031 C 494.480469 352.179688 481.199219 339.460938 481.199219 339.460938 L 552.800781 117.300781 C 557.25 120.582031 559.585938 124.625 560.753906 127.976562 " fill-opacity="1" fill-rule="nonzero"/><path fill="#808080" d="M 518.960938 114.820312 L 412.925781 333.707031 C 413.289062 333.484375 419.136719 329.777344 424.292969 328.339844 L 525.328125 112.070312 L 518.960938 114.820312 " fill-opacity="1" fill-rule="nonzero"/><path fill="#f2f2f2" d="M 505.324219 366.027344 C 503.132812 373.058594 501.875 377.109375 501.875 377.109375 L 403.617188 341.019531 C 403.617188 341.019531 405.546875 336.816406 408.867188 329.542969 C 422.054688 314.121094 445.679688 308.082031 468.082031 316.089844 C 491.183594 324.355469 505.804688 345.03125 505.324219 366.027344 " fill-opacity="1" fill-rule="nonzero"/><path fill="#cccccc" d="M 466.945312 319.25 C 494.191406 329 509.53125 355.78125 501.214844 379.066406 C 492.890625 402.347656 464.066406 413.320312 436.824219 403.574219 C 409.582031 393.824219 394.238281 367.042969 402.558594 343.757812 C 410.875 320.472656 439.703125 309.5 466.945312 319.25 " fill-opacity="1" fill-rule="nonzero"/><path fill="#1a1a1a" d="M 494.945312 376.820312 C 493.816406 379.972656 492.25 382.855469 490.324219 385.464844 C 479.917969 399.53125 458.890625 405.144531 438.835938 397.964844 C 422.113281 391.980469 410.519531 378.722656 407.605469 364.347656 C 406.351562 358.285156 406.675781 352 408.824219 345.996094 C 416.03125 325.820312 441.160156 316.355469 464.9375 324.867188 C 488.726562 333.375 502.167969 356.644531 494.945312 376.820312 " fill-opacity="1" fill-rule="nonzero"/><path fill="#4d4d4d" d="M 490.324219 385.464844 C 479.917969 399.53125 458.890625 405.144531 438.835938 397.964844 C 422.113281 391.980469 410.519531 378.722656 407.605469 364.347656 C 418.878906 348.628906 440.15625 341.757812 459.976562 348.847656 C 476.816406 354.875 488.09375 369.386719 490.324219 385.464844 " fill-opacity="1" fill-rule="nonzero"/><g fill="#e30523" fill-opacity="1"><g transform="translate(109.932692, 747.888601)"><g><path d="M 91.546875 0 L 74.40625 0 L 74.296875 -49.640625 L 55.96875 -7.640625 L 43.3125 -7.640625 L 24.984375 -49.640625 L 24.984375 0 L 7.640625 0 L 7.640625 -76.484375 L 28.90625 -76.484375 L 49.640625 -30.984375 L 70.375 -76.484375 L 91.546875 -76.484375 Z M 91.546875 0 "/></g></g></g><g fill="#e30523" fill-opacity="1"><g transform="translate(209.223577, 747.888601)"><g><path d="M 33.28125 -59.46875 C 43.457031 -59.46875 51.109375 -56.335938 56.234375 -50.078125 C 61.367188 -43.828125 63.609375 -35.242188 62.953125 -24.328125 L 21.609375 -24.328125 C 22.546875 -20.835938 24.210938 -18.144531 26.609375 -16.25 C 29.015625 -14.363281 31.960938 -13.421875 35.453125 -13.421875 C 40.835938 -13.421875 45.53125 -15.421875 49.53125 -19.421875 L 59.46875 -9.703125 C 53.132812 -2.796875 44.585938 0.65625 33.828125 0.65625 C 24.296875 0.65625 16.710938 -2.070312 11.078125 -7.53125 C 5.441406 -12.988281 2.625 -20.222656 2.625 -29.234375 C 2.625 -38.328125 5.441406 -45.640625 11.078125 -51.171875 C 16.710938 -56.703125 24.113281 -59.46875 33.28125 -59.46875 Z M 21.28125 -34.484375 L 44.84375 -34.484375 C 44.84375 -38.046875 43.804688 -40.914062 41.734375 -43.09375 C 39.660156 -45.28125 36.914062 -46.375 33.5 -46.375 C 30.300781 -46.375 27.609375 -45.300781 25.421875 -43.15625 C 23.242188 -41.007812 21.863281 -38.117188 21.28125 -34.484375 Z M 21.28125 -34.484375 "/></g></g></g><g fill="#e30523" fill-opacity="1"><g transform="translate(274.90832, 747.888601)"><g><path d="M 41.78125 -16.25 L 45.5 -3.171875 C 40.914062 -0.472656 35.675781 0.875 29.78125 0.875 C 23.96875 0.875 19.257812 -0.742188 15.65625 -3.984375 C 12.050781 -7.222656 10.25 -11.820312 10.25 -17.78125 L 10.25 -43.75 L 2.078125 -43.75 L 2.078125 -56.078125 L 10.25 -56.078125 L 10.25 -72.453125 L 29.015625 -72.453125 L 29.015625 -56.1875 L 44.40625 -56.1875 L 44.40625 -43.75 L 29.015625 -43.75 L 29.015625 -20.734375 C 29.015625 -18.472656 29.46875 -16.816406 30.375 -15.765625 C 31.289062 -14.710938 32.660156 -14.222656 34.484375 -14.296875 C 36.222656 -14.296875 38.65625 -14.945312 41.78125 -16.25 Z M 41.78125 -16.25 "/></g></g></g><g fill="#e30523" fill-opacity="1"><g transform="translate(322.3715, 747.888601)"><g><path d="M 33.9375 -59.6875 C 42.007812 -59.6875 48.28125 -57.8125 52.75 -54.0625 C 57.226562 -50.3125 59.503906 -45.09375 59.578125 -38.40625 L 59.578125 0 L 41.140625 0 L 41.140625 -6.765625 C 37.273438 -1.671875 31.269531 0.875 23.125 0.875 C 16.945312 0.875 12.039062 -0.832031 8.40625 -4.25 C 4.769531 -7.675781 2.953125 -12.113281 2.953125 -17.5625 C 2.953125 -23.164062 4.894531 -27.515625 8.78125 -30.609375 C 12.675781 -33.703125 18.257812 -35.28125 25.53125 -35.34375 L 41.03125 -35.34375 L 41.03125 -36.21875 C 41.03125 -39.132812 40.066406 -41.410156 38.140625 -43.046875 C 36.210938 -44.679688 33.351562 -45.5 29.5625 -45.5 C 24.257812 -45.5 18.40625 -43.863281 12 -40.59375 L 6.65625 -53.03125 C 16.1875 -57.46875 25.28125 -59.6875 33.9375 -59.6875 Z M 28.90625 -11.890625 C 31.894531 -11.890625 34.515625 -12.632812 36.765625 -14.125 C 39.023438 -15.613281 40.445312 -17.5625 41.03125 -19.96875 L 41.03125 -25.203125 L 29.125 -25.203125 C 23.457031 -25.203125 20.625 -23.09375 20.625 -18.875 C 20.625 -16.695312 21.347656 -14.988281 22.796875 -13.75 C 24.253906 -12.507812 26.289062 -11.890625 28.90625 -11.890625 Z M 28.90625 -11.890625 "/></g></g></g><g fill="#e30523" fill-opacity="1"><g transform="translate(387.838038, 747.888601)"><g><path d="M 26.953125 0 L 8.078125 0 L 8.078125 -80.953125 L 26.953125 -80.953125 Z M 26.953125 0 "/></g></g></g><g fill="#e30523" fill-opacity="1"><g transform="translate(422.862672, 747.888601)"><g><path d="M 64.8125 -58.8125 L 64.8125 0 L 45.9375 0 L 45.9375 -9.703125 C 41.9375 -2.722656 35.570312 0.765625 26.84375 0.765625 C 20.4375 0.765625 15.320312 -1.269531 11.5 -5.34375 C 7.6875 -9.414062 5.78125 -14.875 5.78125 -21.71875 L 5.78125 -58.8125 L 24.65625 -58.8125 L 24.65625 -27.0625 C 24.65625 -23.570312 25.546875 -20.828125 27.328125 -18.828125 C 29.109375 -16.828125 31.492188 -15.828125 34.484375 -15.828125 C 38.046875 -15.898438 40.84375 -17.222656 42.875 -19.796875 C 44.914062 -22.378906 45.9375 -25.707031 45.9375 -29.78125 L 45.9375 -58.8125 Z M 64.8125 -58.8125 "/></g></g></g><g fill="#e30523" fill-opacity="1"><g transform="translate(495.203151, 747.888601)"><g><path d="M 26.40625 -58.8125 L 26.40625 -48.875 C 30.550781 -55.9375 36.914062 -59.539062 45.5 -59.6875 L 45.5 -42.65625 C 40.113281 -43.164062 35.710938 -42.273438 32.296875 -39.984375 C 28.878906 -37.691406 26.914062 -34.4375 26.40625 -30.21875 L 26.40625 0 L 7.53125 0 L 7.53125 -58.8125 Z M 26.40625 -58.8125 "/></g></g></g><g fill="#e30523" fill-opacity="1"><g transform="translate(541.793509, 747.888601)"><g><path d="M 63.71875 -58.8125 L 63.71875 -5.34375 C 63.71875 2.945312 60.789062 9.566406 54.9375 14.515625 C 49.082031 19.460938 41.390625 21.9375 31.859375 21.9375 C 22.109375 21.9375 13.378906 19.351562 5.671875 14.1875 L 12.21875 1.421875 C 17.894531 5.347656 23.96875 7.3125 30.4375 7.3125 C 34.945312 7.3125 38.492188 6.21875 41.078125 4.03125 C 43.660156 1.851562 44.953125 -1.085938 44.953125 -4.796875 L 44.953125 -11.015625 C 40.953125 -5.785156 35.316406 -3.171875 28.046875 -3.171875 C 20.546875 -3.171875 14.453125 -5.785156 9.765625 -11.015625 C 5.078125 -16.253906 2.734375 -23.128906 2.734375 -31.640625 C 2.734375 -39.929688 5.019531 -46.640625 9.59375 -51.765625 C 14.175781 -56.898438 20.179688 -59.46875 27.609375 -59.46875 C 35.097656 -59.539062 40.878906 -56.921875 44.953125 -51.609375 L 44.953125 -58.8125 Z M 32.734375 -16.796875 C 36.367188 -16.796875 39.3125 -18.125 41.5625 -20.78125 C 43.820312 -23.4375 44.953125 -26.875 44.953125 -31.09375 C 44.953125 -35.382812 43.820312 -38.859375 41.5625 -41.515625 C 39.3125 -44.171875 36.367188 -45.5 32.734375 -45.5 C 29.023438 -45.5 26.023438 -44.171875 23.734375 -41.515625 C 21.441406 -38.859375 20.296875 -35.382812 20.296875 -31.09375 C 20.296875 -26.875 21.441406 -23.4375 23.734375 -20.78125 C 26.023438 -18.125 29.023438 -16.796875 32.734375 -16.796875 Z M 32.734375 -16.796875 "/></g></g></g><g fill="#e30523" fill-opacity="1"><g transform="translate(612.38824, 747.888601)"><g><path d="M 9.875 -82.875 C 11.726562 -84.726562 14.109375 -85.65625 17.015625 -85.65625 C 19.929688 -85.65625 22.316406 -84.726562 24.171875 -82.875 C 26.023438 -81.019531 26.953125 -78.632812 26.953125 -75.71875 C 26.953125 -72.8125 26.023438 -70.410156 24.171875 -68.515625 C 22.316406 -66.628906 19.929688 -65.6875 17.015625 -65.6875 C 14.109375 -65.6875 11.726562 -66.628906 9.875 -68.515625 C 8.019531 -70.410156 7.09375 -72.8125 7.09375 -75.71875 C 7.09375 -78.632812 8.019531 -81.019531 9.875 -82.875 Z M 26.296875 0 L 7.53125 0 L 7.53125 -58.8125 L 26.296875 -58.8125 Z M 26.296875 0 "/></g></g></g><g fill="#e30523" fill-opacity="1"><g transform="translate(646.321743, 747.888601)"><g><path d="M 33.9375 -59.6875 C 42.007812 -59.6875 48.28125 -57.8125 52.75 -54.0625 C 57.226562 -50.3125 59.503906 -45.09375 59.578125 -38.40625 L 59.578125 0 L 41.140625 0 L 41.140625 -6.765625 C 37.273438 -1.671875 31.269531 0.875 23.125 0.875 C 16.945312 0.875 12.039062 -0.832031 8.40625 -4.25 C 4.769531 -7.675781 2.953125 -12.113281 2.953125 -17.5625 C 2.953125 -23.164062 4.894531 -27.515625 8.78125 -30.609375 C 12.675781 -33.703125 18.257812 -35.28125 25.53125 -35.34375 L 41.03125 -35.34375 L 41.03125 -36.21875 C 41.03125 -39.132812 40.066406 -41.410156 38.140625 -43.046875 C 36.210938 -44.679688 33.351562 -45.5 29.5625 -45.5 C 24.257812 -45.5 18.40625 -43.863281 12 -40.59375 L 6.65625 -53.03125 C 16.1875 -57.46875 25.28125 -59.6875 33.9375 -59.6875 Z M 28.90625 -11.890625 C 31.894531 -11.890625 34.515625 -12.632812 36.765625 -14.125 C 39.023438 -15.613281 40.445312 -17.5625 41.03125 -19.96875 L 41.03125 -25.203125 L 29.125 -25.203125 C 23.457031 -25.203125 20.625 -23.09375 20.625 -18.875 C 20.625 -16.695312 21.347656 -14.988281 22.796875 -13.75 C 24.253906 -12.507812 26.289062 -11.890625 28.90625 -11.890625 Z M 28.90625 -11.890625 "/></g></g></g></svg>