<svg xmlns="http://www.w3.org/2000/svg" xmlns:xlink="http://www.w3.org/1999/xlink" width="1080" zoomAndPan="magnify" viewBox="0 0 810 809.999993" height="1080" preserveAspectRatio="xMidYMid meet" version="1.0"><defs><g/><clipPath id="d5cc0b9dbb"><path d="M 170.089844 515.421875 L 350 515.421875 L 350 536.359375 L 170.089844 536.359375 Z M 170.089844 515.421875 " clip-rule="nonzero"/></clipPath><clipPath id="7d4ba9e7fd"><path d="M 81 44.292969 L 469 44.292969 L 469 153 L 81 153 Z M 81 44.292969 " clip-rule="nonzero"/></clipPath><clipPath id="3683e63ce5"><path d="M 282.414062 506 L 703.980469 506 L 703.980469 513.371094 L 282.414062 513.371094 Z M 282.414062 506 " clip-rule="nonzero"/></clipPath></defs><g clip-path="url(#d5cc0b9dbb)"><path fill="#eaf2f4" d="M 349.925781 526.167969 C 349.925781 531.792969 309.707031 536.359375 260.089844 536.359375 C 210.472656 536.359375 170.25 531.792969 170.25 526.167969 C 170.25 520.539062 210.472656 515.976562 260.089844 515.976562 C 309.707031 515.976562 349.925781 520.539062 349.925781 526.167969 " fill-opacity="1" fill-rule="nonzero"/></g><path fill="#eaf2f4" d="M 499.960938 115.367188 C 493.738281 114.65625 487.695312 115.839844 482.136719 116.703125 C 476.203125 105.839844 461.441406 98.144531 444.160156 98.144531 C 430.515625 98.144531 418.449219 102.941406 411.046875 110.300781 C 404.214844 107.492188 396.289062 105.882812 387.839844 105.882812 C 387.226562 105.882812 386.617188 105.894531 386.007812 105.910156 C 379.847656 89.78125 358.84375 77.898438 333.871094 77.898438 C 323.472656 77.898438 313.765625 79.964844 305.523438 83.53125 C 300.546875 80.019531 294.125 77.898438 287.113281 77.898438 C 277.824219 77.898438 269.566406 81.617188 264.339844 87.371094 C 260.957031 87 257.484375 86.800781 253.941406 86.800781 C 219.359375 86.800781 191.324219 105.203125 191.324219 127.910156 C 191.324219 150.613281 219.359375 169.019531 253.941406 169.019531 C 262.9375 169.019531 271.488281 167.769531 279.21875 165.53125 C 283.625 179.03125 301.960938 189.164062 323.921875 189.164062 C 343.886719 189.164062 360.859375 180.785156 367.085938 169.113281 C 373.335938 171.335938 380.382812 172.589844 387.839844 172.589844 C 405.921875 172.589844 421.597656 165.230469 429.335938 154.46875 C 433.929688 155.753906 438.925781 156.46875 444.160156 156.46875 C 450.96875 156.46875 457.378906 155.265625 463.019531 153.15625 C 472.40625 159.792969 485.125 162.496094 499.960938 159.714844 C 519.695312 161.222656 546.804688 167.042969 546.804688 184.394531 L 576.945312 182.304688 C 576.945312 150.589844 538.808594 119.796875 499.960938 115.367188 " fill-opacity="1" fill-rule="nonzero"/><path fill="#262262" d="M 323.921875 189.933594 C 309.394531 189.933594 295.976562 185.585938 287.109375 178.011719 C 286.785156 177.734375 286.746094 177.246094 287.023438 176.921875 C 287.296875 176.601562 287.785156 176.5625 288.109375 176.835938 C 296.707031 184.179688 309.757812 188.390625 323.921875 188.390625 C 343.066406 188.390625 360.140625 180.496094 366.40625 168.746094 C 366.585938 168.410156 366.984375 168.253906 367.34375 168.386719 C 373.746094 170.664062 380.640625 171.820312 387.839844 171.820312 C 405.152344 171.820312 420.8125 165 428.707031 154.019531 C 428.894531 153.757812 429.226562 153.640625 429.539062 153.726562 C 434.214844 155.035156 439.132812 155.695312 444.160156 155.695312 C 450.617188 155.695312 457.046875 154.566406 462.75 152.433594 C 462.992188 152.34375 463.257812 152.378906 463.46875 152.527344 C 473.15625 159.378906 485.726562 161.601562 499.816406 158.953125 C 499.882812 158.941406 499.949219 158.9375 500.019531 158.945312 C 514.117188 160.023438 546.644531 164.574219 547.5625 183.570312 L 576.167969 181.585938 C 575.886719 167.152344 567.308594 151.742188 552.519531 139.191406 C 537.773438 126.671875 518.582031 118.265625 499.871094 116.132812 C 494.445312 115.515625 489.199219 116.355469 484.125 117.167969 C 483.496094 117.269531 482.871094 117.367188 482.253906 117.464844 C 481.925781 117.519531 481.613281 117.355469 481.460938 117.074219 C 475.527344 106.210938 460.539062 98.914062 444.160156 98.914062 C 431.277344 98.914062 419.101562 103.375 411.589844 110.847656 C 411.371094 111.066406 411.042969 111.132812 410.753906 111.015625 C 403.820312 108.164062 395.894531 106.65625 387.839844 106.65625 C 387.234375 106.65625 386.628906 106.664062 386.03125 106.679688 C 385.707031 106.707031 385.402344 106.492188 385.285156 106.1875 C 379.101562 89.988281 357.960938 78.667969 333.871094 78.667969 C 323.9375 78.667969 314.242188 80.59375 305.832031 84.242188 C 305.585938 84.347656 305.300781 84.316406 305.078125 84.164062 C 300.0625 80.621094 293.683594 78.667969 287.113281 78.667969 C 278.324219 78.667969 270.230469 82.03125 264.910156 87.890625 C 264.746094 88.070312 264.496094 88.164062 264.253906 88.140625 C 260.839844 87.761719 257.367188 87.570312 253.941406 87.570312 C 219.839844 87.570312 192.097656 105.667969 192.097656 127.910156 C 192.097656 150.152344 219.839844 168.246094 253.941406 168.246094 C 262.65625 168.246094 271.089844 167.085938 279.003906 164.789062 C 279.410156 164.667969 279.84375 164.902344 279.960938 165.316406 C 280.082031 165.722656 279.84375 166.152344 279.4375 166.269531 C 271.378906 168.605469 262.800781 169.792969 253.941406 169.792969 C 218.988281 169.792969 190.554688 151.003906 190.554688 127.910156 C 190.554688 104.816406 218.988281 86.027344 253.941406 86.027344 C 257.292969 86.027344 260.6875 86.210938 264.035156 86.5625 C 269.652344 80.5625 278.035156 77.128906 287.113281 77.128906 C 293.84375 77.128906 300.394531 79.089844 305.613281 82.65625 C 314.121094 79.039062 323.882812 77.128906 333.871094 77.128906 C 358.332031 77.128906 379.878906 88.613281 386.527344 105.128906 C 386.964844 105.121094 387.402344 105.113281 387.839844 105.113281 C 395.914062 105.113281 403.863281 106.59375 410.867188 109.398438 C 418.6875 101.859375 431.085938 97.371094 444.160156 97.371094 C 461.109375 97.371094 476.101562 104.609375 482.546875 115.859375 C 482.988281 115.785156 483.433594 115.71875 483.878906 115.644531 C 489.058594 114.816406 494.410156 113.960938 500.046875 114.601562 C 519.054688 116.769531 538.542969 125.300781 553.519531 138.015625 C 560.980469 144.351562 566.878906 151.3125 571.050781 158.710938 C 575.472656 166.550781 577.714844 174.492188 577.714844 182.304688 C 577.714844 182.710938 577.402344 183.046875 577 183.074219 L 546.859375 185.167969 C 546.652344 185.183594 546.4375 185.109375 546.28125 184.964844 C 546.125 184.816406 546.035156 184.609375 546.035156 184.394531 C 546.035156 166.039062 513.929688 161.566406 500 160.492188 C 485.691406 163.152344 472.875 160.917969 462.910156 154.019531 C 457.058594 156.15625 450.75 157.238281 444.160156 157.238281 C 439.175781 157.238281 434.296875 156.605469 429.640625 155.355469 C 421.371094 166.476562 405.414062 173.363281 387.839844 173.363281 C 380.695312 173.363281 373.839844 172.253906 367.445312 170.054688 C 360.679688 181.972656 343.304688 189.933594 323.921875 189.933594 " fill-opacity="1" fill-rule="nonzero"/><path fill="#ffffff" d="M 690.039062 451.125 L 605.644531 261.578125 L 605.644531 160.710938 L 483.808594 160.710938 L 483.808594 261.578125 L 399.410156 451.125 L 397.707031 505.953125 L 691.746094 505.953125 L 690.039062 451.125 " fill-opacity="1" fill-rule="nonzero"/><path fill="#c8d4de" d="M 690.121094 451.328125 L 605.644531 261.78125 L 605.644531 160.914062 L 493.410156 160.914062 L 493.410156 261.78125 L 412.910156 451.328125 L 411.285156 506.15625 L 691.746094 506.15625 L 690.121094 451.328125 " fill-opacity="1" fill-rule="nonzero"/><path fill="#d9ab39" d="M 605.644531 207.53125 L 493.410156 207.53125 L 493.410156 185.945312 L 605.644531 185.945312 L 605.644531 207.53125 " fill-opacity="1" fill-rule="nonzero"/><path fill="#262262" d="M 605.640625 262.347656 C 605.214844 262.347656 604.871094 262.003906 604.871094 261.578125 L 604.871094 176.609375 C 604.871094 176.183594 605.214844 175.839844 605.640625 175.839844 C 606.070312 175.839844 606.414062 176.183594 606.414062 176.609375 L 606.414062 261.578125 C 606.414062 262.003906 606.070312 262.347656 605.640625 262.347656 " fill-opacity="1" fill-rule="nonzero"/><path fill="#262262" d="M 691.742188 506.722656 C 691.328125 506.722656 690.984375 506.394531 690.972656 505.976562 L 689.273438 451.296875 L 611.550781 276.738281 C 611.378906 276.351562 611.550781 275.894531 611.941406 275.722656 C 612.332031 275.550781 612.785156 275.722656 612.957031 276.113281 L 690.746094 450.8125 C 690.785156 450.902344 690.808594 451 690.8125 451.101562 L 692.515625 505.925781 C 692.527344 506.351562 692.195312 506.707031 691.769531 506.722656 C 691.757812 506.722656 691.75 506.722656 691.742188 506.722656 " fill-opacity="1" fill-rule="nonzero"/><path fill="#262262" d="M 397.707031 506.722656 C 397.699219 506.722656 397.691406 506.722656 397.683594 506.722656 C 397.257812 506.707031 396.921875 506.351562 396.9375 505.925781 L 398.636719 451.101562 C 398.640625 451 398.664062 450.902344 398.703125 450.8125 L 483.039062 261.414062 L 483.039062 160.710938 C 483.039062 160.285156 483.382812 159.941406 483.808594 159.941406 L 605.640625 159.941406 C 606.070312 159.941406 606.414062 160.285156 606.414062 160.710938 C 606.414062 161.136719 606.070312 161.484375 605.640625 161.484375 L 484.578125 161.484375 L 484.578125 261.578125 C 484.578125 261.683594 484.558594 261.792969 484.511719 261.890625 L 400.175781 451.296875 L 398.480469 505.976562 C 398.464844 506.394531 398.121094 506.722656 397.707031 506.722656 " fill-opacity="1" fill-rule="nonzero"/><path fill="#ffffff" d="M 90.089844 100.230469 C 90.089844 79.441406 117.523438 62.585938 151.363281 62.585938 C 154.832031 62.585938 158.230469 62.765625 161.539062 63.109375 C 166.65625 57.835938 174.730469 54.433594 183.824219 54.433594 C 190.6875 54.433594 196.972656 56.375 201.84375 59.59375 C 209.90625 56.324219 219.40625 54.433594 229.582031 54.433594 C 254.015625 54.433594 274.570312 65.3125 280.597656 80.085938 C 281.195312 80.070312 281.792969 80.0625 282.390625 80.0625 C 290.660156 80.0625 298.414062 81.535156 305.105469 84.109375 C 312.34375 77.367188 324.152344 72.972656 337.503906 72.972656 C 354.417969 72.972656 368.863281 80.023438 374.667969 89.96875 C 380.105469 89.179688 386.023438 88.097656 392.109375 88.746094 C 429.871094 92.773438 466.941406 120.632812 467.433594 149.46875 L 467.441406 149.46875 C 467.441406 117.753906 429.308594 86.960938 390.457031 82.53125 C 384.238281 81.824219 378.195312 83.003906 372.632812 83.867188 C 366.703125 73.003906 351.941406 65.304688 334.65625 65.304688 C 321.015625 65.304688 308.945312 70.105469 301.546875 77.464844 C 294.710938 74.65625 286.789062 73.046875 278.339844 73.046875 C 277.722656 73.046875 277.117188 73.058594 276.507812 73.074219 C 270.347656 56.945312 249.34375 45.0625 224.371094 45.0625 C 213.972656 45.0625 204.261719 47.125 196.023438 50.695312 C 191.046875 47.183594 184.625 45.0625 177.613281 45.0625 C 168.320312 45.0625 160.066406 48.78125 154.839844 54.535156 C 151.457031 54.160156 147.984375 53.964844 144.441406 53.964844 C 109.855469 53.964844 81.820312 72.371094 81.820312 95.074219 C 81.820312 113.136719 99.566406 128.476562 124.230469 133.996094 C 104.003906 127.84375 90.089844 115.039062 90.089844 100.230469 " fill-opacity="1" fill-rule="nonzero"/><path fill="#eaf2f4" d="M 392.109375 88.746094 C 386.023438 88.097656 380.105469 89.179688 374.667969 89.96875 C 368.863281 80.023438 354.417969 72.972656 337.503906 72.972656 C 324.152344 72.972656 312.34375 77.367188 305.105469 84.109375 C 298.414062 81.535156 290.660156 80.0625 282.390625 80.0625 C 281.792969 80.0625 281.195312 80.070312 280.597656 80.085938 C 274.570312 65.3125 254.015625 54.433594 229.582031 54.433594 C 219.40625 54.433594 209.90625 56.324219 201.84375 59.59375 C 196.972656 56.375 190.6875 54.433594 183.824219 54.433594 C 174.730469 54.433594 166.65625 57.835938 161.539062 63.109375 C 158.230469 62.765625 154.832031 62.585938 151.363281 62.585938 C 117.523438 62.585938 90.089844 79.441406 90.089844 100.230469 C 90.089844 115.039062 104.003906 127.84375 124.230469 133.996094 C 130.574219 135.414062 137.367188 136.183594 144.441406 136.183594 C 153.4375 136.183594 161.988281 134.933594 169.71875 132.691406 C 170.074219 133.78125 170.527344 134.847656 171.058594 135.886719 C 177.113281 147.761719 194.230469 156.324219 214.417969 156.324219 C 215.320312 156.324219 216.214844 156.300781 217.105469 156.269531 C 235.894531 155.554688 251.640625 147.421875 257.585938 136.273438 C 263.835938 138.503906 270.882812 139.753906 278.339844 139.753906 C 296.417969 139.753906 312.097656 132.394531 319.832031 121.632812 C 324.429688 122.917969 329.425781 123.628906 334.65625 123.628906 C 341.464844 123.628906 347.878906 122.429688 353.519531 120.320312 C 362.902344 126.953125 375.625 129.660156 390.457031 126.878906 C 407.007812 128.140625 428.738281 132.441406 435.328125 144.027344 C 436.917969 146.207031 437.851562 148.695312 437.941406 151.515625 L 467.433594 149.46875 C 466.941406 120.632812 429.871094 92.773438 392.109375 88.746094 " fill-opacity="1" fill-rule="nonzero"/><path fill="#262262" d="M 214.417969 157.097656 C 192.660156 157.097656 173.550781 146.933594 168.988281 132.933594 C 168.851562 132.527344 169.074219 132.089844 169.480469 131.960938 C 169.886719 131.824219 170.320312 132.046875 170.453125 132.453125 C 174.816406 145.839844 193.304688 155.554688 214.417969 155.554688 C 228.675781 155.554688 241.78125 151.296875 250.371094 143.875 C 250.695312 143.597656 251.183594 143.632812 251.457031 143.953125 C 251.738281 144.277344 251.703125 144.765625 251.382812 145.042969 C 242.511719 152.703125 229.042969 157.097656 214.417969 157.097656 " fill-opacity="1" fill-rule="nonzero"/><g clip-path="url(#7d4ba9e7fd)"><path fill="#262262" d="M 437.308594 152.332031 C 437.113281 152.332031 436.925781 152.257812 436.78125 152.125 C 436.625 151.980469 436.535156 151.773438 436.535156 151.5625 C 436.535156 133.207031 404.425781 128.726562 390.5 127.652344 C 380.324219 129.546875 370.957031 128.972656 362.644531 125.941406 C 362.246094 125.792969 362.039062 125.351562 362.183594 124.953125 C 362.332031 124.550781 362.773438 124.347656 363.171875 124.492188 C 371.25 127.4375 380.378906 127.984375 390.316406 126.117188 C 390.382812 126.105469 390.449219 126.101562 390.515625 126.109375 C 404.617188 127.1875 437.144531 131.738281 438.058594 150.734375 L 466.664062 148.746094 C 466.390625 134.316406 457.804688 118.910156 443.019531 106.355469 C 428.273438 93.832031 409.082031 85.429688 390.371094 83.296875 C 384.945312 82.679688 379.699219 83.519531 374.628906 84.332031 C 373.996094 84.429688 373.371094 84.53125 372.75 84.628906 C 372.425781 84.675781 372.113281 84.523438 371.957031 84.234375 C 366.027344 73.375 351.035156 66.078125 334.65625 66.078125 C 321.777344 66.078125 309.605469 70.539062 302.089844 78.011719 C 301.871094 78.230469 301.539062 78.296875 301.253906 78.175781 C 294.316406 75.324219 286.394531 73.816406 278.339844 73.816406 C 277.730469 73.816406 277.128906 73.832031 276.527344 73.847656 C 276.203125 73.875 275.902344 73.65625 275.785156 73.347656 C 269.597656 57.148438 248.457031 45.835938 224.371094 45.835938 C 214.433594 45.835938 204.738281 47.761719 196.328125 51.402344 C 196.082031 51.511719 195.800781 51.480469 195.582031 51.328125 C 190.5625 47.785156 184.179688 45.835938 177.613281 45.835938 C 168.824219 45.835938 160.730469 49.195312 155.410156 55.054688 C 155.242188 55.238281 154.996094 55.328125 154.757812 55.300781 C 151.335938 54.925781 147.863281 54.734375 144.441406 54.734375 C 110.339844 54.734375 82.59375 72.832031 82.59375 95.074219 C 82.59375 117.316406 110.339844 135.414062 144.441406 135.414062 C 148.632812 135.414062 152.820312 135.132812 156.894531 134.589844 C 157.320312 134.535156 157.703125 134.832031 157.757812 135.253906 C 157.816406 135.675781 157.519531 136.0625 157.097656 136.117188 C 152.957031 136.671875 148.703125 136.953125 144.441406 136.953125 C 109.488281 136.953125 81.050781 118.167969 81.050781 95.074219 C 81.050781 71.980469 109.488281 53.195312 144.441406 53.195312 C 147.789062 53.195312 151.183594 53.371094 154.535156 53.726562 C 160.148438 47.726562 168.535156 44.292969 177.613281 44.292969 C 184.34375 44.292969 190.894531 46.253906 196.113281 49.816406 C 204.617188 46.203125 214.378906 44.292969 224.371094 44.292969 C 248.832031 44.292969 270.375 55.777344 277.027344 72.289062 C 277.464844 72.28125 277.898438 72.277344 278.339844 72.277344 C 286.410156 72.277344 294.363281 73.753906 301.367188 76.558594 C 309.1875 69.019531 321.585938 64.535156 334.65625 64.535156 C 351.609375 64.535156 366.601562 71.773438 373.046875 83.023438 C 373.488281 82.953125 373.933594 82.878906 374.382812 82.808594 C 379.558594 81.976562 384.910156 81.121094 390.546875 81.765625 C 409.550781 83.929688 429.042969 92.464844 444.015625 105.179688 C 451.480469 111.511719 457.378906 118.476562 461.550781 125.875 C 465.972656 133.71875 468.214844 141.652344 468.214844 149.46875 C 468.214844 149.875 467.898438 150.210938 467.496094 150.238281 L 437.359375 152.328125 C 437.339844 152.332031 437.324219 152.332031 437.308594 152.332031 " fill-opacity="1" fill-rule="nonzero"/></g><path fill="#262262" d="M 278.339844 140.527344 C 270.964844 140.527344 263.894531 139.34375 257.324219 137 C 256.925781 136.859375 256.714844 136.417969 256.859375 136.015625 C 257 135.617188 257.445312 135.40625 257.84375 135.550781 C 264.246094 137.828125 271.140625 138.984375 278.339844 138.984375 C 295.652344 138.984375 311.3125 132.164062 319.207031 121.183594 C 319.394531 120.921875 319.726562 120.804688 320.039062 120.890625 C 324.714844 122.199219 329.632812 122.859375 334.65625 122.859375 C 341.113281 122.859375 347.542969 121.734375 353.246094 119.597656 C 353.648438 119.449219 354.09375 119.652344 354.242188 120.050781 C 354.390625 120.449219 354.191406 120.894531 353.789062 121.042969 C 347.832031 123.269531 341.394531 124.402344 334.65625 124.402344 C 329.675781 124.402344 324.792969 123.769531 320.140625 122.515625 C 311.867188 133.640625 295.914062 140.527344 278.339844 140.527344 " fill-opacity="1" fill-rule="nonzero"/><path fill="#ffffff" d="M 597.0625 447.886719 L 505.671875 242.628906 L 505.671875 133.402344 L 373.734375 133.402344 L 373.734375 242.628906 L 282.339844 447.886719 L 280.496094 507.261719 L 598.90625 507.261719 L 597.0625 447.886719 " fill-opacity="1" fill-rule="nonzero"/><path fill="#c8d4de" d="M 597.148438 447.886719 L 505.671875 242.628906 L 505.671875 133.402344 L 384.136719 133.402344 L 384.136719 242.628906 L 296.960938 447.886719 L 295.203125 507.261719 L 598.90625 507.261719 L 597.148438 447.886719 " fill-opacity="1" fill-rule="nonzero"/><path fill="#d9ab39" d="M 505.671875 184.097656 L 384.136719 184.097656 L 384.136719 160.726562 L 505.671875 160.726562 L 505.671875 184.097656 " fill-opacity="1" fill-rule="nonzero"/><path fill="#262262" d="M 556.503906 357.558594 C 556.207031 357.558594 555.925781 357.386719 555.796875 357.101562 L 504.964844 242.941406 C 504.921875 242.84375 504.898438 242.734375 504.898438 242.628906 L 504.898438 222.882812 C 504.898438 222.457031 505.242188 222.113281 505.671875 222.113281 C 506.097656 222.113281 506.441406 222.457031 506.441406 222.882812 L 506.441406 242.464844 L 557.207031 356.472656 C 557.378906 356.863281 557.203125 357.316406 556.816406 357.492188 C 556.710938 357.535156 556.605469 357.558594 556.503906 357.558594 " fill-opacity="1" fill-rule="nonzero"/><path fill="#262262" d="M 598.910156 508.03125 L 280.496094 508.03125 C 280.285156 508.03125 280.089844 507.949219 279.945312 507.796875 C 279.796875 507.648438 279.71875 507.445312 279.726562 507.234375 L 281.566406 447.863281 C 281.574219 447.761719 281.59375 447.664062 281.636719 447.570312 L 372.964844 242.464844 L 372.964844 133.402344 C 372.964844 132.976562 373.308594 132.628906 373.734375 132.628906 L 505.671875 132.628906 C 506.097656 132.628906 506.441406 132.976562 506.441406 133.402344 L 506.441406 210.707031 C 506.441406 211.132812 506.097656 211.476562 505.671875 211.476562 C 505.242188 211.476562 504.898438 211.132812 504.898438 210.707031 L 504.898438 134.171875 L 374.507812 134.171875 L 374.507812 242.628906 C 374.507812 242.734375 374.484375 242.84375 374.441406 242.941406 L 283.105469 448.0625 L 281.292969 506.488281 L 598.113281 506.488281 L 596.300781 448.0625 L 569.117188 387.015625 C 568.945312 386.625 569.121094 386.171875 569.511719 385.996094 C 569.898438 385.824219 570.351562 386 570.527344 386.386719 L 597.769531 447.570312 C 597.8125 447.664062 597.832031 447.761719 597.835938 447.863281 L 599.679688 507.234375 C 599.6875 507.445312 599.609375 507.648438 599.460938 507.796875 C 599.316406 507.949219 599.117188 508.03125 598.910156 508.03125 " fill-opacity="1" fill-rule="nonzero"/><path fill="#c8d4de" d="M 697.527344 512.519531 L 283.503906 512.519531 L 283.503906 506.878906 L 697.527344 506.878906 L 697.527344 512.519531 " fill-opacity="1" fill-rule="nonzero"/><g clip-path="url(#3683e63ce5)"><path fill="#262262" d="M 447.003906 513.289062 L 283.503906 513.289062 C 283.078125 513.289062 282.734375 512.945312 282.734375 512.515625 L 282.734375 506.878906 C 282.734375 506.453125 283.078125 506.105469 283.503906 506.105469 L 703.210938 506.105469 C 703.640625 506.105469 703.984375 506.453125 703.984375 506.878906 C 703.984375 507.300781 703.640625 507.648438 703.210938 507.648438 L 284.277344 507.648438 L 284.277344 511.746094 L 447.003906 511.746094 C 447.429688 511.746094 447.773438 512.089844 447.773438 512.515625 C 447.773438 512.945312 447.429688 513.289062 447.003906 513.289062 " fill-opacity="1" fill-rule="nonzero"/></g><path fill="#262262" d="M 617.621094 513.289062 L 464.398438 513.289062 C 463.972656 513.289062 463.625 512.945312 463.625 512.515625 C 463.625 512.089844 463.972656 511.746094 464.398438 511.746094 L 617.621094 511.746094 C 618.042969 511.746094 618.390625 512.089844 618.390625 512.515625 C 618.390625 512.945312 618.042969 513.289062 617.621094 513.289062 " fill-opacity="1" fill-rule="nonzero"/><path fill="#262262" d="M 686.871094 513.289062 L 643.753906 513.289062 C 643.328125 513.289062 642.980469 512.945312 642.980469 512.515625 C 642.980469 512.089844 643.328125 511.746094 643.753906 511.746094 L 686.871094 511.746094 C 687.296875 511.746094 687.644531 512.089844 687.644531 512.515625 C 687.644531 512.945312 687.296875 513.289062 686.871094 513.289062 " fill-opacity="1" fill-rule="nonzero"/><path fill="#ffffff" d="M 636.402344 431.726562 L 631.519531 422.753906 L 624.757812 416.757812 L 616.394531 416.15625 L 598.84375 402.464844 L 580.984375 415.292969 L 574.234375 409.296875 L 564.160156 418.347656 L 557.433594 428.101562 L 549.539062 430.726562 L 547.886719 437.257812 L 641.535156 440.773438 L 636.402344 431.726562 " fill-opacity="1" fill-rule="nonzero"/><path fill="#24325b" d="M 636.074219 431.636719 L 632.859375 426.4375 L 626.101562 420.441406 L 617.738281 419.835938 L 600.1875 406.148438 L 582.328125 418.972656 L 575.578125 412.980469 L 565.503906 422.03125 L 558.363281 429.65625 L 550.882812 434.40625 L 549.230469 440.941406 L 641.535156 440.773438 L 636.074219 431.636719 " fill-opacity="1" fill-rule="nonzero"/><path fill="#262262" d="M 641.539062 441.542969 C 641.265625 441.542969 641.003906 441.402344 640.863281 441.15625 L 635.730469 432.105469 L 630.902344 423.242188 L 624.441406 417.503906 L 616.339844 416.925781 C 616.183594 416.914062 616.039062 416.859375 615.917969 416.765625 L 598.820312 403.425781 L 581.433594 415.917969 C 581.140625 416.128906 580.742188 416.105469 580.472656 415.867188 L 574.238281 410.332031 L 564.746094 418.863281 L 558.070312 428.542969 C 557.972656 428.679688 557.835938 428.78125 557.675781 428.835938 L 550.183594 431.324219 L 548.632812 437.449219 C 548.53125 437.863281 548.113281 438.109375 547.699219 438.007812 C 547.285156 437.90625 547.035156 437.484375 547.140625 437.070312 L 548.792969 430.539062 C 548.859375 430.28125 549.046875 430.078125 549.296875 429.996094 L 556.945312 427.453125 L 563.523438 417.910156 C 563.558594 417.859375 563.601562 417.816406 563.644531 417.777344 L 573.71875 408.722656 C 574.011719 408.460938 574.453125 408.457031 574.746094 408.722656 L 581.035156 414.304688 L 598.390625 401.839844 C 598.667969 401.636719 599.046875 401.644531 599.316406 401.855469 L 616.683594 415.402344 L 624.8125 415.984375 C 624.980469 416 625.144531 416.066406 625.269531 416.179688 L 632.027344 422.175781 C 632.097656 422.234375 632.152344 422.308594 632.195312 422.382812 L 637.082031 431.355469 L 642.207031 440.390625 C 642.414062 440.765625 642.285156 441.234375 641.917969 441.441406 C 641.796875 441.511719 641.667969 441.542969 641.539062 441.542969 " fill-opacity="1" fill-rule="nonzero"/><path fill="#ffffff" d="M 566.699219 420.128906 L 571.507812 423.734375 L 570.246094 417.011719 Z M 566.699219 420.128906 " fill-opacity="1" fill-rule="nonzero"/><path fill="#ffffff" d="M 599.714844 422.6875 L 606.695312 419.390625 L 608.289062 421.980469 Z M 599.714844 422.6875 " fill-opacity="1" fill-rule="nonzero"/><path fill="#ffffff" d="M 564.699219 435.222656 L 566.949219 428.722656 L 570.351562 429.308594 Z M 564.699219 435.222656 " fill-opacity="1" fill-rule="nonzero"/><path fill="#ffffff" d="M 606.464844 435.90625 L 609.464844 433.003906 L 614.515625 434.449219 Z M 606.464844 435.90625 " fill-opacity="1" fill-rule="nonzero"/><path fill="#ffffff" d="M 580.328125 425.066406 L 582.5625 418.242188 L 587.824219 418.1875 L 591.332031 417.011719 L 588.78125 420.78125 L 583.910156 420.683594 L 580.328125 425.066406 " fill-opacity="1" fill-rule="nonzero"/><path fill="#c8d4de" d="M 531.332031 483.152344 C 529.511719 483.152344 528.03125 481.675781 528.03125 479.855469 L 528.03125 471.664062 C 528.03125 469.84375 529.511719 468.363281 531.332031 468.363281 C 533.152344 468.363281 534.628906 469.84375 534.628906 471.664062 L 534.628906 479.855469 C 534.628906 481.675781 533.152344 483.152344 531.332031 483.152344 " fill-opacity="1" fill-rule="nonzero"/><path fill="#262262" d="M 531.332031 469.136719 C 529.9375 469.136719 528.804688 470.269531 528.804688 471.664062 L 528.804688 479.851562 C 528.804688 481.246094 529.9375 482.378906 531.332031 482.378906 C 532.726562 482.378906 533.859375 481.246094 533.859375 479.851562 L 533.859375 471.664062 C 533.859375 470.269531 532.726562 469.136719 531.332031 469.136719 Z M 531.332031 483.921875 C 529.085938 483.921875 527.261719 482.097656 527.261719 479.851562 L 527.261719 471.664062 C 527.261719 469.417969 529.085938 467.59375 531.332031 467.59375 C 533.578125 467.59375 535.402344 469.417969 535.402344 471.664062 L 535.402344 479.851562 C 535.402344 482.097656 533.578125 483.921875 531.332031 483.921875 " fill-opacity="1" fill-rule="nonzero"/><path fill="#c8d4de" d="M 544.726562 478.519531 L 518.308594 478.519531 L 518.308594 473.066406 L 544.726562 473.066406 L 544.726562 478.519531 " fill-opacity="1" fill-rule="nonzero"/><path fill="#262262" d="M 540.113281 479.289062 L 518.308594 479.289062 C 517.882812 479.289062 517.539062 478.949219 517.539062 478.519531 L 517.539062 473.066406 C 517.539062 472.636719 517.882812 472.292969 518.308594 472.292969 L 544.726562 472.292969 C 545.148438 472.292969 545.496094 472.636719 545.496094 473.066406 C 545.496094 473.492188 545.148438 473.835938 544.726562 473.835938 L 519.082031 473.835938 L 519.082031 477.75 L 540.113281 477.75 C 540.539062 477.75 540.882812 478.09375 540.882812 478.519531 C 540.882812 478.949219 540.539062 479.289062 540.113281 479.289062 " fill-opacity="1" fill-rule="nonzero"/><path fill="#ffffff" d="M 544.726562 437.445312 L 544.726562 479.308594 L 556.574219 496.441406 L 631.902344 496.441406 L 643.753906 479.308594 L 643.753906 437.445312 L 544.726562 437.445312 " fill-opacity="1" fill-rule="nonzero"/><path fill="#d9ab39" d="M 549.328125 441.371094 L 549.328125 480.445312 L 560.625 496.441406 L 632.453125 496.441406 L 643.753906 480.445312 L 643.753906 441.371094 L 549.328125 441.371094 " fill-opacity="1" fill-rule="nonzero"/><path fill="#262262" d="M 631.902344 497.210938 L 556.574219 497.210938 C 556.324219 497.210938 556.085938 497.089844 555.941406 496.882812 L 544.089844 479.746094 C 544.003906 479.617188 543.953125 479.460938 543.953125 479.308594 L 543.953125 437.445312 C 543.953125 437.019531 544.300781 436.675781 544.726562 436.675781 L 643.753906 436.675781 C 644.179688 436.675781 644.527344 437.019531 644.527344 437.445312 L 644.527344 466.941406 C 644.527344 467.371094 644.179688 467.714844 643.753906 467.714844 C 643.328125 467.714844 642.980469 467.371094 642.980469 466.941406 L 642.980469 438.21875 L 545.496094 438.21875 L 545.496094 479.066406 L 556.980469 495.671875 L 631.5 495.671875 L 643.117188 478.867188 C 643.363281 478.519531 643.839844 478.429688 644.195312 478.671875 C 644.542969 478.914062 644.628906 479.394531 644.390625 479.746094 L 632.539062 496.882812 C 632.394531 497.089844 632.15625 497.210938 631.902344 497.210938 " fill-opacity="1" fill-rule="nonzero"/><path fill="#262262" d="M 638.269531 445.800781 L 547.238281 445.800781 C 546.8125 445.800781 546.464844 445.457031 546.464844 445.03125 C 546.464844 444.601562 546.8125 444.257812 547.238281 444.257812 L 638.269531 444.257812 C 638.695312 444.257812 639.039062 444.601562 639.039062 445.03125 C 639.039062 445.457031 638.695312 445.800781 638.269531 445.800781 " fill-opacity="1" fill-rule="nonzero"/><path fill="#262262" d="M 636.4375 462.257812 L 620.277344 462.257812 C 619.851562 462.257812 619.503906 461.914062 619.503906 461.488281 C 619.503906 461.0625 619.851562 460.714844 620.277344 460.714844 L 636.4375 460.714844 C 636.863281 460.714844 637.207031 461.0625 637.207031 461.488281 C 637.207031 461.914062 636.863281 462.257812 636.4375 462.257812 " fill-opacity="1" fill-rule="nonzero"/><path fill="#262262" d="M 606.464844 462.257812 L 550.925781 462.257812 C 550.5 462.257812 550.15625 461.914062 550.15625 461.488281 C 550.15625 461.0625 550.5 460.714844 550.925781 460.714844 L 606.464844 460.714844 C 606.894531 460.714844 607.238281 461.0625 607.238281 461.488281 C 607.238281 461.914062 606.894531 462.257812 606.464844 462.257812 " fill-opacity="1" fill-rule="nonzero"/><path fill="#262262" d="M 628.359375 479.289062 L 550.925781 479.289062 C 550.5 479.289062 550.15625 478.949219 550.15625 478.519531 C 550.15625 478.09375 550.5 477.75 550.925781 477.75 L 628.359375 477.75 C 628.785156 477.75 629.132812 478.09375 629.132812 478.519531 C 629.132812 478.949219 628.785156 479.289062 628.359375 479.289062 " fill-opacity="1" fill-rule="nonzero"/><path fill="#ffffff" d="M 629.21875 498.792969 C 629.21875 503.730469 625.214844 507.734375 620.273438 507.734375 C 615.335938 507.734375 611.328125 503.730469 611.328125 498.792969 C 611.328125 493.851562 615.335938 489.847656 620.273438 489.847656 C 625.214844 489.847656 629.21875 493.851562 629.21875 498.792969 " fill-opacity="1" fill-rule="nonzero"/><path fill="#c8d4de" d="M 629.21875 499.6875 C 629.21875 504.132812 625.617188 507.734375 621.167969 507.734375 C 616.71875 507.734375 613.117188 504.132812 613.117188 499.6875 C 613.117188 495.242188 616.71875 491.636719 621.167969 491.636719 C 625.617188 491.636719 629.21875 495.242188 629.21875 499.6875 " fill-opacity="1" fill-rule="nonzero"/><path fill="#ffffff" d="M 624.921875 498.792969 C 624.921875 501.359375 622.84375 503.441406 620.273438 503.441406 C 617.707031 503.441406 615.625 501.359375 615.625 498.792969 C 615.625 496.226562 617.707031 494.148438 620.273438 494.148438 C 622.84375 494.148438 624.921875 496.226562 624.921875 498.792969 " fill-opacity="1" fill-rule="nonzero"/><path fill="#c8d4de" d="M 624.921875 499.792969 C 624.921875 501.804688 623.289062 503.441406 621.269531 503.441406 C 619.257812 503.441406 617.621094 501.804688 617.621094 499.792969 C 617.621094 497.773438 619.257812 496.144531 621.269531 496.144531 C 623.289062 496.144531 624.921875 497.773438 624.921875 499.792969 " fill-opacity="1" fill-rule="nonzero"/><path fill="#262262" d="M 620.273438 490.617188 C 615.769531 490.617188 612.101562 494.285156 612.101562 498.792969 C 612.101562 503.296875 615.769531 506.964844 620.273438 506.964844 C 624.78125 506.964844 628.445312 503.296875 628.445312 498.792969 C 628.445312 494.285156 624.78125 490.617188 620.273438 490.617188 Z M 620.273438 508.507812 C 614.917969 508.507812 610.554688 504.148438 610.554688 498.792969 C 610.554688 493.4375 614.917969 489.078125 620.273438 489.078125 C 625.632812 489.078125 629.992188 493.4375 629.992188 498.792969 C 629.992188 504.148438 625.632812 508.507812 620.273438 508.507812 " fill-opacity="1" fill-rule="nonzero"/><path fill="#262262" d="M 620.273438 494.917969 C 618.136719 494.917969 616.398438 496.65625 616.398438 498.792969 C 616.398438 500.929688 618.136719 502.667969 620.273438 502.667969 C 622.410156 502.667969 624.148438 500.929688 624.148438 498.792969 C 624.148438 496.65625 622.410156 494.917969 620.273438 494.917969 Z M 620.273438 504.210938 C 617.285156 504.210938 614.855469 501.777344 614.855469 498.792969 C 614.855469 495.804688 617.285156 493.375 620.273438 493.375 C 623.261719 493.375 625.695312 495.804688 625.695312 498.792969 C 625.695312 501.777344 623.261719 504.210938 620.273438 504.210938 " fill-opacity="1" fill-rule="nonzero"/><path fill="#ffffff" d="M 576.746094 498.792969 C 576.746094 503.730469 572.742188 507.734375 567.800781 507.734375 C 562.863281 507.734375 558.855469 503.730469 558.855469 498.792969 C 558.855469 493.851562 562.863281 489.847656 567.800781 489.847656 C 572.742188 489.847656 576.746094 493.851562 576.746094 498.792969 " fill-opacity="1" fill-rule="nonzero"/><path fill="#c8d4de" d="M 576.746094 499.6875 C 576.746094 504.132812 573.140625 507.734375 568.695312 507.734375 C 564.246094 507.734375 560.644531 504.132812 560.644531 499.6875 C 560.644531 495.242188 564.246094 491.636719 568.695312 491.636719 C 573.140625 491.636719 576.746094 495.242188 576.746094 499.6875 " fill-opacity="1" fill-rule="nonzero"/><path fill="#ffffff" d="M 572.449219 498.792969 C 572.449219 501.359375 570.367188 503.441406 567.800781 503.441406 C 565.234375 503.441406 563.152344 501.359375 563.152344 498.792969 C 563.152344 496.226562 565.234375 494.148438 567.800781 494.148438 C 570.367188 494.148438 572.449219 496.226562 572.449219 498.792969 " fill-opacity="1" fill-rule="nonzero"/><path fill="#c8d4de" d="M 572.449219 499.792969 C 572.449219 501.804688 570.816406 503.441406 568.796875 503.441406 C 566.785156 503.441406 565.148438 501.804688 565.148438 499.792969 C 565.148438 497.773438 566.785156 496.144531 568.796875 496.144531 C 570.816406 496.144531 572.449219 497.773438 572.449219 499.792969 " fill-opacity="1" fill-rule="nonzero"/><path fill="#262262" d="M 567.800781 490.617188 C 563.296875 490.617188 559.628906 494.285156 559.628906 498.792969 C 559.628906 503.296875 563.296875 506.964844 567.800781 506.964844 C 572.308594 506.964844 575.972656 503.296875 575.972656 498.792969 C 575.972656 494.285156 572.308594 490.617188 567.800781 490.617188 Z M 567.800781 508.507812 C 562.441406 508.507812 558.082031 504.148438 558.082031 498.792969 C 558.082031 493.4375 562.441406 489.078125 567.800781 489.078125 C 573.160156 489.078125 577.515625 493.4375 577.515625 498.792969 C 577.515625 504.148438 573.160156 508.507812 567.800781 508.507812 " fill-opacity="1" fill-rule="nonzero"/><path fill="#262262" d="M 567.800781 494.917969 C 565.664062 494.917969 563.921875 496.65625 563.921875 498.792969 C 563.921875 500.929688 565.664062 502.667969 567.800781 502.667969 C 569.9375 502.667969 571.675781 500.929688 571.675781 498.792969 C 571.675781 496.65625 569.9375 494.917969 567.800781 494.917969 Z M 567.800781 504.210938 C 564.8125 504.210938 562.382812 501.777344 562.382812 498.792969 C 562.382812 495.804688 564.8125 493.375 567.800781 493.375 C 570.789062 493.375 573.222656 495.804688 573.222656 498.792969 C 573.222656 501.777344 570.789062 504.210938 567.800781 504.210938 " fill-opacity="1" fill-rule="nonzero"/><path fill="#ffffff" d="M 419.832031 478.519531 L 399.441406 478.519531 L 399.441406 473.066406 L 419.832031 473.066406 L 419.832031 478.519531 " fill-opacity="1" fill-rule="nonzero"/><path fill="#c8d4de" d="M 419.832031 478.722656 L 401.808594 478.722656 L 401.808594 475.351562 L 419.832031 475.351562 L 419.832031 478.722656 " fill-opacity="1" fill-rule="nonzero"/><path fill="#262262" d="M 414.128906 479.289062 L 399.441406 479.289062 C 399.011719 479.289062 398.667969 478.949219 398.667969 478.519531 L 398.667969 473.066406 C 398.667969 472.636719 399.011719 472.292969 399.441406 472.292969 L 419.832031 472.292969 C 420.257812 472.292969 420.605469 472.636719 420.605469 473.066406 C 420.605469 473.492188 420.257812 473.835938 419.832031 473.835938 L 400.210938 473.835938 L 400.210938 477.75 L 414.128906 477.75 C 414.554688 477.75 414.898438 478.09375 414.898438 478.519531 C 414.898438 478.949219 414.554688 479.289062 414.128906 479.289062 " fill-opacity="1" fill-rule="nonzero"/><path fill="#ffffff" d="M 503 431.125 L 497.429688 432.492188 L 479.359375 421.300781 L 470.753906 426.261719 L 459.941406 427.660156 L 457.765625 434.105469 L 448.136719 441.59375 L 517.566406 443.707031 L 503 431.125 " fill-opacity="1" fill-rule="nonzero"/><path fill="#24325b" d="M 504.261719 433.515625 L 498.828125 434.832031 L 481.191406 424.097656 L 472.789062 428.867188 L 462.234375 430.214844 L 460.105469 436.40625 L 450.703125 443.605469 L 517.566406 443.707031 L 504.261719 433.515625 " fill-opacity="1" fill-rule="nonzero"/><path fill="#262262" d="M 517.566406 444.480469 C 517.386719 444.480469 517.207031 444.417969 517.0625 444.292969 L 502.796875 431.972656 L 497.617188 433.238281 C 497.414062 433.289062 497.203125 433.257812 497.027344 433.148438 L 479.347656 422.199219 L 471.136719 426.933594 C 471.050781 426.984375 470.953125 427.015625 470.851562 427.027344 L 460.515625 428.367188 L 458.496094 434.351562 C 458.449219 434.492188 458.359375 434.621094 458.238281 434.714844 L 448.609375 442.199219 C 448.273438 442.460938 447.789062 442.402344 447.53125 442.066406 C 447.265625 441.730469 447.328125 441.246094 447.664062 440.984375 L 457.109375 433.636719 L 459.210938 427.414062 C 459.304688 427.136719 459.546875 426.9375 459.84375 426.898438 L 470.5 425.515625 L 478.972656 420.632812 C 479.21875 420.492188 479.523438 420.496094 479.765625 420.644531 L 497.5625 431.667969 L 502.816406 430.378906 C 503.058594 430.320312 503.3125 430.378906 503.503906 430.542969 L 518.070312 443.125 C 518.394531 443.402344 518.429688 443.886719 518.148438 444.210938 C 517.996094 444.386719 517.785156 444.480469 517.566406 444.480469 " fill-opacity="1" fill-rule="nonzero"/><path fill="#ffffff" d="M 479.027344 440.019531 L 484.359375 434.871094 L 488.34375 434.871094 L 489.242188 438.796875 L 479.027344 440.019531 " fill-opacity="1" fill-rule="nonzero"/><path fill="#ffffff" d="M 471.574219 432.226562 L 476.453125 433.925781 L 480.132812 433.925781 L 477.714844 431.4375 L 475.144531 430.65625 L 471.574219 432.226562 " fill-opacity="1" fill-rule="nonzero"/><path fill="#ffffff" d="M 419.28125 437.445312 L 419.28125 479.308594 L 431.128906 496.441406 L 506.457031 496.441406 L 518.308594 479.308594 L 518.308594 437.445312 L 419.28125 437.445312 " fill-opacity="1" fill-rule="nonzero"/><path fill="#d9ab39" d="M 423.878906 441.371094 L 423.878906 480.445312 L 435.179688 496.441406 L 507.007812 496.441406 L 518.308594 480.445312 L 518.308594 441.371094 L 423.878906 441.371094 " fill-opacity="1" fill-rule="nonzero"/><path fill="#262262" d="M 506.457031 497.210938 L 431.128906 497.210938 C 430.875 497.210938 430.640625 497.089844 430.496094 496.882812 L 418.644531 479.746094 C 418.554688 479.617188 418.507812 479.460938 418.507812 479.308594 L 418.507812 437.445312 C 418.507812 437.019531 418.851562 436.675781 419.277344 436.675781 L 518.308594 436.675781 C 518.734375 436.675781 519.082031 437.019531 519.082031 437.445312 L 519.082031 479.308594 C 519.082031 479.730469 518.734375 480.078125 518.308594 480.078125 C 517.882812 480.078125 517.539062 479.730469 517.539062 479.308594 L 517.539062 438.21875 L 420.050781 438.21875 L 420.050781 479.066406 L 431.535156 495.671875 L 506.457031 495.671875 C 506.882812 495.671875 507.230469 496.015625 507.230469 496.441406 C 507.230469 496.867188 506.882812 497.210938 506.457031 497.210938 " fill-opacity="1" fill-rule="nonzero"/><path fill="#262262" d="M 512.820312 445.800781 L 421.792969 445.800781 C 421.367188 445.800781 421.019531 445.457031 421.019531 445.03125 C 421.019531 444.601562 421.367188 444.257812 421.792969 444.257812 L 512.820312 444.257812 C 513.246094 444.257812 513.59375 444.601562 513.59375 445.03125 C 513.59375 445.457031 513.246094 445.800781 512.820312 445.800781 " fill-opacity="1" fill-rule="nonzero"/><path fill="#262262" d="M 510.992188 462.257812 L 471.09375 462.257812 C 470.667969 462.257812 470.320312 461.914062 470.320312 461.488281 C 470.320312 461.0625 470.667969 460.714844 471.09375 460.714844 L 510.992188 460.714844 C 511.417969 460.714844 511.765625 461.0625 511.765625 461.488281 C 511.765625 461.914062 511.417969 462.257812 510.992188 462.257812 " fill-opacity="1" fill-rule="nonzero"/><path fill="#262262" d="M 455.875 462.257812 L 425.480469 462.257812 C 425.054688 462.257812 424.707031 461.914062 424.707031 461.488281 C 424.707031 461.0625 425.054688 460.714844 425.480469 460.714844 L 455.875 460.714844 C 456.300781 460.714844 456.644531 461.0625 456.644531 461.488281 C 456.644531 461.914062 456.300781 462.257812 455.875 462.257812 " fill-opacity="1" fill-rule="nonzero"/><path fill="#262262" d="M 512.820312 479.289062 L 485.882812 479.289062 C 485.453125 479.289062 485.109375 478.949219 485.109375 478.519531 C 485.109375 478.09375 485.453125 477.75 485.882812 477.75 L 512.820312 477.75 C 513.246094 477.75 513.59375 478.09375 513.59375 478.519531 C 513.59375 478.949219 513.246094 479.289062 512.820312 479.289062 " fill-opacity="1" fill-rule="nonzero"/><path fill="#262262" d="M 475.851562 479.289062 L 425.480469 479.289062 C 425.054688 479.289062 424.707031 478.949219 424.707031 478.519531 C 424.707031 478.09375 425.054688 477.75 425.480469 477.75 L 475.851562 477.75 C 476.28125 477.75 476.625 478.09375 476.625 478.519531 C 476.625 478.949219 476.28125 479.289062 475.851562 479.289062 " fill-opacity="1" fill-rule="nonzero"/><path fill="#ffffff" d="M 503.773438 498.792969 C 503.773438 503.730469 499.769531 507.734375 494.828125 507.734375 C 489.886719 507.734375 485.882812 503.730469 485.882812 498.792969 C 485.882812 493.851562 489.886719 489.847656 494.828125 489.847656 C 499.769531 489.847656 503.773438 493.851562 503.773438 498.792969 " fill-opacity="1" fill-rule="nonzero"/><path fill="#c8d4de" d="M 503.773438 499.6875 C 503.773438 504.132812 500.167969 507.734375 495.722656 507.734375 C 491.277344 507.734375 487.671875 504.132812 487.671875 499.6875 C 487.671875 495.242188 491.277344 491.636719 495.722656 491.636719 C 500.167969 491.636719 503.773438 495.242188 503.773438 499.6875 " fill-opacity="1" fill-rule="nonzero"/><path fill="#ffffff" d="M 499.476562 498.792969 C 499.476562 501.359375 497.394531 503.441406 494.828125 503.441406 C 492.261719 503.441406 490.179688 501.359375 490.179688 498.792969 C 490.179688 496.226562 492.261719 494.148438 494.828125 494.148438 C 497.394531 494.148438 499.476562 496.226562 499.476562 498.792969 " fill-opacity="1" fill-rule="nonzero"/><path fill="#c8d4de" d="M 499.476562 499.792969 C 499.476562 501.804688 497.839844 503.441406 495.828125 503.441406 C 493.808594 503.441406 492.175781 501.804688 492.175781 499.792969 C 492.175781 497.773438 493.808594 496.144531 495.828125 496.144531 C 497.839844 496.144531 499.476562 497.773438 499.476562 499.792969 " fill-opacity="1" fill-rule="nonzero"/><path fill="#262262" d="M 494.828125 490.617188 C 490.320312 490.617188 486.652344 494.285156 486.652344 498.792969 C 486.652344 503.296875 490.320312 506.964844 494.828125 506.964844 C 499.335938 506.964844 503 503.296875 503 498.792969 C 503 494.285156 499.335938 490.617188 494.828125 490.617188 Z M 494.828125 508.507812 C 489.46875 508.507812 485.109375 504.148438 485.109375 498.792969 C 485.109375 493.4375 489.46875 489.078125 494.828125 489.078125 C 500.1875 489.078125 504.546875 493.4375 504.546875 498.792969 C 504.546875 504.148438 500.1875 508.507812 494.828125 508.507812 " fill-opacity="1" fill-rule="nonzero"/><path fill="#262262" d="M 494.828125 494.917969 C 492.691406 494.917969 490.953125 496.65625 490.953125 498.792969 C 490.953125 500.929688 492.691406 502.667969 494.828125 502.667969 C 496.964844 502.667969 498.703125 500.929688 498.703125 498.792969 C 498.703125 496.65625 496.964844 494.917969 494.828125 494.917969 Z M 494.828125 504.210938 C 491.839844 504.210938 489.40625 501.777344 489.40625 498.792969 C 489.40625 495.804688 491.839844 493.375 494.828125 493.375 C 497.816406 493.375 500.246094 495.804688 500.246094 498.792969 C 500.246094 501.777344 497.816406 504.210938 494.828125 504.210938 " fill-opacity="1" fill-rule="nonzero"/><path fill="#ffffff" d="M 451.300781 498.792969 C 451.300781 503.730469 447.292969 507.734375 442.355469 507.734375 C 437.414062 507.734375 433.410156 503.730469 433.410156 498.792969 C 433.410156 493.851562 437.414062 489.847656 442.355469 489.847656 C 447.292969 489.847656 451.300781 493.851562 451.300781 498.792969 " fill-opacity="1" fill-rule="nonzero"/><path fill="#c8d4de" d="M 451.300781 499.6875 C 451.300781 504.132812 447.695312 507.734375 443.25 507.734375 C 438.800781 507.734375 435.199219 504.132812 435.199219 499.6875 C 435.199219 495.242188 438.800781 491.636719 443.25 491.636719 C 447.695312 491.636719 451.300781 495.242188 451.300781 499.6875 " fill-opacity="1" fill-rule="nonzero"/><path fill="#ffffff" d="M 447.003906 498.792969 C 447.003906 501.359375 444.921875 503.441406 442.355469 503.441406 C 439.785156 503.441406 437.707031 501.359375 437.707031 498.792969 C 437.707031 496.226562 439.785156 494.148438 442.355469 494.148438 C 444.921875 494.148438 447.003906 496.226562 447.003906 498.792969 " fill-opacity="1" fill-rule="nonzero"/><path fill="#c8d4de" d="M 447.003906 499.792969 C 447.003906 501.804688 445.367188 503.441406 443.351562 503.441406 C 441.335938 503.441406 439.703125 501.804688 439.703125 499.792969 C 439.703125 497.773438 441.335938 496.144531 443.351562 496.144531 C 445.367188 496.144531 447.003906 497.773438 447.003906 499.792969 " fill-opacity="1" fill-rule="nonzero"/><path fill="#262262" d="M 442.355469 490.617188 C 437.847656 490.617188 434.183594 494.285156 434.183594 498.792969 C 434.183594 503.296875 437.847656 506.964844 442.355469 506.964844 C 446.859375 506.964844 450.527344 503.296875 450.527344 498.792969 C 450.527344 494.285156 446.859375 490.617188 442.355469 490.617188 Z M 442.355469 508.507812 C 436.996094 508.507812 432.636719 504.148438 432.636719 498.792969 C 432.636719 493.4375 436.996094 489.078125 442.355469 489.078125 C 447.714844 489.078125 452.074219 493.4375 452.074219 498.792969 C 452.074219 504.148438 447.714844 508.507812 442.355469 508.507812 " fill-opacity="1" fill-rule="nonzero"/><path fill="#262262" d="M 442.355469 494.917969 C 440.21875 494.917969 438.480469 496.65625 438.480469 498.792969 C 438.480469 500.929688 440.21875 502.667969 442.355469 502.667969 C 444.492188 502.667969 446.230469 500.929688 446.230469 498.792969 C 446.230469 496.65625 444.492188 494.917969 442.355469 494.917969 Z M 442.355469 504.210938 C 439.367188 504.210938 436.933594 501.777344 436.933594 498.792969 C 436.933594 495.804688 439.367188 493.375 442.355469 493.375 C 445.34375 493.375 447.773438 495.804688 447.773438 498.792969 C 447.773438 501.777344 445.34375 504.210938 442.355469 504.210938 " fill-opacity="1" fill-rule="nonzero"/><path fill="#262262" d="M 306.964844 522.710938 L 301.164062 522.738281 C 298.386719 522.75 295.652344 522.027344 293.25 520.632812 L 281.894531 520.683594 C 279.335938 520.691406 277.269531 522.777344 277.28125 525.335938 L 277.308594 531.539062 L 293.296875 531.46875 L 293.285156 529.433594 L 296.960938 531.453125 L 315.699219 531.371094 C 315.675781 526.566406 311.765625 522.691406 306.964844 522.710938 " fill-opacity="1" fill-rule="nonzero"/><path fill="#ffffff" d="M 294.742188 520.707031 L 288.183594 450.429688 C 287.976562 448.25 287.039062 446.117188 285.371094 444.453125 L 284.871094 443.957031 L 252.640625 383.273438 L 235.359375 403.027344 L 269.019531 456.316406 L 275.199219 522.53125 L 294.742188 520.707031 " fill-opacity="1" fill-rule="nonzero"/><path fill="#24325b" d="M 294.742188 520.707031 L 288.183594 450.429688 C 287.976562 448.25 286.792969 446.230469 285.578125 444.238281 L 252.640625 383.273438 L 236.179688 402.089844 L 272.039062 454.699219 L 278.773438 521.996094 L 294.742188 520.707031 " fill-opacity="1" fill-rule="nonzero"/><path fill="#262262" d="M 275.199219 523.300781 C 274.804688 523.300781 274.46875 523 274.433594 522.601562 L 268.269531 456.574219 L 234.707031 403.4375 C 234.523438 403.148438 234.554688 402.773438 234.777344 402.519531 L 252.058594 382.761719 C 252.222656 382.574219 252.46875 382.476562 252.722656 382.507812 C 252.976562 382.535156 253.199219 382.683594 253.316406 382.90625 C 253.566406 383.367188 278.203125 429.179688 286.253906 443.871094 C 286.449219 444.226562 286.640625 444.5625 286.824219 444.886719 C 287.90625 446.816406 288.761719 448.34375 288.953125 450.359375 L 290.84375 470.640625 C 290.882812 471.066406 290.570312 471.441406 290.148438 471.480469 C 289.722656 471.515625 289.347656 471.207031 289.308594 470.785156 L 287.417969 450.503906 C 287.257812 448.8125 286.507812 447.480469 285.476562 445.640625 C 285.292969 445.3125 285.101562 444.96875 284.90625 444.609375 C 277.503906 431.117188 256.125 391.378906 252.484375 384.617188 L 236.320312 403.101562 L 269.671875 455.902344 C 269.738281 456.007812 269.777344 456.125 269.789062 456.242188 L 275.894531 521.691406 L 294.667969 519.9375 C 295.101562 519.902344 295.46875 520.210938 295.507812 520.632812 C 295.550781 521.058594 295.238281 521.433594 294.8125 521.472656 L 275.269531 523.296875 C 275.246094 523.300781 275.222656 523.300781 275.199219 523.300781 " fill-opacity="1" fill-rule="nonzero"/><path fill="#ffffff" d="M 306.304688 386.453125 C 294.914062 380.558594 286.90625 370.15625 288.191406 356.972656 C 288.253906 356.34375 288.351562 355.726562 288.480469 355.117188 C 283.3125 353.792969 278.210938 352.238281 273.210938 350.433594 C 272.925781 352.421875 272.773438 354.496094 272.777344 356.789062 C 272.78125 362.699219 273.003906 367.402344 275.15625 372.917969 C 280.921875 387.703125 292.4375 398.597656 307.464844 402.46875 C 308.175781 402.652344 310.269531 403.300781 311.058594 403.496094 C 313.230469 398.679688 314.914062 395.195312 316.378906 390.25 C 312.753906 389.320312 309.6875 388.207031 306.304688 386.453125 " fill-opacity="1" fill-rule="nonzero"/><path fill="#c8d4de" d="M 305.441406 388.964844 C 294.054688 383.066406 287.160156 373.121094 288.191406 356.972656 C 288.234375 356.328125 288.324219 355.710938 288.445312 355.105469 C 284.210938 354.019531 280.027344 352.777344 275.902344 351.375 C 275.511719 354.003906 275.210938 356.6875 274.792969 359.515625 C 273.921875 365.363281 274.5 371.027344 276.714844 376.519531 C 286.015625 399.589844 310.171875 403.472656 310.964844 403.667969 C 313.132812 398.847656 314.054688 397.703125 315.519531 392.757812 C 311.890625 391.828125 308.824219 390.714844 305.441406 388.964844 " fill-opacity="1" fill-rule="nonzero"/><path fill="#262262" d="M 308.949219 404 C 308.875 404 308.792969 403.984375 308.710938 403.960938 C 285.191406 396.355469 278.6875 384.09375 274.4375 373.199219 C 272.1875 367.429688 271.835938 362.632812 272.007812 356.765625 C 272.015625 356.347656 272.359375 356.015625 272.777344 356.015625 C 272.78125 356.015625 272.789062 356.015625 272.796875 356.015625 C 273.222656 356.027344 273.558594 356.378906 273.546875 356.804688 C 273.386719 362.484375 273.722656 367.113281 275.875 372.640625 C 283.734375 392.785156 297.191406 398.613281 309.1875 402.492188 C 309.597656 402.625 309.816406 403.0625 309.6875 403.464844 C 309.578125 403.789062 309.277344 404 308.949219 404 " fill-opacity="1" fill-rule="nonzero"/><path fill="#262262" d="M 313.199219 390.355469 C 313.125 390.355469 313.050781 390.347656 312.972656 390.324219 C 296.765625 385.324219 286.023438 371.265625 287.425781 356.898438 C 287.464844 356.472656 287.832031 356.164062 288.265625 356.203125 C 288.691406 356.242188 289 356.621094 288.960938 357.046875 C 287.628906 370.6875 297.917969 384.0625 313.425781 388.847656 C 313.832031 388.972656 314.0625 389.40625 313.9375 389.8125 C 313.832031 390.144531 313.53125 390.355469 313.199219 390.355469 " fill-opacity="1" fill-rule="nonzero"/><path fill="#ffffff" d="M 272.214844 336.371094 C 280.546875 339.933594 288.785156 345.285156 289.261719 352.269531 C 289.863281 361.117188 286.339844 368.929688 282.960938 373.453125 C 280.417969 376.855469 270.105469 389.835938 264.753906 396.140625 L 257.976562 404.867188 C 257.976562 404.867188 250.652344 411.316406 236.964844 402.636719 C 226.25 395.84375 225.425781 396.378906 226.035156 392.75 C 227.066406 386.664062 231.210938 380.640625 236.421875 370.355469 C 241.402344 360.539062 249.46875 341.574219 253.207031 337.582031 C 258.4375 332 263.738281 332.742188 272.214844 336.371094 " fill-opacity="1" fill-rule="nonzero"/><path fill="#c8d4de" d="M 256.367188 338.503906 C 260.21875 334.191406 262.90625 335.695312 267.929688 337.0625 C 269.304688 337.4375 283.894531 342.242188 286.785156 345.914062 C 288.300781 347.84375 289.246094 349.988281 289.324219 352.351562 C 289.609375 361.050781 286.976562 367.746094 283.683594 372.300781 C 283.488281 372.570312 282.757812 373.511719 282.757812 373.511719 C 279.058594 378.21875 269.640625 390.121094 264.925781 395.910156 L 257.605469 405.488281 C 257.605469 405.488281 252.476562 406.003906 239.960938 397.886719 C 230.171875 391.53125 233.320312 383.765625 233.320312 383.765625 C 233.320312 383.765625 239.800781 369.890625 240.265625 368.929688 C 245.242188 358.679688 253.058594 342.207031 256.367188 338.503906 " fill-opacity="1" fill-rule="nonzero"/><path fill="#24325b" d="M 243.105469 371.253906 C 252.148438 376.605469 262.84375 354.320312 265.359375 347.691406 C 267.871094 341.054688 267.46875 335.835938 265.078125 333.914062 C 266.453125 334.289062 267.257812 334.339844 268.855469 334.996094 C 270.359375 336.855469 274.527344 344.519531 264.601562 363.054688 L 278.347656 370.695312 C 281.183594 367.125 284.019531 362.261719 285.449219 356.058594 C 286.875 349.867188 286.105469 347.019531 285.296875 344.636719 C 286.816406 346.5625 289.539062 349.957031 289.617188 352.320312 C 289.898438 361.019531 287.214844 368.039062 283.917969 372.597656 C 283.730469 372.859375 280.058594 377.21875 280.058594 377.21875 C 276.355469 381.925781 269.445312 389.933594 264.730469 395.722656 L 258.015625 408.816406 C 258.015625 408.816406 250.875 413.441406 238.363281 405.324219 C 228.570312 398.96875 227.617188 395.09375 230.019531 389.800781 C 231.828125 385.800781 233.738281 381.933594 238.929688 371.640625 C 239.351562 370.800781 239.800781 369.890625 240.265625 368.929688 C 240.917969 369.71875 241.832031 370.5 243.105469 371.253906 " fill-opacity="1" fill-rule="nonzero"/><path fill="#262262" d="M 260.492188 404.796875 C 260.367188 404.796875 260.242188 404.765625 260.125 404.703125 C 259.75 404.5 259.613281 404.027344 259.816406 403.65625 L 264.246094 395.539062 C 264.273438 395.492188 264.304688 395.449219 264.335938 395.410156 C 269.558594 389.253906 279.664062 376.578125 282.34375 372.988281 C 285.050781 369.367188 288.636719 363.371094 288.546875 353.15625 C 288.488281 346.535156 280.15625 340.066406 271.953125 337.09375 C 259.671875 332.648438 256.347656 332.992188 253.25 339.027344 C 250.78125 343.828125 242.066406 360.878906 237.113281 370.703125 C 235.015625 374.863281 233.292969 377.976562 231.910156 380.480469 C 229.519531 384.796875 228.078125 387.402344 227.125 390.917969 C 227.015625 391.324219 226.585938 391.566406 226.179688 391.460938 C 225.769531 391.347656 225.527344 390.925781 225.636719 390.511719 C 226.636719 386.820312 228.113281 384.152344 230.558594 379.734375 C 231.9375 377.242188 233.652344 374.140625 235.734375 370.011719 C 240.691406 360.179688 249.40625 343.125 251.875 338.320312 C 255.632812 331.011719 260.316406 331.242188 272.480469 335.644531 C 284.511719 340.003906 290.042969 347.769531 290.089844 353.144531 C 290.1875 363.820312 286.417969 370.109375 283.578125 373.910156 C 280.898438 377.503906 270.816406 390.152344 265.5625 396.347656 L 261.171875 404.394531 C 261.03125 404.652344 260.765625 404.796875 260.492188 404.796875 " fill-opacity="1" fill-rule="nonzero"/><path fill="#ffffff" d="M 277.070312 323.566406 L 271.515625 335.113281 C 270.835938 336.101562 272.992188 343.488281 278.171875 345.355469 C 283.347656 347.21875 283.023438 342.066406 283.238281 341.265625 L 287.804688 331.898438 L 277.070312 323.566406 " fill-opacity="1" fill-rule="nonzero"/><path fill="#ffcac0" d="M 279.335938 324.472656 L 273.058594 337.523438 C 272.390625 338.515625 274.707031 344.183594 279.640625 345.96875 C 282.871094 347.085938 283.082031 341.855469 283.300781 341.054688 L 287.664062 331.152344 L 279.335938 324.472656 " fill-opacity="1" fill-rule="nonzero"/><path fill="#262262" d="M 271.515625 335.117188 L 271.523438 335.117188 Z M 272.152344 335.554688 Z M 272.179688 335.511719 C 271.898438 336.53125 273.847656 342.976562 278.433594 344.628906 C 279.667969 345.074219 280.609375 345.105469 281.21875 344.71875 C 282.152344 344.132812 282.3125 342.566406 282.398438 341.730469 C 282.425781 341.445312 282.449219 341.234375 282.492188 341.066406 C 282.507812 341.019531 282.523438 340.96875 282.542969 340.925781 L 286.835938 332.125 L 277.351562 324.761719 L 272.210938 335.453125 C 272.203125 335.46875 272.191406 335.488281 272.179688 335.511719 Z M 280.167969 346.527344 C 279.492188 346.527344 278.738281 346.378906 277.90625 346.078125 C 274.34375 344.796875 272.039062 341.117188 271.074219 338.101562 C 270.714844 336.980469 270.390625 335.503906 270.835938 334.742188 L 276.375 323.234375 C 276.476562 323.023438 276.667969 322.871094 276.894531 322.816406 C 277.117188 322.765625 277.359375 322.816406 277.542969 322.960938 L 288.277344 331.292969 C 288.5625 331.515625 288.65625 331.910156 288.496094 332.238281 L 283.972656 341.519531 C 283.957031 341.609375 283.949219 341.734375 283.933594 341.886719 C 283.828125 342.90625 283.613281 345.035156 282.042969 346.027344 C 281.507812 346.359375 280.882812 346.527344 280.167969 346.527344 " fill-opacity="1" fill-rule="nonzero"/><path fill="#ffffff" d="M 298.660156 320.644531 C 297.15625 326.921875 289.734375 334.136719 283.460938 332.636719 C 277.1875 331.132812 274.429688 321.480469 275.929688 315.207031 C 277.433594 308.933594 282.039062 302.769531 290.714844 305.265625 C 300.433594 308.058594 300.160156 314.375 298.660156 320.644531 " fill-opacity="1" fill-rule="nonzero"/><path fill="#24325b" d="M 298.777344 321.03125 C 297.292969 327.230469 290.402344 334.472656 284.71875 333.113281 C 279.03125 331.75 276.703125 322.304688 278.1875 316.105469 C 279.675781 309.902344 283.980469 303.75 291.835938 306.042969 C 300.628906 308.609375 300.265625 314.828125 298.777344 321.03125 " fill-opacity="1" fill-rule="nonzero"/><path fill="#262262" d="M 286.949219 305.464844 C 285.273438 305.464844 283.742188 305.867188 282.375 306.664062 C 278.730469 308.789062 277.242188 313.042969 276.679688 315.386719 C 275.964844 318.371094 276.28125 322.222656 277.5 325.4375 C 278.277344 327.484375 280.105469 331.039062 283.640625 331.886719 C 286.253906 332.511719 289.429688 331.449219 292.351562 328.96875 C 295.078125 326.652344 297.207031 323.394531 297.910156 320.46875 C 299.613281 313.34375 298.96875 308.441406 290.503906 306.003906 C 289.257812 305.644531 288.070312 305.464844 286.949219 305.464844 Z M 285.160156 333.601562 C 284.515625 333.601562 283.886719 333.53125 283.28125 333.382812 C 280.148438 332.636719 277.585938 330.007812 276.058594 325.984375 C 274.714844 322.445312 274.382812 318.347656 275.183594 315.027344 C 275.800781 312.445312 277.457031 307.746094 281.597656 305.332031 C 284.257812 303.78125 287.398438 303.503906 290.929688 304.523438 C 301.113281 307.449219 301.019531 314.089844 299.40625 320.824219 C 298.625 324.105469 296.359375 327.589844 293.351562 330.144531 C 290.695312 332.398438 287.804688 333.601562 285.160156 333.601562 " fill-opacity="1" fill-rule="nonzero"/><path fill="#ffffff" d="M 295.933594 328.152344 C 299.355469 321.679688 300.757812 314.96875 294.695312 312.019531 C 291.222656 310.328125 285.410156 308.421875 283.625 313.34375 C 282.292969 314.566406 281.019531 315.273438 280.429688 318.808594 C 280.019531 318.144531 279.433594 317.683594 278.722656 317.550781 C 277.039062 317.230469 275.3125 318.871094 274.867188 321.214844 C 274.476562 323.277344 275.214844 325.199219 276.554688 325.839844 C 276.949219 330.300781 279.382812 334.417969 282.433594 336.03125 C 287.128906 338.507812 292.519531 334.625 295.933594 328.152344 " fill-opacity="1" fill-rule="nonzero"/><path fill="#ffcac0" d="M 295.613281 328.742188 C 299.035156 322.265625 299.90625 314.714844 295.714844 312.597656 C 292.242188 310.902344 285.515625 308.492188 283.734375 313.417969 C 282.398438 314.640625 281.125 315.34375 280.535156 318.878906 C 280.125 318.21875 277.269531 318.191406 276.695312 323.050781 C 276.613281 323.75 276.660156 325.914062 276.660156 325.914062 C 277.058594 330.378906 279.910156 334.675781 282.9375 336.328125 C 287.246094 337.683594 292.199219 335.214844 295.613281 328.742188 " fill-opacity="1" fill-rule="nonzero"/><path fill="#262262" d="M 278.304688 318.28125 C 277.144531 318.28125 275.957031 319.609375 275.628906 321.359375 C 275.3125 323.019531 275.855469 324.652344 276.890625 325.148438 C 277.132812 325.265625 277.296875 325.503906 277.320312 325.773438 C 277.6875 329.90625 279.9375 333.839844 282.789062 335.347656 C 285.285156 336.660156 287.683594 335.773438 289.257812 334.792969 C 291.46875 333.417969 293.597656 330.929688 295.253906 327.789062 C 297.808594 322.953125 298.652344 319.109375 297.757812 316.378906 C 297.234375 314.769531 296.121094 313.570312 294.359375 312.714844 C 291 311.082031 288.183594 310.574219 286.425781 311.285156 C 285.453125 311.679688 284.773438 312.441406 284.351562 313.605469 C 284.308594 313.722656 284.238281 313.828125 284.148438 313.910156 C 283.984375 314.0625 283.820312 314.203125 283.65625 314.347656 C 282.542969 315.324219 281.664062 316.09375 281.191406 318.933594 C 281.136719 319.25 280.894531 319.5 280.582031 319.566406 C 280.265625 319.625 279.945312 319.484375 279.777344 319.214844 C 279.554688 318.863281 279.171875 318.421875 278.578125 318.308594 C 278.488281 318.289062 278.394531 318.28125 278.304688 318.28125 Z M 285.429688 337.5625 C 284.277344 337.5625 283.148438 337.277344 282.070312 336.710938 C 278.824219 335 276.347656 330.855469 275.828125 326.3125 C 274.394531 325.359375 273.695312 323.277344 274.113281 321.070312 C 274.632812 318.3125 276.769531 316.402344 278.867188 316.792969 C 279.261719 316.871094 279.640625 317.023438 279.980469 317.246094 C 280.617188 314.960938 281.644531 314.058594 282.644531 313.1875 C 282.75 313.09375 282.859375 312.996094 282.96875 312.898438 C 283.550781 311.417969 284.519531 310.394531 285.847656 309.859375 C 288.628906 308.730469 292.378906 310.035156 295.035156 311.328125 C 297.160156 312.363281 298.574219 313.898438 299.226562 315.898438 C 300.253906 319.042969 299.375 323.289062 296.617188 328.511719 C 294.835938 331.890625 292.511719 334.585938 290.074219 336.105469 C 288.511719 337.074219 286.945312 337.5625 285.429688 337.5625 " fill-opacity="1" fill-rule="nonzero"/><path fill="#262262" d="M 277.542969 326.839844 C 277.355469 326.839844 277.164062 326.824219 276.972656 326.789062 C 274.875 326.390625 273.589844 323.824219 274.113281 321.070312 C 274.632812 318.3125 276.769531 316.402344 278.867188 316.792969 C 280.375 317.078125 281.523438 318.496094 281.789062 320.402344 C 281.847656 320.824219 281.554688 321.214844 281.132812 321.273438 C 280.714844 321.332031 280.320312 321.039062 280.261719 320.617188 C 280.085938 319.375 279.429688 318.46875 278.582031 318.308594 C 277.339844 318.074219 275.988281 319.46875 275.628906 321.359375 C 275.269531 323.242188 276.019531 325.039062 277.261719 325.269531 C 277.515625 325.320312 277.773438 325.304688 278.035156 325.21875 C 278.441406 325.09375 278.875 325.320312 279 325.730469 C 279.128906 326.136719 278.902344 326.570312 278.492188 326.695312 C 278.179688 326.792969 277.859375 326.839844 277.542969 326.839844 " fill-opacity="1" fill-rule="nonzero"/><path fill="#ffffff" d="M 283.09375 328.433594 C 283.09375 328.433594 286.703125 331.003906 290.648438 331.511719 C 290.648438 331.511719 288.964844 334.0625 285.933594 332.804688 C 283.425781 331.761719 283.066406 329.902344 283.09375 328.433594 " fill-opacity="1" fill-rule="nonzero"/><path fill="#262262" d="M 290.070312 318.929688 C 289.964844 318.929688 289.855469 318.90625 289.753906 318.863281 C 289.722656 318.847656 287.332031 317.796875 284.828125 318.304688 C 284.402344 318.386719 284.003906 318.117188 283.917969 317.699219 C 283.835938 317.285156 284.105469 316.878906 284.523438 316.792969 C 287.523438 316.183594 290.269531 317.402344 290.390625 317.453125 C 290.777344 317.628906 290.949219 318.085938 290.773438 318.476562 C 290.644531 318.761719 290.363281 318.929688 290.070312 318.929688 " fill-opacity="1" fill-rule="nonzero"/><path fill="#262262" d="M 297.257812 322.671875 C 297.023438 322.671875 296.792969 322.566406 296.644531 322.367188 C 295.675781 321.105469 294 320.5 293.980469 320.496094 C 293.578125 320.355469 293.363281 319.917969 293.503906 319.515625 C 293.640625 319.113281 294.082031 318.898438 294.480469 319.039062 C 294.570312 319.066406 296.605469 319.78125 297.867188 321.433594 C 298.125 321.769531 298.0625 322.253906 297.726562 322.511719 C 297.582031 322.617188 297.421875 322.671875 297.257812 322.671875 " fill-opacity="1" fill-rule="nonzero"/><path fill="#262262" d="M 292.28125 324.238281 C 291.984375 325.144531 292.308594 326.0625 293 326.289062 C 293.691406 326.519531 294.5 325.964844 294.792969 325.058594 C 295.089844 324.152344 294.769531 323.234375 294.074219 323.007812 C 293.382812 322.78125 292.578125 323.332031 292.28125 324.238281 " fill-opacity="1" fill-rule="nonzero"/><path fill="#262262" d="M 286.183594 322.242188 C 285.871094 323.191406 286.210938 324.160156 286.9375 324.394531 C 287.664062 324.632812 288.507812 324.058594 288.820312 323.105469 C 289.132812 322.15625 288.792969 321.1875 288.066406 320.949219 C 287.339844 320.714844 286.496094 321.289062 286.183594 322.242188 " fill-opacity="1" fill-rule="nonzero"/><path fill="#ffffff" d="M 275.046875 311.503906 L 276.066406 307.839844 C 277.921875 301.460938 284.597656 297.796875 290.976562 299.652344 L 294.25 300.609375 C 300.628906 302.464844 304.292969 309.140625 302.433594 315.515625 L 302.148438 316.507812 L 306.28125 320.597656 L 301.371094 319.167969 L 275.046875 311.503906 " fill-opacity="1" fill-rule="nonzero"/><path fill="#d9ab39" d="M 277.839844 312.214844 L 278.859375 308.546875 C 280.71875 302.171875 287.390625 298.507812 293.769531 300.363281 L 294.835938 300.675781 C 301.214844 302.53125 304.382812 309.234375 302.523438 315.613281 L 302.148438 316.507812 L 305.203125 320.355469 L 283.261719 313.792969 L 277.839844 312.214844 " fill-opacity="1" fill-rule="nonzero"/><path fill="#262262" d="M 306.28125 321.371094 C 306.207031 321.371094 306.136719 321.359375 306.0625 321.339844 L 274.828125 312.246094 C 274.425781 312.125 274.1875 311.703125 274.300781 311.296875 L 275.320312 307.628906 C 277.296875 300.847656 284.414062 296.941406 291.191406 298.914062 L 294.464844 299.871094 C 299.867188 301.441406 303.574219 306.273438 303.6875 311.890625 C 303.695312 312.316406 303.355469 312.667969 302.929688 312.675781 C 302.925781 312.675781 302.921875 312.675781 302.914062 312.675781 C 302.496094 312.675781 302.152344 312.34375 302.144531 311.921875 C 302.042969 306.984375 298.785156 302.730469 294.035156 301.347656 L 290.757812 300.394531 C 284.804688 298.660156 278.539062 302.09375 276.804688 308.050781 L 275.992188 310.976562 L 303.574219 319.007812 L 301.605469 317.054688 C 301.300781 316.757812 301.300781 316.265625 301.597656 315.964844 C 301.898438 315.664062 302.386719 315.65625 302.6875 315.960938 L 306.824219 320.050781 C 307.074219 320.300781 307.125 320.6875 306.945312 320.992188 C 306.800781 321.230469 306.546875 321.371094 306.28125 321.371094 " fill-opacity="1" fill-rule="nonzero"/><path fill="#262262" d="M 241.40625 523.101562 L 235.605469 523.101562 C 232.828125 523.105469 230.097656 522.367188 227.699219 520.96875 L 216.34375 520.972656 C 213.785156 520.972656 211.710938 523.050781 211.714844 525.605469 L 211.71875 531.8125 L 227.707031 531.804688 L 227.703125 529.769531 L 231.371094 531.800781 L 250.109375 531.792969 C 250.109375 526.988281 246.210938 523.097656 241.40625 523.101562 " fill-opacity="1" fill-rule="nonzero"/><path fill="#ffffff" d="M 220.976562 461.566406 L 224.984375 405.808594 C 225.390625 402.613281 225.28125 395.40625 226.148438 392.121094 L 247.613281 403.03125 L 239.890625 465.609375 L 230.554688 521.726562 L 211.570312 521.726562 L 220.976562 461.566406 " fill-opacity="1" fill-rule="nonzero"/><path fill="#24325b" d="M 224.015625 461.566406 C 224.015625 461.566406 226.394531 421.945312 227.546875 407.964844 C 227.8125 404.753906 227.738281 401.878906 228.984375 393.082031 L 250.265625 401.210938 L 239.890625 465.609375 L 230.757812 521.726562 L 214.613281 521.726562 L 224.015625 461.566406 " fill-opacity="1" fill-rule="nonzero"/><path fill="#262262" d="M 230.554688 522.5 L 211.570312 522.5 C 211.34375 522.5 211.128906 522.402344 210.984375 522.230469 C 210.839844 522.058594 210.773438 521.832031 210.808594 521.609375 L 220.03125 462.605469 L 224.527344 401.074219 C 224.546875 400.734375 225.019531 392.488281 225.644531 390.484375 C 225.773438 390.078125 226.207031 389.855469 226.609375 389.976562 C 227.015625 390.101562 227.242188 390.535156 227.117188 390.941406 C 226.648438 392.457031 226.199219 398.84375 226.066406 401.175781 L 221.5625 462.785156 L 212.46875 520.957031 L 229.898438 520.957031 L 239.128906 465.484375 L 248.816406 405.363281 C 248.882812 404.945312 249.277344 404.65625 249.699219 404.726562 C 250.121094 404.792969 250.40625 405.191406 250.339844 405.609375 L 240.652344 465.734375 L 231.3125 521.855469 C 231.25 522.226562 230.929688 522.5 230.554688 522.5 " fill-opacity="1" fill-rule="nonzero"/><path fill="#ffffff" d="M 318.671875 390.914062 L 330.230469 394.117188 L 329.234375 397.960938 L 319.574219 404.578125 C 319.574219 404.578125 310.417969 404.121094 301.757812 401.769531 C 301.757812 401.769531 302.878906 395.5625 303.460938 393.589844 C 304.085938 391.480469 306.597656 385.445312 306.597656 385.445312 L 318.671875 390.914062 " fill-opacity="1" fill-rule="nonzero"/><path fill="#d9ab39" d="M 318.144531 393.125 L 330.371094 395.453125 L 329.234375 397.960938 L 319.574219 404.578125 C 319.574219 404.578125 310.417969 404.121094 301.757812 401.769531 C 301.757812 401.769531 302.53125 395.847656 303.027344 393.980469 C 303.492188 392.226562 305.589844 387.296875 305.589844 387.296875 L 318.144531 393.125 " fill-opacity="1" fill-rule="nonzero"/><path fill="#262262" d="M 302.585938 401.222656 C 310.960938 403.789062 317.628906 403.296875 318.703125 403.195312 L 328.570312 397.457031 L 329.292969 394.65625 L 318.464844 391.65625 C 318.425781 391.648438 318.390625 391.632812 318.351562 391.613281 L 306.417969 386.210938 C 306.046875 386.90625 305.289062 388.625 304.269531 392.484375 C 303.144531 396.730469 302.71875 399.945312 302.585938 401.222656 Z M 316.03125 404.851562 C 312.917969 404.851562 307.671875 404.476562 301.523438 402.507812 C 301.183594 402.398438 300.964844 402.074219 300.988281 401.71875 C 301 401.558594 301.273438 397.765625 302.777344 392.089844 C 304.355469 386.121094 305.402344 384.875 305.597656 384.683594 C 305.824219 384.460938 306.164062 384.402344 306.453125 384.535156 L 318.9375 390.1875 L 330.433594 393.371094 C 330.839844 393.484375 331.082031 393.898438 330.976562 394.308594 L 329.984375 398.152344 C 329.929688 398.351562 329.804688 398.523438 329.625 398.628906 L 319.335938 404.613281 C 319.242188 404.664062 319.144531 404.699219 319.042969 404.710938 C 318.925781 404.726562 317.839844 404.851562 316.03125 404.851562 " fill-opacity="1" fill-rule="nonzero"/><path fill="#ffffff" d="M 224.117188 415.296875 L 225.5625 421.398438 L 350.199219 391.859375 L 348.753906 385.757812 L 224.117188 415.296875 " fill-opacity="1" fill-rule="nonzero"/><path fill="#d9ab39" d="M 224.550781 418.453125 L 225.292969 421.585938 L 349.925781 392.046875 L 349.183594 388.914062 L 224.550781 418.453125 " fill-opacity="1" fill-rule="nonzero"/><path fill="#262262" d="M 225.5625 422.167969 C 225.214844 422.167969 224.898438 421.929688 224.8125 421.574219 L 223.367188 415.476562 C 223.320312 415.277344 223.355469 415.066406 223.460938 414.890625 C 223.566406 414.71875 223.742188 414.59375 223.941406 414.546875 L 348.578125 385.007812 C 348.992188 384.910156 349.40625 385.164062 349.503906 385.578125 C 349.601562 385.996094 349.347656 386.410156 348.933594 386.507812 L 225.046875 415.867188 L 226.136719 420.46875 L 340.230469 393.429688 C 340.648438 393.328125 341.058594 393.582031 341.15625 394 C 341.253906 394.414062 341 394.828125 340.585938 394.929688 L 225.742188 422.144531 C 225.679688 422.160156 225.621094 422.167969 225.5625 422.167969 " fill-opacity="1" fill-rule="nonzero"/><path fill="#ffffff" d="M 348.449219 386.824219 L 350.199219 396.203125 C 350.199219 396.203125 368.257812 392.054688 373.96875 390.738281 C 390.71875 386.890625 395.992188 375.894531 395.992188 375.894531 C 395.992188 375.894531 387.21875 368.125 370.46875 371.976562 C 364.761719 373.292969 346.699219 377.441406 346.699219 377.441406 L 348.449219 386.824219 " fill-opacity="1" fill-rule="nonzero"/><path fill="#c8d4de" d="M 347.191406 380.078125 L 348.640625 387.863281 L 350.199219 396.203125 C 350.199219 396.203125 368.257812 392.054688 373.96875 390.738281 C 390.71875 386.890625 395.773438 376.300781 395.773438 376.300781 C 395.773438 376.300781 387.441406 370.375 370.691406 374.222656 C 364.980469 375.535156 347.191406 380.078125 347.191406 380.078125 " fill-opacity="1" fill-rule="nonzero"/><path fill="#262262" d="M 347.59375 378.027344 L 350.808594 395.273438 L 373.796875 389.988281 C 387.882812 386.75 393.6875 378.316406 394.996094 376.097656 C 392.972656 374.636719 384.625 369.515625 370.644531 372.730469 Z M 350.199219 396.976562 C 350.046875 396.976562 349.902344 396.933594 349.773438 396.851562 C 349.597656 396.734375 349.476562 396.550781 349.4375 396.347656 L 345.941406 377.585938 C 345.863281 377.179688 346.125 376.78125 346.523438 376.691406 L 370.296875 371.226562 C 387.238281 367.328125 396.128906 374.988281 396.5 375.316406 C 396.757812 375.546875 396.832031 375.914062 396.6875 376.230469 C 396.464844 376.6875 391.058594 387.601562 374.140625 391.492188 L 350.371094 396.957031 C 350.3125 396.96875 350.253906 396.976562 350.199219 396.976562 " fill-opacity="1" fill-rule="nonzero"/><path fill="#ffffff" d="M 382.0625 372.054688 L 375.507812 367.53125 L 370.714844 368.070312 L 368.609375 372.988281 L 362.734375 370.6875 L 354.84375 378.191406 L 350.042969 385.011719 L 354.75 391.582031 L 359.453125 390 L 365.886719 392.480469 L 373.074219 389.09375 C 373.074219 389.09375 377.234375 388.144531 379.296875 386.511719 C 381.359375 384.882812 386.457031 383.328125 386.457031 383.328125 L 392.644531 378.910156 L 387.007812 374.136719 L 382.0625 372.054688 " fill-opacity="1" fill-rule="nonzero"/><path fill="#24325b" d="M 380.773438 374.15625 L 375.121094 369.484375 L 372.121094 370.136719 L 368.609375 372.988281 L 362.78125 373.300781 L 356.277344 379.816406 L 352.796875 384.988281 L 354.75 391.582031 L 359.453125 390 L 365.886719 392.480469 L 373.074219 389.09375 C 373.074219 389.09375 377.234375 388.144531 379.296875 386.511719 C 381.359375 384.882812 386.457031 383.328125 386.457031 383.328125 L 390.625 379.738281 L 386.792969 376.089844 L 380.773438 374.15625 " fill-opacity="1" fill-rule="nonzero"/><path fill="#262262" d="M 359.453125 389.230469 C 359.546875 389.230469 359.644531 389.246094 359.734375 389.28125 L 365.855469 391.640625 L 372.746094 388.394531 C 372.796875 388.371094 372.847656 388.355469 372.902344 388.339844 C 372.945312 388.332031 376.921875 387.410156 378.820312 385.910156 C 380.808594 384.332031 385.292969 382.882812 386.109375 382.625 L 391.390625 378.859375 L 386.597656 374.804688 L 381.761719 372.765625 C 381.714844 372.746094 381.667969 372.71875 381.625 372.691406 L 375.304688 368.332031 L 371.25 368.785156 L 369.320312 373.292969 C 369.152344 373.675781 368.71875 373.855469 368.328125 373.707031 L 362.910156 371.585938 L 355.429688 378.699219 L 350.988281 385.011719 L 355.046875 390.667969 L 359.207031 389.269531 C 359.289062 389.242188 359.371094 389.230469 359.453125 389.230469 Z M 365.886719 393.25 C 365.792969 393.25 365.699219 393.234375 365.609375 393.199219 L 359.4375 390.816406 L 354.996094 392.3125 C 354.675781 392.417969 354.320312 392.308594 354.121094 392.03125 L 349.417969 385.460938 C 349.226562 385.199219 349.222656 384.839844 349.414062 384.570312 L 354.210938 377.746094 C 354.242188 377.707031 354.273438 377.667969 354.308594 377.632812 L 362.207031 370.128906 C 362.421875 369.921875 362.742188 369.863281 363.015625 369.96875 L 368.195312 371.996094 L 370.007812 367.765625 C 370.117188 367.507812 370.355469 367.332031 370.632812 367.300781 L 375.417969 366.765625 C 375.605469 366.746094 375.789062 366.792969 375.945312 366.898438 L 382.433594 371.375 L 387.304688 373.429688 C 387.375 373.457031 387.445312 373.496094 387.503906 373.546875 L 393.144531 378.324219 C 393.324219 378.476562 393.425781 378.707031 393.414062 378.945312 C 393.40625 379.179688 393.285156 379.402344 393.09375 379.539062 L 386.90625 383.957031 C 386.835938 384.003906 386.761719 384.042969 386.683594 384.066406 C 386.632812 384.078125 381.699219 385.597656 379.773438 387.117188 C 377.742188 388.726562 373.957031 389.675781 373.328125 389.824219 L 366.214844 393.179688 C 366.109375 393.226562 366 393.25 365.886719 393.25 " fill-opacity="1" fill-rule="nonzero"/><path fill="#ffffff" d="M 359.199219 379.472656 L 357.324219 386.003906 L 354.214844 381.523438 L 355.878906 379.453125 L 359.199219 379.472656 " fill-opacity="1" fill-rule="nonzero"/><path fill="#ffffff" d="M 371.96875 375.113281 L 371.515625 377.363281 L 369.253906 378.207031 L 369.3125 376.457031 L 370.183594 374.539062 L 371.96875 375.113281 " fill-opacity="1" fill-rule="nonzero"/><path fill="#ffffff" d="M 362.996094 372.214844 L 364.550781 377.519531 L 360.652344 374.710938 Z M 362.996094 372.214844 " fill-opacity="1" fill-rule="nonzero"/><path fill="#c8d4de" d="M 347.949219 392.554688 C 347.949219 392.554688 383.472656 385.816406 395.992188 375.894531 C 395.992188 375.894531 390.703125 385.769531 376.160156 390.179688 C 361.617188 394.582031 350.199219 396.203125 350.199219 396.203125 L 347.949219 392.554688 " fill-opacity="1" fill-rule="nonzero"/><path fill="#262262" d="M 349.1875 393.097656 L 350.585938 395.367188 C 352.933594 395 363.308594 393.265625 375.9375 389.441406 C 383.269531 387.21875 388.144531 383.558594 390.941406 380.878906 C 391.625 380.226562 392.214844 379.597656 392.730469 379.019531 C 379.585938 386.71875 354.792969 391.976562 349.1875 393.097656 Z M 350.199219 396.976562 C 349.929688 396.976562 349.679688 396.839844 349.539062 396.609375 L 347.292969 392.960938 C 347.160156 392.742188 347.144531 392.476562 347.246094 392.242188 C 347.347656 392.011719 347.554688 391.84375 347.804688 391.800781 C 348.160156 391.730469 383.285156 384.984375 395.511719 375.289062 C 395.796875 375.0625 396.203125 375.066406 396.484375 375.304688 C 396.765625 375.535156 396.839844 375.933594 396.671875 376.257812 C 396.449219 376.671875 391.066406 386.46875 376.386719 390.917969 C 361.949219 395.289062 350.421875 396.953125 350.304688 396.96875 C 350.265625 396.976562 350.234375 396.976562 350.199219 396.976562 " fill-opacity="1" fill-rule="nonzero"/><path fill="#ffffff" d="M 321.238281 403.882812 C 324.4375 403.28125 328.722656 402.695312 330.355469 401.90625 C 331.992188 401.117188 334.984375 395.464844 335.410156 393.15625 C 335.765625 391.242188 333.773438 391.410156 330.59375 392.035156 C 327.871094 392.566406 326.691406 392.820312 325.292969 393.769531 C 323.789062 394.789062 321.71875 398.867188 321.167969 400.3125 C 321.167969 400.3125 318.035156 404.484375 321.238281 403.882812 " fill-opacity="1" fill-rule="nonzero"/><path fill="#d9ab39" d="M 315.363281 403.234375 C 315.363281 403.234375 317.765625 404.851562 320.964844 404.25 C 324.167969 403.648438 329.210938 402.882812 330.757812 402.121094 C 331.292969 401.855469 333.921875 397.054688 335.058594 394.394531 C 335.824219 392.601562 328.074219 394.132812 326.675781 395.082031 C 325.464844 395.898438 324.75 397.359375 323.957031 398.878906 C 323.617188 399.53125 323.070312 400.046875 322.390625 400.328125 L 315.363281 403.234375 " fill-opacity="1" fill-rule="nonzero"/><path fill="#262262" d="M 319.753906 404.792969 C 317.140625 404.792969 315.351562 403.621094 315.265625 403.5625 C 314.910156 403.328125 314.8125 402.847656 315.050781 402.492188 C 315.285156 402.140625 315.761719 402.046875 316.117188 402.28125 C 316.140625 402.296875 318.265625 403.660156 321.09375 403.125 C 321.851562 402.984375 322.671875 402.839844 323.5 402.695312 C 326.015625 402.261719 328.871094 401.765625 330.023438 401.210938 C 331.273438 400.609375 334.210938 395.402344 334.652344 393.019531 C 334.703125 392.734375 334.675781 392.585938 334.632812 392.546875 C 334.199219 392.113281 331.597656 392.625 330.742188 392.792969 C 327.988281 393.332031 326.972656 393.558594 325.726562 394.40625 C 324.5 395.234375 322.519531 398.933594 321.890625 400.589844 C 321.824219 400.761719 321.699219 400.902344 321.539062 400.992188 L 319.582031 402.066406 C 319.207031 402.273438 318.738281 402.136719 318.53125 401.761719 C 318.328125 401.386719 318.464844 400.917969 318.839844 400.710938 L 320.554688 399.769531 C 321.167969 398.300781 323.148438 394.289062 324.859375 393.128906 C 326.371094 392.105469 327.589844 391.835938 330.445312 391.277344 C 333.269531 390.726562 334.855469 390.601562 335.71875 391.449219 C 336.164062 391.890625 336.316406 392.511719 336.167969 393.296875 C 335.757812 395.535156 332.707031 401.625 330.691406 402.601562 C 329.347656 403.246094 326.507812 403.738281 323.761719 404.214844 C 322.941406 404.359375 322.128906 404.5 321.378906 404.640625 C 320.8125 404.75 320.265625 404.792969 319.753906 404.792969 " fill-opacity="1" fill-rule="nonzero"/><path fill="#ffffff" d="M 248.523438 339.570312 C 246.835938 345.695312 245.914062 350.558594 246.339844 357.109375 C 246.722656 363.007812 247.246094 367.6875 249.75 373.054688 C 256.457031 387.4375 268.644531 397.570312 283.886719 400.46875 C 284.613281 400.605469 286.742188 401.117188 287.546875 401.261719 C 289.402344 396.316406 290.859375 392.730469 292.003906 387.703125 C 288.328125 387.003906 285.195312 386.09375 281.703125 384.5625 C 269.960938 379.410156 261.300781 369.542969 261.734375 356.304688 C 261.953125 349.8125 266.230469 344.089844 263.511719 337.875 C 260.367188 330.6875 250.574219 332.140625 248.523438 339.570312 " fill-opacity="1" fill-rule="nonzero"/><path fill="#c8d4de" d="M 250.738281 341.515625 C 249.046875 347.636719 249.0625 353.28125 248.523438 359.703125 C 248.035156 365.59375 248.972656 371.210938 251.535156 376.546875 C 262.300781 398.972656 286.65625 401.296875 287.457031 401.441406 C 289.316406 396.492188 290.160156 395.289062 291.304688 390.265625 C 287.625 389.566406 284.496094 388.652344 281.007812 387.125 C 269.261719 381.96875 261.742188 372.484375 261.734375 356.304688 C 261.734375 349.808594 266.628906 345.152344 263.90625 338.941406 C 260.765625 331.753906 252.789062 334.082031 250.738281 341.515625 " fill-opacity="1" fill-rule="nonzero"/><path fill="#262262" d="M 285.421875 401.902344 C 285.363281 401.902344 285.296875 401.894531 285.234375 401.878906 C 279.308594 400.371094 274.058594 398.421875 269.632812 396.078125 C 257.964844 389.902344 252.84375 381.519531 249.050781 373.378906 C 246.433594 367.769531 245.777344 363.003906 245.566406 357.136719 C 245.3125 349.957031 246.222656 345.015625 247.78125 339.367188 C 248.867188 335.433594 252.085938 332.710938 255.984375 332.429688 C 259.5625 332.175781 262.71875 334.140625 264.21875 337.566406 C 266.027344 341.703125 264.921875 345.648438 263.851562 349.464844 C 263.226562 351.6875 262.582031 353.988281 262.503906 356.328125 C 262.054688 370.027344 273.179688 382.714844 288.96875 386.496094 C 289.382812 386.589844 289.636719 387.007812 289.539062 387.421875 C 289.4375 387.835938 289.023438 388.09375 288.605469 387.992188 C 272.113281 384.042969 260.488281 370.703125 260.964844 356.277344 C 261.050781 353.75 261.71875 351.359375 262.367188 349.050781 C 263.410156 345.332031 264.394531 341.816406 262.800781 338.1875 C 261.554688 335.332031 259.0625 333.761719 256.09375 333.96875 C 252.859375 334.199219 250.179688 336.480469 249.269531 339.777344 C 247.710938 345.425781 246.855469 350.066406 247.109375 357.078125 C 247.316406 362.753906 247.945312 367.351562 250.449219 372.726562 C 254.703125 381.855469 259.714844 389.085938 270.355469 394.71875 C 274.671875 397.003906 279.804688 398.910156 285.613281 400.382812 C 286.023438 400.488281 286.277344 400.90625 286.167969 401.320312 C 286.082031 401.667969 285.769531 401.902344 285.421875 401.902344 " fill-opacity="1" fill-rule="nonzero"/><path fill="#ffffff" d="M 297.78125 391.578125 C 299.371094 392.285156 306.261719 401.335938 306.261719 401.335938 C 306.960938 401.820312 306.242188 404.726562 304.039062 406.335938 C 301.679688 408.058594 298.496094 410.214844 296.367188 408.730469 C 293.519531 406.738281 288.078125 400.945312 284.964844 398.886719 C 282.148438 397.027344 281.1875 388.011719 284.65625 384.988281 C 286.117188 385.65625 291.222656 388.554688 292.777344 389.210938 C 294.738281 390.042969 296.675781 391.09375 297.78125 391.578125 " fill-opacity="1" fill-rule="nonzero"/><path fill="#d9ab39" d="M 297.109375 393.777344 C 297.742188 394.050781 300.351562 397.324219 301.878906 399.464844 C 302.335938 400.097656 305.585938 404.039062 305.585938 404.039062 C 305.152344 405.941406 298.140625 410.035156 296.367188 408.730469 C 293.765625 406.8125 289.933594 402.925781 289.933594 402.925781 C 289.933594 402.925781 279.691406 400.921875 277.402344 400.519531 C 277.757812 399.097656 279.230469 395.335938 280.203125 393.371094 C 280.234375 393.300781 283.238281 386.980469 283.304688 387.019531 C 284.132812 387.574219 293.496094 392.207031 297.109375 393.777344 " fill-opacity="1" fill-rule="nonzero"/><path fill="#262262" d="M 305.761719 401.910156 Z M 305.820312 401.964844 Z M 278.050781 399.566406 L 290.097656 402.171875 C 290.242188 402.203125 290.371094 402.273438 290.472656 402.375 C 290.519531 402.417969 295.007812 406.808594 296.816406 408.101562 C 297.085938 408.28125 298.816406 408.539062 302.371094 406.515625 C 304.945312 405.046875 305.589844 403.453125 305.742188 402.835938 C 305.875 402.320312 305.808594 402.015625 305.769531 401.929688 C 305.722656 401.886719 305.679688 401.839844 305.640625 401.789062 C 302.511719 397.511719 298.777344 392.863281 297.949219 392.484375 C 296.28125 391.832031 293.105469 390.160156 290.03125 388.546875 C 287.96875 387.464844 286 386.429688 284.914062 385.933594 C 283.230469 388.203125 281.933594 390.417969 280.742188 393.03125 C 278.917969 397.03125 278.421875 398.242188 278.050781 399.566406 Z M 297.519531 409.765625 C 296.804688 409.765625 296.269531 409.605469 295.917969 409.355469 C 294.195312 408.121094 290.394531 404.449219 289.554688 403.628906 L 276.933594 400.90625 C 276.730469 400.863281 276.550781 400.734375 276.441406 400.558594 C 276.332031 400.382812 276.296875 400.167969 276.347656 399.964844 C 276.839844 398.003906 277.230469 397.015625 279.335938 392.394531 C 280.644531 389.527344 282.140625 387.023438 284.046875 384.519531 C 284.25 384.246094 284.613281 384.144531 284.929688 384.265625 C 285.878906 384.621094 288.136719 385.808594 290.75 387.183594 C 293.640625 388.703125 296.921875 390.425781 298.515625 391.046875 C 300.03125 391.640625 305.1875 398.5625 306.828125 400.800781 C 307.203125 401.140625 307.394531 401.722656 307.363281 402.425781 C 307.328125 403.15625 306.921875 405.699219 303.132812 407.855469 C 300.679688 409.253906 298.804688 409.765625 297.519531 409.765625 " fill-opacity="1" fill-rule="nonzero"/><g fill="#e30523" fill-opacity="1"><g transform="translate(213.614626, 749.318721)"><g><path d="M 99.375 0 L 80.78125 0 L 80.671875 -53.890625 L 60.765625 -8.296875 L 47.03125 -8.296875 L 27.125 -53.890625 L 27.125 0 L 8.296875 0 L 8.296875 -83.03125 L 31.390625 -83.03125 L 53.890625 -33.640625 L 76.40625 -83.03125 L 99.375 -83.03125 Z M 99.375 0 "/></g></g></g><g fill="#e30523" fill-opacity="1"><g transform="translate(321.402245, 749.318721)"><g><path d="M 10.71875 -89.953125 C 12.726562 -91.972656 15.3125 -92.984375 18.46875 -92.984375 C 21.632812 -92.984375 24.222656 -91.972656 26.234375 -89.953125 C 28.253906 -87.941406 29.265625 -85.359375 29.265625 -82.203125 C 29.265625 -79.046875 28.253906 -76.441406 26.234375 -74.390625 C 24.222656 -72.335938 21.632812 -71.3125 18.46875 -71.3125 C 15.3125 -71.3125 12.726562 -72.335938 10.71875 -74.390625 C 8.707031 -76.441406 7.703125 -79.046875 7.703125 -82.203125 C 7.703125 -85.359375 8.707031 -87.941406 10.71875 -89.953125 Z M 28.546875 0 L 8.171875 0 L 8.171875 -63.84375 L 28.546875 -63.84375 Z M 28.546875 0 "/></g></g></g><g fill="#e30523" fill-opacity="1"><g transform="translate(358.239579, 749.318721)"><g><path d="M 49.984375 -64.796875 C 57.015625 -64.796875 62.660156 -62.5625 66.921875 -58.09375 C 71.191406 -53.632812 73.328125 -47.695312 73.328125 -40.28125 L 73.328125 0 L 52.953125 0 L 52.953125 -34.59375 C 52.953125 -38.300781 51.941406 -41.238281 49.921875 -43.40625 C 47.910156 -45.582031 45.171875 -46.671875 41.703125 -46.671875 C 38.066406 -46.671875 35.082031 -45.484375 32.75 -43.109375 C 30.425781 -40.742188 29.066406 -37.628906 28.671875 -33.765625 L 28.671875 0 L 8.171875 0 L 8.171875 -63.84375 L 28.671875 -63.84375 L 28.671875 -53.421875 C 33.171875 -60.847656 40.273438 -64.640625 49.984375 -64.796875 Z M 49.984375 -64.796875 "/></g></g></g><g fill="#e30523" fill-opacity="1"><g transform="translate(437.955037, 749.318721)"><g><path d="M 36.125 -64.5625 C 47.1875 -64.5625 55.5 -61.164062 61.0625 -54.375 C 66.625 -47.582031 69.050781 -38.265625 68.34375 -26.421875 L 23.453125 -26.421875 C 24.484375 -22.628906 26.300781 -19.703125 28.90625 -17.640625 C 31.507812 -15.585938 34.707031 -14.5625 38.5 -14.5625 C 44.34375 -14.5625 49.4375 -16.734375 53.78125 -21.078125 L 64.5625 -10.546875 C 57.6875 -3.046875 48.40625 0.703125 36.71875 0.703125 C 26.375 0.703125 18.140625 -2.253906 12.015625 -8.171875 C 5.898438 -14.097656 2.84375 -21.957031 2.84375 -31.75 C 2.84375 -41.613281 5.898438 -49.546875 12.015625 -55.546875 C 18.140625 -61.554688 26.175781 -64.5625 36.125 -64.5625 Z M 23.09375 -37.4375 L 48.6875 -37.4375 C 48.6875 -41.300781 47.5625 -44.414062 45.3125 -46.78125 C 43.0625 -49.15625 40.078125 -50.34375 36.359375 -50.34375 C 32.890625 -50.34375 29.96875 -49.175781 27.59375 -46.84375 C 25.226562 -44.519531 23.726562 -41.382812 23.09375 -37.4375 Z M 23.09375 -37.4375 "/></g></g></g><g fill="#e30523" fill-opacity="1"><g transform="translate(509.260696, 749.318721)"><g><path d="M 28.671875 -63.84375 L 28.671875 -53.0625 C 33.171875 -60.726562 40.078125 -64.640625 49.390625 -64.796875 L 49.390625 -46.3125 C 43.546875 -46.863281 38.769531 -45.894531 35.0625 -43.40625 C 31.351562 -40.925781 29.222656 -37.394531 28.671875 -32.8125 L 28.671875 0 L 8.171875 0 L 8.171875 -63.84375 Z M 28.671875 -63.84375 "/></g></g></g><g fill="#e30523" fill-opacity="1"><g transform="translate(559.837984, 749.318721)"><g><path d="M 39.203125 -84.453125 L 23.8125 -71.078125 L 8.171875 -71.078125 L 20.734375 -90.96875 Z M 28.546875 0 L 8.171875 0 L 8.171875 -63.84375 L 28.546875 -63.84375 Z M 28.546875 0 "/></g></g></g><g fill="#e30523" fill-opacity="1"><g transform="translate(596.675318, 749.318721)"><g><path d="M 36.84375 -64.796875 C 45.601562 -64.796875 52.410156 -62.757812 57.265625 -58.6875 C 62.128906 -54.625 64.597656 -48.960938 64.671875 -41.703125 L 64.671875 0 L 44.65625 0 L 44.65625 -7.34375 C 40.46875 -1.8125 33.953125 0.953125 25.109375 0.953125 C 18.398438 0.953125 13.070312 -0.898438 9.125 -4.609375 C 5.175781 -8.328125 3.203125 -13.148438 3.203125 -19.078125 C 3.203125 -25.148438 5.3125 -29.863281 9.53125 -33.21875 C 13.757812 -36.582031 19.820312 -38.300781 27.71875 -38.375 L 44.53125 -38.375 L 44.53125 -39.328125 C 44.53125 -42.484375 43.484375 -44.945312 41.390625 -46.71875 C 39.304688 -48.5 36.207031 -49.390625 32.09375 -49.390625 C 26.332031 -49.390625 19.976562 -47.613281 13.03125 -44.0625 L 7.21875 -57.5625 C 17.570312 -62.382812 27.445312 -64.796875 36.84375 -64.796875 Z M 31.390625 -12.90625 C 34.628906 -12.90625 37.472656 -13.710938 39.921875 -15.328125 C 42.367188 -16.953125 43.90625 -19.066406 44.53125 -21.671875 L 44.53125 -27.359375 L 31.625 -27.359375 C 25.46875 -27.359375 22.390625 -25.070312 22.390625 -20.5 C 22.390625 -18.125 23.175781 -16.265625 24.75 -14.921875 C 26.332031 -13.578125 28.546875 -12.90625 31.390625 -12.90625 Z M 31.390625 -12.90625 "/></g></g></g></svg>