<svg xmlns="http://www.w3.org/2000/svg" xmlns:xlink="http://www.w3.org/1999/xlink" width="1080" zoomAndPan="magnify" viewBox="0 0 810 809.999993" height="1080" preserveAspectRatio="xMidYMid meet" version="1.0"><defs><g/><clipPath id="28fc65bbed"><path d="M 337 410 L 403 410 L 403 535.796875 L 337 535.796875 Z M 337 410 " clip-rule="nonzero"/></clipPath><clipPath id="aa5a665589"><path d="M 408 410 L 473 410 L 473 535.796875 L 408 535.796875 Z M 408 410 " clip-rule="nonzero"/></clipPath></defs><path fill="#f3b17b" d="M 238.4375 377.839844 C 233.878906 382.863281 234.265625 390.695312 239.292969 395.246094 C 251.796875 406.558594 264.296875 417.871094 276.796875 429.183594 C 281.828125 433.734375 289.671875 433.347656 294.230469 428.324219 C 298.789062 423.300781 298.402344 415.46875 293.371094 410.917969 C 280.867188 399.605469 268.367188 388.292969 255.867188 376.980469 C 250.839844 372.429688 242.996094 372.816406 238.4375 377.839844 " fill-opacity="1" fill-rule="evenodd"/><path fill="#f8bc84" d="M 225.664062 376.796875 C 221.105469 381.820312 221.492188 389.652344 226.523438 394.207031 C 239.023438 405.519531 251.523438 416.828125 264.027344 428.140625 C 269.058594 432.691406 276.902344 432.308594 281.457031 427.285156 C 286.015625 422.261719 285.628906 414.425781 280.597656 409.875 C 268.097656 398.5625 255.597656 387.25 243.09375 375.941406 C 238.066406 371.386719 230.222656 371.773438 225.664062 376.796875 " fill-opacity="1" fill-rule="evenodd"/><path fill="#fec88e" d="M 339.695312 400.375 C 347.027344 399.941406 353.351562 405.066406 353.746094 411.765625 C 354.144531 418.460938 348.46875 424.296875 341.140625 424.730469 L 266.304688 429.152344 C 258.972656 429.585938 252.648438 424.460938 252.253906 417.765625 L 252.253906 417.761719 C 251.855469 411.066406 257.53125 405.230469 264.859375 404.796875 L 339.695312 400.375 " fill-opacity="1" fill-rule="evenodd"/><g clip-path="url(#28fc65bbed)"><path fill="#fec88e" d="M 337.648438 410.503906 L 399.445312 413.261719 L 402.125 535.808594 L 342.101562 535.808594 L 337.648438 410.503906 " fill-opacity="1" fill-rule="evenodd"/></g><g clip-path="url(#aa5a665589)"><path fill="#fec88e" d="M 472.628906 410.503906 L 410.832031 413.261719 L 408.152344 535.808594 L 468.175781 535.808594 L 472.628906 410.503906 " fill-opacity="1" fill-rule="evenodd"/></g><path fill="#f3b17b" d="M 571.839844 377.839844 C 576.398438 382.863281 576.011719 390.695312 570.984375 395.246094 C 558.480469 406.558594 545.980469 417.871094 533.480469 429.183594 C 528.449219 433.734375 520.605469 433.347656 516.046875 428.324219 C 511.488281 423.300781 511.875 415.46875 516.90625 410.917969 C 529.40625 399.605469 541.910156 388.292969 554.410156 376.980469 C 559.4375 372.429688 567.28125 372.816406 571.839844 377.839844 " fill-opacity="1" fill-rule="evenodd"/><path fill="#f8bc84" d="M 584.613281 376.796875 C 589.171875 381.820312 588.78125 389.652344 583.753906 394.207031 C 571.253906 405.519531 558.75 416.828125 546.25 428.140625 C 541.21875 432.691406 533.375 432.308594 528.816406 427.285156 C 524.261719 422.261719 524.648438 414.425781 529.675781 409.875 C 542.179688 398.5625 554.679688 387.25 567.179688 375.941406 C 572.210938 371.386719 580.054688 371.773438 584.613281 376.796875 " fill-opacity="1" fill-rule="evenodd"/><path fill="#fec88e" d="M 450.320312 419.363281 C 441.40625 420.566406 434.96875 427.851562 436.011719 435.550781 C 437.054688 443.25 445.203125 448.566406 454.117188 447.359375 L 545.113281 435.046875 C 554.027344 433.84375 560.464844 426.558594 559.421875 418.859375 C 558.378906 411.160156 550.230469 405.847656 541.316406 407.050781 L 450.320312 419.363281 " fill-opacity="1" fill-rule="evenodd"/><path fill="#dcdef0" d="M 345.042969 247.179688 C 367.363281 254.730469 383.46875 276.171875 383.46875 301.449219 C 383.46875 333.027344 358.34375 358.625 327.355469 358.625 C 296.363281 358.625 271.242188 333.027344 271.242188 301.449219 C 271.242188 276.171875 287.339844 254.730469 309.664062 247.179688 L 345.042969 247.179688 " fill-opacity="1" fill-rule="evenodd"/><path fill="#6cc2d8" d="M 383.367188 298.023438 C 383.429688 299.160156 383.46875 300.300781 383.46875 301.449219 C 383.46875 302.269531 383.445312 303.085938 383.410156 303.898438 L 271.296875 303.898438 C 271.261719 303.085938 271.242188 302.269531 271.242188 301.449219 C 271.242188 300.300781 271.277344 299.160156 271.339844 298.023438 L 383.367188 298.023438 " fill-opacity="1" fill-rule="evenodd"/><path fill="#bfbfbf" d="M 345.042969 247.179688 C 367.363281 254.730469 383.46875 276.171875 383.46875 301.449219 C 383.46875 333.027344 358.34375 358.621094 327.355469 358.625 L 327.355469 247.179688 L 345.042969 247.179688 " fill-opacity="1" fill-rule="evenodd"/><path fill="#6cc2d8" d="M 383.367188 298.023438 C 383.429688 299.160156 383.46875 300.300781 383.46875 301.449219 C 383.46875 302.269531 383.445312 303.085938 383.410156 303.898438 L 327.355469 303.898438 L 327.355469 298.023438 L 383.367188 298.023438 " fill-opacity="1" fill-rule="evenodd"/><path fill="#ffcc00" d="M 309.117188 319.28125 C 310.152344 319.28125 311.003906 320.144531 311.003906 321.203125 L 311.003906 371.65625 L 307.234375 371.65625 L 307.234375 321.203125 C 307.234375 320.144531 308.082031 319.28125 309.117188 319.28125 " fill-opacity="1" fill-rule="evenodd"/><path fill="#edb91d" d="M 345.589844 319.28125 C 346.625 319.28125 347.472656 320.144531 347.472656 321.203125 L 347.472656 371.65625 L 343.703125 371.65625 L 343.703125 321.203125 C 343.703125 320.144531 344.550781 319.28125 345.589844 319.28125 " fill-opacity="1" fill-rule="evenodd"/><path fill="#ffcc00" d="M 271.574219 306.066406 C 272.613281 306.066406 273.460938 306.933594 273.460938 307.988281 L 273.460938 371.65625 L 269.6875 371.65625 L 269.6875 307.988281 C 269.6875 306.933594 270.539062 306.066406 271.574219 306.066406 " fill-opacity="1" fill-rule="evenodd"/><path fill="#edb91d" d="M 381.582031 306.066406 C 382.617188 306.066406 383.46875 306.933594 383.46875 307.988281 L 383.46875 371.65625 L 379.695312 371.65625 L 379.695312 307.988281 C 379.695312 306.933594 380.542969 306.066406 381.582031 306.066406 " fill-opacity="1" fill-rule="evenodd"/><path fill="#009de2" d="M 320.792969 371.65625 C 320.273438 371.65625 319.851562 371.226562 319.851562 370.695312 L 319.851562 370.492188 L 319.847656 370.46875 L 319.851562 370.445312 L 319.851562 360.96875 L 319.847656 360.945312 L 319.851562 360.917969 L 319.851562 351.445312 L 319.847656 351.421875 L 319.851562 351.398438 L 319.851562 341.925781 L 319.847656 341.898438 L 319.851562 341.875 L 319.851562 332.402344 L 319.847656 332.375 L 319.851562 332.351562 L 319.851562 322.878906 L 319.847656 322.851562 L 319.851562 322.828125 L 319.851562 313.351562 L 319.847656 313.328125 L 319.851562 313.304688 L 319.851562 303.828125 L 319.847656 303.804688 L 319.851562 303.78125 L 319.851562 294.304688 L 319.847656 294.28125 L 319.851562 294.257812 L 319.851562 284.785156 L 319.847656 284.757812 L 319.851562 284.734375 L 319.851562 275.261719 L 319.847656 275.234375 L 319.851562 275.210938 L 319.851562 265.738281 L 319.847656 265.710938 L 319.851562 265.6875 L 319.851562 256.214844 L 319.847656 256.1875 L 319.851562 256.164062 L 319.851562 247.4375 C 319.851562 246.90625 320.273438 246.476562 320.792969 246.476562 C 321.3125 246.476562 321.734375 246.90625 321.734375 247.4375 L 321.734375 255.226562 L 332.972656 255.226562 L 332.972656 247.4375 C 332.972656 246.90625 333.394531 246.476562 333.914062 246.476562 C 334.4375 246.476562 334.859375 246.90625 334.859375 247.4375 L 334.859375 370.695312 C 334.859375 371.226562 334.4375 371.65625 333.914062 371.65625 C 329.71875 371.65625 325.023438 371.65625 320.792969 371.65625 Z M 321.734375 257.148438 L 321.734375 264.753906 L 332.972656 264.753906 L 332.972656 257.148438 Z M 321.734375 266.671875 L 321.734375 274.273438 L 332.972656 274.273438 L 332.972656 266.671875 Z M 321.734375 276.195312 L 321.734375 283.796875 L 332.972656 283.796875 L 332.972656 276.195312 Z M 321.734375 285.71875 L 321.734375 293.320312 L 332.972656 293.320312 L 332.972656 285.71875 Z M 321.734375 295.242188 L 321.734375 302.84375 L 332.972656 302.84375 L 332.972656 295.242188 Z M 321.734375 304.765625 L 321.734375 312.367188 L 332.972656 312.367188 L 332.972656 304.765625 Z M 321.734375 314.289062 L 321.734375 321.890625 L 332.972656 321.890625 L 332.972656 314.289062 Z M 321.734375 323.8125 L 321.734375 331.414062 L 332.972656 331.414062 L 332.972656 323.8125 Z M 321.734375 333.335938 L 321.734375 340.9375 L 332.972656 340.9375 L 332.972656 333.335938 Z M 321.734375 342.859375 L 321.734375 350.460938 L 332.972656 350.460938 L 332.972656 342.859375 Z M 321.734375 352.382812 L 321.734375 359.984375 L 332.972656 359.984375 L 332.972656 352.382812 Z M 321.734375 361.90625 L 321.734375 369.507812 L 332.972656 369.507812 L 332.972656 361.90625 L 321.734375 361.90625 " fill-opacity="1" fill-rule="nonzero"/><path fill="#009de2" d="M 327.355469 255.226562 L 332.972656 255.226562 L 332.972656 247.4375 C 332.972656 246.90625 333.394531 246.476562 333.914062 246.476562 C 334.4375 246.476562 334.859375 246.90625 334.859375 247.4375 L 334.859375 370.695312 C 334.859375 371.226562 334.4375 371.65625 333.914062 371.65625 L 327.355469 371.65625 L 327.355469 369.507812 L 332.972656 369.507812 L 332.972656 361.90625 L 327.355469 361.90625 L 327.355469 359.984375 L 332.972656 359.984375 L 332.972656 352.382812 L 327.355469 352.382812 L 327.355469 350.460938 L 332.972656 350.460938 L 332.972656 342.859375 L 327.355469 342.859375 L 327.355469 340.9375 L 332.972656 340.9375 L 332.972656 333.335938 L 327.355469 333.335938 L 327.355469 331.414062 L 332.972656 331.414062 L 332.972656 323.8125 L 327.355469 323.8125 L 327.355469 321.890625 L 332.972656 321.890625 L 332.972656 314.289062 L 327.355469 314.289062 L 327.355469 312.367188 L 332.972656 312.367188 L 332.972656 304.765625 L 327.355469 304.765625 L 327.355469 302.84375 L 332.972656 302.84375 L 332.972656 295.242188 L 327.355469 295.242188 L 327.355469 293.320312 L 332.972656 293.320312 L 332.972656 285.71875 L 327.355469 285.71875 L 327.355469 283.796875 L 332.972656 283.796875 L 332.972656 276.195312 L 327.355469 276.195312 L 327.355469 274.273438 L 332.972656 274.273438 L 332.972656 266.671875 L 327.355469 266.671875 L 327.355469 264.753906 L 332.972656 264.753906 L 332.972656 257.148438 L 327.355469 257.148438 L 327.355469 255.226562 " fill-opacity="1" fill-rule="nonzero"/><path fill="#009de2" d="M 318.746094 247.179688 L 344.519531 247.179688 C 344.664062 247.179688 344.804688 247.144531 344.925781 247.082031 L 344.945312 247.074219 C 345.25 246.914062 345.460938 246.589844 345.460938 246.21875 L 345.460938 246.191406 C 345.460938 241.757812 345.460938 237.265625 345.460938 232.847656 C 345.460938 232.316406 345.039062 231.886719 344.519531 231.886719 L 310.191406 231.886719 C 309.667969 231.886719 309.246094 232.316406 309.246094 232.847656 C 309.246094 237.265625 309.246094 241.757812 309.246094 246.191406 L 309.246094 246.21875 C 309.246094 246.589844 309.457031 246.914062 309.757812 247.074219 L 309.78125 247.082031 C 309.90625 247.144531 310.042969 247.179688 310.191406 247.179688 Z M 319.714844 245.257812 L 319.714844 233.808594 L 326.410156 233.808594 L 326.410156 245.257812 Z M 317.828125 233.808594 L 317.828125 245.257812 L 311.132812 245.257812 L 311.132812 233.808594 Z M 343.574219 233.808594 L 343.574219 245.257812 L 336.878906 245.257812 L 336.878906 233.808594 Z M 328.296875 233.808594 L 334.992188 233.808594 L 334.992188 245.257812 L 328.296875 245.257812 L 328.296875 233.808594 " fill-opacity="1" fill-rule="nonzero"/><path fill="#009de2" d="M 327.355469 247.179688 L 344.519531 247.179688 C 344.664062 247.179688 344.804688 247.144531 344.925781 247.082031 L 344.945312 247.074219 C 345.25 246.914062 345.460938 246.589844 345.460938 246.21875 L 345.460938 246.191406 C 345.460938 241.757812 345.460938 237.265625 345.460938 232.847656 C 345.460938 232.316406 345.039062 231.886719 344.519531 231.886719 L 327.355469 231.886719 Z M 343.574219 233.808594 L 343.574219 245.257812 L 336.878906 245.257812 L 336.878906 233.808594 Z M 328.296875 233.808594 L 334.992188 233.808594 L 334.992188 245.257812 L 328.296875 245.257812 L 328.296875 233.808594 " fill-opacity="1" fill-rule="nonzero"/><path fill="#78d8f0" d="M 395.773438 205.667969 L 399.5625 205.667969 L 404.769531 371.65625 L 390.5625 371.65625 L 395.773438 205.667969 " fill-opacity="1" fill-rule="evenodd"/><path fill="#6cc2d8" d="M 399.5625 205.667969 L 397.667969 205.667969 L 397.667969 371.65625 L 404.769531 371.65625 L 399.5625 205.667969 " fill-opacity="1" fill-rule="evenodd"/><path fill="#78d8f0" d="M 412.8125 134.132812 L 398.03125 201.863281 C 384.5 199.4375 409.859375 133.046875 412.8125 134.132812 " fill-opacity="1" fill-rule="evenodd"/><path fill="#6cc2d8" d="M 412.8125 134.132812 L 398.03125 201.863281 C 411.300781 205.507812 415.933594 134.421875 412.8125 134.132812 " fill-opacity="1" fill-rule="evenodd"/><path fill="#6cc2d8" d="M 448.210938 248.773438 L 398.035156 201.867188 C 406.863281 191.140625 450.613281 246.710938 448.210938 248.773438 " fill-opacity="1" fill-rule="evenodd"/><path fill="#78d8f0" d="M 448.210938 248.773438 L 398.035156 201.867188 C 388.304688 211.753906 446.40625 251.382812 448.210938 248.773438 " fill-opacity="1" fill-rule="evenodd"/><path fill="#6cc2d8" d="M 333.074219 222.691406 L 398.03125 201.867188 C 402.734375 215.019531 333.625 225.839844 333.074219 222.691406 " fill-opacity="1" fill-rule="evenodd"/><path fill="#78d8f0" d="M 333.074219 222.691406 L 398.03125 201.867188 C 394.492188 188.335938 331.757812 219.789062 333.074219 222.691406 " fill-opacity="1" fill-rule="evenodd"/><path fill="#c0c1d3" d="M 401.746094 194.8125 C 405.304688 196.90625 406.523438 201.539062 404.46875 205.167969 C 402.414062 208.792969 397.867188 210.03125 394.304688 207.941406 C 390.75 205.847656 389.527344 201.210938 391.585938 197.585938 C 393.636719 193.960938 398.1875 192.71875 401.746094 194.8125 " fill-opacity="1" fill-rule="evenodd"/><path fill="#78d8f0" d="M 457.191406 141.496094 L 462.449219 141.496094 L 469.671875 371.65625 L 449.972656 371.65625 L 457.191406 141.496094 " fill-opacity="1" fill-rule="evenodd"/><path fill="#6cc2d8" d="M 462.449219 141.496094 L 459.820312 141.496094 L 459.820312 371.65625 L 469.671875 371.65625 L 462.449219 141.496094 " fill-opacity="1" fill-rule="evenodd"/><path fill="#78d8f0" d="M 480.820312 42.300781 L 460.328125 136.214844 C 441.5625 132.851562 476.726562 40.792969 480.820312 42.300781 " fill-opacity="1" fill-rule="evenodd"/><path fill="#6cc2d8" d="M 480.820312 42.300781 L 460.328125 136.214844 C 478.722656 141.269531 485.152344 42.703125 480.820312 42.300781 " fill-opacity="1" fill-rule="evenodd"/><path fill="#6cc2d8" d="M 529.90625 201.261719 L 460.332031 136.222656 C 472.570312 121.347656 533.234375 198.40625 529.90625 201.261719 " fill-opacity="1" fill-rule="evenodd"/><path fill="#78d8f0" d="M 529.90625 201.261719 L 460.332031 136.222656 C 446.835938 149.929688 527.402344 204.882812 529.90625 201.261719 " fill-opacity="1" fill-rule="evenodd"/><path fill="#6cc2d8" d="M 370.253906 165.097656 L 460.320312 136.222656 C 466.84375 154.460938 371.019531 169.460938 370.253906 165.097656 " fill-opacity="1" fill-rule="evenodd"/><path fill="#78d8f0" d="M 370.253906 165.097656 L 460.320312 136.222656 C 455.421875 117.460938 368.429688 161.074219 370.253906 165.097656 " fill-opacity="1" fill-rule="evenodd"/><path fill="#c0c1d3" d="M 465.476562 126.4375 C 470.410156 129.339844 472.101562 135.769531 469.253906 140.796875 C 466.402344 145.824219 460.09375 147.546875 455.160156 144.640625 C 450.226562 141.742188 448.535156 135.3125 451.386719 130.285156 C 454.234375 125.257812 460.542969 123.535156 465.476562 126.4375 " fill-opacity="1" fill-rule="evenodd"/><path fill="#78d8f0" d="M 532.675781 205.667969 L 536.46875 205.667969 L 541.675781 371.65625 L 527.46875 371.65625 L 532.675781 205.667969 " fill-opacity="1" fill-rule="evenodd"/><path fill="#6cc2d8" d="M 536.46875 205.667969 L 534.570312 205.667969 L 534.570312 371.65625 L 541.675781 371.65625 L 536.46875 205.667969 " fill-opacity="1" fill-rule="evenodd"/><path fill="#78d8f0" d="M 549.714844 134.132812 L 534.9375 201.863281 C 521.402344 199.4375 546.761719 133.046875 549.714844 134.132812 " fill-opacity="1" fill-rule="evenodd"/><path fill="#6cc2d8" d="M 549.714844 134.132812 L 534.9375 201.863281 C 548.203125 205.507812 552.839844 134.421875 549.714844 134.132812 " fill-opacity="1" fill-rule="evenodd"/><path fill="#6cc2d8" d="M 585.113281 248.773438 L 534.9375 201.867188 C 543.765625 191.140625 587.511719 246.710938 585.113281 248.773438 " fill-opacity="1" fill-rule="evenodd"/><path fill="#78d8f0" d="M 585.113281 248.773438 L 534.9375 201.867188 C 525.207031 211.753906 583.308594 251.382812 585.113281 248.773438 " fill-opacity="1" fill-rule="evenodd"/><path fill="#6cc2d8" d="M 469.976562 222.691406 L 534.929688 201.867188 C 539.636719 215.019531 470.53125 225.839844 469.976562 222.691406 " fill-opacity="1" fill-rule="evenodd"/><path fill="#78d8f0" d="M 469.976562 222.691406 L 534.929688 201.867188 C 531.394531 188.335938 468.660156 219.789062 469.976562 222.691406 " fill-opacity="1" fill-rule="evenodd"/><path fill="#c0c1d3" d="M 538.648438 194.8125 C 542.207031 196.90625 543.425781 201.539062 541.371094 205.167969 C 539.316406 208.792969 534.769531 210.03125 531.210938 207.941406 C 527.652344 205.847656 526.433594 201.210938 528.488281 197.585938 C 530.542969 193.960938 535.089844 192.71875 538.648438 194.8125 " fill-opacity="1" fill-rule="evenodd"/><path fill="#71a538" d="M 255.851562 338.199219 L 255.894531 357.046875 L 259.242188 353.652344 C 251.316406 337.648438 277.691406 334.410156 281.820312 334.871094 C 282.277344 339.15625 278.972656 366.984375 262.472656 357.375 L 255.914062 364.027344 L 255.929688 371.65625 L 251.0625 371.65625 L 251.042969 364.0625 L 244.453125 357.375 C 227.953125 366.984375 224.648438 339.15625 225.105469 334.871094 C 229.234375 334.410156 255.609375 337.648438 247.683594 353.652344 L 251.027344 357.046875 L 250.984375 338.171875 C 233.53125 332.796875 250.199219 311.15625 253.460938 308.484375 C 256.730469 311.160156 273.445312 332.867188 255.851562 338.199219 " fill-opacity="1" fill-rule="evenodd"/><path fill="#5c9538" d="M 255.851562 338.199219 L 255.894531 357.046875 L 259.242188 353.652344 C 251.316406 337.648438 277.691406 334.410156 281.820312 334.871094 C 282.277344 339.15625 278.972656 366.984375 262.472656 357.375 L 255.914062 364.027344 L 255.929688 371.65625 L 253.464844 371.65625 L 253.464844 308.484375 C 256.742188 311.171875 273.441406 332.871094 255.851562 338.199219 " fill-opacity="1" fill-rule="evenodd"/><path fill="#dcdef0" d="M 446.609375 251.019531 L 446 316.613281 L 488.777344 329.058594 C 488.644531 343.160156 488.625 357.152344 488.605469 371.214844 L 498.109375 371.214844 C 498.125 358.070312 498.136719 344.945312 498.261719 331.820312 L 541.035156 344.261719 L 541.640625 278.667969 L 446.609375 251.019531 " fill-opacity="1" fill-rule="evenodd"/><path fill="#31b0e8" d="M 451.097656 256.183594 L 478.457031 264.144531 L 478.199219 292.097656 L 450.835938 284.136719 L 451.097656 256.183594 " fill-opacity="1" fill-rule="evenodd"/><path fill="#31b0e8" d="M 507.773438 272.671875 L 480.410156 264.714844 L 480.152344 292.664062 L 507.511719 300.625 L 507.773438 272.671875 " fill-opacity="1" fill-rule="evenodd"/><path fill="#31b0e8" d="M 537.085938 281.203125 L 509.722656 273.242188 L 509.464844 301.191406 L 536.824219 309.15625 L 537.085938 281.203125 " fill-opacity="1" fill-rule="evenodd"/><path fill="#31b0e8" d="M 450.5625 314.082031 L 477.921875 322.042969 L 478.179688 294.089844 L 450.820312 286.128906 L 450.5625 314.082031 " fill-opacity="1" fill-rule="evenodd"/><path fill="#31b0e8" d="M 507.234375 330.570312 L 479.875 322.609375 L 480.132812 294.660156 L 507.492188 302.617188 L 507.234375 330.570312 " fill-opacity="1" fill-rule="evenodd"/><path fill="#31b0e8" d="M 536.546875 339.097656 L 509.183594 331.136719 L 509.445312 303.1875 L 536.804688 311.148438 L 536.546875 339.097656 " fill-opacity="1" fill-rule="evenodd"/><path fill="#009de2" d="M 478.242188 287.691406 L 478.199219 292.097656 L 473.101562 290.613281 C 474.75 289.578125 476.464844 288.601562 478.242188 287.691406 " fill-opacity="1" fill-rule="evenodd"/><path fill="#009de2" d="M 480.207031 286.714844 L 480.152344 292.664062 L 507.511719 300.625 L 507.707031 279.425781 C 497.699219 280.285156 488.363281 282.839844 480.207031 286.714844 " fill-opacity="1" fill-rule="evenodd"/><path fill="#009de2" d="M 509.664062 279.28125 L 509.464844 301.191406 L 536.824219 309.15625 L 537.078125 281.902344 C 530.476562 280.160156 523.414062 279.175781 516.058594 279.109375 C 513.90625 279.085938 511.773438 279.148438 509.664062 279.28125 " fill-opacity="1" fill-rule="evenodd"/><path fill="#009de2" d="M 451.953125 314.484375 L 477.921875 322.042969 L 478.179688 294.089844 L 470.988281 291.996094 C 462.242188 297.976562 455.585938 305.707031 451.953125 314.484375 " fill-opacity="1" fill-rule="evenodd"/><path fill="#009de2" d="M 507.234375 330.570312 L 479.875 322.609375 L 480.132812 294.660156 L 507.492188 302.617188 L 507.234375 330.570312 " fill-opacity="1" fill-rule="evenodd"/><path fill="#009de2" d="M 536.546875 339.097656 L 509.183594 331.136719 L 509.445312 303.1875 L 536.804688 311.148438 L 536.546875 339.097656 " fill-opacity="1" fill-rule="evenodd"/><path fill="#dcdef0" d="M 411.117188 272.25 L 410.730469 313.746094 L 437.789062 321.617188 C 437.636719 338.148438 437.675781 354.652344 437.667969 371.214844 L 443.6875 371.214844 L 443.789062 323.363281 L 470.851562 331.238281 L 471.234375 289.742188 L 411.117188 272.25 " fill-opacity="1" fill-rule="evenodd"/><path fill="#31b0e8" d="M 413.953125 275.519531 L 431.261719 280.554688 L 431.097656 298.234375 L 413.789062 293.199219 L 413.953125 275.519531 " fill-opacity="1" fill-rule="evenodd"/><path fill="#31b0e8" d="M 449.808594 285.949219 L 432.496094 280.910156 L 432.332031 298.59375 L 449.640625 303.632812 L 449.808594 285.949219 " fill-opacity="1" fill-rule="evenodd"/><path fill="#31b0e8" d="M 468.351562 291.34375 L 451.039062 286.308594 L 450.875 303.988281 L 468.1875 309.027344 L 468.351562 291.34375 " fill-opacity="1" fill-rule="evenodd"/><path fill="#31b0e8" d="M 413.613281 312.144531 L 430.921875 317.179688 L 431.085938 299.496094 L 413.777344 294.460938 L 413.613281 312.144531 " fill-opacity="1" fill-rule="evenodd"/><path fill="#31b0e8" d="M 449.464844 322.574219 L 432.15625 317.539062 L 432.324219 299.855469 L 449.628906 304.890625 L 449.464844 322.574219 " fill-opacity="1" fill-rule="evenodd"/><path fill="#31b0e8" d="M 468.011719 327.96875 L 450.699219 322.933594 L 450.863281 305.25 L 468.175781 310.289062 L 468.011719 327.96875 " fill-opacity="1" fill-rule="evenodd"/><path fill="#009de2" d="M 431.125 295.445312 L 431.097656 298.234375 L 427.871094 297.296875 C 428.917969 296.640625 430 296.023438 431.125 295.445312 " fill-opacity="1" fill-rule="evenodd"/><path fill="#009de2" d="M 432.367188 294.832031 L 432.332031 298.59375 L 449.640625 303.632812 L 449.765625 290.21875 C 443.433594 290.761719 437.527344 292.378906 432.367188 294.832031 " fill-opacity="1" fill-rule="evenodd"/><path fill="#009de2" d="M 451.003906 290.128906 L 450.875 303.988281 L 468.1875 309.023438 L 468.347656 291.789062 C 464.171875 290.683594 459.703125 290.0625 455.050781 290.019531 C 453.6875 290.003906 452.335938 290.042969 451.003906 290.128906 " fill-opacity="1" fill-rule="evenodd"/><path fill="#009de2" d="M 414.496094 312.398438 L 430.921875 317.179688 L 431.085938 299.496094 L 426.535156 298.171875 C 421.003906 301.957031 416.792969 306.847656 414.496094 312.398438 " fill-opacity="1" fill-rule="evenodd"/><path fill="#009de2" d="M 449.464844 322.574219 L 432.15625 317.539062 L 432.324219 299.855469 L 449.628906 304.890625 L 449.464844 322.574219 " fill-opacity="1" fill-rule="evenodd"/><path fill="#009de2" d="M 468.011719 327.96875 L 450.699219 322.933594 L 450.863281 305.25 L 468.175781 310.285156 L 468.011719 327.96875 " fill-opacity="1" fill-rule="evenodd"/><path fill="#71a538" d="M 541.886719 338.199219 L 541.929688 357.046875 L 545.277344 353.652344 C 537.351562 337.648438 563.726562 334.410156 567.851562 334.871094 C 568.308594 339.15625 565.003906 366.984375 548.507812 357.375 L 541.945312 364.027344 L 541.964844 371.65625 L 537.097656 371.65625 L 537.078125 364.0625 L 530.484375 357.375 C 513.984375 366.984375 510.683594 339.15625 511.140625 334.871094 C 515.265625 334.410156 541.640625 337.648438 533.714844 353.652344 L 537.0625 357.046875 L 537.019531 338.171875 C 519.566406 332.796875 536.234375 311.15625 539.496094 308.484375 C 542.765625 311.160156 559.480469 332.867188 541.886719 338.199219 " fill-opacity="1" fill-rule="evenodd"/><path fill="#5c9538" d="M 541.886719 338.199219 L 541.929688 357.046875 L 545.277344 353.652344 C 537.351562 337.648438 563.726562 334.410156 567.851562 334.871094 C 568.308594 339.15625 565.003906 366.984375 548.507812 357.375 L 541.945312 364.027344 L 541.964844 371.65625 L 539.5 371.65625 L 539.5 308.484375 C 542.773438 311.171875 559.476562 332.871094 541.886719 338.199219 " fill-opacity="1" fill-rule="evenodd"/><path fill="#78d8f0" d="M 278.84375 178.96875 C 279.402344 178.96875 279.945312 179.039062 280.464844 179.167969 C 280.546875 174.289062 284.453125 170.363281 289.261719 170.363281 C 289.546875 170.363281 289.832031 170.378906 290.113281 170.40625 C 290.0625 169.847656 290.035156 169.28125 290.035156 168.714844 C 290.035156 158.851562 297.882812 150.855469 307.5625 150.855469 C 314.753906 150.855469 320.933594 155.269531 323.636719 161.585938 C 325.433594 160.6875 327.453125 160.179688 329.59375 160.179688 C 335.933594 160.179688 341.25 164.625 342.707031 170.625 C 343.203125 170.53125 343.710938 170.484375 344.234375 170.484375 C 348.898438 170.484375 352.679688 174.339844 352.679688 179.089844 C 352.679688 180.085938 352.511719 181.039062 352.210938 181.925781 C 352.863281 181.652344 353.574219 181.503906 354.324219 181.503906 C 357.40625 181.503906 359.910156 184.050781 359.910156 187.195312 C 359.910156 190.335938 357.40625 192.882812 354.324219 192.882812 C 335.507812 192.882812 300.15625 192.882812 278.84375 192.882812 C 275.070312 192.882812 272.015625 189.765625 272.015625 185.925781 C 272.015625 182.082031 275.070312 178.96875 278.84375 178.96875 " fill-opacity="1" fill-rule="evenodd"/><path fill="#71a538" d="M 245.125 401.460938 C 365.414062 423.859375 473.179688 422.1875 565.152344 401.460938 C 568.285156 400.753906 571.003906 380.710938 571.003906 377.5 C 571.003906 374.285156 568.371094 371.65625 565.152344 371.65625 L 245.125 371.65625 C 241.90625 371.65625 239.273438 374.285156 239.273438 377.5 C 239.273438 380.703125 241.96875 400.875 245.125 401.460938 " fill-opacity="1" fill-rule="evenodd"/><path fill="#5c9538" d="M 570.191406 374.578125 C 569.144531 372.835938 567.195312 371.65625 564.976562 371.65625 L 245.300781 371.65625 C 243.082031 371.65625 241.132812 372.835938 240.085938 374.578125 C 241.132812 376.320312 243.082031 377.5 245.300781 377.5 L 564.976562 377.5 C 567.195312 377.5 569.144531 376.320312 570.191406 374.578125 " fill-opacity="1" fill-rule="evenodd"/><path fill="#fec88e" d="M 331.144531 403.664062 L 330.230469 390.480469 C 329.15625 374.941406 340.660156 363.902344 355.796875 365.949219 L 369.03125 367.738281 C 384.167969 369.789062 397.429688 384.179688 398.507812 399.714844 L 399.417969 412.902344 C 400.496094 428.441406 388.988281 439.480469 373.855469 437.429688 L 360.621094 435.640625 C 345.484375 433.59375 332.21875 419.207031 331.144531 403.664062 " fill-opacity="1" fill-rule="evenodd"/><path fill="#fec88e" d="M 281.421875 371.308594 C 280.535156 378.871094 286.003906 385.796875 293.574219 386.664062 L 351.609375 393.3125 C 359.179688 394.179688 366.097656 388.734375 366.980469 381.175781 C 367.867188 373.613281 362.398438 366.6875 354.828125 365.820312 L 296.792969 359.171875 C 289.222656 358.304688 282.304688 363.75 281.421875 371.308594 " fill-opacity="1" fill-rule="evenodd"/><path fill="#fed3a3" d="M 291.417969 381.761719 C 288.460938 379.066406 286.832031 375.351562 287.351562 371.53125 C 287.867188 367.710938 290.425781 364.5625 293.992188 362.75 L 299.792969 363.535156 C 305.964844 364.371094 310.4375 369.328125 309.726562 374.558594 C 309.019531 379.785156 303.386719 383.378906 297.214844 382.542969 L 291.417969 381.761719 " fill-opacity="1" fill-rule="evenodd"/><path fill="#fec88e" d="M 359.957031 419.363281 C 368.871094 420.566406 375.308594 427.851562 374.265625 435.550781 C 373.21875 443.25 365.074219 448.566406 356.160156 447.359375 L 265.160156 435.046875 C 256.25 433.84375 249.808594 426.558594 250.855469 418.859375 C 251.898438 411.160156 260.046875 405.847656 268.960938 407.050781 L 359.957031 419.363281 " fill-opacity="1" fill-rule="evenodd"/><path fill="#fec88e" d="M 217.59375 379.746094 C 213.035156 384.769531 213.421875 392.601562 218.453125 397.15625 C 230.953125 408.464844 243.453125 419.78125 255.957031 431.089844 C 260.988281 435.644531 268.828125 435.253906 273.386719 430.234375 L 273.386719 430.230469 C 277.945312 425.210938 277.558594 417.375 272.527344 412.824219 C 260.027344 401.511719 247.527344 390.199219 235.023438 378.886719 C 229.996094 374.335938 222.152344 374.722656 217.59375 379.746094 " fill-opacity="1" fill-rule="evenodd"/><path fill="#fec88e" d="M 479.132812 403.664062 L 480.046875 390.480469 C 481.121094 374.941406 469.617188 363.902344 454.476562 365.949219 L 441.246094 367.738281 C 426.109375 369.789062 412.84375 384.179688 411.769531 399.714844 L 410.855469 412.902344 C 409.78125 428.441406 421.285156 439.480469 436.421875 437.429688 L 449.65625 435.640625 C 464.792969 433.59375 478.058594 419.207031 479.132812 403.664062 " fill-opacity="1" fill-rule="evenodd"/><path fill="#fec88e" d="M 592.683594 379.746094 C 597.238281 384.769531 596.855469 392.601562 591.824219 397.15625 C 579.324219 408.464844 566.820312 419.78125 554.320312 431.089844 C 549.289062 435.644531 541.445312 435.253906 536.886719 430.234375 L 536.886719 430.230469 C 532.332031 425.210938 532.71875 417.375 537.75 412.824219 C 550.25 401.511719 562.75 390.199219 575.25 378.886719 C 580.28125 374.335938 588.125 374.722656 592.683594 379.746094 " fill-opacity="1" fill-rule="evenodd"/><path fill="#fec88e" d="M 470.578125 400.375 C 463.25 399.941406 456.925781 405.066406 456.527344 411.765625 C 456.132812 418.460938 461.804688 424.296875 469.136719 424.730469 L 543.972656 429.152344 C 551.304688 429.585938 557.625 424.460938 558.023438 417.765625 L 558.023438 417.761719 C 558.421875 411.066406 552.746094 405.230469 545.417969 404.796875 L 470.578125 400.375 " fill-opacity="1" fill-rule="evenodd"/><path fill="#fec88e" d="M 528.855469 371.308594 C 529.742188 378.871094 524.273438 385.796875 516.699219 386.664062 L 458.667969 393.3125 C 451.09375 394.179688 444.179688 388.734375 443.296875 381.175781 C 442.410156 373.613281 447.878906 366.6875 455.449219 365.820312 L 513.480469 359.171875 C 521.054688 358.304688 527.96875 363.75 528.855469 371.308594 " fill-opacity="1" fill-rule="evenodd"/><path fill="#fed3a3" d="M 518.859375 381.761719 C 521.816406 379.066406 523.445312 375.351562 522.925781 371.53125 C 522.40625 367.710938 519.851562 364.5625 516.28125 362.75 L 510.484375 363.535156 C 504.308594 364.371094 499.839844 369.328125 500.550781 374.558594 C 501.257812 379.785156 506.886719 383.378906 513.0625 382.542969 L 518.859375 381.761719 " fill-opacity="1" fill-rule="evenodd"/><g fill="#e30523" fill-opacity="1"><g transform="translate(51.582702, 750.43207)"><g><path d="M 58.65625 0 L 46.25 -23.484375 L 29.5625 -23.484375 L 29.5625 0 L 8.34375 0 L 8.34375 -83.453125 L 45.65625 -83.453125 C 56.707031 -83.453125 65.253906 -80.925781 71.296875 -75.875 C 77.335938 -70.832031 80.359375 -63.660156 80.359375 -54.359375 C 80.359375 -41.484375 75.3125 -32.546875 65.21875 -27.546875 L 82.734375 0 Z M 29.5625 -40.171875 L 45.65625 -40.171875 C 50.269531 -40.171875 53.847656 -41.320312 56.390625 -43.625 C 58.929688 -45.9375 60.203125 -49.28125 60.203125 -53.65625 C 60.203125 -57.945312 58.929688 -61.203125 56.390625 -63.421875 C 53.847656 -65.648438 50.269531 -66.765625 45.65625 -66.765625 L 29.5625 -66.765625 Z M 29.5625 -40.171875 "/></g></g></g><g fill="#e30523" fill-opacity="1"><g transform="translate(137.899873, 750.43207)"><g><path d="M 36.359375 -64.96875 C 47.484375 -64.96875 55.847656 -61.550781 61.453125 -54.71875 C 67.054688 -47.882812 69.503906 -38.503906 68.796875 -26.578125 L 23.609375 -26.578125 C 24.640625 -22.765625 26.46875 -19.820312 29.09375 -17.75 C 31.71875 -15.6875 34.9375 -14.65625 38.75 -14.65625 C 44.625 -14.65625 49.75 -16.84375 54.125 -21.21875 L 64.96875 -10.609375 C 58.0625 -3.054688 48.722656 0.71875 36.953125 0.71875 C 26.546875 0.71875 18.257812 -2.257812 12.09375 -8.21875 C 5.9375 -14.1875 2.859375 -22.097656 2.859375 -31.953125 C 2.859375 -41.890625 5.9375 -49.875 12.09375 -55.90625 C 18.257812 -61.945312 26.347656 -64.96875 36.359375 -64.96875 Z M 23.25 -37.671875 L 49 -37.671875 C 49 -41.566406 47.863281 -44.707031 45.59375 -47.09375 C 43.332031 -49.476562 40.332031 -50.671875 36.59375 -50.671875 C 33.101562 -50.671875 30.164062 -49.5 27.78125 -47.15625 C 25.394531 -44.8125 23.882812 -41.648438 23.25 -37.671875 Z M 23.25 -37.671875 "/></g></g></g><g fill="#e30523" fill-opacity="1"><g transform="translate(209.671841, 750.43207)"><g><path d="M 50.3125 -65.21875 C 57.382812 -65.21875 63.066406 -62.96875 67.359375 -58.46875 C 71.648438 -53.976562 73.796875 -48 73.796875 -40.53125 L 73.796875 0 L 53.296875 0 L 53.296875 -34.8125 C 53.296875 -38.550781 52.28125 -41.507812 50.25 -43.6875 C 48.21875 -45.875 45.457031 -46.96875 41.96875 -46.96875 C 38.3125 -46.96875 35.3125 -45.773438 32.96875 -43.390625 C 30.625 -41.003906 29.25 -37.867188 28.84375 -33.984375 L 28.84375 0 L 8.21875 0 L 8.21875 -64.265625 L 28.84375 -64.265625 L 28.84375 -53.765625 C 33.375 -61.234375 40.53125 -65.050781 50.3125 -65.21875 Z M 50.3125 -65.21875 "/></g></g></g><g fill="#e30523" fill-opacity="1"><g transform="translate(289.908603, 750.43207)"><g><path d="M 38.03125 -64.96875 C 48.519531 -64.96875 56.984375 -61.96875 63.421875 -55.96875 C 69.859375 -49.96875 73.078125 -42.039062 73.078125 -32.1875 C 73.078125 -22.332031 69.859375 -14.382812 63.421875 -8.34375 C 56.984375 -2.300781 48.519531 0.71875 38.03125 0.71875 C 27.457031 0.71875 18.953125 -2.300781 12.515625 -8.34375 C 6.078125 -14.382812 2.859375 -22.332031 2.859375 -32.1875 C 2.859375 -42.039062 6.078125 -49.96875 12.515625 -55.96875 C 18.953125 -61.96875 27.457031 -64.96875 38.03125 -64.96875 Z M 38.03125 -48.640625 C 33.738281 -48.640625 30.257812 -47.085938 27.59375 -43.984375 C 24.9375 -40.890625 23.609375 -36.878906 23.609375 -31.953125 C 23.609375 -26.941406 24.9375 -22.90625 27.59375 -19.84375 C 30.257812 -16.789062 33.738281 -15.265625 38.03125 -15.265625 C 42.238281 -15.265625 45.675781 -16.789062 48.34375 -19.84375 C 51.007812 -22.90625 52.34375 -26.941406 52.34375 -31.953125 C 52.34375 -36.878906 51.007812 -40.890625 48.34375 -43.984375 C 45.675781 -47.085938 42.238281 -48.640625 38.03125 -48.640625 Z M 38.03125 -48.640625 "/></g></g></g><g fill="#e30523" fill-opacity="1"><g transform="translate(365.853333, 750.43207)"><g><path d="M 44.703125 0 L 23.609375 0 L -0.59375 -64.265625 L 20.625 -64.265625 L 34.453125 -18.84375 L 48.40625 -64.265625 L 68.90625 -64.265625 Z M 44.703125 0 "/></g></g></g><g fill="#e30523" fill-opacity="1"><g transform="translate(433.929393, 750.43207)"><g><path d="M 37.078125 -65.21875 C 45.898438 -65.21875 52.753906 -63.171875 57.640625 -59.078125 C 62.523438 -54.984375 65.007812 -49.28125 65.09375 -41.96875 L 65.09375 0 L 44.953125 0 L 44.953125 -7.390625 C 40.734375 -1.828125 34.175781 0.953125 25.28125 0.953125 C 18.519531 0.953125 13.148438 -0.910156 9.171875 -4.640625 C 5.203125 -8.378906 3.21875 -13.226562 3.21875 -19.1875 C 3.21875 -25.3125 5.34375 -30.0625 9.59375 -33.4375 C 13.84375 -36.8125 19.941406 -38.539062 27.890625 -38.625 L 44.828125 -38.625 L 44.828125 -39.578125 C 44.828125 -42.753906 43.769531 -45.238281 41.65625 -47.03125 C 39.550781 -48.820312 36.4375 -49.71875 32.3125 -49.71875 C 26.507812 -49.71875 20.109375 -47.925781 13.109375 -44.34375 L 7.265625 -57.9375 C 17.679688 -62.789062 27.617188 -65.21875 37.078125 -65.21875 Z M 31.59375 -13 C 34.851562 -13 37.710938 -13.8125 40.171875 -15.4375 C 42.640625 -17.070312 44.191406 -19.195312 44.828125 -21.8125 L 44.828125 -27.546875 L 31.828125 -27.546875 C 25.628906 -27.546875 22.53125 -25.238281 22.53125 -20.625 C 22.53125 -18.238281 23.320312 -16.367188 24.90625 -15.015625 C 26.5 -13.671875 28.726562 -13 31.59375 -13 Z M 31.59375 -13 "/></g></g></g><g fill="#e30523" fill-opacity="1"><g transform="translate(505.462933, 750.43207)"><g><path d="M 48.640625 -64.96875 C 57.703125 -64.96875 64.992188 -61.925781 70.515625 -55.84375 C 76.035156 -49.769531 78.796875 -41.765625 78.796875 -31.828125 C 78.796875 -22.054688 76.09375 -14.1875 70.6875 -8.21875 C 65.289062 -2.257812 58.101562 0.71875 49.125 0.71875 C 40.695312 0.71875 34.140625 -2.378906 29.453125 -8.578125 L 29.453125 0 L 8.828125 0 L 8.828125 -88.453125 L 29.453125 -88.453125 L 29.453125 -55.796875 C 34.210938 -61.910156 40.609375 -64.96875 48.640625 -64.96875 Z M 43.640625 -15.625 C 47.929688 -15.625 51.40625 -17.191406 54.0625 -20.328125 C 56.726562 -23.460938 58.0625 -27.492188 58.0625 -32.421875 C 58.0625 -37.347656 56.726562 -41.363281 54.0625 -44.46875 C 51.40625 -47.570312 47.929688 -49.125 43.640625 -49.125 C 39.503906 -49.125 36.101562 -47.570312 33.4375 -44.46875 C 30.78125 -41.363281 29.453125 -37.347656 29.453125 -32.421875 C 29.453125 -27.421875 30.757812 -23.367188 33.375 -20.265625 C 36 -17.171875 39.421875 -15.625 43.640625 -15.625 Z M 43.640625 -15.625 "/></g></g></g><g fill="#e30523" fill-opacity="1"><g transform="translate(587.130374, 750.43207)"><g><path d="M 29.453125 0 L 8.828125 0 L 8.828125 -88.453125 L 29.453125 -88.453125 Z M 29.453125 0 "/></g></g></g><g fill="#e30523" fill-opacity="1"><g transform="translate(625.400858, 750.43207)"><g><path d="M 36.359375 -64.96875 C 47.484375 -64.96875 55.847656 -61.550781 61.453125 -54.71875 C 67.054688 -47.882812 69.503906 -38.503906 68.796875 -26.578125 L 23.609375 -26.578125 C 24.640625 -22.765625 26.46875 -19.820312 29.09375 -17.75 C 31.71875 -15.6875 34.9375 -14.65625 38.75 -14.65625 C 44.625 -14.65625 49.75 -16.84375 54.125 -21.21875 L 64.96875 -10.609375 C 58.0625 -3.054688 48.722656 0.71875 36.953125 0.71875 C 26.546875 0.71875 18.257812 -2.257812 12.09375 -8.21875 C 5.9375 -14.1875 2.859375 -22.097656 2.859375 -31.953125 C 2.859375 -41.890625 5.9375 -49.875 12.09375 -55.90625 C 18.257812 -61.945312 26.347656 -64.96875 36.359375 -64.96875 Z M 23.25 -37.671875 L 49 -37.671875 C 49 -41.566406 47.863281 -44.707031 45.59375 -47.09375 C 43.332031 -49.476562 40.332031 -50.671875 36.59375 -50.671875 C 33.101562 -50.671875 30.164062 -49.5 27.78125 -47.15625 C 25.394531 -44.8125 23.882812 -41.648438 23.25 -37.671875 Z M 23.25 -37.671875 "/></g></g></g><g fill="#e30523" fill-opacity="1"><g transform="translate(697.172825, 750.43207)"><g><path d="M 31.234375 -65.21875 C 40.691406 -65.21875 49.515625 -62.789062 57.703125 -57.9375 L 50.671875 -44.59375 C 42.722656 -48.882812 35.96875 -51.03125 30.40625 -51.03125 C 26.1875 -51.03125 24.078125 -49.554688 24.078125 -46.609375 C 24.078125 -45.023438 25.226562 -43.695312 27.53125 -42.625 C 29.84375 -41.550781 32.664062 -40.578125 36 -39.703125 C 39.34375 -38.828125 42.660156 -37.734375 45.953125 -36.421875 C 49.253906 -35.109375 52.054688 -33.019531 54.359375 -30.15625 C 56.671875 -27.300781 57.828125 -23.804688 57.828125 -19.671875 C 57.828125 -13.234375 55.320312 -8.207031 50.3125 -4.59375 C 45.300781 -0.976562 38.785156 0.828125 30.765625 0.828125 C 19.390625 0.828125 9.769531 -2.1875 1.90625 -8.21875 L 8.46875 -21.34375 C 16.019531 -16.019531 23.609375 -13.359375 31.234375 -13.359375 C 35.921875 -13.359375 38.265625 -14.828125 38.265625 -17.765625 C 38.265625 -19.429688 37.128906 -20.820312 34.859375 -21.9375 C 32.597656 -23.050781 29.835938 -24.046875 26.578125 -24.921875 C 23.328125 -25.796875 20.070312 -26.882812 16.8125 -28.1875 C 13.550781 -29.5 10.785156 -31.546875 8.515625 -34.328125 C 6.253906 -37.109375 5.125 -40.609375 5.125 -44.828125 C 5.125 -51.265625 7.546875 -56.269531 12.390625 -59.84375 C 17.242188 -63.425781 23.523438 -65.21875 31.234375 -65.21875 Z M 31.234375 -65.21875 "/></g></g></g></svg>