<svg xmlns="http://www.w3.org/2000/svg" xmlns:xlink="http://www.w3.org/1999/xlink" width="1080" zoomAndPan="magnify" viewBox="0 0 810 809.999993" height="1080" preserveAspectRatio="xMidYMid meet" version="1.0"><defs><g/><clipPath id="e1f26438e2"><path d="M 352 31 L 603.476562 31 L 603.476562 356 L 352 356 Z M 352 31 " clip-rule="nonzero"/></clipPath><clipPath id="7e522783cb"><path d="M 230.25 477 L 277 477 L 277 530 L 230.25 530 Z M 230.25 477 " clip-rule="nonzero"/></clipPath><clipPath id="706c76eefb"><path d="M 230.25 488 L 277 488 L 277 530 L 230.25 530 Z M 230.25 488 " clip-rule="nonzero"/></clipPath></defs><g clip-path="url(#e1f26438e2)"><path fill="#e5e5e5" d="M 603.476562 45.214844 L 603.476562 341.738281 C 603.476562 349.046875 597.222656 355.3125 589.925781 355.3125 L 365.78125 355.3125 C 358.484375 355.3125 352.226562 349.046875 352.226562 341.738281 L 352.226562 45.214844 C 352.226562 37.90625 358.484375 31.640625 365.78125 31.640625 L 588.882812 31.640625 C 597.222656 31.640625 603.476562 36.859375 603.476562 45.214844 Z M 603.476562 45.214844 " fill-opacity="1" fill-rule="nonzero"/></g><path fill="#3f535a" d="M 584.710938 46.257812 L 370.992188 46.257812 C 368.90625 46.257812 367.867188 47.300781 367.867188 49.390625 C 368.90625 349.046875 364.738281 340.695312 370.992188 340.695312 L 584.710938 340.695312 C 586.796875 340.695312 587.839844 339.648438 587.839844 337.5625 L 587.839844 49.390625 C 588.882812 47.300781 586.796875 46.257812 584.710938 46.257812 Z M 581.585938 333.386719 L 374.121094 333.386719 L 374.121094 52.523438 L 581.585938 52.523438 Z M 581.585938 333.386719 " fill-opacity="1" fill-rule="nonzero"/><path fill="#3f535a" d="M 386.632812 62.964844 L 423.121094 62.964844 L 423.121094 99.507812 L 386.632812 99.507812 Z M 386.632812 62.964844 " fill-opacity="1" fill-rule="nonzero"/><path fill="#3f535a" d="M 532.585938 62.964844 L 569.074219 62.964844 L 569.074219 99.507812 L 532.585938 99.507812 Z M 532.585938 62.964844 " fill-opacity="1" fill-rule="nonzero"/><path fill="#3f535a" d="M 404.355469 154.84375 L 433.546875 154.84375 L 433.546875 184.078125 L 404.355469 184.078125 Z M 404.355469 154.84375 " fill-opacity="1" fill-rule="nonzero"/><path fill="#3f535a" d="M 463.777344 154.84375 L 492.96875 154.84375 L 492.96875 184.078125 L 463.777344 184.078125 Z M 463.777344 154.84375 " fill-opacity="1" fill-rule="nonzero"/><path fill="#3f535a" d="M 522.160156 154.84375 L 551.351562 154.84375 L 551.351562 184.078125 L 522.160156 184.078125 Z M 522.160156 154.84375 " fill-opacity="1" fill-rule="nonzero"/><path fill="#eb6024" d="M 458.566406 81.757812 C 458.566406 85.933594 455.4375 88.023438 452.3125 88.023438 C 449.183594 88.023438 446.054688 84.890625 446.054688 81.757812 C 446.054688 78.625 449.183594 75.492188 452.3125 75.492188 C 455.4375 74.449219 458.566406 77.582031 458.566406 81.757812 Z M 458.566406 81.757812 " fill-opacity="1" fill-rule="nonzero"/><path fill="#f8db54" d="M 484.628906 81.757812 C 484.628906 85.933594 481.5 88.023438 478.375 88.023438 C 475.246094 88.023438 472.117188 84.890625 472.117188 81.757812 C 472.117188 78.625 475.246094 75.492188 478.375 75.492188 C 481.5 74.449219 484.628906 77.582031 484.628906 81.757812 Z M 484.628906 81.757812 " fill-opacity="1" fill-rule="nonzero"/><path fill="#53b2e5" d="M 510.691406 81.757812 C 510.691406 85.933594 507.566406 88.023438 504.4375 88.023438 C 501.308594 88.023438 498.183594 84.890625 498.183594 81.757812 C 498.183594 78.625 501.308594 75.492188 504.4375 75.492188 C 508.609375 74.449219 510.691406 77.582031 510.691406 81.757812 Z M 510.691406 81.757812 " fill-opacity="1" fill-rule="nonzero"/><path fill="#eb6024" d="M 416.863281 255.078125 C 416.863281 264.476562 403.3125 263.429688 403.3125 255.078125 C 403.3125 251.945312 406.4375 248.8125 409.566406 248.8125 C 413.738281 248.8125 416.863281 251.945312 416.863281 255.078125 Z M 416.863281 255.078125 " fill-opacity="1" fill-rule="nonzero"/><path fill="#f8db54" d="M 443.96875 255.078125 C 443.96875 259.253906 440.84375 261.34375 437.714844 261.34375 C 434.585938 261.34375 431.460938 258.210938 431.460938 255.078125 C 431.460938 251.945312 434.585938 248.8125 437.714844 248.8125 C 440.84375 248.8125 443.96875 251.945312 443.96875 255.078125 Z M 443.96875 255.078125 " fill-opacity="1" fill-rule="nonzero"/><path fill="#53b2e5" d="M 470.035156 255.078125 C 470.035156 259.253906 466.90625 261.34375 463.777344 261.34375 C 460.652344 261.34375 457.523438 258.210938 457.523438 255.078125 C 457.523438 251.945312 460.652344 248.8125 463.777344 248.8125 C 466.90625 248.8125 470.035156 251.945312 470.035156 255.078125 Z M 470.035156 255.078125 " fill-opacity="1" fill-rule="nonzero"/><path fill="#475b64" d="M 499.226562 255.078125 C 499.226562 259.253906 496.097656 261.34375 492.96875 261.34375 C 489.84375 261.34375 486.714844 258.210938 486.714844 255.078125 C 486.714844 251.945312 489.84375 248.8125 492.96875 248.8125 C 496.097656 248.8125 499.226562 251.945312 499.226562 255.078125 Z M 499.226562 255.078125 " fill-opacity="1" fill-rule="nonzero"/><path fill="#f8db54" d="M 525.289062 255.078125 C 525.289062 259.253906 522.160156 261.34375 519.03125 261.34375 C 515.90625 261.34375 512.777344 258.210938 512.777344 255.078125 C 512.777344 251.945312 515.90625 248.8125 519.03125 248.8125 C 523.203125 248.8125 525.289062 251.945312 525.289062 255.078125 Z M 525.289062 255.078125 " fill-opacity="1" fill-rule="nonzero"/><path fill="#53b2e5" d="M 552.394531 255.078125 C 552.394531 259.253906 549.265625 261.34375 546.136719 261.34375 C 543.011719 261.34375 539.882812 258.210938 539.882812 255.078125 C 539.882812 251.945312 543.011719 248.8125 546.136719 248.8125 C 549.265625 248.8125 552.394531 251.945312 552.394531 255.078125 Z M 552.394531 255.078125 " fill-opacity="1" fill-rule="nonzero"/><path fill="#eb6024" d="M 430.417969 285.355469 C 430.417969 289.53125 427.289062 291.621094 424.164062 291.621094 C 415.820312 291.621094 415.820312 278.046875 424.164062 278.046875 C 427.289062 279.09375 430.417969 282.222656 430.417969 285.355469 Z M 430.417969 285.355469 " fill-opacity="1" fill-rule="nonzero"/><path fill="#475b64" d="M 456.480469 285.355469 C 456.480469 289.53125 453.351562 291.621094 450.226562 291.621094 C 447.097656 291.621094 443.96875 288.488281 443.96875 285.355469 C 443.96875 282.222656 447.097656 279.09375 450.226562 279.09375 C 453.351562 279.09375 456.480469 282.222656 456.480469 285.355469 Z M 456.480469 285.355469 " fill-opacity="1" fill-rule="nonzero"/><path fill="#53b2e5" d="M 483.585938 285.355469 C 483.585938 289.53125 480.460938 291.621094 477.332031 291.621094 C 474.203125 291.621094 471.078125 288.488281 471.078125 285.355469 C 471.078125 282.222656 474.203125 279.09375 477.332031 279.09375 C 480.460938 279.09375 483.585938 282.222656 483.585938 285.355469 Z M 483.585938 285.355469 " fill-opacity="1" fill-rule="nonzero"/><path fill="#eb6024" d="M 512.777344 285.355469 C 512.777344 289.53125 509.648438 291.621094 506.523438 291.621094 C 503.394531 291.621094 500.265625 288.488281 500.265625 285.355469 C 500.265625 282.222656 503.394531 279.09375 506.523438 279.09375 C 509.648438 279.09375 512.777344 282.222656 512.777344 285.355469 Z M 512.777344 285.355469 " fill-opacity="1" fill-rule="nonzero"/><path fill="#475b64" d="M 538.839844 285.355469 C 538.839844 289.53125 535.714844 291.621094 532.585938 291.621094 C 529.457031 291.621094 526.332031 288.488281 526.332031 285.355469 C 526.332031 282.222656 529.457031 279.09375 532.585938 279.09375 C 535.714844 279.09375 538.839844 282.222656 538.839844 285.355469 Z M 538.839844 285.355469 " fill-opacity="1" fill-rule="nonzero"/><path fill="#53b2e5" d="M 458.566406 310.414062 C 458.566406 314.589844 455.4375 316.679688 452.3125 316.679688 C 449.183594 316.679688 446.054688 313.546875 446.054688 310.414062 C 446.054688 307.28125 449.183594 304.152344 452.3125 304.152344 C 455.4375 304.152344 458.566406 307.28125 458.566406 310.414062 Z M 458.566406 310.414062 " fill-opacity="1" fill-rule="nonzero"/><path fill="#f8db54" d="M 484.628906 310.414062 C 484.628906 314.589844 481.5 316.679688 478.375 316.679688 C 475.246094 316.679688 472.117188 313.546875 472.117188 310.414062 C 472.117188 307.28125 475.246094 304.152344 478.375 304.152344 C 481.5 304.152344 484.628906 307.28125 484.628906 310.414062 Z M 484.628906 310.414062 " fill-opacity="1" fill-rule="nonzero"/><path fill="#53b2e5" d="M 510.691406 310.414062 C 510.691406 314.589844 507.566406 316.679688 504.4375 316.679688 C 501.308594 316.679688 498.183594 313.546875 498.183594 310.414062 C 498.183594 307.28125 501.308594 304.152344 504.4375 304.152344 C 508.609375 304.152344 510.691406 307.28125 510.691406 310.414062 Z M 510.691406 310.414062 " fill-opacity="1" fill-rule="nonzero"/><path fill="#3f535a" d="M 536.753906 115.167969 L 451.269531 115.167969 C 450.226562 115.167969 449.183594 116.210938 449.183594 117.257812 L 449.183594 231.0625 L 419.992188 231.0625 L 419.992188 144.402344 L 416.863281 144.402344 L 416.863281 232.109375 C 416.863281 233.152344 417.90625 234.195312 418.949219 234.195312 L 451.269531 234.195312 C 452.3125 234.195312 453.351562 233.152344 453.351562 232.109375 L 453.351562 118.300781 L 477.332031 118.300781 L 477.332031 142.316406 L 480.460938 142.316406 L 480.460938 118.300781 L 534.671875 118.300781 L 534.671875 142.316406 L 537.796875 142.316406 L 537.796875 116.210938 C 538.839844 115.167969 537.796875 115.167969 536.753906 115.167969 Z M 536.753906 115.167969 " fill-opacity="1" fill-rule="nonzero"/><path fill="#53b2e5" d="M 384.546875 193.476562 C 383.503906 198.695312 377.25 214.359375 369.949219 215.402344 C 365.78125 216.445312 362.652344 216.445312 363.695312 220.621094 C 364.738281 222.710938 365.78125 242.546875 360.566406 244.636719 C 355.355469 247.769531 361.609375 256.121094 360.566406 256.121094 C 360.566406 256.121094 296.972656 262.386719 295.929688 262.386719 C 294.886719 262.386719 276.121094 248.8125 276.121094 248.8125 C 276.121094 247.769531 277.164062 245.679688 275.082031 243.59375 C 272.996094 241.503906 267.78125 234.195312 270.910156 227.929688 C 271.953125 225.84375 272.996094 223.753906 272.996094 222.710938 C 274.039062 220.621094 274.039062 220.621094 274.039062 220.621094 C 274.039062 220.621094 255.273438 226.886719 252.144531 212.269531 C 249.015625 201.828125 247.972656 143.359375 266.738281 125.609375 C 269.867188 122.476562 275.082031 119.34375 282.378906 116.210938 C 299.058594 108.902344 301.144531 107.859375 302.1875 105.769531 C 303.230469 103.683594 302.1875 99.507812 305.3125 99.507812 C 308.441406 99.507812 335.546875 98.460938 335.546875 98.460938 C 335.546875 98.460938 339.71875 99.507812 339.71875 106.816406 C 339.71875 114.125 366.824219 110.992188 377.25 125.609375 C 378.289062 126.652344 378.289062 127.699219 379.332031 128.742188 C 386.632812 148.578125 385.589844 187.210938 384.546875 193.476562 Z M 384.546875 193.476562 " fill-opacity="1" fill-rule="nonzero"/><path fill="#f7cfb4" d="M 299.058594 179.902344 C 299.058594 179.902344 291.761719 181.992188 289.675781 180.945312 C 287.589844 180.945312 286.546875 179.902344 283.421875 179.902344 C 281.335938 181.992188 281.335938 183.035156 279.25 185.121094 C 277.164062 187.210938 276.121094 191.386719 277.164062 192.433594 C 278.207031 193.476562 280.292969 193.476562 281.335938 193.476562 C 283.421875 193.476562 290.71875 196.609375 294.886719 194.519531 C 299.058594 193.476562 299.058594 179.902344 299.058594 179.902344 Z M 299.058594 179.902344 " fill-opacity="1" fill-rule="nonzero"/><path fill="#53b2e5" d="M 267.78125 126.652344 C 278.207031 131.875 290.71875 162.152344 279.25 190.34375 C 279.25 191.386719 278.207031 192.433594 279.25 193.476562 C 279.25 194.519531 280.292969 194.519531 281.335938 194.519531 C 312.613281 198.695312 323.035156 213.3125 335.546875 214.359375 C 330.335938 219.578125 321.996094 218.535156 281.335938 222.710938 C 279.25 222.710938 276.121094 222.710938 275.082031 222.710938 " fill-opacity="1" fill-rule="nonzero"/><path fill="#f7cfb4" d="M 358.484375 192.433594 C 355.355469 193.476562 352.226562 194.519531 347.015625 194.519531 C 342.84375 193.476562 342.84375 194.519531 341.800781 193.476562 C 340.761719 192.433594 341.800781 187.210938 341.800781 187.210938 C 341.800781 187.210938 348.058594 177.8125 351.183594 176.769531 C 355.355469 174.683594 358.484375 173.636719 360.566406 174.683594 C 362.652344 175.726562 360.566406 179.902344 360.566406 179.902344 C 360.566406 179.902344 356.398438 179.902344 356.398438 180.945312 C 356.398438 180.945312 355.355469 183.035156 356.398438 184.078125 C 357.441406 185.121094 361.609375 181.992188 362.652344 185.121094 C 363.695312 188.253906 359.523438 193.476562 359.523438 193.476562 C 359.523438 193.476562 361.609375 191.386719 358.484375 192.433594 Z M 358.484375 192.433594 " fill-opacity="1" fill-rule="nonzero"/><path fill="#010101" d="M 377.25 126.652344 L 362.652344 215.402344 C 334.503906 211.226562 342.84375 221.667969 313.652344 203.917969 C 305.3125 198.695312 298.015625 198.695312 294.886719 196.609375 C 299.058594 194.519531 299.058594 180.945312 299.058594 180.945312 C 299.058594 180.945312 296.972656 181.992188 294.886719 181.992188 C 295.929688 178.859375 298.015625 176.769531 300.101562 177.8125 C 305.3125 178.859375 349.101562 185.121094 355.355469 185.121094 C 361.609375 185.121094 358.484375 173.636719 357.441406 163.195312 C 356.398438 154.84375 362.652344 138.136719 365.78125 131.875 C 366.824219 130.828125 367.867188 129.785156 368.90625 129.785156 Z M 377.25 126.652344 " fill-opacity="0.1" fill-rule="nonzero"/><path fill="#e8bc95" d="M 336.589844 94.285156 C 336.589844 94.285156 337.632812 104.726562 334.503906 106.816406 C 331.378906 109.949219 326.164062 113.078125 321.996094 115.167969 C 321.996094 115.167969 311.570312 110.992188 308.441406 107.859375 C 305.3125 104.726562 305.3125 101.59375 305.3125 96.375 C 305.3125 91.152344 306.355469 91.152344 307.398438 91.152344 C 307.398438 91.152344 336.589844 94.285156 336.589844 94.285156 Z M 336.589844 94.285156 " fill-opacity="1" fill-rule="nonzero"/><path fill="#010101" d="M 363.695312 219.578125 L 338.675781 218.535156 C 336.589844 220.621094 331.378906 218.535156 329.292969 218.535156 C 317.824219 220.621094 276.121094 222.710938 275.082031 222.710938 C 276.121094 222.710938 331.378906 217.488281 333.460938 216.445312 C 321.996094 214.359375 316.78125 209.136719 304.269531 203.917969 C 299.058594 201.828125 294.886719 198.695312 289.675781 197.652344 C 287.589844 196.609375 284.464844 195.5625 281.335938 195.5625 C 280.292969 195.5625 280.292969 195.5625 279.25 194.519531 C 278.207031 194.519531 277.164062 193.476562 277.164062 192.433594 C 277.164062 191.386719 277.164062 190.34375 278.207031 190.34375 L 279.25 188.253906 C 288.632812 161.109375 277.164062 131.875 267.78125 127.699219 C 278.207031 132.917969 290.71875 162.152344 281.335938 189.300781 C 281.335938 190.34375 280.292969 192.433594 280.292969 192.433594 C 280.292969 192.433594 280.292969 193.476562 281.335938 193.476562 C 281.335938 193.476562 282.378906 193.476562 283.421875 193.476562 C 286.546875 193.476562 288.632812 194.519531 291.761719 195.5625 C 318.867188 201.828125 325.121094 213.3125 337.632812 213.3125 Z M 363.695312 219.578125 " fill-opacity="0.1" fill-rule="nonzero"/><path fill="#eb6024" d="M 355.355469 480.605469 C 355.355469 480.605469 359.523438 491.042969 362.652344 495.222656 C 365.78125 499.398438 378.289062 512.972656 378.289062 520.28125 C 378.289062 527.589844 367.867188 533.851562 355.355469 528.632812 C 343.886719 522.367188 342.84375 508.792969 342.84375 508.792969 C 342.84375 508.792969 340.761719 509.839844 340.761719 509.839844 C 340.761719 509.839844 332.417969 502.53125 332.417969 500.441406 C 332.417969 498.351562 331.378906 484.78125 333.460938 479.558594 C 335.546875 474.339844 355.355469 480.605469 355.355469 480.605469 Z M 355.355469 480.605469 " fill-opacity="1" fill-rule="nonzero"/><path fill="#e5e5e5" d="M 378.289062 519.234375 C 378.289062 526.542969 367.867188 532.808594 355.355469 527.589844 C 343.886719 522.367188 342.84375 508.792969 342.84375 508.792969 C 342.84375 508.792969 340.761719 509.839844 340.761719 509.839844 C 340.761719 509.839844 332.417969 502.53125 332.417969 500.441406 C 332.417969 499.398438 331.378906 494.175781 332.417969 488.957031 C 332.417969 492.089844 332.417969 494.175781 332.417969 494.175781 C 332.417969 496.265625 340.761719 503.574219 340.761719 503.574219 C 340.761719 503.574219 342.84375 502.53125 342.84375 502.53125 C 342.84375 502.53125 343.886719 517.148438 355.355469 521.324219 C 365.78125 525.5 375.164062 521.324219 377.25 516.101562 C 377.25 517.148438 378.289062 518.191406 378.289062 519.234375 Z M 378.289062 519.234375 " fill-opacity="1" fill-rule="nonzero"/><g clip-path="url(#7e522783cb)"><path fill="#eb6024" d="M 253.1875 480.605469 C 253.1875 480.605469 249.015625 491.042969 245.890625 495.222656 C 242.761719 498.351562 230.25 512.972656 230.25 519.234375 C 230.25 526.542969 240.675781 532.808594 253.1875 527.589844 C 264.65625 522.367188 265.699219 508.792969 265.699219 508.792969 C 265.699219 508.792969 267.78125 509.839844 267.78125 509.839844 C 267.78125 509.839844 276.121094 502.53125 276.121094 500.441406 C 276.121094 498.351562 277.164062 484.78125 275.082031 479.558594 C 272.996094 474.339844 253.1875 480.605469 253.1875 480.605469 Z M 253.1875 480.605469 " fill-opacity="1" fill-rule="nonzero"/></g><g clip-path="url(#706c76eefb)"><path fill="#e5e5e5" d="M 230.25 519.234375 C 230.25 526.542969 240.675781 532.808594 253.1875 527.589844 C 264.65625 522.367188 265.699219 508.792969 265.699219 508.792969 C 265.699219 508.792969 267.78125 509.839844 267.78125 509.839844 C 267.78125 509.839844 276.121094 502.53125 276.121094 500.441406 C 276.121094 499.398438 277.164062 494.175781 276.121094 488.957031 C 276.121094 492.089844 276.121094 494.175781 276.121094 494.175781 C 276.121094 496.265625 267.78125 503.574219 267.78125 503.574219 C 267.78125 503.574219 265.699219 502.53125 265.699219 502.53125 C 265.699219 502.53125 264.65625 517.148438 253.1875 521.324219 C 242.761719 525.5 233.378906 521.324219 231.292969 516.101562 C 231.292969 517.148438 230.25 518.191406 230.25 519.234375 Z M 230.25 519.234375 " fill-opacity="1" fill-rule="nonzero"/></g><path fill="#f7cfb4" d="M 352.226562 73.402344 C 351.183594 78.625 349.101562 82.800781 347.015625 81.757812 C 344.929688 81.757812 344.929688 76.535156 345.972656 71.316406 C 347.015625 66.09375 349.101562 61.917969 351.183594 62.964844 C 352.226562 62.964844 353.269531 68.183594 352.226562 73.402344 Z M 352.226562 73.402344 " fill-opacity="1" fill-rule="nonzero"/><path fill="#f7cfb4" d="M 290.542969 72.65625 C 290.40625 72.054688 290.292969 71.453125 290.199219 70.855469 C 290.105469 70.253906 290.035156 69.667969 289.988281 69.097656 C 289.941406 68.523438 289.914062 67.972656 289.914062 67.449219 C 289.914062 66.921875 289.9375 66.429688 289.984375 65.972656 C 290.027344 65.515625 290.097656 65.101562 290.1875 64.726562 C 290.28125 64.355469 290.394531 64.035156 290.527344 63.761719 C 290.660156 63.492188 290.8125 63.273438 290.984375 63.113281 C 291.152344 62.949219 291.339844 62.847656 291.539062 62.800781 C 291.738281 62.757812 291.949219 62.769531 292.171875 62.84375 C 292.394531 62.917969 292.625 63.046875 292.863281 63.238281 C 293.097656 63.425781 293.339844 63.667969 293.582031 63.964844 C 293.820312 64.261719 294.0625 64.609375 294.296875 65.003906 C 294.535156 65.394531 294.765625 65.832031 294.988281 66.304688 C 295.210938 66.78125 295.425781 67.289062 295.625 67.828125 C 295.828125 68.367188 296.015625 68.925781 296.1875 69.507812 C 296.359375 70.089844 296.511719 70.683594 296.644531 71.285156 C 296.78125 71.886719 296.894531 72.488281 296.988281 73.085938 C 297.082031 73.683594 297.152344 74.273438 297.199219 74.84375 C 297.25 75.417969 297.273438 75.96875 297.273438 76.492188 C 297.273438 77.019531 297.253906 77.511719 297.207031 77.96875 C 297.160156 78.425781 297.089844 78.839844 297 79.210938 C 296.90625 79.585938 296.792969 79.90625 296.660156 80.179688 C 296.527344 80.449219 296.375 80.667969 296.207031 80.828125 C 296.035156 80.992188 295.851562 81.09375 295.648438 81.140625 C 295.449219 81.183594 295.238281 81.171875 295.015625 81.097656 C 294.792969 81.023438 294.5625 80.890625 294.324219 80.703125 C 294.089844 80.515625 293.851562 80.273438 293.609375 79.976562 C 293.367188 79.679688 293.128906 79.332031 292.890625 78.9375 C 292.652344 78.546875 292.421875 78.109375 292.199219 77.636719 C 291.976562 77.160156 291.761719 76.652344 291.5625 76.113281 C 291.359375 75.574219 291.171875 75.015625 291.003906 74.433594 C 290.832031 73.851562 290.675781 73.257812 290.542969 72.65625 Z M 290.542969 72.65625 " fill-opacity="1" fill-rule="nonzero"/><path fill="#f7cfb4" d="M 348.058594 70.273438 C 348.058594 84.890625 336.589844 104.726562 321.996094 104.726562 C 307.398438 104.726562 294.886719 84.890625 294.886719 70.273438 C 294.886719 55.65625 306.355469 43.125 320.953125 43.125 C 335.546875 44.167969 348.058594 55.65625 348.058594 70.273438 Z M 348.058594 70.273438 " fill-opacity="1" fill-rule="nonzero"/><path fill="#475b64" d="M 293.847656 58.785156 C 294.886719 64.007812 296.972656 69.226562 299.058594 73.402344 C 299.058594 68.183594 300.101562 62.964844 302.1875 58.785156 Z M 293.847656 58.785156 " fill-opacity="1" fill-rule="nonzero"/><path fill="#475b64" d="M 340.761719 58.785156 C 342.84375 64.007812 343.886719 68.183594 343.886719 73.402344 C 347.015625 69.226562 348.058594 64.007812 349.101562 58.785156 Z M 340.761719 58.785156 " fill-opacity="1" fill-rule="nonzero"/><path fill="#f8db54" d="M 349.101562 57.742188 C 348.058594 43.125 335.546875 30.597656 320.953125 30.597656 C 306.355469 30.597656 293.847656 42.082031 292.804688 57.742188 Z M 349.101562 57.742188 " fill-opacity="1" fill-rule="nonzero"/><path fill="#eeba1d" d="M 351.183594 59.832031 C 351.183594 61.917969 350.140625 62.964844 348.058594 62.964844 L 292.804688 62.964844 C 290.71875 62.964844 289.675781 61.917969 289.675781 59.832031 C 289.675781 57.742188 290.71875 56.699219 292.804688 56.699219 L 348.058594 56.699219 C 350.140625 56.699219 351.183594 57.742188 351.183594 59.832031 Z M 351.183594 59.832031 " fill-opacity="1" fill-rule="nonzero"/><path fill="#eeba1d" d="M 312.613281 30.597656 L 319.910156 47.300781 L 327.207031 30.597656 C 328.25 27.464844 312.613281 27.464844 312.613281 30.597656 Z M 312.613281 30.597656 " fill-opacity="1" fill-rule="nonzero"/><path fill="#53b2e5" d="M 363.695312 218.535156 C 335.546875 213.3125 343.886719 224.800781 314.695312 206.003906 C 304.269531 199.742188 295.929688 199.742188 293.847656 196.609375 C 291.761719 193.476562 294.886719 177.8125 301.144531 178.859375 C 306.355469 179.902344 351.183594 186.167969 357.441406 186.167969 C 363.695312 186.167969 360.566406 174.683594 359.523438 163.195312 C 358.484375 151.710938 368.90625 128.742188 368.90625 128.742188 L 378.289062 126.652344 " fill-opacity="1" fill-rule="nonzero"/><path fill="#3f535a" d="M 362.652344 400.207031 C 363.695312 408.5625 356.398438 479.558594 356.398438 481.648438 C 356.398438 484.78125 333.460938 490 331.378906 479.558594 C 328.25 467.03125 332.417969 403.339844 331.378906 394.988281 C 330.335938 387.679688 324.078125 314.589844 316.78125 312.503906 C 310.527344 311.460938 287.589844 403.339844 286.546875 407.515625 C 285.503906 413.78125 276.121094 481.648438 276.121094 483.734375 C 276.121094 487.914062 250.058594 494.175781 249.015625 485.824219 C 247.972656 477.472656 256.316406 414.824219 257.355469 399.164062 C 258.398438 383.503906 261.527344 297.886719 265.699219 280.136719 C 268.824219 266.5625 272.996094 261.34375 275.082031 252.988281 C 276.121094 250.902344 276.121094 247.769531 277.164062 244.636719 C 305.3125 258.210938 333.460938 259.253906 361.609375 244.636719 C 361.609375 247.769531 362.652344 259.253906 366.824219 267.605469 C 377.25 285.355469 360.566406 373.0625 362.652344 400.207031 Z M 362.652344 400.207031 " fill-opacity="1" fill-rule="nonzero"/><path fill="#010101" d="M 331.378906 441.972656 C 331.378906 421.089844 332.417969 398.121094 332.417969 394.988281 C 331.378906 387.679688 325.121094 314.589844 317.824219 312.503906 C 311.570312 311.460938 288.632812 403.339844 287.589844 407.515625 C 287.589844 409.605469 285.503906 424.222656 283.421875 439.882812 C 277.164062 427.355469 286.546875 388.722656 289.675781 375.148438 C 298.015625 344.871094 306.355469 314.589844 319.910156 286.402344 C 337.632812 356.355469 336.589844 425.265625 331.378906 441.972656 Z M 331.378906 441.972656 " fill-opacity="0.1" fill-rule="nonzero"/><path fill="#010101" d="M 362.652344 400.207031 C 362.652344 404.382812 361.609375 420.046875 360.566406 435.707031 C 360.566406 433.617188 359.523438 431.53125 359.523438 429.441406 C 352.226562 374.105469 372.035156 317.722656 362.652344 263.429688 C 361.609375 259.253906 361.609375 255.078125 361.609375 251.945312 C 361.609375 250.902344 361.609375 250.902344 362.652344 249.855469 C 363.695312 255.078125 364.738281 262.386719 367.867188 267.605469 C 377.25 285.355469 360.566406 373.0625 362.652344 400.207031 Z M 362.652344 400.207031 " fill-opacity="0.1" fill-rule="nonzero"/><path fill="#010101" d="M 275.082031 252.988281 C 275.082031 258.210938 272.996094 267.605469 271.953125 268.652344 C 265.699219 294.753906 269.867188 320.855469 266.738281 348.003906 C 264.65625 364.707031 260.484375 380.371094 258.398438 397.074219 C 257.355469 403.339844 256.316406 436.75 252.144531 440.929688 C 254.230469 424.222656 256.316406 406.472656 256.316406 399.164062 C 257.355469 383.503906 260.484375 297.886719 264.65625 280.136719 C 268.824219 266.5625 272.996094 261.34375 275.082031 252.988281 Z M 275.082031 252.988281 " fill-opacity="0.1" fill-rule="nonzero"/><g fill="#e30523" fill-opacity="1"><g transform="translate(73.262834, 751.789281)"><g><path d="M 74.0625 -68.1875 L 48.234375 -68.1875 L 48.234375 0 L 26.4375 0 L 26.4375 -68.1875 L 0.859375 -68.1875 L 0.859375 -85.8125 L 74.0625 -85.8125 Z M 74.0625 -68.1875 "/></g></g></g><g fill="#e30523" fill-opacity="1"><g transform="translate(148.055959, 751.789281)"><g><path d="M 38.0625 -66.953125 C 47.125 -66.953125 54.164062 -64.847656 59.1875 -60.640625 C 64.207031 -56.441406 66.753906 -50.59375 66.828125 -43.09375 L 66.828125 0 L 46.140625 0 L 46.140625 -7.59375 C 41.816406 -1.875 35.085938 0.984375 25.953125 0.984375 C 19.015625 0.984375 13.503906 -0.929688 9.421875 -4.765625 C 5.347656 -8.609375 3.3125 -13.585938 3.3125 -19.703125 C 3.3125 -25.984375 5.492188 -30.859375 9.859375 -34.328125 C 14.222656 -37.796875 20.484375 -39.570312 28.640625 -39.65625 L 46.03125 -39.65625 L 46.03125 -40.640625 C 46.03125 -43.898438 44.945312 -46.445312 42.78125 -48.28125 C 40.613281 -50.125 37.410156 -51.046875 33.171875 -51.046875 C 27.210938 -51.046875 20.644531 -49.207031 13.46875 -45.53125 L 7.46875 -59.484375 C 18.15625 -64.460938 28.351562 -66.953125 38.0625 -66.953125 Z M 32.4375 -13.34375 C 35.78125 -13.34375 38.71875 -14.175781 41.25 -15.84375 C 43.78125 -17.519531 45.375 -19.707031 46.03125 -22.40625 L 46.03125 -28.28125 L 32.6875 -28.28125 C 26.320312 -28.28125 23.140625 -25.910156 23.140625 -21.171875 C 23.140625 -18.722656 23.953125 -16.804688 25.578125 -15.421875 C 27.210938 -14.035156 29.5 -13.34375 32.4375 -13.34375 Z M 32.4375 -13.34375 "/></g></g></g><g fill="#e30523" fill-opacity="1"><g transform="translate(221.502605, 751.789281)"><g><path d="M 49.9375 -66.71875 C 59.238281 -66.71875 66.722656 -63.59375 72.390625 -57.34375 C 78.066406 -51.101562 80.90625 -42.882812 80.90625 -32.6875 C 80.90625 -22.644531 78.128906 -14.5625 72.578125 -8.4375 C 67.035156 -2.320312 59.65625 0.734375 50.4375 0.734375 C 41.78125 0.734375 35.046875 -2.445312 30.234375 -8.8125 L 30.234375 0 L 9.0625 0 L 9.0625 -90.828125 L 30.234375 -90.828125 L 30.234375 -57.28125 C 35.128906 -63.570312 41.695312 -66.71875 49.9375 -66.71875 Z M 44.796875 -16.03125 C 49.203125 -16.03125 52.769531 -17.640625 55.5 -20.859375 C 58.238281 -24.085938 59.609375 -28.234375 59.609375 -33.296875 C 59.609375 -38.359375 58.238281 -42.476562 55.5 -45.65625 C 52.769531 -48.84375 49.203125 -50.4375 44.796875 -50.4375 C 40.554688 -50.4375 37.066406 -48.84375 34.328125 -45.65625 C 31.597656 -42.476562 30.234375 -38.359375 30.234375 -33.296875 C 30.234375 -28.148438 31.578125 -23.984375 34.265625 -20.796875 C 36.960938 -17.617188 40.472656 -16.03125 44.796875 -16.03125 Z M 44.796875 -16.03125 "/></g></g></g><g fill="#e30523" fill-opacity="1"><g transform="translate(305.354174, 751.789281)"><g><path d="M 30.234375 0 L 9.0625 0 L 9.0625 -90.828125 L 30.234375 -90.828125 Z M 30.234375 0 "/></g></g></g><g fill="#e30523" fill-opacity="1"><g transform="translate(344.64817, 751.789281)"><g><path d="M 37.328125 -66.71875 C 48.753906 -66.71875 57.34375 -63.207031 63.09375 -56.1875 C 68.851562 -49.164062 71.363281 -39.535156 70.625 -27.296875 L 24.234375 -27.296875 C 25.296875 -23.378906 27.171875 -20.359375 29.859375 -18.234375 C 32.554688 -16.117188 35.863281 -15.0625 39.78125 -15.0625 C 45.820312 -15.0625 51.085938 -17.300781 55.578125 -21.78125 L 66.71875 -10.890625 C 59.613281 -3.140625 50.023438 0.734375 37.953125 0.734375 C 27.253906 0.734375 18.742188 -2.320312 12.421875 -8.4375 C 6.097656 -14.5625 2.9375 -22.6875 2.9375 -32.8125 C 2.9375 -43.007812 6.097656 -51.207031 12.421875 -57.40625 C 18.742188 -63.613281 27.046875 -66.71875 37.328125 -66.71875 Z M 23.875 -38.6875 L 50.3125 -38.6875 C 50.3125 -42.675781 49.144531 -45.894531 46.8125 -48.34375 C 44.488281 -50.789062 41.410156 -52.015625 37.578125 -52.015625 C 33.984375 -52.015625 30.960938 -50.8125 28.515625 -48.40625 C 26.066406 -46 24.519531 -42.757812 23.875 -38.6875 Z M 23.875 -38.6875 "/></g></g></g><g fill="#e30523" fill-opacity="1"><g transform="translate(418.339619, 751.789281)"><g><path d="M 29.625 -65.984375 L 29.625 -54.84375 C 34.269531 -62.757812 41.410156 -66.796875 51.046875 -66.953125 L 51.046875 -47.859375 C 45.003906 -48.429688 40.066406 -47.429688 36.234375 -44.859375 C 32.398438 -42.285156 30.195312 -38.632812 29.625 -33.90625 L 29.625 0 L 8.453125 0 L 8.453125 -65.984375 Z M 29.625 -65.984375 "/></g></g></g><g fill="#e30523" fill-opacity="1"><g transform="translate(470.609154, 751.789281)"><g><path d="M 11.078125 -92.96875 C 13.160156 -95.050781 15.832031 -96.09375 19.09375 -96.09375 C 22.351562 -96.09375 25.023438 -95.050781 27.109375 -92.96875 C 29.191406 -90.882812 30.234375 -88.207031 30.234375 -84.9375 C 30.234375 -81.675781 29.191406 -78.984375 27.109375 -76.859375 C 25.023438 -74.742188 22.351562 -73.6875 19.09375 -73.6875 C 15.832031 -73.6875 13.160156 -74.742188 11.078125 -76.859375 C 8.992188 -78.984375 7.953125 -81.675781 7.953125 -84.9375 C 7.953125 -88.207031 8.992188 -90.882812 11.078125 -92.96875 Z M 29.5 0 L 8.453125 0 L 8.453125 -65.984375 L 29.5 -65.984375 Z M 29.5 0 "/></g></g></g><g fill="#e30523" fill-opacity="1"><g transform="translate(508.679015, 751.789281)"><g><path d="M 32.078125 -66.953125 C 41.785156 -66.953125 50.84375 -64.460938 59.25 -59.484375 L 52.015625 -45.78125 C 43.859375 -50.1875 36.925781 -52.390625 31.21875 -52.390625 C 26.882812 -52.390625 24.71875 -50.878906 24.71875 -47.859375 C 24.71875 -46.222656 25.898438 -44.851562 28.265625 -43.75 C 30.640625 -42.65625 33.539062 -41.660156 36.96875 -40.765625 C 40.394531 -39.867188 43.800781 -38.742188 47.1875 -37.390625 C 50.570312 -36.046875 53.445312 -33.90625 55.8125 -30.96875 C 58.175781 -28.03125 59.359375 -24.441406 59.359375 -20.203125 C 59.359375 -13.585938 56.785156 -8.421875 51.640625 -4.703125 C 46.503906 -0.992188 39.816406 0.859375 31.578125 0.859375 C 19.910156 0.859375 10.035156 -2.242188 1.953125 -8.453125 L 8.6875 -21.90625 C 16.4375 -16.4375 24.234375 -13.703125 32.078125 -13.703125 C 36.890625 -13.703125 39.296875 -15.210938 39.296875 -18.234375 C 39.296875 -19.953125 38.128906 -21.378906 35.796875 -22.515625 C 33.472656 -23.660156 30.640625 -24.679688 27.296875 -25.578125 C 23.953125 -26.472656 20.601562 -27.59375 17.25 -28.9375 C 13.90625 -30.289062 11.070312 -32.394531 8.75 -35.25 C 6.425781 -38.101562 5.265625 -41.695312 5.265625 -46.03125 C 5.265625 -52.632812 7.753906 -57.769531 12.734375 -61.4375 C 17.710938 -65.113281 24.160156 -66.953125 32.078125 -66.953125 Z M 32.078125 -66.953125 "/></g></g></g><g fill="#e30523" fill-opacity="1"><g transform="translate(571.475934, 751.789281)"><g><path d="M 46.875 -18.234375 L 51.046875 -3.546875 C 45.898438 -0.523438 40.023438 0.984375 33.421875 0.984375 C 26.890625 0.984375 21.601562 -0.832031 17.5625 -4.46875 C 13.519531 -8.101562 11.5 -13.265625 11.5 -19.953125 L 11.5 -49.078125 L 2.328125 -49.078125 L 2.328125 -62.921875 L 11.5 -62.921875 L 11.5 -81.28125 L 32.5625 -81.28125 L 32.5625 -63.046875 L 49.8125 -63.046875 L 49.8125 -49.078125 L 32.5625 -49.078125 L 32.5625 -23.25 C 32.5625 -20.726562 33.070312 -18.875 34.09375 -17.6875 C 35.113281 -16.5 36.644531 -15.945312 38.6875 -16.03125 C 40.644531 -16.03125 43.375 -16.765625 46.875 -18.234375 Z M 46.875 -18.234375 "/></g></g></g><g fill="#e30523" fill-opacity="1"><g transform="translate(624.724685, 751.789281)"><g><path d="M 38.0625 -66.953125 C 47.125 -66.953125 54.164062 -64.847656 59.1875 -60.640625 C 64.207031 -56.441406 66.753906 -50.59375 66.828125 -43.09375 L 66.828125 0 L 46.140625 0 L 46.140625 -7.59375 C 41.816406 -1.875 35.085938 0.984375 25.953125 0.984375 C 19.015625 0.984375 13.503906 -0.929688 9.421875 -4.765625 C 5.347656 -8.609375 3.3125 -13.585938 3.3125 -19.703125 C 3.3125 -25.984375 5.492188 -30.859375 9.859375 -34.328125 C 14.222656 -37.796875 20.484375 -39.570312 28.640625 -39.65625 L 46.03125 -39.65625 L 46.03125 -40.640625 C 46.03125 -43.898438 44.945312 -46.445312 42.78125 -48.28125 C 40.613281 -50.125 37.410156 -51.046875 33.171875 -51.046875 C 27.210938 -51.046875 20.644531 -49.207031 13.46875 -45.53125 L 7.46875 -59.484375 C 18.15625 -64.460938 28.351562 -66.953125 38.0625 -66.953125 Z M 32.4375 -13.34375 C 35.78125 -13.34375 38.71875 -14.175781 41.25 -15.84375 C 43.78125 -17.519531 45.375 -19.707031 46.03125 -22.40625 L 46.03125 -28.28125 L 32.6875 -28.28125 C 26.320312 -28.28125 23.140625 -25.910156 23.140625 -21.171875 C 23.140625 -18.722656 23.953125 -16.804688 25.578125 -15.421875 C 27.210938 -14.035156 29.5 -13.34375 32.4375 -13.34375 Z M 32.4375 -13.34375 "/></g></g></g><g fill="#e30523" fill-opacity="1"><g transform="translate(698.171331, 751.789281)"><g><path d="M 32.078125 -66.953125 C 41.785156 -66.953125 50.84375 -64.460938 59.25 -59.484375 L 52.015625 -45.78125 C 43.859375 -50.1875 36.925781 -52.390625 31.21875 -52.390625 C 26.882812 -52.390625 24.71875 -50.878906 24.71875 -47.859375 C 24.71875 -46.222656 25.898438 -44.851562 28.265625 -43.75 C 30.640625 -42.65625 33.539062 -41.660156 36.96875 -40.765625 C 40.394531 -39.867188 43.800781 -38.742188 47.1875 -37.390625 C 50.570312 -36.046875 53.445312 -33.90625 55.8125 -30.96875 C 58.175781 -28.03125 59.359375 -24.441406 59.359375 -20.203125 C 59.359375 -13.585938 56.785156 -8.421875 51.640625 -4.703125 C 46.503906 -0.992188 39.816406 0.859375 31.578125 0.859375 C 19.910156 0.859375 10.035156 -2.242188 1.953125 -8.453125 L 8.6875 -21.90625 C 16.4375 -16.4375 24.234375 -13.703125 32.078125 -13.703125 C 36.890625 -13.703125 39.296875 -15.210938 39.296875 -18.234375 C 39.296875 -19.953125 38.128906 -21.378906 35.796875 -22.515625 C 33.472656 -23.660156 30.640625 -24.679688 27.296875 -25.578125 C 23.953125 -26.472656 20.601562 -27.59375 17.25 -28.9375 C 13.90625 -30.289062 11.070312 -32.394531 8.75 -35.25 C 6.425781 -38.101562 5.265625 -41.695312 5.265625 -46.03125 C 5.265625 -52.632812 7.753906 -57.769531 12.734375 -61.4375 C 17.710938 -65.113281 24.160156 -66.953125 32.078125 -66.953125 Z M 32.078125 -66.953125 "/></g></g></g></svg>