<svg xmlns="http://www.w3.org/2000/svg" xmlns:xlink="http://www.w3.org/1999/xlink" width="1080" zoomAndPan="magnify" viewBox="0 0 810 809.999993" height="1080" preserveAspectRatio="xMidYMid meet" version="1.0"><defs><g/><clipPath id="40f1712e9c"><path d="M 378 458 L 462 458 L 462 549.328125 L 378 549.328125 Z M 378 458 " clip-rule="nonzero"/></clipPath><clipPath id="0a8a891cde"><path d="M 368 255.328125 L 388 255.328125 L 388 309 L 368 309 Z M 368 255.328125 " clip-rule="nonzero"/></clipPath><clipPath id="340cc4ef64"><path d="M 509 414 L 526.738281 414 L 526.738281 466 L 509 466 Z M 509 414 " clip-rule="nonzero"/></clipPath></defs><path fill="#385f82" d="M 428.5625 454.96875 L 418.984375 462.617188 C 417.101562 464.121094 416.796875 466.863281 418.292969 468.746094 C 419.15625 469.824219 420.421875 470.386719 421.703125 470.386719 C 422.652344 470.386719 423.613281 470.074219 424.414062 469.433594 L 433.992188 461.785156 C 435.871094 460.285156 436.179688 457.539062 434.679688 455.660156 C 433.179688 453.777344 430.441406 453.46875 428.5625 454.96875 Z M 428.5625 454.96875 " fill-opacity="1" fill-rule="nonzero"/><g clip-path="url(#40f1712e9c)"><path fill="#385f82" d="M 456.945312 491.371094 C 459.351562 491.371094 461.296875 489.417969 461.296875 487.011719 C 461.296875 484.605469 459.351562 482.652344 456.945312 482.652344 L 450.273438 482.652344 L 450.273438 462.992188 C 450.273438 460.585938 448.324219 458.636719 445.917969 458.636719 C 443.511719 458.636719 441.5625 460.585938 441.5625 462.992188 L 441.5625 486.59375 L 427.125 475.058594 C 425.242188 473.558594 422.503906 473.867188 421.003906 475.75 C 419.503906 477.632812 419.8125 480.375 421.691406 481.875 L 439.320312 495.953125 L 415.265625 515.164062 L 410.441406 511.3125 C 408.558594 509.8125 405.820312 510.121094 404.320312 512 C 402.820312 513.882812 403.128906 516.625 405.007812 518.128906 L 408.28125 520.742188 L 387.5625 537.289062 L 387.5625 522.789062 C 387.5625 520.378906 385.617188 518.429688 383.210938 518.429688 C 380.804688 518.429688 378.855469 520.378906 378.855469 522.789062 L 378.855469 544.972656 C 378.855469 547.378906 380.804688 549.328125 383.210938 549.328125 C 383.507812 549.328125 383.800781 549.300781 384.082031 549.242188 C 384.363281 549.296875 384.648438 549.328125 384.933594 549.328125 C 385.886719 549.328125 386.84375 549.019531 387.644531 548.378906 L 415.265625 526.320312 L 442.886719 548.378906 C 443.6875 549.019531 444.648438 549.328125 445.597656 549.328125 C 445.648438 549.328125 445.703125 549.324219 445.753906 549.320312 C 445.808594 549.324219 445.863281 549.328125 445.917969 549.328125 C 448.324219 549.328125 450.273438 547.378906 450.273438 544.972656 L 450.273438 514.277344 L 456.945312 514.277344 C 459.351562 514.277344 461.300781 512.324219 461.300781 509.917969 C 461.300781 507.507812 459.351562 505.558594 456.945312 505.558594 L 450.273438 505.558594 L 450.273438 491.371094 Z M 441.5625 505.316406 L 441.5625 536.167969 L 422.246094 520.742188 Z M 441.5625 505.316406 " fill-opacity="1" fill-rule="nonzero"/></g><path fill="#385f82" d="M 378.855469 439.382812 C 378.855469 441.789062 380.804688 443.742188 383.207031 443.742188 C 385.613281 443.742188 387.5625 441.789062 387.5625 439.382812 L 387.5625 405.042969 L 408.28125 421.589844 L 385.75 440.34375 C 383.871094 441.847656 383.5625 444.589844 385.0625 446.472656 C 385.921875 447.550781 387.1875 448.113281 388.46875 448.113281 C 389.421875 448.113281 390.378906 447.800781 391.179688 447.160156 L 415.265625 427.164062 L 427.238281 436.535156 C 428.039062 437.175781 428.996094 437.488281 429.949219 437.488281 C 431.230469 437.488281 432.496094 436.925781 433.355469 435.847656 C 434.855469 433.964844 434.546875 431.222656 432.667969 429.71875 L 422.246094 421.589844 L 441.5625 406.164062 L 441.5625 421.582031 C 441.5625 423.992188 443.511719 425.941406 445.917969 425.941406 C 448.324219 425.941406 450.273438 423.992188 450.273438 421.582031 L 450.273438 369.539062 C 450.273438 367.132812 448.324219 365.179688 445.917969 365.179688 C 443.511719 365.179688 441.5625 367.132812 441.5625 369.539062 L 441.5625 387.441406 L 430.90625 378.929688 C 429.027344 377.429688 426.289062 377.738281 424.789062 379.617188 C 423.289062 381.5 423.597656 384.242188 425.476562 385.746094 L 439.320312 396.800781 L 415.265625 416.011719 L 391.210938 396.800781 L 403.273438 387.164062 C 405.15625 385.664062 405.460938 382.921875 403.964844 381.039062 C 402.464844 379.15625 399.722656 378.847656 397.84375 380.351562 L 387.5625 388.558594 L 387.5625 355.464844 L 404.5625 369.042969 C 405.363281 369.679688 406.320312 369.992188 407.273438 369.992188 C 408.554688 369.992188 409.820312 369.429688 410.679688 368.351562 C 412.179688 366.46875 411.871094 363.726562 409.992188 362.226562 L 395.964844 351.023438 L 430.238281 351.023438 C 432.644531 351.023438 434.59375 349.070312 434.59375 346.664062 C 434.59375 344.257812 432.644531 342.304688 430.238281 342.304688 L 387.5625 342.304688 L 387.5625 326.191406 C 387.5625 323.78125 385.613281 321.832031 383.210938 321.832031 C 380.804688 321.832031 378.855469 323.78125 378.855469 326.191406 L 378.855469 368.664062 L 372.179688 368.664062 C 369.777344 368.664062 367.828125 370.617188 367.828125 373.023438 C 367.828125 375.429688 369.777344 377.382812 372.179688 377.382812 L 378.855469 377.382812 L 378.855469 391.566406 L 372.179688 391.566406 C 369.777344 391.566406 367.828125 393.519531 367.828125 395.925781 C 367.828125 398.335938 369.777344 400.285156 372.179688 400.285156 L 378.855469 400.285156 Z M 378.855469 439.382812 " fill-opacity="1" fill-rule="nonzero"/><path fill="#f4e6d3" d="M 427.230469 481.167969 C 427.230469 482.621094 427.160156 484.070312 427.019531 485.515625 C 426.875 486.960938 426.664062 488.394531 426.382812 489.820312 C 426.097656 491.246094 425.746094 492.652344 425.324219 494.042969 C 424.902344 495.433594 424.414062 496.796875 423.859375 498.140625 C 423.304688 499.480469 422.6875 500.792969 422 502.074219 C 421.316406 503.355469 420.574219 504.597656 419.765625 505.808594 C 418.960938 507.015625 418.097656 508.179688 417.175781 509.300781 C 416.257812 510.425781 415.285156 511.5 414.257812 512.527344 C 413.230469 513.554688 412.160156 514.527344 411.035156 515.449219 C 409.914062 516.371094 408.75 517.234375 407.546875 518.042969 C 406.339844 518.847656 405.097656 519.59375 403.816406 520.28125 C 402.535156 520.964844 401.226562 521.585938 399.886719 522.140625 C 398.546875 522.695312 397.183594 523.183594 395.792969 523.605469 C 394.40625 524.027344 393 524.378906 391.578125 524.664062 C 390.152344 524.949219 388.71875 525.160156 387.277344 525.300781 C 385.832031 525.445312 384.386719 525.515625 382.933594 525.515625 C 381.484375 525.515625 380.035156 525.445312 378.59375 525.300781 C 377.148438 525.160156 375.714844 524.949219 374.292969 524.664062 C 372.871094 524.378906 371.464844 524.027344 370.074219 523.605469 C 368.6875 523.183594 367.324219 522.695312 365.980469 522.140625 C 364.640625 521.585938 363.332031 520.964844 362.050781 520.28125 C 360.773438 519.59375 359.53125 518.847656 358.324219 518.042969 C 357.117188 517.234375 355.953125 516.371094 354.832031 515.449219 C 353.710938 514.527344 352.636719 513.554688 351.609375 512.527344 C 350.585938 511.5 349.613281 510.425781 348.691406 509.300781 C 347.769531 508.179688 346.90625 507.015625 346.101562 505.808594 C 345.296875 504.597656 344.550781 503.355469 343.867188 502.074219 C 343.183594 500.792969 342.5625 499.480469 342.007812 498.140625 C 341.453125 496.796875 340.964844 495.433594 340.542969 494.042969 C 340.121094 492.652344 339.769531 491.246094 339.488281 489.820312 C 339.203125 488.394531 338.992188 486.960938 338.851562 485.515625 C 338.707031 484.070312 338.636719 482.621094 338.636719 481.167969 C 338.636719 479.71875 338.707031 478.269531 338.851562 476.824219 C 338.992188 475.378906 339.203125 473.941406 339.488281 472.519531 C 339.769531 471.09375 340.121094 469.6875 340.542969 468.296875 C 340.964844 466.90625 341.453125 465.539062 342.007812 464.199219 C 342.5625 462.855469 343.183594 461.546875 343.867188 460.265625 C 344.550781 458.984375 345.296875 457.738281 346.101562 456.53125 C 346.90625 455.324219 347.769531 454.160156 348.691406 453.035156 C 349.613281 451.914062 350.585938 450.839844 351.609375 449.8125 C 352.636719 448.785156 353.710938 447.808594 354.832031 446.886719 C 355.953125 445.96875 357.117188 445.101562 358.324219 444.296875 C 359.53125 443.488281 360.773438 442.742188 362.050781 442.058594 C 363.332031 441.375 364.640625 440.753906 365.980469 440.199219 C 367.324219 439.640625 368.6875 439.152344 370.074219 438.730469 C 371.464844 438.308594 372.871094 437.957031 374.292969 437.675781 C 375.714844 437.390625 377.148438 437.179688 378.59375 437.035156 C 380.035156 436.894531 381.484375 436.824219 382.933594 436.824219 C 384.386719 436.824219 385.832031 436.894531 387.277344 437.035156 C 388.71875 437.179688 390.152344 437.390625 391.578125 437.675781 C 393 437.957031 394.40625 438.308594 395.792969 438.730469 C 397.183594 439.152344 398.546875 439.640625 399.886719 440.199219 C 401.226562 440.753906 402.535156 441.375 403.816406 442.058594 C 405.097656 442.742188 406.339844 443.488281 407.546875 444.296875 C 408.75 445.101562 409.914062 445.96875 411.035156 446.886719 C 412.160156 447.808594 413.230469 448.785156 414.257812 449.8125 C 415.285156 450.839844 416.257812 451.914062 417.175781 453.035156 C 418.097656 454.160156 418.960938 455.324219 419.765625 456.53125 C 420.574219 457.738281 421.316406 458.984375 422 460.265625 C 422.6875 461.546875 423.304688 462.855469 423.859375 464.199219 C 424.414062 465.539062 424.902344 466.90625 425.324219 468.296875 C 425.746094 469.6875 426.097656 471.09375 426.382812 472.519531 C 426.664062 473.941406 426.875 475.378906 427.019531 476.824219 C 427.160156 478.269531 427.230469 479.71875 427.230469 481.167969 Z M 427.230469 481.167969 " fill-opacity="1" fill-rule="nonzero"/><path fill="#ead2b1" d="M 382.9375 498.167969 C 373.574219 498.167969 365.953125 490.542969 365.953125 481.167969 C 365.953125 471.789062 373.574219 464.164062 382.9375 464.164062 C 392.304688 464.164062 399.921875 471.789062 399.921875 481.167969 C 399.921875 490.542969 392.304688 498.167969 382.9375 498.167969 Z M 382.9375 498.167969 " fill-opacity="1" fill-rule="nonzero"/><path fill="#ffb229" d="M 392.953125 481.167969 C 392.953125 481.828125 392.886719 482.480469 392.757812 483.125 C 392.628906 483.769531 392.441406 484.398438 392.1875 485.007812 C 391.9375 485.613281 391.628906 486.191406 391.261719 486.742188 C 390.898438 487.289062 390.484375 487.792969 390.015625 488.261719 C 389.550781 488.726562 389.046875 489.140625 388.5 489.507812 C 387.953125 489.875 387.375 490.183594 386.769531 490.433594 C 386.160156 490.6875 385.535156 490.875 384.886719 491.003906 C 384.242188 491.132812 383.59375 491.199219 382.933594 491.199219 C 382.277344 491.199219 381.625 491.132812 380.980469 491.003906 C 380.335938 490.875 379.707031 490.6875 379.101562 490.433594 C 378.492188 490.183594 377.917969 489.875 377.371094 489.507812 C 376.824219 489.140625 376.316406 488.726562 375.851562 488.261719 C 375.386719 487.792969 374.972656 487.289062 374.605469 486.742188 C 374.238281 486.191406 373.929688 485.613281 373.679688 485.007812 C 373.429688 484.398438 373.238281 483.769531 373.109375 483.125 C 372.980469 482.480469 372.917969 481.828125 372.917969 481.167969 C 372.917969 480.511719 372.980469 479.859375 373.109375 479.210938 C 373.238281 478.566406 373.429688 477.941406 373.679688 477.332031 C 373.929688 476.722656 374.238281 476.144531 374.605469 475.597656 C 374.972656 475.050781 375.386719 474.542969 375.851562 474.078125 C 376.316406 473.613281 376.824219 473.195312 377.371094 472.832031 C 377.917969 472.464844 378.492188 472.15625 379.101562 471.90625 C 379.707031 471.652344 380.335938 471.460938 380.980469 471.332031 C 381.625 471.207031 382.277344 471.140625 382.933594 471.140625 C 383.59375 471.140625 384.242188 471.207031 384.886719 471.332031 C 385.535156 471.460938 386.160156 471.652344 386.769531 471.90625 C 387.375 472.15625 387.953125 472.464844 388.5 472.832031 C 389.046875 473.195312 389.550781 473.613281 390.015625 474.078125 C 390.484375 474.542969 390.898438 475.050781 391.261719 475.597656 C 391.628906 476.144531 391.9375 476.722656 392.1875 477.332031 C 392.441406 477.941406 392.628906 478.566406 392.757812 479.210938 C 392.886719 479.859375 392.953125 480.511719 392.953125 481.167969 Z M 392.953125 481.167969 " fill-opacity="1" fill-rule="nonzero"/><path fill="#385f82" d="M 428.976562 355.484375 L 419.816406 362.800781 C 417.9375 364.300781 417.628906 367.046875 419.128906 368.925781 C 419.988281 370.007812 421.253906 370.566406 422.535156 370.566406 C 423.484375 370.566406 424.445312 370.257812 425.246094 369.617188 L 434.40625 362.300781 C 436.289062 360.796875 436.597656 358.054688 435.097656 356.175781 C 433.597656 354.289062 430.855469 353.984375 428.976562 355.484375 Z M 428.976562 355.484375 " fill-opacity="1" fill-rule="nonzero"/><path fill="#00d8e0" d="M 469.882812 439.984375 C 469.882812 440.78125 469.84375 441.578125 469.765625 442.371094 C 469.6875 443.160156 469.574219 443.949219 469.417969 444.730469 C 469.261719 445.511719 469.070312 446.28125 468.839844 447.042969 C 468.609375 447.804688 468.339844 448.554688 468.035156 449.289062 C 467.730469 450.027344 467.390625 450.746094 467.015625 451.445312 C 466.640625 452.148438 466.234375 452.832031 465.792969 453.492188 C 465.347656 454.15625 464.875 454.792969 464.371094 455.410156 C 463.867188 456.027344 463.332031 456.613281 462.769531 457.179688 C 462.207031 457.742188 461.621094 458.273438 461.003906 458.78125 C 460.390625 459.285156 459.753906 459.757812 459.089844 460.203125 C 458.429688 460.644531 457.75 461.050781 457.046875 461.429688 C 456.34375 461.804688 455.628906 462.144531 454.890625 462.449219 C 454.15625 462.753906 453.410156 463.019531 452.648438 463.25 C 451.886719 463.484375 451.117188 463.675781 450.335938 463.832031 C 449.554688 463.988281 448.769531 464.105469 447.980469 464.183594 C 447.1875 464.257812 446.394531 464.296875 445.597656 464.296875 C 444.804688 464.296875 444.007812 464.257812 443.21875 464.183594 C 442.425781 464.105469 441.640625 463.988281 440.859375 463.832031 C 440.082031 463.675781 439.308594 463.484375 438.546875 463.25 C 437.789062 463.019531 437.039062 462.753906 436.304688 462.449219 C 435.570312 462.144531 434.851562 461.804688 434.152344 461.429688 C 433.449219 461.050781 432.765625 460.644531 432.105469 460.203125 C 431.445312 459.757812 430.808594 459.285156 430.191406 458.78125 C 429.578125 458.273438 428.988281 457.742188 428.425781 457.179688 C 427.863281 456.613281 427.332031 456.027344 426.824219 455.410156 C 426.320312 454.792969 425.847656 454.15625 425.40625 453.492188 C 424.964844 452.832031 424.554688 452.148438 424.179688 451.445312 C 423.804688 450.746094 423.464844 450.027344 423.160156 449.289062 C 422.855469 448.554688 422.589844 447.804688 422.359375 447.042969 C 422.128906 446.28125 421.933594 445.511719 421.78125 444.730469 C 421.625 443.949219 421.507812 443.160156 421.429688 442.371094 C 421.351562 441.578125 421.3125 440.78125 421.3125 439.984375 C 421.3125 439.191406 421.351562 438.394531 421.429688 437.601562 C 421.507812 436.8125 421.625 436.023438 421.78125 435.242188 C 421.933594 434.460938 422.128906 433.691406 422.359375 432.929688 C 422.589844 432.167969 422.855469 431.417969 423.160156 430.683594 C 423.464844 429.945312 423.804688 429.226562 424.179688 428.527344 C 424.554688 427.824219 424.964844 427.140625 425.40625 426.480469 C 425.847656 425.816406 426.320312 425.179688 426.824219 424.5625 C 427.332031 423.945312 427.863281 423.359375 428.425781 422.792969 C 428.988281 422.230469 429.578125 421.699219 430.191406 421.191406 C 430.808594 420.6875 431.445312 420.214844 432.105469 419.769531 C 432.765625 419.328125 433.449219 418.921875 434.148438 418.542969 C 434.851562 418.167969 435.570312 417.828125 436.304688 417.523438 C 437.039062 417.21875 437.789062 416.953125 438.546875 416.722656 C 439.308594 416.488281 440.082031 416.296875 440.859375 416.140625 C 441.640625 415.984375 442.425781 415.867188 443.21875 415.789062 C 444.007812 415.714844 444.804688 415.675781 445.597656 415.675781 C 446.394531 415.675781 447.1875 415.714844 447.980469 415.789062 C 448.769531 415.867188 449.554688 415.984375 450.335938 416.140625 C 451.117188 416.296875 451.886719 416.488281 452.648438 416.722656 C 453.410156 416.953125 454.15625 417.21875 454.890625 417.523438 C 455.628906 417.828125 456.34375 418.167969 457.046875 418.542969 C 457.75 418.921875 458.429688 419.328125 459.089844 419.769531 C 459.753906 420.214844 460.390625 420.6875 461.003906 421.191406 C 461.621094 421.699219 462.207031 422.230469 462.769531 422.792969 C 463.332031 423.359375 463.867188 423.945312 464.371094 424.5625 C 464.875 425.179688 465.347656 425.816406 465.792969 426.480469 C 466.234375 427.140625 466.640625 427.824219 467.015625 428.527344 C 467.390625 429.226562 467.730469 429.945312 468.035156 430.683594 C 468.339844 431.417969 468.609375 432.167969 468.839844 432.929688 C 469.070312 433.691406 469.261719 434.460938 469.417969 435.242188 C 469.574219 436.023438 469.6875 436.8125 469.765625 437.601562 C 469.84375 438.394531 469.882812 439.191406 469.882812 439.984375 Z M 469.882812 439.984375 " fill-opacity="1" fill-rule="nonzero"/><path fill="#00bdc6" d="M 445.601562 454.832031 C 437.421875 454.832031 430.773438 448.175781 430.773438 439.988281 C 430.773438 431.804688 437.425781 425.144531 445.601562 425.144531 C 453.777344 425.144531 460.429688 431.804688 460.429688 439.988281 C 460.429688 448.171875 453.777344 454.832031 445.601562 454.832031 Z M 445.601562 454.832031 " fill-opacity="1" fill-rule="nonzero"/><path fill="#4e7693" d="M 453.460938 439.988281 C 453.460938 440.503906 453.410156 441.015625 453.308594 441.523438 C 453.207031 442.027344 453.058594 442.519531 452.859375 442.996094 C 452.664062 443.476562 452.421875 443.929688 452.132812 444.359375 C 451.847656 444.789062 451.523438 445.1875 451.15625 445.550781 C 450.792969 445.917969 450.394531 446.242188 449.964844 446.53125 C 449.535156 446.816406 449.082031 447.058594 448.605469 447.257812 C 448.128906 447.453125 447.636719 447.605469 447.132812 447.703125 C 446.625 447.804688 446.113281 447.855469 445.597656 447.855469 C 445.082031 447.855469 444.570312 447.804688 444.066406 447.703125 C 443.558594 447.605469 443.066406 447.453125 442.589844 447.257812 C 442.113281 447.058594 441.660156 446.816406 441.230469 446.53125 C 440.800781 446.242188 440.40625 445.917969 440.039062 445.550781 C 439.675781 445.1875 439.347656 444.789062 439.0625 444.359375 C 438.777344 443.929688 438.535156 443.476562 438.335938 442.996094 C 438.136719 442.519531 437.988281 442.027344 437.886719 441.523438 C 437.789062 441.015625 437.738281 440.503906 437.738281 439.988281 C 437.738281 439.46875 437.789062 438.957031 437.886719 438.449219 C 437.988281 437.945312 438.136719 437.453125 438.335938 436.976562 C 438.535156 436.496094 438.777344 436.042969 439.0625 435.613281 C 439.347656 435.183594 439.675781 434.785156 440.039062 434.421875 C 440.40625 434.054688 440.800781 433.730469 441.230469 433.441406 C 441.660156 433.15625 442.113281 432.914062 442.589844 432.714844 C 443.066406 432.519531 443.558594 432.367188 444.066406 432.269531 C 444.570312 432.167969 445.082031 432.117188 445.597656 432.117188 C 446.113281 432.117188 446.625 432.167969 447.132812 432.269531 C 447.636719 432.367188 448.128906 432.519531 448.605469 432.714844 C 449.082031 432.914062 449.535156 433.15625 449.964844 433.441406 C 450.394531 433.730469 450.792969 434.054688 451.15625 434.421875 C 451.523438 434.785156 451.847656 435.183594 452.132812 435.613281 C 452.421875 436.042969 452.664062 436.496094 452.859375 436.976562 C 453.058594 437.453125 453.207031 437.945312 453.308594 438.449219 C 453.410156 438.957031 453.460938 439.46875 453.460938 439.988281 Z M 453.460938 439.988281 " fill-opacity="1" fill-rule="nonzero"/><path fill="#ffb229" d="M 356.445312 417.878906 C 364.496094 417.878906 371.019531 411.347656 371.019531 403.289062 L 371.019531 365.023438 C 371.019531 356.964844 364.496094 350.433594 356.445312 350.433594 C 352.628906 350.433594 349.539062 353.53125 349.539062 357.347656 L 349.539062 410.964844 C 349.539062 414.785156 352.628906 417.878906 356.445312 417.878906 Z M 356.445312 417.878906 " fill-opacity="1" fill-rule="nonzero"/><path fill="#ff8b00" d="M 371.019531 365.027344 L 371.019531 403.289062 C 371.019531 411.347656 364.496094 417.882812 356.449219 417.882812 C 355.351562 417.882812 354.3125 417.625 353.394531 417.171875 C 359.246094 415.277344 363.472656 409.78125 363.472656 403.289062 L 363.472656 365.027344 C 363.472656 358.535156 359.246094 353.035156 353.394531 351.140625 C 354.3125 350.6875 355.351562 350.433594 356.449219 350.433594 C 364.496094 350.433594 371.019531 356.964844 371.019531 365.027344 Z M 371.019531 365.027344 " fill-opacity="1" fill-rule="nonzero"/><path fill="#e3e3e3" d="M 472.679688 531.867188 C 464.628906 531.867188 458.105469 525.335938 458.105469 517.277344 L 458.105469 479.011719 C 458.105469 470.953125 464.632812 464.421875 472.679688 464.421875 C 476.496094 464.421875 479.585938 467.519531 479.585938 471.339844 L 479.585938 524.953125 C 479.585938 528.773438 476.496094 531.867188 472.679688 531.867188 Z M 472.679688 531.867188 " fill-opacity="1" fill-rule="nonzero"/><path fill="#c8c8c8" d="M 475.882812 531.082031 C 474.925781 531.585938 473.835938 531.871094 472.679688 531.871094 C 464.632812 531.871094 458.105469 525.339844 458.105469 517.277344 L 458.105469 479.015625 C 458.105469 470.953125 464.632812 464.421875 472.679688 464.421875 C 473.835938 464.421875 474.925781 464.707031 475.882812 465.210938 C 470.160156 467.175781 466.050781 472.617188 466.050781 479.015625 L 466.050781 517.277344 C 466.050781 523.675781 470.160156 529.117188 475.882812 531.082031 Z M 475.882812 531.082031 " fill-opacity="1" fill-rule="nonzero"/><g clip-path="url(#0a8a891cde)"><path fill="#385f82" d="M 372.472656 287.226562 L 378.855469 287.226562 L 378.855469 304.101562 C 378.855469 306.511719 380.804688 308.460938 383.207031 308.460938 C 385.613281 308.460938 387.5625 306.511719 387.5625 304.101562 L 387.5625 259.6875 C 387.5625 257.28125 385.613281 255.328125 383.207031 255.328125 C 380.804688 255.328125 378.855469 257.28125 378.855469 259.6875 L 378.855469 278.507812 L 372.472656 278.507812 C 370.066406 278.507812 368.117188 280.457031 368.117188 282.867188 C 368.117188 285.273438 370.066406 287.226562 372.472656 287.226562 Z M 372.472656 287.226562 " fill-opacity="1" fill-rule="nonzero"/></g><path fill="#fc4747" d="M 363.761719 297.90625 C 367.929688 297.90625 371.308594 294.523438 371.308594 290.351562 L 371.308594 275.382812 C 371.308594 271.207031 367.929688 267.824219 363.761719 267.824219 C 359.59375 267.824219 356.214844 271.207031 356.214844 275.382812 L 356.214844 290.351562 C 356.214844 294.523438 359.59375 297.90625 363.761719 297.90625 Z M 363.761719 297.90625 " fill-opacity="1" fill-rule="nonzero"/><path fill="#ffb229" d="M 445.332031 368.378906 C 437.636719 368.378906 431.398438 362.132812 431.398438 354.429688 L 431.398438 330.792969 C 431.398438 323.089844 437.636719 316.84375 445.332031 316.84375 C 453.027344 316.84375 459.265625 323.085938 459.265625 330.792969 L 459.265625 354.429688 C 459.265625 362.132812 453.027344 368.378906 445.332031 368.378906 Z M 445.332031 368.378906 " fill-opacity="1" fill-rule="nonzero"/><path fill="#00d8e0" d="M 430.769531 378.34375 C 430.769531 378.886719 430.746094 379.429688 430.691406 379.972656 C 430.636719 380.511719 430.558594 381.050781 430.453125 381.585938 C 430.347656 382.117188 430.214844 382.644531 430.058594 383.167969 C 429.898438 383.6875 429.714844 384.199219 429.507812 384.699219 C 429.300781 385.203125 429.066406 385.695312 428.8125 386.175781 C 428.554688 386.65625 428.277344 387.121094 427.976562 387.574219 C 427.671875 388.027344 427.347656 388.460938 427.003906 388.882812 C 426.660156 389.304688 426.296875 389.707031 425.910156 390.089844 C 425.527344 390.476562 425.125 390.839844 424.703125 391.183594 C 424.285156 391.53125 423.847656 391.855469 423.398438 392.15625 C 422.945312 392.457031 422.480469 392.738281 422 392.996094 C 421.519531 393.25 421.03125 393.484375 420.527344 393.691406 C 420.027344 393.898438 419.515625 394.082031 418.996094 394.242188 C 418.472656 394.398438 417.949219 394.53125 417.414062 394.636719 C 416.882812 394.742188 416.34375 394.824219 415.804688 394.875 C 415.261719 394.929688 414.722656 394.957031 414.175781 394.957031 C 413.632812 394.957031 413.09375 394.929688 412.550781 394.875 C 412.011719 394.824219 411.472656 394.742188 410.941406 394.636719 C 410.40625 394.53125 409.878906 394.398438 409.359375 394.242188 C 408.839844 394.082031 408.328125 393.898438 407.828125 393.691406 C 407.324219 393.484375 406.835938 393.25 406.355469 392.996094 C 405.875 392.738281 405.410156 392.457031 404.957031 392.15625 C 404.507812 391.855469 404.070312 391.53125 403.652344 391.183594 C 403.230469 390.839844 402.828125 390.476562 402.445312 390.089844 C 402.058594 389.707031 401.695312 389.304688 401.351562 388.882812 C 401.003906 388.460938 400.683594 388.027344 400.378906 387.574219 C 400.078125 387.121094 399.800781 386.65625 399.542969 386.175781 C 399.285156 385.695312 399.054688 385.203125 398.847656 384.699219 C 398.640625 384.199219 398.457031 383.6875 398.296875 383.167969 C 398.140625 382.644531 398.007812 382.117188 397.902344 381.585938 C 397.796875 381.050781 397.71875 380.511719 397.664062 379.972656 C 397.609375 379.429688 397.582031 378.886719 397.582031 378.34375 C 397.582031 377.800781 397.609375 377.257812 397.664062 376.714844 C 397.71875 376.175781 397.796875 375.636719 397.902344 375.101562 C 398.007812 374.570312 398.140625 374.042969 398.296875 373.523438 C 398.457031 373 398.640625 372.488281 398.847656 371.988281 C 399.054688 371.484375 399.285156 370.992188 399.542969 370.511719 C 399.800781 370.03125 400.078125 369.566406 400.378906 369.113281 C 400.683594 368.664062 401.003906 368.226562 401.351562 367.804688 C 401.695312 367.382812 402.058594 366.980469 402.445312 366.597656 C 402.828125 366.210938 403.230469 365.847656 403.652344 365.503906 C 404.070312 365.15625 404.507812 364.832031 404.957031 364.53125 C 405.410156 364.230469 405.875 363.949219 406.355469 363.691406 C 406.835938 363.4375 407.324219 363.203125 407.828125 362.996094 C 408.328125 362.789062 408.839844 362.605469 409.359375 362.445312 C 409.878906 362.289062 410.40625 362.15625 410.941406 362.050781 C 411.472656 361.945312 412.011719 361.863281 412.550781 361.8125 C 413.09375 361.757812 413.632812 361.730469 414.175781 361.730469 C 414.722656 361.730469 415.261719 361.757812 415.804688 361.8125 C 416.34375 361.863281 416.882812 361.945312 417.414062 362.050781 C 417.949219 362.15625 418.472656 362.289062 418.996094 362.445312 C 419.515625 362.605469 420.027344 362.789062 420.527344 362.996094 C 421.03125 363.203125 421.519531 363.4375 422 363.691406 C 422.480469 363.949219 422.945312 364.230469 423.398438 364.53125 C 423.847656 364.832031 424.285156 365.15625 424.703125 365.503906 C 425.125 365.847656 425.527344 366.210938 425.910156 366.597656 C 426.296875 366.980469 426.660156 367.382812 427.003906 367.804688 C 427.347656 368.226562 427.671875 368.664062 427.976562 369.113281 C 428.277344 369.566406 428.554688 370.03125 428.8125 370.511719 C 429.066406 370.992188 429.300781 371.484375 429.507812 371.988281 C 429.714844 372.488281 429.898438 373 430.058594 373.523438 C 430.214844 374.042969 430.347656 374.570312 430.453125 375.101562 C 430.558594 375.636719 430.636719 376.175781 430.691406 376.714844 C 430.746094 377.257812 430.769531 377.800781 430.769531 378.34375 Z M 430.769531 378.34375 " fill-opacity="1" fill-rule="nonzero"/><path fill="#4e7693" d="M 414.179688 382.703125 C 411.773438 382.703125 409.796875 380.753906 409.796875 378.34375 C 409.796875 375.9375 411.71875 373.984375 414.125 373.984375 L 414.179688 373.984375 C 416.582031 373.984375 418.53125 375.9375 418.53125 378.34375 C 418.53125 380.753906 416.582031 382.703125 414.179688 382.703125 Z M 414.179688 382.703125 " fill-opacity="1" fill-rule="nonzero"/><path fill="#e3e3e3" d="M 399.714844 315.070312 C 399.714844 316.035156 399.617188 316.988281 399.429688 317.933594 C 399.242188 318.882812 398.964844 319.800781 398.597656 320.691406 C 398.226562 321.582031 397.777344 322.425781 397.242188 323.230469 C 396.707031 324.03125 396.097656 324.773438 395.417969 325.453125 C 394.734375 326.136719 393.996094 326.746094 393.195312 327.28125 C 392.394531 327.816406 391.546875 328.269531 390.660156 328.636719 C 389.769531 329.007812 388.851562 329.285156 387.90625 329.472656 C 386.960938 329.660156 386.007812 329.753906 385.046875 329.753906 C 384.082031 329.753906 383.128906 329.660156 382.183594 329.472656 C 381.238281 329.285156 380.320312 329.007812 379.433594 328.636719 C 378.542969 328.269531 377.695312 327.816406 376.894531 327.28125 C 376.09375 326.746094 375.355469 326.136719 374.671875 325.453125 C 373.992188 324.773438 373.382812 324.03125 372.847656 323.230469 C 372.3125 322.425781 371.863281 321.582031 371.492188 320.691406 C 371.125 319.800781 370.847656 318.882812 370.660156 317.933594 C 370.472656 316.988281 370.378906 316.035156 370.378906 315.070312 C 370.378906 314.105469 370.472656 313.152344 370.660156 312.207031 C 370.847656 311.261719 371.125 310.34375 371.492188 309.453125 C 371.863281 308.5625 372.3125 307.714844 372.847656 306.914062 C 373.382812 306.109375 373.992188 305.371094 374.671875 304.6875 C 375.355469 304.007812 376.09375 303.398438 376.894531 302.863281 C 377.695312 302.324219 378.542969 301.875 379.433594 301.503906 C 380.320312 301.136719 381.238281 300.855469 382.183594 300.667969 C 383.128906 300.480469 384.082031 300.386719 385.046875 300.386719 C 386.007812 300.386719 386.960938 300.480469 387.90625 300.667969 C 388.851562 300.855469 389.769531 301.136719 390.660156 301.503906 C 391.546875 301.875 392.394531 302.324219 393.195312 302.863281 C 393.996094 303.398438 394.734375 304.007812 395.417969 304.6875 C 396.097656 305.371094 396.707031 306.109375 397.242188 306.914062 C 397.777344 307.714844 398.226562 308.5625 398.597656 309.453125 C 398.964844 310.34375 399.242188 311.261719 399.429688 312.207031 C 399.617188 313.152344 399.714844 314.105469 399.714844 315.070312 Z M 399.714844 315.070312 " fill-opacity="1" fill-rule="nonzero"/><path fill="#ff8b00" d="M 459.269531 346.074219 L 459.269531 354.425781 C 459.269531 354.546875 459.269531 354.667969 459.257812 354.792969 L 431.410156 354.792969 C 431.402344 354.667969 431.402344 354.546875 431.402344 354.425781 L 431.402344 346.074219 Z M 459.269531 346.074219 " fill-opacity="1" fill-rule="nonzero"/><path fill="#ff8b00" d="M 431.402344 331.804688 L 459.269531 331.804688 L 459.269531 340.523438 L 431.402344 340.523438 Z M 431.402344 331.804688 " fill-opacity="1" fill-rule="nonzero"/><path fill="#385f82" d="M 508.046875 493.796875 L 502.539062 493.777344 C 502.535156 493.777344 502.53125 493.777344 502.527344 493.777344 C 500.128906 493.777344 498.179688 495.722656 498.171875 498.125 C 498.164062 500.53125 500.109375 502.488281 502.515625 502.496094 L 508.023438 502.515625 C 508.027344 502.515625 508.03125 502.515625 508.035156 502.515625 C 510.433594 502.515625 512.382812 500.570312 512.390625 498.167969 C 512.398438 495.761719 510.453125 493.804688 508.046875 493.796875 Z M 508.046875 493.796875 " fill-opacity="1" fill-rule="nonzero"/><path fill="#385f82" d="M 502.792969 478.414062 L 498.011719 481.15625 C 495.925781 482.355469 495.207031 485.019531 496.402344 487.109375 C 497.207031 488.511719 498.675781 489.296875 500.183594 489.296875 C 500.917969 489.296875 501.664062 489.113281 502.34375 488.71875 L 507.125 485.976562 C 509.210938 484.777344 509.933594 482.113281 508.734375 480.027344 C 507.539062 477.9375 504.878906 477.214844 502.792969 478.414062 Z M 502.792969 478.414062 " fill-opacity="1" fill-rule="nonzero"/><path fill="#385f82" d="M 507.054688 510.328125 L 502.292969 507.554688 C 500.210938 506.347656 497.546875 507.050781 496.339844 509.132812 C 495.128906 511.214844 495.835938 513.882812 497.914062 515.09375 L 502.675781 517.863281 C 503.367188 518.265625 504.117188 518.457031 504.863281 518.457031 C 506.363281 518.457031 507.820312 517.679688 508.628906 516.285156 C 509.839844 514.207031 509.132812 511.539062 507.054688 510.328125 Z M 507.054688 510.328125 " fill-opacity="1" fill-rule="nonzero"/><path fill="#385f82" d="M 321.867188 388.523438 C 321.871094 388.523438 321.875 388.523438 321.878906 388.523438 L 327.386719 388.507812 C 329.792969 388.5 331.734375 386.542969 331.730469 384.136719 C 331.722656 381.734375 329.773438 379.789062 327.375 379.789062 C 327.371094 379.789062 327.367188 379.789062 327.363281 379.789062 L 321.855469 379.804688 C 319.449219 379.8125 317.503906 381.769531 317.511719 384.179688 C 317.519531 386.582031 319.464844 388.523438 321.867188 388.523438 Z M 321.867188 388.523438 " fill-opacity="1" fill-rule="nonzero"/><path fill="#385f82" d="M 322.777344 371.988281 L 327.554688 374.730469 C 328.238281 375.125 328.984375 375.308594 329.71875 375.308594 C 331.226562 375.308594 332.695312 374.523438 333.5 373.117188 C 334.695312 371.03125 333.972656 368.367188 331.886719 367.167969 L 327.109375 364.425781 C 325.023438 363.230469 322.363281 363.949219 321.164062 366.039062 C 319.96875 368.125 320.691406 370.792969 322.777344 371.988281 Z M 322.777344 371.988281 " fill-opacity="1" fill-rule="nonzero"/><path fill="#385f82" d="M 327.609375 393.566406 L 322.847656 396.339844 C 320.769531 397.546875 320.0625 400.214844 321.269531 402.296875 C 322.078125 403.691406 323.539062 404.46875 325.039062 404.46875 C 325.78125 404.46875 326.535156 404.277344 327.222656 403.875 L 331.988281 401.105469 C 334.066406 399.894531 334.769531 397.226562 333.5625 395.144531 C 332.355469 393.0625 329.6875 392.355469 327.609375 393.566406 Z M 327.609375 393.566406 " fill-opacity="1" fill-rule="nonzero"/><path fill="#00d8e0" d="M 501.828125 459.289062 C 506.976562 454.132812 509.8125 447.277344 509.8125 439.988281 C 509.8125 432.699219 506.976562 425.84375 501.828125 420.691406 C 500.128906 418.988281 497.371094 418.988281 495.671875 420.691406 C 493.96875 422.394531 493.96875 425.152344 495.671875 426.855469 C 499.175781 430.363281 501.105469 435.027344 501.105469 439.988281 C 501.105469 444.949219 499.175781 449.613281 495.671875 453.121094 C 493.96875 454.824219 493.96875 457.585938 495.671875 459.285156 C 496.519531 460.136719 497.632812 460.5625 498.75 460.5625 C 499.863281 460.5625 500.976562 460.136719 501.828125 459.289062 Z M 501.828125 459.289062 " fill-opacity="1" fill-rule="nonzero"/><g clip-path="url(#340cc4ef64)"><path fill="#00d8e0" d="M 516.566406 415.625 C 514.863281 413.925781 512.109375 413.925781 510.40625 415.625 C 508.707031 417.328125 508.707031 420.089844 510.40625 421.792969 C 515.261719 426.652344 517.9375 433.113281 517.9375 439.988281 C 517.9375 446.863281 515.261719 453.328125 510.40625 458.1875 C 508.707031 459.890625 508.707031 462.648438 510.40625 464.351562 C 511.257812 465.203125 512.371094 465.628906 513.484375 465.628906 C 514.601562 465.628906 515.714844 465.203125 516.566406 464.351562 C 523.066406 457.84375 526.644531 449.191406 526.644531 439.988281 C 526.644531 430.785156 523.066406 422.132812 516.566406 415.625 Z M 516.566406 415.625 " fill-opacity="1" fill-rule="nonzero"/></g><path fill="#00d8e0" d="M 480.972656 425.714844 C 479.273438 427.417969 479.273438 430.179688 480.972656 431.882812 C 485.4375 436.351562 485.4375 443.625 480.972656 448.097656 C 479.273438 449.800781 479.273438 452.558594 480.972656 454.261719 C 481.824219 455.113281 482.9375 455.539062 484.050781 455.539062 C 485.164062 455.539062 486.28125 455.113281 487.128906 454.261719 C 494.992188 446.394531 494.992188 433.585938 487.128906 425.714844 C 485.429688 424.015625 482.675781 424.015625 480.972656 425.714844 Z M 480.972656 425.714844 " fill-opacity="1" fill-rule="nonzero"/><path fill="#ffb229" d="M 308.675781 481.167969 C 308.675781 476.207031 310.609375 471.542969 314.109375 468.035156 C 315.8125 466.332031 315.8125 463.570312 314.113281 461.867188 C 312.410156 460.167969 309.65625 460.167969 307.953125 461.867188 C 302.804688 467.023438 299.96875 473.875 299.96875 481.167969 C 299.96875 488.457031 302.804688 495.3125 307.953125 500.464844 C 308.804688 501.316406 309.917969 501.742188 311.03125 501.742188 C 312.144531 501.742188 313.261719 501.316406 314.109375 500.464844 C 315.8125 498.761719 315.8125 496.003906 314.109375 494.300781 C 310.609375 490.792969 308.675781 486.128906 308.675781 481.167969 Z M 308.675781 481.167969 " fill-opacity="1" fill-rule="nonzero"/><path fill="#ffb229" d="M 291.84375 481.167969 C 291.84375 474.292969 294.519531 467.828125 299.375 462.96875 C 301.074219 461.265625 301.074219 458.507812 299.375 456.804688 C 297.675781 455.101562 294.917969 455.101562 293.21875 456.804688 C 286.714844 463.3125 283.136719 471.964844 283.136719 481.167969 C 283.136719 490.371094 286.714844 499.023438 293.214844 505.53125 C 294.066406 506.382812 295.183594 506.804688 296.296875 506.804688 C 297.410156 506.804688 298.523438 506.382812 299.375 505.53125 C 301.074219 503.828125 301.074219 501.066406 299.375 499.363281 C 294.519531 494.503906 291.84375 488.039062 291.84375 481.167969 Z M 291.84375 481.167969 " fill-opacity="1" fill-rule="nonzero"/><path fill="#ffb229" d="M 328.808594 466.894531 C 327.109375 465.191406 324.351562 465.191406 322.652344 466.894531 C 318.84375 470.707031 316.746094 475.773438 316.746094 481.167969 C 316.746094 486.558594 318.84375 491.628906 322.652344 495.441406 C 323.5 496.289062 324.617188 496.714844 325.730469 496.714844 C 326.84375 496.714844 327.960938 496.289062 328.808594 495.4375 C 330.507812 493.738281 330.507812 490.976562 328.808594 489.273438 C 326.644531 487.109375 325.453125 484.230469 325.453125 481.167969 C 325.453125 478.105469 326.644531 475.222656 328.808594 473.058594 C 330.511719 471.355469 330.511719 468.59375 328.808594 466.894531 Z M 328.808594 466.894531 " fill-opacity="1" fill-rule="nonzero"/><g fill="#e30523" fill-opacity="1"><g transform="translate(34.087573, 676.603175)"><g><path d="M 42.828125 -39.421875 L 27.890625 -39.421875 L 27.890625 0 L 15.28125 0 L 15.28125 -39.421875 L 0.5 -39.421875 L 0.5 -49.625 L 42.828125 -49.625 Z M 42.828125 -39.421875 "/></g></g></g><g fill="#e30523" fill-opacity="1"><g transform="translate(77.331922, 676.603175)"><g><path d="M 21.59375 -38.578125 C 28.195312 -38.578125 33.160156 -36.546875 36.484375 -32.484375 C 39.816406 -28.429688 41.269531 -22.863281 40.84375 -15.78125 L 14.015625 -15.78125 C 14.628906 -13.519531 15.710938 -11.773438 17.265625 -10.546875 C 18.828125 -9.316406 20.738281 -8.703125 23 -8.703125 C 26.488281 -8.703125 29.535156 -10 32.140625 -12.59375 L 38.578125 -6.296875 C 34.472656 -1.816406 28.925781 0.421875 21.9375 0.421875 C 15.757812 0.421875 10.84375 -1.34375 7.1875 -4.875 C 3.53125 -8.414062 1.703125 -13.113281 1.703125 -18.96875 C 1.703125 -24.863281 3.53125 -29.601562 7.1875 -33.1875 C 10.84375 -36.78125 15.644531 -38.578125 21.59375 -38.578125 Z M 13.796875 -22.359375 L 29.09375 -22.359375 C 29.09375 -24.671875 28.421875 -26.535156 27.078125 -27.953125 C 25.734375 -29.367188 23.953125 -30.078125 21.734375 -30.078125 C 19.648438 -30.078125 17.898438 -29.378906 16.484375 -27.984375 C 15.078125 -26.597656 14.179688 -24.722656 13.796875 -22.359375 Z M 13.796875 -22.359375 "/></g></g></g><g fill="#e30523" fill-opacity="1"><g transform="translate(119.939297, 676.603175)"><g><path d="M 17.484375 0 L 5.234375 0 L 5.234375 -52.515625 L 17.484375 -52.515625 Z M 17.484375 0 "/></g></g></g><g fill="#e30523" fill-opacity="1"><g transform="translate(142.658541, 676.603175)"><g><path d="M 21.59375 -38.578125 C 28.195312 -38.578125 33.160156 -36.546875 36.484375 -32.484375 C 39.816406 -28.429688 41.269531 -22.863281 40.84375 -15.78125 L 14.015625 -15.78125 C 14.628906 -13.519531 15.710938 -11.773438 17.265625 -10.546875 C 18.828125 -9.316406 20.738281 -8.703125 23 -8.703125 C 26.488281 -8.703125 29.535156 -10 32.140625 -12.59375 L 38.578125 -6.296875 C 34.472656 -1.816406 28.925781 0.421875 21.9375 0.421875 C 15.757812 0.421875 10.84375 -1.34375 7.1875 -4.875 C 3.53125 -8.414062 1.703125 -13.113281 1.703125 -18.96875 C 1.703125 -24.863281 3.53125 -29.601562 7.1875 -33.1875 C 10.84375 -36.78125 15.644531 -38.578125 21.59375 -38.578125 Z M 13.796875 -22.359375 L 29.09375 -22.359375 C 29.09375 -24.671875 28.421875 -26.535156 27.078125 -27.953125 C 25.734375 -29.367188 23.953125 -30.078125 21.734375 -30.078125 C 19.648438 -30.078125 17.898438 -29.378906 16.484375 -27.984375 C 15.078125 -26.597656 14.179688 -24.722656 13.796875 -22.359375 Z M 13.796875 -22.359375 "/></g></g></g><g fill="#e30523" fill-opacity="1"><g transform="translate(185.265916, 676.603175)"><g><path d="M 21.515625 -38.578125 C 25.296875 -38.578125 28.660156 -37.832031 31.609375 -36.34375 C 34.554688 -34.851562 36.851562 -32.742188 38.5 -30.015625 L 29.734375 -24.703125 C 27.835938 -27.347656 25.265625 -28.671875 22.015625 -28.671875 C 19.648438 -28.671875 17.722656 -27.785156 16.234375 -26.015625 C 14.753906 -24.242188 14.015625 -21.921875 14.015625 -19.046875 C 14.015625 -16.117188 14.742188 -13.769531 16.203125 -12 C 17.671875 -10.226562 19.609375 -9.34375 22.015625 -9.34375 C 25.597656 -9.34375 28.191406 -10.78125 29.796875 -13.65625 L 38.71875 -8.421875 C 37.15625 -5.585938 34.875 -3.40625 31.875 -1.875 C 28.882812 -0.34375 25.382812 0.421875 21.375 0.421875 C 15.476562 0.421875 10.722656 -1.359375 7.109375 -4.921875 C 3.503906 -8.484375 1.703125 -13.164062 1.703125 -18.96875 C 1.703125 -24.820312 3.53125 -29.550781 7.1875 -33.15625 C 10.84375 -36.769531 15.617188 -38.578125 21.515625 -38.578125 Z M 21.515625 -38.578125 "/></g></g></g><g fill="#e30523" fill-opacity="1"><g transform="translate(225.042245, 676.603175)"><g><path d="M 22.578125 -38.578125 C 28.804688 -38.578125 33.832031 -36.796875 37.65625 -33.234375 C 41.476562 -29.671875 43.390625 -24.960938 43.390625 -19.109375 C 43.390625 -13.253906 41.476562 -8.535156 37.65625 -4.953125 C 33.832031 -1.367188 28.804688 0.421875 22.578125 0.421875 C 16.304688 0.421875 11.257812 -1.367188 7.4375 -4.953125 C 3.613281 -8.535156 1.703125 -13.253906 1.703125 -19.109375 C 1.703125 -24.960938 3.613281 -29.671875 7.4375 -33.234375 C 11.257812 -36.796875 16.304688 -38.578125 22.578125 -38.578125 Z M 22.578125 -28.875 C 20.023438 -28.875 17.957031 -27.953125 16.375 -26.109375 C 14.800781 -24.273438 14.015625 -21.894531 14.015625 -18.96875 C 14.015625 -16 14.800781 -13.601562 16.375 -11.78125 C 17.957031 -9.96875 20.023438 -9.0625 22.578125 -9.0625 C 25.078125 -9.0625 27.117188 -9.96875 28.703125 -11.78125 C 30.285156 -13.601562 31.078125 -16 31.078125 -18.96875 C 31.078125 -21.894531 30.285156 -24.273438 28.703125 -26.109375 C 27.117188 -27.953125 25.078125 -28.875 22.578125 -28.875 Z M 22.578125 -28.875 "/></g></g></g><g fill="#e30523" fill-opacity="1"><g transform="translate(270.126777, 676.603175)"><g><path d="M 55.84375 -38.71875 C 60.039062 -38.71875 63.378906 -37.382812 65.859375 -34.71875 C 68.335938 -32.050781 69.578125 -28.5 69.578125 -24.0625 L 69.578125 0 L 57.40625 0 L 57.40625 -20.671875 C 57.40625 -22.929688 56.8125 -24.707031 55.625 -26 C 54.445312 -27.300781 52.847656 -27.953125 50.828125 -27.953125 C 48.554688 -27.910156 46.75 -27.050781 45.40625 -25.375 C 44.0625 -23.695312 43.390625 -21.539062 43.390625 -18.90625 L 43.390625 0 L 31.140625 0 L 31.140625 -20.671875 C 31.140625 -22.929688 30.5625 -24.707031 29.40625 -26 C 28.25 -27.300781 26.65625 -27.953125 24.625 -27.953125 C 22.3125 -27.910156 20.472656 -27.039062 19.109375 -25.34375 C 17.742188 -23.644531 17.0625 -21.5 17.0625 -18.90625 L 17.0625 0 L 4.890625 0 L 4.890625 -38.15625 L 17.0625 -38.15625 L 17.0625 -31.84375 C 19.65625 -36.332031 23.851562 -38.625 29.65625 -38.71875 C 32.726562 -38.71875 35.382812 -37.945312 37.625 -36.40625 C 39.863281 -34.875 41.453125 -32.765625 42.390625 -30.078125 C 44.898438 -35.742188 49.382812 -38.625 55.84375 -38.71875 Z M 55.84375 -38.71875 "/></g></g></g><g fill="#e30523" fill-opacity="1"><g transform="translate(343.52191, 676.603175)"><g><path d="M 42.046875 -38.15625 L 42.046875 0 L 29.796875 0 L 29.796875 -6.296875 C 27.203125 -1.765625 23.070312 0.5 17.40625 0.5 C 13.257812 0.5 9.945312 -0.820312 7.46875 -3.46875 C 4.988281 -6.113281 3.75 -9.648438 3.75 -14.078125 L 3.75 -38.15625 L 16 -38.15625 L 16 -17.546875 C 16 -15.285156 16.578125 -13.503906 17.734375 -12.203125 C 18.890625 -10.910156 20.429688 -10.265625 22.359375 -10.265625 C 24.671875 -10.304688 26.488281 -11.164062 27.8125 -12.84375 C 29.132812 -14.519531 29.796875 -16.679688 29.796875 -19.328125 L 29.796875 -38.15625 Z M 42.046875 -38.15625 "/></g></g></g><g fill="#e30523" fill-opacity="1"><g transform="translate(390.446626, 676.603175)"><g><path d="M 29.875 -38.71875 C 34.070312 -38.71875 37.441406 -37.382812 39.984375 -34.71875 C 42.535156 -32.050781 43.8125 -28.5 43.8125 -24.0625 L 43.8125 0 L 31.640625 0 L 31.640625 -20.671875 C 31.640625 -22.890625 31.035156 -24.644531 29.828125 -25.9375 C 28.628906 -27.238281 26.992188 -27.890625 24.921875 -27.890625 C 22.742188 -27.890625 20.957031 -27.179688 19.5625 -25.765625 C 18.175781 -24.347656 17.363281 -22.484375 17.125 -20.171875 L 17.125 0 L 4.890625 0 L 4.890625 -38.15625 L 17.125 -38.15625 L 17.125 -31.921875 C 19.8125 -36.359375 24.0625 -38.625 29.875 -38.71875 Z M 29.875 -38.71875 "/></g></g></g><g fill="#e30523" fill-opacity="1"><g transform="translate(438.07912, 676.603175)"><g><path d="M 6.390625 -53.75 C 7.597656 -54.957031 9.144531 -55.5625 11.03125 -55.5625 C 12.925781 -55.5625 14.472656 -54.957031 15.671875 -53.75 C 16.878906 -52.550781 17.484375 -51.007812 17.484375 -49.125 C 17.484375 -47.238281 16.878906 -45.679688 15.671875 -44.453125 C 14.472656 -43.222656 12.925781 -42.609375 11.03125 -42.609375 C 9.144531 -42.609375 7.597656 -43.222656 6.390625 -44.453125 C 5.191406 -45.679688 4.59375 -47.238281 4.59375 -49.125 C 4.59375 -51.007812 5.191406 -52.550781 6.390625 -53.75 Z M 17.0625 0 L 4.890625 0 L 4.890625 -38.15625 L 17.0625 -38.15625 Z M 17.0625 0 "/></g></g></g><g fill="#e30523" fill-opacity="1"><g transform="translate(460.090586, 676.603175)"><g><path d="M 21.515625 -38.578125 C 25.296875 -38.578125 28.660156 -37.832031 31.609375 -36.34375 C 34.554688 -34.851562 36.851562 -32.742188 38.5 -30.015625 L 29.734375 -24.703125 C 27.835938 -27.347656 25.265625 -28.671875 22.015625 -28.671875 C 19.648438 -28.671875 17.722656 -27.785156 16.234375 -26.015625 C 14.753906 -24.242188 14.015625 -21.921875 14.015625 -19.046875 C 14.015625 -16.117188 14.742188 -13.769531 16.203125 -12 C 17.671875 -10.226562 19.609375 -9.34375 22.015625 -9.34375 C 25.597656 -9.34375 28.191406 -10.78125 29.796875 -13.65625 L 38.71875 -8.421875 C 37.15625 -5.585938 34.875 -3.40625 31.875 -1.875 C 28.882812 -0.34375 25.382812 0.421875 21.375 0.421875 C 15.476562 0.421875 10.722656 -1.359375 7.109375 -4.921875 C 3.503906 -8.484375 1.703125 -13.164062 1.703125 -18.96875 C 1.703125 -24.820312 3.53125 -29.550781 7.1875 -33.15625 C 10.84375 -36.769531 15.617188 -38.578125 21.515625 -38.578125 Z M 21.515625 -38.578125 "/></g></g></g><g fill="#e30523" fill-opacity="1"><g transform="translate(499.866915, 676.603175)"><g><path d="M 22.015625 -38.71875 C 27.253906 -38.71875 31.320312 -37.5 34.21875 -35.0625 C 37.125 -32.632812 38.597656 -29.253906 38.640625 -24.921875 L 38.640625 0 L 26.6875 0 L 26.6875 -4.390625 C 24.1875 -1.085938 20.289062 0.5625 15 0.5625 C 10.988281 0.5625 7.800781 -0.546875 5.4375 -2.765625 C 3.082031 -4.984375 1.90625 -7.859375 1.90625 -11.390625 C 1.90625 -15.023438 3.164062 -17.84375 5.6875 -19.84375 C 8.21875 -21.851562 11.84375 -22.882812 16.5625 -22.9375 L 26.609375 -22.9375 L 26.609375 -23.5 C 26.609375 -25.382812 25.984375 -26.859375 24.734375 -27.921875 C 23.484375 -28.984375 21.632812 -29.515625 19.1875 -29.515625 C 15.738281 -29.515625 11.9375 -28.453125 7.78125 -26.328125 L 4.3125 -34.40625 C 10.5 -37.28125 16.398438 -38.71875 22.015625 -38.71875 Z M 18.75 -7.71875 C 20.6875 -7.71875 22.382812 -8.195312 23.84375 -9.15625 C 25.3125 -10.125 26.234375 -11.390625 26.609375 -12.953125 L 26.609375 -16.34375 L 18.90625 -16.34375 C 15.21875 -16.34375 13.375 -14.976562 13.375 -12.25 C 13.375 -10.832031 13.84375 -9.722656 14.78125 -8.921875 C 15.726562 -8.117188 17.050781 -7.71875 18.75 -7.71875 Z M 18.75 -7.71875 "/></g></g></g><g fill="#e30523" fill-opacity="1"><g transform="translate(542.332748, 676.603175)"><g><path d="M 21.515625 -38.578125 C 25.296875 -38.578125 28.660156 -37.832031 31.609375 -36.34375 C 34.554688 -34.851562 36.851562 -32.742188 38.5 -30.015625 L 29.734375 -24.703125 C 27.835938 -27.347656 25.265625 -28.671875 22.015625 -28.671875 C 19.648438 -28.671875 17.722656 -27.785156 16.234375 -26.015625 C 14.753906 -24.242188 14.015625 -21.921875 14.015625 -19.046875 C 14.015625 -16.117188 14.742188 -13.769531 16.203125 -12 C 17.671875 -10.226562 19.609375 -9.34375 22.015625 -9.34375 C 25.597656 -9.34375 28.191406 -10.78125 29.796875 -13.65625 L 38.71875 -8.421875 C 37.15625 -5.585938 34.875 -3.40625 31.875 -1.875 C 28.882812 -0.34375 25.382812 0.421875 21.375 0.421875 C 15.476562 0.421875 10.722656 -1.359375 7.109375 -4.921875 C 3.503906 -8.484375 1.703125 -13.164062 1.703125 -18.96875 C 1.703125 -24.820312 3.53125 -29.550781 7.1875 -33.15625 C 10.84375 -36.769531 15.617188 -38.578125 21.515625 -38.578125 Z M 21.515625 -38.578125 "/></g></g></g><g fill="#e30523" fill-opacity="1"><g transform="translate(582.109077, 676.603175)"><g><path d="M 6.390625 -53.75 C 7.597656 -54.957031 9.144531 -55.5625 11.03125 -55.5625 C 12.925781 -55.5625 14.472656 -54.957031 15.671875 -53.75 C 16.878906 -52.550781 17.484375 -51.007812 17.484375 -49.125 C 17.484375 -47.238281 16.878906 -45.679688 15.671875 -44.453125 C 14.472656 -43.222656 12.925781 -42.609375 11.03125 -42.609375 C 9.144531 -42.609375 7.597656 -43.222656 6.390625 -44.453125 C 5.191406 -45.679688 4.59375 -47.238281 4.59375 -49.125 C 4.59375 -51.007812 5.191406 -52.550781 6.390625 -53.75 Z M 17.0625 0 L 4.890625 0 L 4.890625 -38.15625 L 17.0625 -38.15625 Z M 17.0625 0 "/></g></g></g><g fill="#e30523" fill-opacity="1"><g transform="translate(604.120543, 676.603175)"><g><path d="M 22.578125 -38.578125 C 28.804688 -38.578125 33.832031 -36.796875 37.65625 -33.234375 C 41.476562 -29.671875 43.390625 -24.960938 43.390625 -19.109375 C 43.390625 -13.253906 41.476562 -8.535156 37.65625 -4.953125 C 33.832031 -1.367188 28.804688 0.421875 22.578125 0.421875 C 16.304688 0.421875 11.257812 -1.367188 7.4375 -4.953125 C 3.613281 -8.535156 1.703125 -13.253906 1.703125 -19.109375 C 1.703125 -24.960938 3.613281 -29.671875 7.4375 -33.234375 C 11.257812 -36.796875 16.304688 -38.578125 22.578125 -38.578125 Z M 22.578125 -28.875 C 20.023438 -28.875 17.957031 -27.953125 16.375 -26.109375 C 14.800781 -24.273438 14.015625 -21.894531 14.015625 -18.96875 C 14.015625 -16 14.800781 -13.601562 16.375 -11.78125 C 17.957031 -9.96875 20.023438 -9.0625 22.578125 -9.0625 C 25.078125 -9.0625 27.117188 -9.96875 28.703125 -11.78125 C 30.285156 -13.601562 31.078125 -16 31.078125 -18.96875 C 31.078125 -21.894531 30.285156 -24.273438 28.703125 -26.109375 C 27.117188 -27.953125 25.078125 -28.875 22.578125 -28.875 Z M 22.578125 -28.875 "/></g></g></g><g fill="#e30523" fill-opacity="1"><g transform="translate(649.205075, 676.603175)"><g><path d="M 29.875 -38.71875 C 34.070312 -38.71875 37.441406 -37.382812 39.984375 -34.71875 C 42.535156 -32.050781 43.8125 -28.5 43.8125 -24.0625 L 43.8125 0 L 31.640625 0 L 31.640625 -20.671875 C 31.640625 -22.890625 31.035156 -24.644531 29.828125 -25.9375 C 28.628906 -27.238281 26.992188 -27.890625 24.921875 -27.890625 C 22.742188 -27.890625 20.957031 -27.179688 19.5625 -25.765625 C 18.175781 -24.347656 17.363281 -22.484375 17.125 -20.171875 L 17.125 0 L 4.890625 0 L 4.890625 -38.15625 L 17.125 -38.15625 L 17.125 -31.921875 C 19.8125 -36.359375 24.0625 -38.625 29.875 -38.71875 Z M 29.875 -38.71875 "/></g></g></g><g fill="#e30523" fill-opacity="1"><g transform="translate(696.83757, 676.603175)"><g><path d="M 21.59375 -38.578125 C 28.195312 -38.578125 33.160156 -36.546875 36.484375 -32.484375 C 39.816406 -28.429688 41.269531 -22.863281 40.84375 -15.78125 L 14.015625 -15.78125 C 14.628906 -13.519531 15.710938 -11.773438 17.265625 -10.546875 C 18.828125 -9.316406 20.738281 -8.703125 23 -8.703125 C 26.488281 -8.703125 29.535156 -10 32.140625 -12.59375 L 38.578125 -6.296875 C 34.472656 -1.816406 28.925781 0.421875 21.9375 0.421875 C 15.757812 0.421875 10.84375 -1.34375 7.1875 -4.875 C 3.53125 -8.414062 1.703125 -13.113281 1.703125 -18.96875 C 1.703125 -24.863281 3.53125 -29.601562 7.1875 -33.1875 C 10.84375 -36.78125 15.644531 -38.578125 21.59375 -38.578125 Z M 13.796875 -22.359375 L 29.09375 -22.359375 C 29.09375 -24.671875 28.421875 -26.535156 27.078125 -27.953125 C 25.734375 -29.367188 23.953125 -30.078125 21.734375 -30.078125 C 19.648438 -30.078125 17.898438 -29.378906 16.484375 -27.984375 C 15.078125 -26.597656 14.179688 -24.722656 13.796875 -22.359375 Z M 13.796875 -22.359375 "/></g></g></g><g fill="#e30523" fill-opacity="1"><g transform="translate(739.444945, 676.603175)"><g><path d="M 18.546875 -38.71875 C 24.160156 -38.71875 29.398438 -37.28125 34.265625 -34.40625 L 30.078125 -26.46875 C 25.359375 -29.019531 21.347656 -30.296875 18.046875 -30.296875 C 15.546875 -30.296875 14.296875 -29.421875 14.296875 -27.671875 C 14.296875 -26.734375 14.976562 -25.941406 16.34375 -25.296875 C 17.71875 -24.660156 19.394531 -24.082031 21.375 -23.5625 C 23.351562 -23.050781 25.320312 -22.40625 27.28125 -21.625 C 29.238281 -20.84375 30.898438 -19.601562 32.265625 -17.90625 C 33.640625 -16.207031 34.328125 -14.128906 34.328125 -11.671875 C 34.328125 -7.859375 32.835938 -4.875 29.859375 -2.71875 C 26.890625 -0.570312 23.023438 0.5 18.265625 0.5 C 11.515625 0.5 5.800781 -1.296875 1.125 -4.890625 L 5.03125 -12.671875 C 9.507812 -9.503906 14.015625 -7.921875 18.546875 -7.921875 C 21.328125 -7.921875 22.71875 -8.796875 22.71875 -10.546875 C 22.71875 -11.535156 22.046875 -12.359375 20.703125 -13.015625 C 19.359375 -13.679688 17.71875 -14.273438 15.78125 -14.796875 C 13.84375 -15.316406 11.90625 -15.960938 9.96875 -16.734375 C 8.039062 -17.515625 6.40625 -18.726562 5.0625 -20.375 C 3.71875 -22.03125 3.046875 -24.109375 3.046875 -26.609375 C 3.046875 -30.429688 4.484375 -33.40625 7.359375 -35.53125 C 10.234375 -37.65625 13.960938 -38.71875 18.546875 -38.71875 Z M 18.546875 -38.71875 "/></g></g></g></svg>