<svg xmlns="http://www.w3.org/2000/svg" xmlns:xlink="http://www.w3.org/1999/xlink" width="1080" zoomAndPan="magnify" viewBox="0 0 810 809.999993" height="1080" preserveAspectRatio="xMidYMid meet" version="1.0"><defs><g/><clipPath id="c0539cb993"><path d="M 186 365.398438 L 268 365.398438 L 268 447 L 186 447 Z M 186 365.398438 " clip-rule="nonzero"/></clipPath><clipPath id="5250be94ee"><path d="M 518 153 L 604.230469 153 L 604.230469 207 L 518 207 Z M 518 153 " clip-rule="nonzero"/></clipPath><clipPath id="2a2c5d2afb"><path d="M 216.347656 224 L 429 224 L 429 444 L 216.347656 444 Z M 216.347656 224 " clip-rule="nonzero"/></clipPath></defs><g clip-path="url(#c0539cb993)"><path fill="#ee1b24" d="M 187.207031 408.675781 C 185.847656 407.3125 185.847656 405.085938 187.207031 403.726562 L 224.226562 366.707031 C 225.585938 365.347656 227.816406 365.347656 229.175781 366.707031 L 266.195312 403.726562 C 267.554688 405.085938 267.554688 407.3125 266.195312 408.671875 L 229.175781 445.691406 C 227.816406 447.050781 225.585938 447.050781 224.226562 445.691406 Z M 187.207031 408.675781 " fill-opacity="1" fill-rule="nonzero"/></g><path fill="#4b545d" d="M 446.65625 210.90625 C 431.234375 224.066406 418.246094 234.183594 417.664062 233.507812 C 417.097656 232.808594 429.117188 221.605469 444.539062 208.445312 C 459.507812 194.863281 472.152344 184.351562 472.800781 185 C 473.4375 185.660156 461.71875 197.246094 446.65625 210.90625 Z M 475.605469 163.824219 C 468.570312 169.195312 462.5 175.699219 455.527344 181.175781 C 451.917969 184.019531 448.175781 186.785156 444.511719 189.628906 C 444.367188 189.824219 444.234375 190.035156 444.089844 190.234375 C 443.480469 191.054688 442.699219 191.503906 441.894531 191.703125 C 438.640625 194.253906 435.453125 196.886719 432.492188 199.730469 C 421.289062 210.46875 413.910156 224.328125 401.503906 233.800781 C 405.695312 238.453125 410.101562 242.886719 414.542969 247.316406 C 414.78125 246.957031 415.074219 246.640625 415.457031 246.324219 C 416.15625 245.792969 416.871094 245.238281 417.597656 244.710938 C 442.59375 223.191406 464.734375 198.6875 488.5 175.847656 C 483.5 172.683594 479.863281 168.015625 475.605469 163.824219 " fill-opacity="1" fill-rule="nonzero"/><g clip-path="url(#5250be94ee)"><path fill="#4b545d" d="M 602.449219 162.953125 C 601.917969 163.46875 601.363281 163.945312 600.808594 164.394531 C 598.863281 166.03125 596.707031 167.382812 594.976562 168.574219 C 593.191406 169.894531 591.539062 171.125 589.988281 172.234375 C 583.867188 176.691406 579.964844 179.285156 579.726562 178.980469 C 579.476562 178.664062 582.953125 175.503906 588.785156 170.636719 C 590.226562 169.433594 591.839844 168.109375 593.546875 166.695312 C 595.425781 165.265625 597.289062 164.007812 599.128906 162.394531 C 599.761719 161.839844 600.398438 161.246094 600.980469 160.609375 C 600.304688 159.511719 599.632812 158.402344 598.957031 157.292969 C 598.640625 157.503906 598.320312 157.753906 598.042969 158.019531 C 596.019531 159.789062 594.273438 162.011719 592.398438 164.0625 L 591.605469 164.855469 L 591.246094 165.199219 C 590.957031 165.4375 590.902344 165.4375 590.730469 165.558594 C 590.175781 165.96875 589.621094 166.351562 589.089844 166.734375 C 587.992188 167.488281 586.910156 168.226562 585.863281 168.980469 C 581.632812 171.71875 577.585938 173.847656 574.304688 175.648438 C 570.972656 177.367188 568.355469 178.980469 566.488281 180.011719 C 564.636719 181.058594 563.578125 181.558594 563.460938 181.386719 C 563.339844 181.214844 564.199219 180.421875 565.894531 179.101562 C 567.535156 177.777344 569.96875 175.914062 573.234375 173.941406 C 576.472656 171.839844 580.347656 169.605469 584.394531 166.785156 C 585.386719 166.058594 586.394531 165.320312 587.4375 164.566406 C 587.964844 164.179688 588.496094 163.796875 589.023438 163.414062 C 589.117188 163.335938 589.34375 163.191406 589.34375 163.191406 L 589.699219 162.832031 L 590.320312 162.183594 C 592.105469 160.199219 593.839844 157.9375 596.152344 155.875 C 596.5625 155.503906 597.066406 155.175781 597.554688 154.859375 C 597.289062 154.382812 597.027344 153.890625 596.789062 153.429688 C 573.167969 172.421875 546.148438 185.871094 518.136719 197.179688 C 518.375 197.839844 518.640625 198.539062 518.90625 199.214844 C 530.160156 194.613281 537.921875 191.742188 538.160156 192.230469 C 538.398438 192.707031 531.136719 196.34375 520.148438 201.371094 C 520.492188 201.4375 520.902344 201.464844 521.335938 201.4375 C 522.59375 201.371094 524.007812 201.121094 525.425781 200.734375 C 528.28125 199.996094 531.242188 198.925781 534.273438 197.773438 C 544.496094 193.726562 553.554688 189.363281 560.207031 186.425781 C 566.804688 183.4375 571.117188 181.746094 571.289062 182.273438 C 571.289062 182.472656 570.402344 182.976562 568.632812 184.046875 C 566.886719 185.050781 564.308594 186.492188 561.09375 188.238281 C 554.664062 191.652344 545.726562 196.304688 535.289062 200.417969 C 532.195312 201.609375 529.140625 202.695312 526.085938 203.40625 C 524.566406 203.792969 523.003906 204.070312 521.363281 204.109375 C 521.273438 204.109375 521.164062 204.082031 521.074219 204.082031 C 521.457031 204.835938 521.867188 205.550781 522.277344 206.277344 C 539.507812 201.703125 556.027344 194.71875 571.910156 186.613281 C 583.257812 180.804688 593.679688 172.683594 605.410156 167.671875 C 604.445312 166.085938 603.453125 164.527344 602.449219 162.953125 " fill-opacity="1" fill-rule="nonzero"/></g><path fill="#4b545d" d="M 465.527344 118.328125 C 469.097656 112.5625 472.445312 107.433594 474.519531 103.625 C 475.671875 101.773438 476.425781 100.105469 477.074219 99.019531 C 477.695312 97.9375 478.132812 97.378906 478.328125 97.460938 C 478.488281 97.527344 478.421875 98.226562 478.089844 99.429688 C 477.746094 100.660156 477.3125 102.394531 476.34375 104.46875 C 474.640625 108.714844 471.503906 114.058594 467.933594 119.824219 C 464.8125 124.835938 462.128906 129.414062 460.183594 133.117188 C 461.042969 133.511719 461.917969 133.921875 462.804688 134.304688 C 475.40625 109.824219 487.746094 85.410156 504.332031 63.339844 C 503.695312 62.835938 503.074219 62.320312 502.425781 61.84375 C 500.46875 64.59375 498.589844 66.683594 497.242188 68.285156 C 495.628906 70.203125 494.636719 71.289062 494.371094 71.140625 C 494.160156 70.996094 494.703125 69.621094 496.011719 67.386719 C 497.070312 65.5625 498.734375 63.246094 500.414062 60.46875 C 499.4375 59.875 498.417969 59.320312 497.386719 58.800781 C 497.070312 59.792969 496.765625 60.785156 496.449219 61.816406 C 494.371094 68.640625 492.175781 74.925781 489.558594 79.023438 C 488.15625 81.074219 486.980469 82.6875 485.921875 83.453125 C 484.902344 84.328125 484.28125 84.738281 484.136719 84.59375 C 483.726562 84.300781 485.894531 82.039062 487.785156 78.058594 C 489.835938 73.957031 491.648438 67.847656 493.722656 60.972656 C 494.054688 59.847656 494.425781 58.761719 494.808594 57.652344 C 494.253906 57.453125 493.722656 57.269531 493.167969 57.097656 C 487.136719 71.023438 480.882812 85 474.386719 98.714844 C 469.046875 110.011719 461.214844 119.824219 455.886719 131.078125 C 456.640625 131.460938 457.40625 131.847656 458.175781 132.203125 C 459.839844 128.234375 462.367188 123.367188 465.527344 118.328125 " fill-opacity="1" fill-rule="nonzero"/><path fill="#4b545d" d="M 487.71875 166.285156 C 488.632812 165.027344 489.625 163.707031 490.789062 162.476562 C 492.664062 160.371094 494.515625 158.109375 496.5 155.730469 C 498.710938 153.125 500.613281 150.320312 502.542969 148.019531 C 504.515625 145.558594 506.511719 143.65625 508.085938 142.054688 C 508.878906 141.289062 509.582031 140.5625 510.203125 139.941406 C 510.808594 139.316406 511.261719 138.644531 511.695312 138.152344 C 512.542969 137.1875 513.097656 136.710938 513.269531 136.804688 C 513.429688 136.910156 513.191406 137.597656 512.636719 138.761719 C 512.34375 139.34375 512.039062 140.058594 511.523438 140.839844 C 510.957031 141.578125 510.320312 142.453125 509.59375 143.390625 C 508.152344 145.214844 506.339844 147.238281 504.632812 149.582031 C 502.808594 151.988281 501.050781 154.765625 498.734375 157.488281 C 496.710938 159.949219 494.6875 162.277344 492.757812 164.261719 C 491.5 165.503906 490.46875 166.707031 489.503906 167.871094 C 490.101562 168.375 490.734375 168.835938 491.382812 169.273438 C 510.71875 147.886719 532.921875 129.558594 554.230469 110.234375 C 553.699219 109.824219 553.171875 109.402344 552.640625 108.992188 C 548.132812 112.734375 543.648438 115.960938 539.628906 118.976562 C 535.144531 122.296875 531.164062 125.367188 528.054688 128.183594 C 521.789062 133.722656 518.929688 138.113281 518.46875 137.824219 C 518.324219 137.703125 518.929688 136.539062 520.199219 134.515625 C 520.542969 134.015625 520.902344 133.460938 521.285156 132.835938 C 521.746094 132.253906 522.25 131.675781 522.804688 131 C 523.917969 129.730469 525.121094 128.183594 526.679688 126.714844 C 529.667969 123.644531 533.597656 120.378906 538.042969 116.902344 C 541.863281 113.886719 546.109375 110.710938 550.328125 107.246094 C 549.28125 106.425781 548.25 105.632812 547.246094 104.785156 C 547.101562 104.8125 546.957031 104.8125 546.785156 104.851562 C 546.253906 105.050781 545.699219 105.355469 545.144531 105.765625 C 542.972656 107.511719 540.765625 109.867188 538.703125 111.769531 C 534.5625 115.671875 530.859375 119.214844 527.644531 122.113281 C 521.230469 127.839844 517.144531 131.265625 516.882812 130.972656 C 516.617188 130.695312 520.226562 126.753906 526.269531 120.644531 C 529.3125 117.550781 532.921875 113.886719 536.929688 109.839844 C 538.992188 107.816406 540.832031 105.753906 543.464844 103.558594 C 543.875 103.238281 544.351562 102.949219 544.851562 102.671875 C 544.03125 101.890625 543.238281 101.042969 542.484375 100.210938 C 531.957031 111.796875 519.367188 121.292969 509.316406 133.273438 C 500.996094 143.152344 493.632812 153.773438 484.808594 163.214844 C 485.75 164.273438 486.699219 165.292969 487.71875 166.285156 " fill-opacity="1" fill-rule="nonzero"/><path fill="#4b545d" d="M 427.214844 174.5625 C 437.703125 158.375 448.082031 146.910156 448.703125 147.332031 C 449.523438 147.96875 440.199219 160.453125 429.964844 176.324219 C 419.769531 192.417969 411.238281 205.363281 410.445312 204.875 C 409.714844 204.425781 416.976562 190.765625 427.214844 174.5625 Z M 433.746094 189.125 C 435.558594 187.65625 437.355469 186.1875 439.144531 184.667969 C 448.441406 171.296875 453.863281 155.796875 461.890625 141.671875 C 457.671875 139.941406 453.558594 138.007812 449.472656 135.945312 C 431.605469 165.386719 411.621094 193.515625 393.621094 222.886719 C 395.0625 224.394531 396.558594 225.917969 398.078125 227.410156 C 411.9375 216.738281 419.941406 200.207031 433.746094 189.125 " fill-opacity="1" fill-rule="nonzero"/><g clip-path="url(#2a2c5d2afb)"><path fill="#4b545d" d="M 368.996094 259.179688 C 368.175781 260.210938 367.355469 261.292969 366.507812 262.378906 C 366.058594 262.933594 365.625 263.503906 365.160156 264.085938 C 364.65625 264.613281 364.15625 265.128906 363.652344 265.660156 C 361.617188 267.722656 359.5 269.890625 357.359375 272.085938 C 355.1875 274.308594 352.902344 276.132812 350.757812 278.0625 C 349.699219 279.003906 348.640625 279.914062 347.570312 280.816406 L 346.804688 281.488281 C 346.433594 281.820312 346.222656 281.9375 345.917969 282.191406 C 345.347656 282.601562 344.832031 282.996094 344.265625 283.40625 C 339.886719 286.527344 335.894531 288.960938 332.730469 291.25 C 331.09375 292.359375 329.769531 293.484375 328.539062 294.425781 C 327.375 295.414062 326.515625 296.300781 325.671875 297.03125 C 324.230469 298.734375 323.328125 299.609375 323.089844 299.460938 C 322.851562 299.316406 323.304688 298.140625 324.347656 296.15625 C 325.023438 295.242188 325.855469 294.015625 326.964844 292.785156 C 328.105469 291.632812 329.386719 290.285156 330.945312 288.976562 C 334.015625 286.328125 337.957031 283.578125 342.003906 280.429688 C 342.519531 280.023438 343.023438 279.613281 343.523438 279.203125 C 343.777344 279.03125 344.105469 278.765625 344.226562 278.621094 L 344.992188 277.917969 C 346.011719 277.007812 347.042969 276.066406 348.101562 275.101562 C 350.175781 273.144531 352.515625 271.238281 354.59375 269.097656 C 356.710938 266.980469 358.757812 264.929688 360.757812 262.933594 C 361.234375 262.417969 361.75 261.941406 362.226562 261.464844 C 362.660156 260.9375 363.070312 260.421875 363.496094 259.945312 C 364.367188 258.886719 365.238281 257.84375 366.074219 256.835938 C 369.40625 252.765625 372.15625 249.074219 374.710938 245.941406 C 377.167969 242.792969 379.339844 240.359375 380.898438 238.757812 C 382.472656 237.117188 383.425781 236.324219 383.648438 236.523438 C 383.835938 236.695312 383.304688 237.820312 382.128906 239.722656 C 380.976562 241.628906 379.191406 244.273438 377.023438 247.632812 C 374.855469 250.886719 372.171875 254.972656 368.996094 259.179688 Z M 357.398438 331.757812 C 347.359375 341.414062 333.289062 354.71875 317.722656 369.171875 C 310.171875 376.5 303.691406 384.277344 297.644531 391.246094 C 296.125 393.003906 294.722656 394.710938 293.214844 396.351562 C 291.667969 397.964844 290.171875 399.511719 288.730469 401.007812 C 288.003906 401.761719 287.289062 402.472656 286.589844 403.203125 C 285.863281 403.875 285.121094 404.523438 284.421875 405.171875 C 282.992188 406.457031 281.617188 407.683594 280.292969 408.863281 C 269.648438 417.921875 262.929688 423.371094 262.53125 422.960938 C 262.175781 422.550781 268.21875 416.335938 278.375 406.746094 C 279.59375 405.542969 280.875 404.257812 282.226562 402.9375 C 282.898438 402.261719 283.601562 401.589844 284.300781 400.886719 C 284.949219 400.160156 285.625 399.417969 286.296875 398.664062 C 287.648438 397.171875 289.0625 395.609375 290.515625 394.023438 C 291.917969 392.421875 293.308594 390.597656 294.777344 388.839844 C 300.675781 381.722656 307.140625 373.800781 314.878906 366.261719 C 330.5625 351.675781 344.859375 338.808594 355.425781 329.65625 C 365.980469 320.476562 372.710938 315.027344 373.097656 315.4375 C 373.480469 315.824219 367.460938 322.039062 357.398438 331.757812 Z M 242.296875 389.578125 C 233.78125 397.726562 228.320312 402.582031 227.910156 402.183594 C 226.945312 401.269531 247.457031 380.402344 270.996094 353.460938 C 282.675781 339.828125 293.453125 327.660156 301.28125 318.835938 C 309.136719 310.070312 314.21875 304.820312 314.652344 305.203125 C 315.089844 305.558594 310.777344 311.445312 303.476562 320.6875 C 296.21875 329.972656 285.769531 342.472656 274.050781 356.132812 C 261.949219 369.515625 251.011719 381.683594 242.296875 389.578125 Z M 421.578125 273.605469 C 418.644531 276.277344 415.535156 279.121094 412.320312 282.058594 C 403.195312 290.230469 394.90625 297.609375 388.925781 302.953125 C 382.855469 308.257812 378.902344 311.3125 378.519531 310.902344 C 378.121094 310.492188 381.386719 306.695312 386.957031 300.878906 C 389.71875 297.96875 393.09375 294.542969 396.875 290.8125 C 400.683594 287.097656 405.0625 283.167969 409.625 279.03125 C 412.96875 276.015625 416.023438 273.261719 419.265625 270.445312 C 420.878906 269.269531 422.585938 268.210938 423.578125 267.152344 C 410.894531 252.855469 396.109375 240.519531 385.023438 224.78125 C 384.878906 224.542969 384.734375 224.304688 384.640625 224.09375 C 371.246094 242.066406 360.03125 259.007812 342.929688 272.589844 C 325.167969 286.714844 308.171875 299.199219 294.035156 317.199219 C 271.035156 346.503906 248.988281 381.074219 216.800781 401.125 C 229.179688 416.082031 241.398438 431.964844 257.136719 443.539062 C 271.871094 429.996094 286.535156 417.457031 299.839844 402.328125 C 314.058594 386.167969 328.0625 369.78125 343.0625 354.335938 C 357.886719 339.125 374.539062 325.964844 389.507812 310.929688 C 402.296875 298.0625 414.542969 284.636719 428.46875 272.960938 C 427.648438 271.941406 426.804688 270.960938 425.984375 269.96875 C 424.542969 271.492188 423.019531 272.457031 421.578125 273.605469 " fill-opacity="1" fill-rule="nonzero"/></g><path fill="#4b545d" d="M 494.859375 217.332031 C 487.773438 221.632812 477.402344 226.234375 467.367188 233.335938 C 457.367188 240.78125 448.203125 247.539062 441.191406 251.972656 C 434.195312 256.28125 429.648438 258.542969 429.433594 258.214844 C 429.144531 257.777344 433.308594 254.8125 439.9375 250.039062 C 446.46875 245.09375 455.476562 238.257812 465.460938 230.71875 C 470.566406 227.054688 475.988281 224.09375 480.828125 221.632812 C 485.695312 219.265625 490.085938 217.121094 493.777344 215.324219 C 501.0625 211.726562 505.308594 208.976562 505.625 209.410156 C 505.863281 209.703125 502.015625 213.167969 494.859375 217.332031 Z M 422.585938 249.921875 C 421.644531 250.714844 420.707031 251.535156 419.769531 252.355469 C 420.707031 253.292969 421.710938 254.3125 422.796875 255.515625 C 423.472656 256.230469 424.183594 257.050781 424.871094 257.894531 C 427.121094 260.277344 429.261719 262.734375 431.378906 265.222656 C 446.152344 254.167969 462.089844 244.976562 477.363281 234.671875 C 490.101562 226.089844 502.453125 216.804688 516.324219 210.140625 C 513.679688 205.601562 511.960938 200.671875 509.964844 195.777344 C 476.953125 203.605469 448.957031 229.660156 422.585938 249.921875 " fill-opacity="1" fill-rule="nonzero"/><g fill="#212124" fill-opacity="1"><g transform="translate(171.086358, 670.925947)"><g><path d="M 53.171875 -92.96875 C 59.691406 -92.96875 66.054688 -91.710938 72.265625 -89.203125 C 78.484375 -86.691406 83.84375 -83.1875 88.34375 -78.6875 L 79.21875 -67.3125 C 75.863281 -70.925781 71.894531 -73.789062 67.3125 -75.90625 C 62.726562 -78.019531 58.097656 -79.078125 53.421875 -79.078125 C 44.171875 -79.078125 36.347656 -75.925781 29.953125 -69.625 C 23.554688 -63.320312 20.359375 -55.628906 20.359375 -46.546875 C 20.359375 -37.378906 23.554688 -29.644531 29.953125 -23.34375 C 36.347656 -17.039062 44.171875 -13.890625 53.421875 -13.890625 C 63.035156 -13.890625 71.632812 -17.546875 79.21875 -24.859375 L 88.46875 -14.546875 C 83.707031 -9.867188 78.15625 -6.164062 71.8125 -3.4375 C 65.46875 -0.707031 59.078125 0.65625 52.640625 0.65625 C 39.054688 0.65625 27.632812 -3.859375 18.375 -12.890625 C 9.125 -21.929688 4.5 -33.109375 4.5 -46.421875 C 4.5 -59.554688 9.191406 -70.597656 18.578125 -79.546875 C 27.972656 -88.492188 39.503906 -92.96875 53.171875 -92.96875 Z M 53.171875 -92.96875 "/></g></g></g><g fill="#212124" fill-opacity="1"><g transform="translate(263.255221, 670.925947)"><g><path d="M 53.421875 0 L 53.421875 -8.59375 C 48.398438 -2.425781 40.644531 0.65625 30.15625 0.65625 C 22.65625 0.65625 16.65625 -1.390625 12.15625 -5.484375 C 7.664062 -9.585938 5.421875 -14.8125 5.421875 -21.15625 C 5.421875 -27.59375 7.753906 -32.707031 12.421875 -36.5 C 17.097656 -40.289062 23.625 -42.226562 32 -42.3125 L 53.296875 -42.3125 L 53.296875 -44.4375 C 53.296875 -48.9375 51.863281 -52.421875 49 -54.890625 C 46.132812 -57.359375 41.96875 -58.59375 36.5 -58.59375 C 29.707031 -58.59375 22.785156 -56.207031 15.734375 -51.4375 L 9.515625 -62.03125 C 14.898438 -65.195312 19.726562 -67.460938 24 -68.828125 C 28.28125 -70.203125 33.550781 -70.890625 39.8125 -70.890625 C 48.800781 -70.890625 55.765625 -68.707031 60.703125 -64.34375 C 65.640625 -59.976562 68.148438 -53.914062 68.234375 -46.15625 L 68.375 0 Z M 33.328125 -11.375 C 38.703125 -11.375 43.265625 -12.628906 47.015625 -15.140625 C 50.765625 -17.648438 52.859375 -20.847656 53.296875 -24.734375 L 53.296875 -31.21875 L 34.25 -31.21875 C 29.226562 -31.21875 25.546875 -30.488281 23.203125 -29.03125 C 20.867188 -27.570312 19.703125 -25.171875 19.703125 -21.828125 C 19.703125 -18.648438 20.914062 -16.113281 23.34375 -14.21875 C 25.769531 -12.320312 29.097656 -11.375 33.328125 -11.375 Z M 33.328125 -11.375 "/></g></g></g><g fill="#212124" fill-opacity="1"><g transform="translate(340.745838, 670.925947)"><g><path d="M 51.703125 -70.890625 C 61.671875 -70.890625 69.757812 -67.5625 75.96875 -60.90625 C 82.1875 -54.25 85.296875 -45.582031 85.296875 -34.90625 C 85.296875 -24.332031 82.253906 -15.78125 76.171875 -9.25 C 70.085938 -2.726562 62.019531 0.53125 51.96875 0.53125 C 40.6875 0.53125 32.398438 -3.703125 27.109375 -12.171875 L 27.109375 0 L 11.90625 0 L 11.90625 -98.125 L 27.109375 -98.125 L 27.109375 -58.1875 C 32.398438 -66.65625 40.597656 -70.890625 51.703125 -70.890625 Z M 33.125 -18.84375 C 37.132812 -14.570312 42.269531 -12.4375 48.53125 -12.4375 C 54.789062 -12.4375 59.925781 -14.570312 63.9375 -18.84375 C 67.945312 -23.125 69.953125 -28.65625 69.953125 -35.4375 C 69.953125 -42.050781 67.945312 -47.492188 63.9375 -51.765625 C 59.925781 -56.046875 54.789062 -58.1875 48.53125 -58.1875 C 42.269531 -58.1875 37.132812 -56.046875 33.125 -51.765625 C 29.113281 -47.492188 27.109375 -42.050781 27.109375 -35.4375 C 27.109375 -28.65625 29.113281 -23.125 33.125 -18.84375 Z M 33.125 -18.84375 "/></g></g></g><g fill="#212124" fill-opacity="1"><g transform="translate(430.666699, 670.925947)"><g><path d="M 27.109375 0 L 11.90625 0 L 11.90625 -98.125 L 27.109375 -98.125 Z M 27.109375 0 "/></g></g></g><g fill="#212124" fill-opacity="1"><g transform="translate(469.676483, 670.925947)"><g><path d="M 40.203125 -70.890625 C 52.285156 -70.890625 61.035156 -67.25 66.453125 -59.96875 C 71.878906 -52.695312 74.109375 -42.492188 73.140625 -29.359375 L 19.96875 -29.359375 C 21.207031 -23.890625 23.765625 -19.585938 27.640625 -16.453125 C 31.515625 -13.328125 36.234375 -11.765625 41.796875 -11.765625 C 49.722656 -11.765625 56.332031 -14.5 61.625 -19.96875 L 69.703125 -11.375 C 62.460938 -3.4375 52.757812 0.53125 40.59375 0.53125 C 29.75 0.53125 21.039062 -2.75 14.46875 -9.3125 C 7.90625 -15.882812 4.625 -24.460938 4.625 -35.046875 C 4.625 -45.628906 7.929688 -54.222656 14.546875 -60.828125 C 21.160156 -67.441406 29.710938 -70.796875 40.203125 -70.890625 Z M 19.703125 -40.46875 L 59.90625 -40.46875 C 59.644531 -46.113281 57.75 -50.566406 54.21875 -53.828125 C 50.695312 -57.085938 46.070312 -58.71875 40.34375 -58.71875 C 34.78125 -58.71875 30.171875 -57.085938 26.515625 -53.828125 C 22.859375 -50.566406 20.585938 -46.113281 19.703125 -40.46875 Z M 19.703125 -40.46875 "/></g></g></g><g fill="#212124" fill-opacity="1"><g transform="translate(547.431562, 670.925947)"><g><path d="M 32.265625 -71.015625 C 41.960938 -71.015625 50.164062 -68.632812 56.875 -63.875 L 51.3125 -52.640625 C 44.613281 -56.773438 37.867188 -58.84375 31.078125 -58.84375 C 24.203125 -58.84375 20.765625 -56.507812 20.765625 -51.84375 C 20.765625 -49.550781 22.039062 -47.65625 24.59375 -46.15625 C 27.15625 -44.65625 30.265625 -43.394531 33.921875 -42.375 C 37.578125 -41.363281 41.234375 -40.175781 44.890625 -38.8125 C 48.554688 -37.445312 51.664062 -35.222656 54.21875 -32.140625 C 56.78125 -29.054688 58.0625 -25.128906 58.0625 -20.359375 C 58.0625 -13.578125 55.476562 -8.398438 50.3125 -4.828125 C 45.15625 -1.253906 38.742188 0.53125 31.078125 0.53125 C 25.785156 0.53125 20.601562 -0.328125 15.53125 -2.046875 C 10.46875 -3.765625 6.21875 -6.164062 2.78125 -9.25 L 8.203125 -20.109375 C 11.203125 -17.460938 14.878906 -15.34375 19.234375 -13.75 C 23.597656 -12.164062 27.765625 -11.375 31.734375 -11.375 C 35.171875 -11.375 37.945312 -11.988281 40.0625 -13.21875 C 42.1875 -14.457031 43.25 -16.351562 43.25 -18.90625 C 43.25 -21.550781 41.96875 -23.664062 39.40625 -25.25 C 36.851562 -26.84375 33.769531 -28.125 30.15625 -29.09375 C 26.539062 -30.0625 22.925781 -31.207031 19.3125 -32.53125 C 15.695312 -33.851562 12.628906 -36.035156 10.109375 -39.078125 C 7.597656 -42.117188 6.34375 -45.976562 6.34375 -50.65625 C 6.34375 -57.351562 8.832031 -62.421875 13.8125 -65.859375 C 18.800781 -69.296875 24.953125 -71.015625 32.265625 -71.015625 Z M 32.265625 -71.015625 "/></g></g></g></svg>