<svg xmlns="http://www.w3.org/2000/svg" xmlns:xlink="http://www.w3.org/1999/xlink" width="1080" zoomAndPan="magnify" viewBox="0 0 810 809.999993" height="1080" preserveAspectRatio="xMidYMid meet" version="1.0"><defs><g/><clipPath id="0239370f1a"><path d="M 292.625 91 L 376 91 L 376 174.324219 L 292.625 174.324219 Z M 292.625 91 " clip-rule="nonzero"/></clipPath><clipPath id="f1e214bcac"><path d="M 228.855469 49.125 L 600 49.125 L 600 451 L 228.855469 451 Z M 228.855469 49.125 " clip-rule="nonzero"/></clipPath></defs><g clip-path="url(#0239370f1a)"><path fill="#ee1b24" d="M 293.964844 135.179688 C 292.570312 133.78125 292.570312 131.5 293.964844 130.105469 L 331.917969 92.152344 C 333.3125 90.757812 335.597656 90.757812 336.992188 92.152344 L 374.945312 130.105469 C 376.339844 131.5 376.339844 133.78125 374.945312 135.175781 L 336.992188 173.128906 C 335.597656 174.523438 333.3125 174.523438 331.917969 173.128906 Z M 293.964844 135.179688 " fill-opacity="1" fill-rule="nonzero"/></g><path fill="#4b545d" d="M 330.207031 130.410156 C 328.285156 132.148438 326.96875 134.496094 322.609375 133.789062 C 321.15625 132.421875 320.507812 130.253906 320.917969 127.03125 C 324.605469 123.671875 329.496094 124.726562 330.207031 130.410156 Z M 325.984375 132.101562 C 327.628906 130.472656 326.867188 126.929688 323.449219 127.878906 C 322.785156 130.792969 324.242188 131.59375 325.984375 132.101562 Z M 325.984375 132.101562 " fill-opacity="1" fill-rule="evenodd"/><path fill="#4b545d" d="M 401.15625 281.597656 C 432.375 273.804688 430.96875 319.089844 408.757812 321.292969 C 393.9375 322.761719 381.039062 306.621094 388.484375 290.886719 C 389.921875 287.855469 395.855469 282.917969 401.15625 281.597656 Z M 391.019531 307.777344 C 391.460938 308.953125 397.273438 315.03125 397.777344 315.378906 C 410.464844 324.199219 424.339844 309.734375 422.269531 296.800781 C 421.21875 290.238281 415.613281 287.59375 410.445312 284.128906 C 393.988281 281.71875 386.882812 296.761719 391.019531 307.777344 Z M 391.019531 307.777344 " fill-opacity="1" fill-rule="evenodd"/><path fill="#4b545d" d="M 444.230469 283.285156 C 456.308594 280.859375 465.832031 287.113281 466.191406 300.175781 C 466.414062 308.292969 461.269531 317.714844 456.054688 320.449219 C 448.589844 324.359375 438.128906 321.980469 433.25 317.070312 C 421.730469 305.472656 429.574219 286.226562 444.230469 283.285156 Z M 457.742188 314.535156 C 463.847656 308.734375 463.34375 300.523438 461.96875 293.421875 C 456.308594 282.523438 433.832031 283.90625 432.40625 297.644531 C 433.898438 299.234375 435.023438 296.492188 435.785156 299.332031 C 434.292969 300.917969 433.320312 298.328125 431.5625 300.175781 C 430.472656 318.25 449.046875 322.804688 457.742188 314.535156 Z M 457.742188 314.535156 " fill-opacity="1" fill-rule="evenodd"/><path fill="#4b545d" d="M 366.527344 286.660156 L 368.21875 286.660156 L 368.21875 288.347656 L 366.527344 288.347656 Z M 366.527344 286.660156 " fill-opacity="1" fill-rule="evenodd"/><path fill="#4b545d" d="M 403.691406 286.660156 C 403.8125 289.035156 401.621094 289.09375 399.46875 289.195312 C 400.734375 288.207031 401.53125 286.753906 403.691406 286.660156 Z M 403.691406 286.660156 " fill-opacity="1" fill-rule="evenodd"/><path fill="#4b545d" d="M 364.835938 287.507812 C 364.46875 288.546875 363.753906 289.246094 362.300781 289.199219 C 362.671875 288.160156 363.382812 287.460938 364.835938 287.507812 Z M 364.835938 287.507812 " fill-opacity="1" fill-rule="evenodd"/><path fill="#4b545d" d="M 412.136719 287.507812 C 413.5 287.273438 413.589844 288.308594 414.667969 288.351562 C 415.003906 289.992188 410.824219 289.585938 412.136719 287.507812 Z M 412.136719 287.507812 " fill-opacity="1" fill-rule="evenodd"/><path fill="#4b545d" d="M 358.078125 288.351562 C 359.832031 288.828125 359.871094 289.671875 358.925781 290.886719 L 357.234375 290.886719 C 357.683594 290.207031 358.117188 289.515625 358.078125 288.351562 Z M 358.078125 288.351562 " fill-opacity="1" fill-rule="evenodd"/><path fill="#4b545d" d="M 445.917969 290.042969 L 445.917969 291.730469 C 441.800781 292.574219 444.363281 287.234375 445.917969 290.042969 Z M 445.917969 290.042969 " fill-opacity="1" fill-rule="evenodd"/><path fill="#4b545d" d="M 372.4375 293.421875 C 375.84375 300.394531 373.042969 310.84375 363.992188 310.3125 C 349.347656 309.453125 357.660156 281.882812 372.4375 293.421875 Z M 359.769531 305.242188 C 364.972656 307.40625 369.214844 301.910156 371.59375 298.488281 C 368.414062 293.257812 360.933594 300.574219 359.769531 305.242188 Z M 359.769531 305.242188 " fill-opacity="1" fill-rule="evenodd"/><path fill="#4b545d" d="M 413.824219 293.421875 C 417.238281 303.449219 411.96875 311.617188 406.222656 311.15625 C 390.984375 309.945312 398.015625 282.050781 413.824219 293.421875 Z M 402 296.800781 L 402 301.023438 C 406.167969 301.074219 407.964844 303.503906 412.136719 303.554688 C 413.105469 301.191406 413.105469 299.167969 412.136719 296.800781 C 408.753906 296.921875 404.785156 294.628906 402 296.800781 Z M 410.445312 305.242188 C 410.160156 304.558594 408.203125 304.226562 407.910156 305.242188 C 407.351562 307.203125 411.210938 307.070312 410.445312 305.242188 Z M 410.445312 305.242188 " fill-opacity="1" fill-rule="evenodd"/><path fill="#4b545d" d="M 395.246094 291.730469 L 398.621094 291.730469 C 397.886719 292.96875 397.359375 294.40625 395.246094 294.265625 Z M 395.246094 291.730469 " fill-opacity="1" fill-rule="evenodd"/><path fill="#4b545d" d="M 415.511719 291.730469 C 417.359375 291.578125 418.199219 292.421875 418.046875 294.265625 C 416.203125 294.417969 415.359375 293.574219 415.511719 291.730469 Z M 415.511719 291.730469 " fill-opacity="1" fill-rule="evenodd"/><path fill="#4b545d" d="M 438.316406 292.574219 C 441.019531 294 435.085938 298.242188 435.785156 293.421875 C 436.984375 293.492188 438.175781 293.558594 438.316406 292.574219 Z M 438.316406 292.574219 " fill-opacity="1" fill-rule="evenodd"/><path fill="#4b545d" d="M 451.832031 311.15625 C 445.710938 311.929688 442.328125 309.964844 439.164062 307.777344 C 433.019531 292.191406 454.765625 287.871094 456.898438 299.332031 C 457.796875 304.144531 453.828125 307.085938 451.832031 311.15625 Z M 442.539062 304.402344 L 453.519531 304.402344 C 453.175781 302.363281 455.0625 302.5625 454.363281 300.175781 C 450.980469 299.058594 440.355469 297.214844 442.539062 304.402344 Z M 442.539062 304.402344 " fill-opacity="1" fill-rule="evenodd"/><path fill="#4b545d" d="M 353.011719 294.265625 C 356.410156 293.777344 352.589844 296.765625 353.855469 299.332031 C 349.367188 299.070312 352.675781 296.507812 353.011719 294.265625 Z M 353.011719 294.265625 " fill-opacity="1" fill-rule="evenodd"/><path fill="#4b545d" d="M 375.816406 295.109375 C 377.300781 295.3125 377.742188 296.5625 377.503906 298.488281 C 376.371094 297.933594 375.933594 296.683594 375.816406 295.109375 Z M 375.816406 295.109375 " fill-opacity="1" fill-rule="evenodd"/><path fill="#4b545d" d="M 394.398438 295.953125 C 395.4375 296.324219 396.132812 297.035156 396.085938 298.488281 C 393.15625 299.226562 393.191406 297.1875 394.398438 295.953125 Z M 394.398438 295.953125 " fill-opacity="1" fill-rule="evenodd"/><path fill="#4b545d" d="M 418.046875 295.953125 C 419.535156 296.160156 419.972656 297.40625 419.738281 299.332031 C 417.195312 300.183594 418.238281 297.449219 418.046875 295.953125 Z M 418.046875 295.953125 " fill-opacity="1" fill-rule="evenodd"/><path fill="#4b545d" d="M 510.953125 305.242188 C 524.078125 306.984375 502.867188 330.9375 499.976562 317.070312 C 498.601562 310.492188 505.382812 304.507812 510.953125 305.242188 Z M 505.042969 310.3125 C 505.671875 313.949219 508.382812 315.238281 510.953125 312.84375 C 511.140625 311.25 510 310.984375 510.109375 309.46875 C 508.027344 309.359375 506.042969 309.339844 505.042969 310.3125 Z M 505.042969 310.3125 " fill-opacity="1" fill-rule="evenodd"/><path fill="#4b545d" d="M 357.234375 311.15625 C 356.449219 312.960938 351.09375 312.3125 352.167969 309.46875 C 354.429688 307.191406 355.378906 310.542969 357.234375 311.15625 Z M 357.234375 311.15625 " fill-opacity="1" fill-rule="evenodd"/><path fill="#4b545d" d="M 415.511719 310.3125 C 416.550781 314.164062 412.550781 312.980469 412.136719 315.378906 C 410.539062 314.269531 413.203125 310.308594 415.511719 310.3125 Z M 415.511719 310.3125 " fill-opacity="1" fill-rule="evenodd"/><path fill="#4b545d" d="M 373.285156 311.160156 C 373.128906 313.539062 371.816406 314.761719 369.0625 314.539062 C 370.148438 313.089844 370.808594 311.21875 373.285156 311.160156 Z M 373.285156 311.160156 " fill-opacity="1" fill-rule="evenodd"/><path fill="#4b545d" d="M 402.839844 312.851562 L 402.839844 314.542969 C 398.722656 315.386719 401.28125 310.046875 402.839844 312.851562 Z M 402.839844 312.851562 " fill-opacity="1" fill-rule="evenodd"/><path fill="#4b545d" d="M 358.925781 312.84375 C 360.289062 312.609375 360.375 313.644531 361.457031 313.691406 C 361.296875 314.375 360.609375 314.53125 360.613281 315.378906 L 358.925781 315.378906 Z M 358.925781 312.84375 " fill-opacity="1" fill-rule="evenodd"/><path fill="#4b545d" d="M 363.992188 312.84375 C 365.746094 313.320312 365.78125 314.164062 364.835938 315.378906 L 363.144531 315.378906 C 362.910156 314.015625 363.945312 313.925781 363.992188 312.84375 Z M 363.992188 312.84375 " fill-opacity="1" fill-rule="evenodd"/><path fill="#4b545d" d="M 450.988281 312.851562 L 452.675781 312.851562 L 452.675781 314.542969 L 450.988281 314.542969 Z M 450.988281 312.851562 " fill-opacity="1" fill-rule="evenodd"/><path fill="#4b545d" d="M 449.296875 313.691406 C 449.097656 315.175781 447.84375 315.617188 445.917969 315.378906 C 445.070312 312.839844 447.800781 313.882812 449.296875 313.691406 Z M 449.296875 313.691406 " fill-opacity="1" fill-rule="evenodd"/><path fill="#4b545d" d="M 405.378906 314.539062 L 407.070312 314.539062 L 407.070312 316.226562 L 405.378906 316.226562 Z M 405.378906 314.539062 " fill-opacity="1" fill-rule="evenodd"/><path fill="#4b545d" d="M 514.335938 317.917969 L 516.027344 317.917969 L 516.027344 319.609375 L 514.335938 319.609375 Z M 514.335938 317.917969 " fill-opacity="1" fill-rule="evenodd"/><g clip-path="url(#f1e214bcac)"><path fill="#4b545d" d="M 486.460938 343.253906 C 488.253906 339.414062 492.132812 337.667969 495.75 335.652344 C 496.0625 339.0625 492.945312 339.042969 492.375 341.5625 C 495.011719 341.164062 497.644531 337.96875 499.976562 339.875 C 496.574219 343.230469 491.347656 344.761719 487.304688 347.476562 C 492.046875 369.515625 501.347656 385.308594 514.332031 399.84375 C 518.46875 404.472656 523.492188 408.726562 527.84375 413.355469 C 536.730469 422.804688 544.039062 433.359375 546.429688 450.519531 C 541.945312 448.980469 543.320312 444.871094 542.207031 442.074219 C 534.453125 422.601562 519.273438 411.398438 505.886719 397.308594 C 448.300781 396.234375 374.371094 397.894531 310.78125 394.773438 C 307.585938 394.617188 305.0625 395.617188 302.332031 394.773438 C 296.066406 392.84375 291.65625 386.207031 286.285156 382.101562 C 285.859375 368.523438 286.367188 358.558594 286.285156 344.097656 C 264.546875 344.945312 249.246094 347.027344 228.855469 349.164062 C 229.140625 274.589844 229.960938 202.980469 231.386719 133.789062 C 250.742188 127.675781 269.046875 141.492188 287.976562 143.925781 C 289.75 137.210938 286.140625 129.617188 287.976562 123.652344 C 290.339844 115.964844 301.777344 114.621094 304.023438 107.605469 C 306.605469 106.992188 306.507812 109.0625 309.089844 108.449219 C 313.035156 105.917969 314.070312 100.476562 321.757812 101.691406 C 322.648438 98.164062 319.980469 95.96875 321.757812 94.089844 C 328.277344 91.316406 338.410156 92.15625 342.875 87.332031 C 336.066406 85.324219 330.609375 91.953125 322.605469 91.558594 C 318.777344 85.367188 322.484375 83.210938 327.671875 79.730469 C 330.707031 77.695312 331.023438 76.535156 332.738281 76.355469 C 338.867188 75.703125 343.375 80.988281 347.097656 83.953125 C 345.6875 90.140625 345 94.992188 346.253906 100.847656 C 351.265625 101.464844 353.457031 104.902344 356.386719 107.605469 C 357.070312 103.5 360.722656 102.367188 363.988281 100.847656 C 364.070312 90.214844 368.679688 81.074219 378.347656 82.265625 C 382.9375 82.832031 384.148438 86.972656 388.480469 89.023438 C 387.023438 94.171875 387.550781 95.003906 388.480469 100.847656 C 393.980469 102.105469 392.210938 110.628906 400.304688 109.292969 C 403.296875 106.375 406.683594 103.84375 409.597656 100.847656 C 410.082031 83.875 410.820312 67.15625 410.441406 49.324219 L 416.355469 49.324219 C 418.84375 60.914062 414.882812 75.160156 415.507812 92.402344 C 415.628906 95.636719 413.550781 102.097656 418.042969 103.382812 C 421.515625 100.316406 418.835938 94.820312 418.890625 89.867188 C 419.015625 77.429688 420.113281 61.808594 420.578125 49.324219 L 430.710938 49.324219 C 428.890625 65.519531 430.328125 84.972656 429.871094 102.535156 C 435.492188 103.390625 434.460938 110.898438 442.539062 109.292969 C 444.164062 106.132812 442.890625 100.074219 445.074219 97.46875 C 457.296875 97.515625 478.972656 96.554688 499.128906 97.46875 C 507.347656 97.84375 522.890625 96.050781 527.84375 98.3125 C 532.503906 100.441406 533.140625 106.417969 532.914062 110.984375 C 540.949219 110.832031 548.59375 111.066406 554.871094 112.671875 C 551.15625 166.367188 554.710938 235.527344 550.648438 288.351562 C 559.359375 288.578125 565.433594 287.976562 570.074219 291.730469 C 574.171875 295.042969 574.238281 302.800781 580.210938 304.398438 C 587.199219 318.242188 591.03125 335.242188 599.636719 347.472656 C 599.734375 356.300781 599.769531 365.0625 597.945312 371.96875 C 596.574219 367.285156 598.898438 355.621094 595.414062 347.472656 C 594.730469 345.878906 592.882812 344.027344 591.1875 341.5625 C 584.652344 332.035156 578.421875 320.484375 573.449219 308.625 C 571.125 303.078125 570.054688 296.320312 567.539062 294.265625 C 563.582031 291.035156 554.691406 291.886719 548.957031 291.730469 C 552.152344 296.25 557.910156 296.808594 561.628906 301.023438 C 564.449219 304.222656 566.082031 309.40625 568.382812 313.691406 C 574.3125 324.714844 584.066406 336.652344 590.34375 348.320312 C 587.4375 351.089844 583.945312 343.664062 581.894531 340.71875 C 575.667969 331.769531 567.792969 321.503906 562.472656 311.15625 C 561.378906 309.027344 561.15625 306.140625 559.9375 304.398438 C 555.292969 297.753906 546.183594 295.566406 537.976562 293.421875 C 532.597656 289.042969 526.902344 284.105469 519.398438 284.128906 C 512.917969 284.148438 506.75 291.792969 498.28125 286.664062 C 497.222656 290.40625 501.949219 294.214844 505.886719 296.800781 C 511.554688 300.519531 519.34375 303.175781 527 302.710938 C 526.839844 305.085938 525.527344 306.308594 522.777344 306.089844 C 526.359375 314.445312 536.84375 319.050781 545.578125 319.605469 C 546.507812 323.628906 540.546875 320.765625 540.511719 323.828125 C 541.019531 337.394531 551.933594 340.558594 551.492188 355.078125 C 548.9375 357.527344 549.136719 352.472656 547.265625 351.699219 C 545.3125 355.09375 547.617188 362.75 545.578125 366.058594 C 543.289062 368.097656 540.886719 365.128906 537.132812 366.058594 C 534.242188 368.777344 541.453125 371.917969 538.824219 374.503906 C 535.636719 372.464844 533.109375 370.878906 530.375 367.746094 C 528.394531 365.46875 527.214844 360.996094 524.464844 358.453125 C 520.613281 354.902344 513.617188 352.953125 510.109375 347.472656 C 503.1875 336.675781 498.386719 321.761719 490.683594 315.378906 C 487.265625 312.550781 477.523438 310.28125 473.789062 315.378906 C 487.535156 312.25 498.929688 332.640625 480.546875 335.648438 C 482.621094 338.925781 483.992188 342.902344 486.460938 345.785156 C 491.277344 344.148438 493.046875 340.039062 486.460938 343.253906 Z M 342.875 83.957031 C 335.828125 81.808594 329.179688 86.304688 324.296875 89.023438 C 329.058594 89.132812 338.332031 86.84375 342.875 83.957031 Z M 421.425781 89.023438 C 422.675781 87.675781 421.617188 83.871094 420.582031 82.269531 C 421.097656 84.285156 419.519531 88.394531 421.425781 89.023438 Z M 329.363281 83.957031 C 323.953125 82.980469 327.507812 86.535156 329.363281 83.957031 Z M 369.902344 89.871094 C 372 89.996094 373.40625 89.433594 374.128906 88.179688 C 373.328125 87.304688 369.777344 87.40625 369.902344 89.871094 Z M 368.214844 94.089844 C 372.21875 94.25 381.492188 92.863281 384.261719 89.023438 C 377.957031 89.761719 371.402344 90.242188 368.214844 94.089844 Z M 338.652344 92.402344 C 340.6875 92.058594 340.488281 93.945312 342.875 93.246094 L 342.875 91.558594 C 342.339844 89.496094 338.929688 91.429688 338.652344 92.402344 Z M 379.195312 94.9375 C 381.710938 94.921875 384.339844 95.015625 384.261719 92.40625 C 382.105469 92.777344 380.378906 93.585938 379.195312 94.9375 Z M 332.742188 94.9375 C 330.550781 95.058594 324.601562 94.332031 324.296875 99.160156 C 327.679688 102.816406 337.601562 99.929688 343.722656 100.847656 L 343.722656 95.78125 C 339.644531 96.359375 336.058594 94.753906 332.742188 94.9375 Z M 366.527344 98.316406 L 366.527344 101.691406 C 372.707031 99.578125 381.511719 104.484375 385.105469 99.160156 C 382.210938 95.988281 370.777344 97.371094 366.527344 98.316406 Z M 449.296875 109.296875 C 448.667969 106.695312 451.613281 107.671875 450.988281 105.074219 C 450.132812 102.828125 449.597656 100.265625 446.765625 100.003906 C 445.28125 102.535156 444.992188 109.871094 449.296875 109.296875 Z M 454.363281 109.296875 C 455.339844 107.171875 454.765625 103.5 457.742188 103.382812 C 458.855469 106 455.238281 108.066406 457.742188 109.296875 C 458.488281 107.222656 458.5 104.425781 461.121094 104.226562 L 461.121094 109.296875 C 465.542969 110.617188 461.660156 103.640625 465.34375 104.226562 C 465.460938 106.929688 464.511719 110.691406 467.878906 110.140625 C 468.351562 105.320312 469.152344 102.667969 466.1875 100.003906 L 453.519531 100.003906 C 455.480469 102.382812 451.730469 106.699219 454.367188 109.296875 Z M 471.257812 110.140625 C 482.953125 110.039062 498.640625 110.28125 507.578125 110.140625 C 508.503906 106.703125 508.347656 104.410156 506.730469 101.691406 C 496.90625 99.414062 482.003906 102.207031 472.105469 100.003906 C 471.203125 102.609375 472.425781 106.203125 471.257812 110.140625 Z M 510.109375 110.140625 C 514.832031 111.484375 510.441406 103.710938 514.332031 104.226562 C 516.609375 105.226562 514.328125 108.632812 514.332031 110.140625 C 518.019531 110.445312 514.355469 103.40625 518.554688 104.226562 C 519.4375 106.621094 519.4375 107.746094 518.554688 110.140625 C 522.582031 111.351562 517.910156 103.859375 521.933594 105.074219 C 524.324219 104.933594 521.234375 110.277344 523.625 110.140625 C 525.546875 109.527344 522.847656 104.292969 526.15625 105.074219 C 528.828125 106.378906 525.101562 110.144531 527.003906 110.984375 C 532.480469 110.113281 528.21875 102.804688 527.003906 100.847656 L 510.953125 100.847656 C 511.472656 104.875 511.785156 106.863281 510.109375 110.140625 Z M 333.585938 108.449219 C 333.441406 106.0625 334.3125 102.65625 331.898438 102.539062 C 329.972656 103.738281 328.820312 109.511719 333.585938 108.449219 Z M 337.808594 107.605469 C 339.625 105.804688 338.125 103.003906 336.121094 102.539062 C 335.945312 104.964844 336.335938 106.828125 337.808594 107.605469 Z M 374.128906 107.605469 C 372.816406 107.570312 375.953125 101.609375 371.59375 102.539062 C 369.277344 104.199219 371.464844 111.109375 374.128906 107.605469 Z M 377.503906 108.449219 C 378.757812 107.730469 379.324219 106.324219 379.195312 104.226562 C 377.988281 104.027344 377.769531 102.835938 376.660156 102.539062 C 375.011719 103.601562 374.519531 107.777344 377.503906 108.449219 Z M 326.828125 108.449219 C 327.578125 106.949219 329.1875 106.304688 328.519531 103.382812 L 325.984375 103.382812 C 325.617188 105.261719 324.042969 107.960938 326.828125 108.449219 Z M 340.34375 108.449219 C 343.246094 109.773438 344.351562 102.796875 341.1875 103.382812 C 340.214844 104.382812 340.230469 106.367188 340.34375 108.449219 Z M 367.371094 108.449219 C 369.933594 108.761719 369.121094 105.699219 369.902344 104.226562 C 368.824219 104.179688 368.734375 103.144531 367.371094 103.382812 Z M 382.574219 108.449219 C 384.441406 108.347656 382.929688 104.867188 383.417969 103.382812 L 380.882812 103.382812 C 381.394531 105.125 379.519531 109.25 382.574219 108.449219 Z M 363.148438 108.449219 C 365.765625 108.777344 366.589844 104.382812 363.992188 104.226562 C 364.335938 106.261719 362.453125 106.0625 363.148438 108.449219 Z M 385.105469 108.449219 C 388.570312 109.324219 389.617188 103.441406 385.953125 104.226562 C 385.242188 105.207031 384.839844 106.492188 385.105469 108.449219 Z M 323.449219 108.449219 L 323.449219 105.074219 C 320.117188 104.488281 320.683594 108.628906 323.449219 108.449219 Z M 344.566406 105.917969 C 344.3125 108.140625 345.734375 108.6875 347.945312 108.449219 L 347.945312 105.070312 C 346.472656 105.007812 345.316406 105.261719 344.566406 105.917969 Z M 407.910156 108.449219 C 410.359375 109.128906 417.84375 110.78125 418.894531 107.605469 C 416.085938 106.828125 409.011719 106.746094 407.910156 108.449219 Z M 343.722656 110.984375 C 333.101562 110.984375 318.742188 110.195312 312.46875 112.675781 L 306.558594 112.675781 C 303.425781 122.210938 305.425781 136.878906 304.867188 148.992188 C 315.652344 152.285156 327.511719 154.503906 336.964844 159.128906 C 338.269531 167.492188 332.945312 178.164062 339.5 181.933594 C 341.320312 177.277344 339.617188 169.101562 341.1875 164.195312 C 351.464844 155.207031 367.488281 158.933594 382.574219 159.128906 C 413.625 159.523438 444.691406 160.816406 473.792969 160.816406 C 489.347656 160.816406 506.910156 158.472656 516.867188 168.417969 C 520.382812 201.425781 514.679688 247.386719 516.023438 278.21875 C 526.832031 282.335938 535.007812 288.238281 548.117188 288.351562 C 546.90625 225.601562 551.4375 176.585938 549.808594 114.363281 C 479.859375 113.636719 410.832031 110.984375 343.722656 110.984375 Z M 302.335938 116.894531 C 302.148438 116.238281 301.628906 115.914062 300.644531 116.050781 C 299.148438 120.183594 293 119.667969 291.355469 123.652344 C 290.871094 130.207031 292.375 138.75 290.511719 143.925781 C 293.382812 146.121094 297.617188 146.953125 301.492188 148.148438 C 302.332031 134.144531 301.9375 131.265625 302.335938 116.894531 Z M 233.921875 137.167969 C 231.980469 189.023438 234.457031 262.867188 232.230469 322.136719 C 231.882812 331.40625 229.089844 341.363281 234.765625 344.941406 C 239.058594 341.550781 237.273438 335.125 237.300781 330.582031 C 237.675781 260.328125 238.652344 197.980469 237.300781 134.632812 L 234.765625 134.632812 C 234.71875 135.710938 233.683594 135.804688 233.921875 137.167969 Z M 240.679688 344.097656 C 270.617188 339.617188 303.84375 341.308594 331.050781 335.652344 C 332.976562 329.230469 332.410156 320.332031 331.898438 315.378906 C 330.773438 313.835938 328.121094 317.230469 325.984375 315.378906 C 323.605469 313.945312 325.53125 311.851562 323.449219 309.46875 C 321.328125 307.035156 318.34375 308.625 317.539062 305.242188 C 316.054688 299.03125 320.988281 296.882812 325.140625 292.574219 C 329.410156 291.964844 331.222656 293.8125 332.742188 295.953125 C 332.125 263.519531 333.691406 233.273438 333.585938 201.355469 C 331.210938 202.714844 328.121094 206.671875 324.296875 203.890625 C 322.863281 198.566406 319.808594 194.859375 318.382812 189.53125 C 321.460938 185.851562 320.539062 178.175781 326.828125 177.707031 C 328.410156 178.660156 330.898438 178.707031 330.207031 181.929688 C 327.6875 182.117188 327.335938 178.8125 325.140625 181.085938 C 326.199219 186.371094 322.433594 186.828125 321.761719 190.378906 C 321.609375 193.34375 324.613281 193.15625 325.140625 195.445312 C 327.25 196.148438 324.171875 202.046875 327.671875 201.355469 C 330.339844 201.769531 330.65625 199.835938 333.585938 200.511719 L 333.585938 159.972656 C 302.09375 152.6875 271.386719 142.75 242.371094 135.476562 C 241.007812 207.828125 240.972656 272.609375 240.679688 344.097656 Z M 430.714844 163.351562 C 407.4375 163.351562 377.300781 161.78125 359.769531 161.660156 C 342.683594 161.546875 342.628906 168.019531 342.03125 187 C 340.898438 223.074219 342.03125 262.722656 342.03125 297.644531 C 342.03125 313.414062 341.257812 327.371094 345.410156 337.339844 C 367.152344 340.417969 390.25 340.46875 412.136719 340.71875 C 432.847656 340.960938 455.769531 340.425781 478.863281 340.71875 C 477.460938 334.453125 469.695312 336.589844 465.347656 336.496094 C 433.214844 335.828125 408.585938 335.652344 379.195312 335.652344 C 369.546875 335.652344 350.871094 337.402344 347.101562 332.273438 C 342.5625 326.105469 346.246094 302.753906 346.253906 292.574219 C 346.289062 261.386719 346.253906 241.011719 346.253906 208.117188 C 346.253906 196.957031 343.394531 173.695312 349.632812 168.417969 C 354.273438 164.492188 368.75 166.226562 380.039062 166.730469 C 426.492188 168.804688 464.886719 166.503906 505.042969 170.953125 C 511.457031 175.613281 511.121094 184.574219 510.953125 193.757812 C 510.554688 215.9375 509.484375 245.339844 509.265625 266.394531 C 509.226562 270.257812 505.972656 276.921875 510.953125 279.066406 C 514.269531 269.628906 512.132812 258.636719 512.644531 246.96875 C 513.242188 233.414062 514.332031 218.542969 514.332031 204.738281 C 514.332031 190.636719 518.003906 175.664062 510.113281 166.730469 C 487.226562 162.683594 459.855469 163.351562 430.714844 163.351562 Z M 446.765625 171.796875 C 429.078125 170.992188 403.222656 170.132812 383.417969 169.261719 C 369.945312 168.667969 355.324219 168.234375 350.476562 171.796875 C 347.175781 208.058594 349.667969 254.238281 347.945312 289.199219 C 353.953125 283.957031 358.722656 280.363281 366.527344 280.75 C 387.617188 281.800781 390.164062 318.742188 368.214844 321.292969 C 358.097656 322.46875 354.058594 317.3125 347.101562 313.691406 C 347.628906 320.480469 348.390625 327.039062 351.324219 331.429688 C 388.742188 334.992188 434 331.59375 471.257812 333.960938 C 470.164062 329.753906 466.160156 327.683594 466.191406 322.136719 C 466.214844 317.480469 468.269531 315.15625 471.257812 312.003906 C 464.574219 303.660156 467.941406 289.886719 478.015625 288.351562 C 484.417969 287.375 488.03125 292.425781 494.90625 290.042969 C 497.550781 286.832031 489.464844 283.476562 493.21875 279.0625 C 497.578125 278.921875 502.753906 279.585938 505.886719 278.21875 C 504.707031 246.9375 509.265625 206.851562 505.886719 176.019531 C 488.742188 169.226562 468.484375 172.785156 446.765625 171.796875 Z M 339.5 196.289062 C 341.195312 193.765625 339.976562 188.320312 340.34375 184.464844 L 336.964844 184.464844 C 337.808594 189.832031 333.757812 195.375 339.5 196.289062 Z M 336.121094 201.359375 C 337.96875 222.183594 335.1875 256.253906 336.121094 286.664062 C 336.234375 290.394531 334.101562 297.335938 339.5 298.488281 C 339.359375 266.078125 339.695312 225.71875 339.5 198.824219 L 336.964844 198.824219 C 336.917969 199.902344 335.878906 199.992188 336.121094 201.359375 Z M 497.441406 281.597656 C 497.914062 286.238281 513.246094 287.070312 513.488281 281.597656 C 509.625 280.457031 501.234375 280.066406 497.441406 281.597656 Z M 349.632812 310.3125 C 360.8125 326.71875 389.183594 313.085938 378.351562 290.886719 C 366.007812 278.472656 342.367188 288.742188 349.632812 310.3125 Z M 486.460938 297.640625 C 488.789062 294.488281 485.113281 291.5 482.238281 290.886719 C 482.734375 294.050781 484.640625 295.804688 486.460938 297.640625 Z M 481.394531 303.554688 C 486.847656 301.84375 482.726562 291.332031 476.324219 293.421875 C 477.703125 297.109375 483.144531 296.738281 481.394531 303.554688 Z M 320.917969 305.242188 C 326.613281 305.179688 326.339844 311.082031 329.363281 313.691406 C 334.058594 312.738281 333.359375 301.9375 331.898438 297.640625 C 329.03125 300.996094 330.308594 293.09375 326.828125 294.265625 C 326.390625 299.457031 319.632812 298.328125 320.917969 305.242188 Z M 488.148438 306.089844 C 487.910156 300.316406 494.972656 297.957031 494.0625 294.269531 C 488.453125 293.957031 482.457031 303.074219 488.148438 306.089844 Z M 492.375 308.625 C 491.402344 301.738281 497.671875 302.101562 499.128906 297.644531 C 493.371094 296.878906 486.183594 305.582031 492.375 308.625 Z M 334.429688 339.03125 C 325.976562 342.117188 312.59375 340.277344 304.023438 343.253906 C 304.0625 362.808594 304.277344 375.175781 304.867188 391.394531 C 373.355469 391.597656 438.851562 393.605469 503.351562 394.773438 C 493.613281 380.015625 488.289062 360.847656 481.394531 343.253906 C 440.355469 344.765625 392.257812 343.023438 345.414062 342.40625 C 335.367188 336.121094 340.910156 314.25 339.5 299.332031 L 336.964844 299.332031 C 334.054688 311.492188 340.554688 327.851562 334.429688 339.03125 Z M 494.90625 307.777344 C 492.910156 316.410156 498.734375 323.429688 505.042969 328.050781 C 515.027344 326.488281 520.660156 320.582031 522.78125 311.15625 C 517.050781 302.816406 498.226562 293.429688 494.90625 307.777344 Z M 580.214844 315.378906 C 582.5625 315.882812 579.859375 308.234375 577.679688 307.777344 C 575.636719 310.441406 580.4375 311.898438 580.214844 315.378906 Z M 507.578125 331.429688 C 507.660156 335 509.847656 336.472656 512.644531 337.339844 C 518.375 333.367188 533.929688 324.53125 524.464844 316.222656 C 521.4375 323.890625 515.699219 328.847656 507.578125 331.429688 Z M 471.257812 322.980469 C 474.621094 326.375 477.8125 329.945312 482.238281 332.273438 C 495.953125 327.464844 475.863281 309.453125 471.257812 322.980469 Z M 516.023438 340.71875 C 524.699219 347.558594 532.15625 336.949219 536.292969 331.429688 C 535.746094 328.035156 535.382812 324.457031 533.757812 322.136719 L 531.226562 322.136719 C 529.566406 331.738281 520.546875 333.984375 516.023438 340.71875 Z M 525.3125 346.632812 C 526.4375 347.476562 527.863281 348.023438 528.691406 349.164062 C 533.554688 346.429688 538.863281 344.136719 541.359375 339.03125 C 540.230469 338.1875 539.703125 336.746094 537.980469 336.496094 C 534.980469 341.09375 529.65625 343.375 525.3125 346.632812 Z M 289.664062 343.253906 C 289.292969 355.089844 290.515625 371.722656 288.820312 379.570312 C 293 382.433594 295.40625 387.066406 300.644531 388.863281 C 301.242188 372.40625 298.675781 358.511719 300.644531 343.253906 C 297.515625 340.945312 293.578125 343.675781 289.664062 343.253906 Z M 534.605469 350.855469 C 537.777344 352.265625 544.351562 350.722656 544.738281 346.632812 C 543.480469 345.640625 543.746094 343.121094 541.359375 343.253906 C 539.394531 346.074219 537.015625 348.480469 534.605469 350.855469 Z M 532.914062 362.679688 C 536.707031 362.265625 539.246094 363.109375 542.207031 363.523438 C 544.003906 361.097656 542.230469 355.097656 543.894531 352.542969 C 539.964844 352.273438 538.261719 354.226562 534.605469 354.234375 C 531.957031 352.375 527.519531 352.3125 522.78125 352.542969 C 519.914062 352.03125 521.191406 347.375 517.710938 347.476562 L 516.023438 347.476562 C 518.855469 355.34375 528.734375 356.160156 532.914062 362.679688 Z M 532.914062 362.679688 " fill-opacity="1" fill-rule="evenodd"/></g><path fill="#4b545d" d="M 531.230469 133.789062 C 527.894531 136.253906 524.027344 135.003906 521.9375 132.101562 C 522.355469 125.808594 532.714844 125.378906 531.230469 133.789062 Z M 531.230469 133.789062 " fill-opacity="1" fill-rule="evenodd"/><path fill="#4b545d" d="M 500.820312 187 C 504.199219 199.429688 500.511719 214.507812 499.976562 228.386719 C 499.371094 243.921875 501.746094 259.578125 498.285156 273.996094 C 479.925781 276.960938 455.648438 273.070312 437.472656 273.996094 C 433.625 274.191406 430.195312 274.148438 427.339844 276.527344 C 427.628906 249.902344 429.265625 224.414062 429.871094 197.132812 C 429.941406 194.019531 428.316406 189.1875 431.5625 187 C 453.5625 185.75 483.167969 187.050781 500.820312 187 Z M 456.898438 190.378906 C 451.816406 188.859375 438.527344 192.792969 434.09375 191.222656 C 431.242188 197.097656 432.773438 207.355469 432.40625 215.714844 C 435.4375 216.414062 436.492188 213.8125 438.316406 215.714844 C 436.695312 220.285156 437.785156 227.574219 437.472656 233.453125 C 434.851562 233.738281 433.4375 231.496094 431.558594 233.453125 C 431.558594 246.121094 431.863281 259.089844 430.714844 270.613281 L 458.589844 270.613281 C 461.042969 264.972656 463.359375 256.367188 461.96875 249.5 L 452.675781 249.5 C 445.8125 239.480469 452.042969 228.875 450.140625 212.335938 C 452.746094 209.824219 459.015625 210.550781 462.8125 211.492188 C 464.890625 201.601562 464.214844 192.5625 456.898438 190.378906 Z M 473.792969 190.378906 C 468.214844 192.964844 470.945312 203.855469 469.570312 210.648438 C 472.171875 213.300781 478.871094 209.644531 480.546875 211.492188 C 479.832031 221.066406 482.332031 240.757812 478.859375 250.34375 L 469.570312 250.34375 C 469.019531 257.5 467.703125 263.816406 470.410156 271.460938 C 479.0625 270.683594 488.5 272.703125 494.90625 271.460938 C 499.035156 261.792969 494.683594 243.648438 497.4375 232.609375 C 496.851562 230.941406 492.726562 232.816406 492.371094 230.921875 C 493.085938 227.898438 491.921875 221.867188 492.371094 216.5625 C 493.449219 215.390625 496.359375 216.042969 497.4375 214.871094 C 498.183594 206.890625 495.71875 195.695312 499.128906 190.378906 C 490.410156 190.617188 481.042969 190.597656 473.792969 190.378906 Z M 453.519531 214.871094 C 452.117188 221.523438 452.875 234.910156 452.675781 245.277344 C 454.742188 247.238281 459.816406 247.492188 462.8125 246.121094 C 462.015625 235.816406 463.199219 224.046875 463.65625 214.871094 C 461.71875 213.550781 455.457031 213.550781 453.519531 214.871094 Z M 470.414062 214.871094 C 468.28125 225.574219 469.691406 235.066406 469.570312 246.964844 L 476.324219 246.964844 C 478.25 238.191406 476.644531 225.886719 477.171875 215.714844 C 475.941406 214.410156 472.84375 214.972656 470.414062 214.871094 Z M 434.09375 229.230469 C 435.164062 227.277344 436.589844 217.753906 432.40625 218.25 C 431.535156 220.398438 429.769531 229.582031 434.09375 229.230469 Z M 497.441406 228.386719 C 496.554688 225.328125 499.355469 218.585938 495.75 218.25 C 494.828125 220.21875 493.214844 228.882812 497.441406 228.386719 Z M 467.035156 245.277344 C 467.261719 244.128906 466.511719 241.980469 466.191406 243.589844 C 465.960938 244.738281 466.714844 246.886719 467.035156 245.277344 Z M 467.035156 254.566406 C 467.144531 253.457031 467.164062 248.457031 466.191406 251.191406 C 466.078125 252.300781 466.0625 257.300781 467.035156 254.566406 Z M 467.035156 254.566406 " fill-opacity="1" fill-rule="evenodd"/><path fill="#4b545d" d="M 423.960938 187 C 426.953125 192.316406 425.054688 198.148438 424.800781 203.890625 C 423.761719 227.652344 424.0625 253.25 423.960938 273.152344 C 400.75 274.828125 371.375 274.214844 351.324219 272.308594 C 351.792969 243.78125 351.652344 214.640625 353.011719 187 C 353.632812 186.214844 354.546875 185.722656 355.546875 185.3125 C 375.261719 186.679688 402.179688 185.210938 423.960938 187 Z M 356.390625 189.53125 C 354.015625 195.324219 357.019531 206.492188 354.699219 212.339844 C 355.839844 214.015625 360.59375 212.070312 360.613281 214.871094 C 361.25 220.011719 359.261719 222.53125 359.769531 227.539062 C 358.398438 228.988281 354.464844 227.867188 354.699219 230.921875 L 354.699219 268.925781 C 362.542969 267.175781 372.699219 271.367188 380.882812 268.925781 C 384.730469 264.324219 384.875 256.023438 385.105469 247.8125 C 381.9375 245.914062 374.667969 248.113281 371.59375 246.121094 C 371.285156 234.132812 373.003906 220.128906 372.4375 210.648438 C 375.867188 208.265625 379.882812 211.300781 384.261719 210.648438 C 387.609375 201.828125 381.914062 195.066406 379.195312 189.53125 C 371.820312 189.75 361.082031 189.226562 356.390625 189.53125 Z M 389.332031 194.601562 C 388.703125 192.003906 391.648438 192.976562 391.019531 190.378906 L 388.484375 190.378906 C 388.945312 191.605469 387.496094 194.742188 389.332031 194.601562 Z M 395.242188 191.222656 C 392.519531 195.820312 391.152344 201.773438 391.863281 209.804688 C 395.539062 210.351562 401.410156 208.703125 403.6875 210.648438 C 403.128906 223.042969 405.109375 237.972656 401.996094 247.8125 C 398.140625 248.179688 392.699219 246.960938 390.175781 248.65625 C 390.667969 256.492188 390.34375 266.046875 396.085938 270.617188 L 419.738281 270.617188 C 421.863281 260.078125 419.449219 244.992188 421.425781 234.300781 C 419.957031 232.671875 415.558594 233.96875 415.511719 230.921875 L 415.511719 216.566406 C 416.742188 214.976562 421.042969 216.460938 422.273438 214.875 C 421.765625 207.214844 423.316406 197.5 421.425781 191.226562 C 412.453125 189.980469 402.289062 191.003906 395.242188 191.222656 Z M 391.863281 213.183594 C 391.785156 227.34375 391.066406 232.214844 391.019531 245.277344 C 393.242188 243.84375 398.257812 245.195312 400.3125 243.589844 C 400.070312 232.84375 399.046875 224.382812 400.3125 214.027344 C 398.011719 213.289062 393.53125 211.9375 391.863281 213.183594 Z M 375.816406 214.027344 C 376.472656 224.820312 374.605469 233.089844 374.972656 243.589844 C 377.507812 244.714844 381.433594 244.449219 385.105469 244.433594 C 385.648438 235.507812 384.777344 224.292969 385.105469 213.183594 C 382 213.457031 377.628906 212.460938 375.816406 214.027344 Z M 356.390625 224.164062 C 355.632812 221.824219 358.125 216.234375 354.699219 216.5625 C 355.460938 218.898438 352.964844 224.492188 356.390625 224.164062 Z M 420.582031 228.386719 C 423.585938 227.351562 423.097656 218.210938 418.894531 219.09375 C 417.664062 221.148438 416.941406 228.535156 420.582031 228.386719 Z M 388.484375 259.636719 C 388.175781 257.367188 389.261719 249.355469 387.640625 251.191406 C 388.734375 254.894531 385.484375 259.105469 388.484375 259.636719 Z M 388.484375 259.636719 " fill-opacity="1" fill-rule="evenodd"/><path fill="#4b545d" d="M 325.140625 374.5 C 324.175781 377.195312 321.777344 378.453125 318.382812 378.722656 C 311.019531 374.433594 323.492188 365.671875 325.140625 374.5 Z M 325.140625 374.5 " fill-opacity="1" fill-rule="evenodd"/><g fill="#212124" fill-opacity="1"><g transform="translate(54.854578, 595.642154)"><g><path d="M 43.875 -76.734375 C 49.257812 -76.734375 54.515625 -75.695312 59.640625 -73.625 C 64.773438 -71.550781 69.203125 -68.660156 72.921875 -64.953125 L 65.390625 -55.5625 C 62.617188 -58.539062 59.34375 -60.90625 55.5625 -62.65625 C 51.78125 -64.40625 47.957031 -65.28125 44.09375 -65.28125 C 36.457031 -65.28125 30 -62.675781 24.71875 -57.46875 C 19.445312 -52.269531 16.8125 -45.921875 16.8125 -38.421875 C 16.8125 -30.859375 19.445312 -24.472656 24.71875 -19.265625 C 30 -14.066406 36.457031 -11.46875 44.09375 -11.46875 C 52.03125 -11.46875 59.128906 -14.484375 65.390625 -20.515625 L 73.03125 -12 C 69.09375 -8.144531 64.503906 -5.085938 59.265625 -2.828125 C 54.023438 -0.578125 48.75 0.546875 43.4375 0.546875 C 32.238281 0.546875 22.816406 -3.179688 15.171875 -10.640625 C 7.535156 -18.097656 3.71875 -27.320312 3.71875 -38.3125 C 3.71875 -49.15625 7.59375 -58.269531 15.34375 -65.65625 C 23.09375 -73.039062 32.601562 -76.734375 43.875 -76.734375 Z M 43.875 -76.734375 "/></g></g></g><g fill="#212124" fill-opacity="1"><g transform="translate(130.926123, 595.642154)"><g><path d="M 34.171875 -58.5 C 43.117188 -58.5 50.394531 -55.789062 56 -50.375 C 61.601562 -44.957031 64.40625 -37.84375 64.40625 -29.03125 C 64.40625 -20.300781 61.601562 -13.207031 56 -7.75 C 50.394531 -2.289062 43.117188 0.4375 34.171875 0.4375 C 25.140625 0.4375 17.820312 -2.289062 12.21875 -7.75 C 6.625 -13.207031 3.828125 -20.300781 3.828125 -29.03125 C 3.828125 -37.84375 6.625 -44.957031 12.21875 -50.375 C 17.820312 -55.789062 25.140625 -58.5 34.171875 -58.5 Z M 34.171875 -47.703125 C 28.929688 -47.703125 24.65625 -45.953125 21.34375 -42.453125 C 18.03125 -38.960938 16.375 -34.453125 16.375 -28.921875 C 16.375 -23.316406 18.03125 -18.769531 21.34375 -15.28125 C 24.65625 -11.789062 28.929688 -10.046875 34.171875 -10.046875 C 39.410156 -10.046875 43.664062 -11.789062 46.9375 -15.28125 C 50.207031 -18.769531 51.84375 -23.316406 51.84375 -28.921875 C 51.84375 -34.453125 50.1875 -38.960938 46.875 -42.453125 C 43.570312 -45.953125 39.335938 -47.703125 34.171875 -47.703125 Z M 34.171875 -47.703125 "/></g></g></g><g fill="#212124" fill-opacity="1"><g transform="translate(199.1395, 595.642154)"><g><path d="M 43.21875 -58.5 C 49.988281 -58.5 55.285156 -56.515625 59.109375 -52.546875 C 62.929688 -48.585938 64.84375 -43.113281 64.84375 -36.125 L 64.84375 0 L 52.28125 0 L 52.28125 -32.640625 C 52.28125 -37.003906 51.039062 -40.441406 48.5625 -42.953125 C 46.09375 -45.460938 42.675781 -46.71875 38.3125 -46.71875 C 33.65625 -46.644531 29.851562 -45.148438 26.90625 -42.234375 C 23.957031 -39.328125 22.265625 -35.546875 21.828125 -30.890625 L 21.828125 0 L 9.28125 0 L 9.28125 -58.078125 L 21.828125 -58.078125 L 21.828125 -46.9375 C 25.753906 -54.644531 32.882812 -58.5 43.21875 -58.5 Z M 43.21875 -58.5 "/></g></g></g><g fill="#212124" fill-opacity="1"><g transform="translate(271.500246, 595.642154)"><g><path d="M 33.1875 -58.5 C 43.15625 -58.5 50.375 -55.5 54.84375 -49.5 C 59.320312 -43.5 61.160156 -35.078125 60.359375 -24.234375 L 16.484375 -24.234375 C 17.503906 -19.722656 19.613281 -16.175781 22.8125 -13.59375 C 26.007812 -11.007812 29.90625 -9.71875 34.5 -9.71875 C 41.039062 -9.71875 46.492188 -11.972656 50.859375 -16.484375 L 57.53125 -9.390625 C 51.5625 -2.835938 43.554688 0.4375 33.515625 0.4375 C 24.554688 0.4375 17.367188 -2.269531 11.953125 -7.6875 C 6.535156 -13.113281 3.828125 -20.191406 3.828125 -28.921875 C 3.828125 -37.660156 6.550781 -44.757812 12 -50.21875 C 17.457031 -55.675781 24.519531 -58.4375 33.1875 -58.5 Z M 16.265625 -33.40625 L 49.453125 -33.40625 C 49.234375 -38.0625 47.664062 -41.734375 44.75 -44.421875 C 41.84375 -47.117188 38.023438 -48.46875 33.296875 -48.46875 C 28.710938 -48.46875 24.910156 -47.117188 21.890625 -44.421875 C 18.867188 -41.734375 16.992188 -38.0625 16.265625 -33.40625 Z M 16.265625 -33.40625 "/></g></g></g><g fill="#212124" fill-opacity="1"><g transform="translate(335.675379, 595.642154)"><g><path d="M 33.078125 -58.5 C 43.554688 -58.5 51.5625 -55.335938 57.09375 -49.015625 L 50.21875 -40.9375 C 45.84375 -45.375 40.3125 -47.554688 33.625 -47.484375 C 28.601562 -47.484375 24.472656 -45.753906 21.234375 -42.296875 C 17.992188 -38.835938 16.375 -34.378906 16.375 -28.921875 C 16.375 -23.460938 17.992188 -19.003906 21.234375 -15.546875 C 24.472656 -12.097656 28.601562 -10.375 33.625 -10.375 C 41.039062 -10.375 46.75 -12.703125 50.75 -17.359375 L 57.75 -10.375 C 52.289062 -3.164062 44.066406 0.4375 33.078125 0.4375 C 24.410156 0.4375 17.367188 -2.269531 11.953125 -7.6875 C 6.535156 -13.113281 3.828125 -20.191406 3.828125 -28.921875 C 3.828125 -37.734375 6.535156 -44.863281 11.953125 -50.3125 C 17.367188 -55.769531 24.410156 -58.5 33.078125 -58.5 Z M 33.078125 -58.5 "/></g></g></g><g fill="#212124" fill-opacity="1"><g transform="translate(397.231129, 595.642154)"><g><path d="M 38.96875 -13.3125 L 42.140625 -3.71875 C 37.335938 -0.875 32.566406 0.546875 27.828125 0.546875 C 23.097656 0.546875 19.207031 -0.867188 16.15625 -3.703125 C 13.101562 -6.546875 11.578125 -10.769531 11.578125 -16.375 L 11.578125 -46.5 L 3.390625 -46.5 L 3.390625 -55.890625 L 11.578125 -55.890625 L 11.578125 -71.828125 L 24.015625 -71.828125 L 24.015625 -55.890625 L 41.15625 -55.890625 L 41.15625 -46.5 L 24.015625 -46.5 L 24.015625 -18.671875 C 24.015625 -15.753906 24.523438 -13.710938 25.546875 -12.546875 C 26.566406 -11.390625 28.128906 -10.8125 30.234375 -10.8125 C 32.566406 -10.8125 35.476562 -11.644531 38.96875 -13.3125 Z M 38.96875 -13.3125 "/></g></g></g><g fill="#212124" fill-opacity="1"><g transform="translate(441.651657, 595.642154)"><g><path d="M 10.25 -80.171875 C 11.632812 -81.585938 13.382812 -82.296875 15.5 -82.296875 C 17.613281 -82.296875 19.359375 -81.585938 20.734375 -80.171875 C 22.117188 -78.753906 22.8125 -76.914062 22.8125 -74.65625 C 22.8125 -72.476562 22.117188 -70.675781 20.734375 -69.25 C 19.359375 -67.832031 17.613281 -67.125 15.5 -67.125 C 13.382812 -67.125 11.632812 -67.832031 10.25 -69.25 C 8.875 -70.675781 8.1875 -72.476562 8.1875 -74.65625 C 8.1875 -76.914062 8.875 -78.753906 10.25 -80.171875 Z M 21.71875 0 L 9.28125 0 L 9.28125 -58.078125 L 21.71875 -58.078125 Z M 21.71875 0 "/></g></g></g><g fill="#212124" fill-opacity="1"><g transform="translate(472.647829, 595.642154)"><g><path d="M 35.578125 0 L 22.59375 0 L 0.109375 -58.078125 L 13.203125 -58.078125 L 29.359375 -12.328125 L 45.296875 -58.078125 L 57.859375 -58.078125 Z M 35.578125 0 "/></g></g></g><g fill="#212124" fill-opacity="1"><g transform="translate(529.947061, 595.642154)"><g><path d="M 10.25 -80.171875 C 11.632812 -81.585938 13.382812 -82.296875 15.5 -82.296875 C 17.613281 -82.296875 19.359375 -81.585938 20.734375 -80.171875 C 22.117188 -78.753906 22.8125 -76.914062 22.8125 -74.65625 C 22.8125 -72.476562 22.117188 -70.675781 20.734375 -69.25 C 19.359375 -67.832031 17.613281 -67.125 15.5 -67.125 C 13.382812 -67.125 11.632812 -67.832031 10.25 -69.25 C 8.875 -70.675781 8.1875 -72.476562 8.1875 -74.65625 C 8.1875 -76.914062 8.875 -78.753906 10.25 -80.171875 Z M 21.71875 0 L 9.28125 0 L 9.28125 -58.078125 L 21.71875 -58.078125 Z M 21.71875 0 "/></g></g></g><g fill="#212124" fill-opacity="1"><g transform="translate(560.943232, 595.642154)"><g><path d="M 64.625 -81 L 64.625 0 L 52.0625 0 L 52.0625 -9.9375 C 47.769531 -2.945312 40.96875 0.546875 31.65625 0.546875 C 23.363281 0.546875 16.648438 -2.195312 11.515625 -7.6875 C 6.390625 -13.1875 3.828125 -20.375 3.828125 -29.25 C 3.828125 -37.988281 6.375 -45.066406 11.46875 -50.484375 C 16.5625 -55.898438 23.21875 -58.609375 31.4375 -58.609375 C 40.75 -58.609375 47.625 -55.082031 52.0625 -48.03125 L 52.0625 -81 Z M 21.453125 -15.21875 C 24.765625 -11.695312 29.039062 -9.9375 34.28125 -9.9375 C 39.519531 -9.9375 43.789062 -11.695312 47.09375 -15.21875 C 50.40625 -18.75 52.0625 -23.28125 52.0625 -28.8125 C 52.0625 -34.414062 50.40625 -39 47.09375 -42.5625 C 43.789062 -46.132812 39.519531 -47.921875 34.28125 -47.921875 C 29.039062 -47.921875 24.765625 -46.132812 21.453125 -42.5625 C 18.140625 -39 16.445312 -34.414062 16.375 -28.8125 C 16.445312 -23.28125 18.140625 -18.75 21.453125 -15.21875 Z M 21.453125 -15.21875 "/></g></g></g><g fill="#212124" fill-opacity="1"><g transform="translate(635.377687, 595.642154)"><g><path d="M 44.09375 0 L 44.09375 -7.09375 C 39.945312 -2 33.546875 0.546875 24.890625 0.546875 C 18.703125 0.546875 13.75 -1.144531 10.03125 -4.53125 C 6.320312 -7.914062 4.46875 -12.226562 4.46875 -17.46875 C 4.46875 -22.78125 6.394531 -27 10.25 -30.125 C 14.113281 -33.257812 19.503906 -34.863281 26.421875 -34.9375 L 43.984375 -34.9375 L 43.984375 -36.671875 C 43.984375 -40.390625 42.800781 -43.265625 40.4375 -45.296875 C 38.070312 -47.335938 34.632812 -48.359375 30.125 -48.359375 C 24.519531 -48.359375 18.804688 -46.394531 12.984375 -42.46875 L 7.859375 -51.1875 C 12.296875 -53.8125 16.28125 -55.6875 19.8125 -56.8125 C 23.34375 -57.9375 27.691406 -58.5 32.859375 -58.5 C 40.273438 -58.5 46.019531 -56.695312 50.09375 -53.09375 C 54.175781 -49.5 56.253906 -44.5 56.328125 -38.09375 L 56.4375 0 Z M 27.5 -9.390625 C 31.945312 -9.390625 35.710938 -10.425781 38.796875 -12.5 C 41.890625 -14.570312 43.617188 -17.207031 43.984375 -20.40625 L 43.984375 -25.765625 L 28.265625 -25.765625 C 24.117188 -25.765625 21.082031 -25.160156 19.15625 -23.953125 C 17.226562 -22.753906 16.265625 -20.773438 16.265625 -18.015625 C 16.265625 -15.390625 17.265625 -13.296875 19.265625 -11.734375 C 21.265625 -10.171875 24.007812 -9.390625 27.5 -9.390625 Z M 27.5 -9.390625 "/></g></g></g><g fill="#212124" fill-opacity="1"><g transform="translate(699.334522, 595.642154)"><g><path d="M 64.625 -81 L 64.625 0 L 52.0625 0 L 52.0625 -9.9375 C 47.769531 -2.945312 40.96875 0.546875 31.65625 0.546875 C 23.363281 0.546875 16.648438 -2.195312 11.515625 -7.6875 C 6.390625 -13.1875 3.828125 -20.375 3.828125 -29.25 C 3.828125 -37.988281 6.375 -45.066406 11.46875 -50.484375 C 16.5625 -55.898438 23.21875 -58.609375 31.4375 -58.609375 C 40.75 -58.609375 47.625 -55.082031 52.0625 -48.03125 L 52.0625 -81 Z M 21.453125 -15.21875 C 24.765625 -11.695312 29.039062 -9.9375 34.28125 -9.9375 C 39.519531 -9.9375 43.789062 -11.695312 47.09375 -15.21875 C 50.40625 -18.75 52.0625 -23.28125 52.0625 -28.8125 C 52.0625 -34.414062 50.40625 -39 47.09375 -42.5625 C 43.789062 -46.132812 39.519531 -47.921875 34.28125 -47.921875 C 29.039062 -47.921875 24.765625 -46.132812 21.453125 -42.5625 C 18.140625 -39 16.445312 -34.414062 16.375 -28.8125 C 16.445312 -23.28125 18.140625 -18.75 21.453125 -15.21875 Z M 21.453125 -15.21875 "/></g></g></g><g fill="#212124" fill-opacity="1"><g transform="translate(155.859606, 729.540648)"><g><path d="M 22.921875 0 L 10.046875 0 L 10.046875 -76.40625 L 22.921875 -76.40625 Z M 22.921875 0 "/></g></g></g><g fill="#212124" fill-opacity="1"><g transform="translate(188.820315, 729.540648)"><g><path d="M 43.21875 -58.5 C 49.988281 -58.5 55.285156 -56.515625 59.109375 -52.546875 C 62.929688 -48.585938 64.84375 -43.113281 64.84375 -36.125 L 64.84375 0 L 52.28125 0 L 52.28125 -32.640625 C 52.28125 -37.003906 51.039062 -40.441406 48.5625 -42.953125 C 46.09375 -45.460938 42.675781 -46.71875 38.3125 -46.71875 C 33.65625 -46.644531 29.851562 -45.148438 26.90625 -42.234375 C 23.957031 -39.328125 22.265625 -35.546875 21.828125 -30.890625 L 21.828125 0 L 9.28125 0 L 9.28125 -58.078125 L 21.828125 -58.078125 L 21.828125 -46.9375 C 25.753906 -54.644531 32.882812 -58.5 43.21875 -58.5 Z M 43.21875 -58.5 "/></g></g></g><g fill="#212124" fill-opacity="1"><g transform="translate(261.181061, 729.540648)"><g><path d="M 64.625 -81 L 64.625 0 L 52.0625 0 L 52.0625 -9.9375 C 47.769531 -2.945312 40.96875 0.546875 31.65625 0.546875 C 23.363281 0.546875 16.648438 -2.195312 11.515625 -7.6875 C 6.390625 -13.1875 3.828125 -20.375 3.828125 -29.25 C 3.828125 -37.988281 6.375 -45.066406 11.46875 -50.484375 C 16.5625 -55.898438 23.21875 -58.609375 31.4375 -58.609375 C 40.75 -58.609375 47.625 -55.082031 52.0625 -48.03125 L 52.0625 -81 Z M 21.453125 -15.21875 C 24.765625 -11.695312 29.039062 -9.9375 34.28125 -9.9375 C 39.519531 -9.9375 43.789062 -11.695312 47.09375 -15.21875 C 50.40625 -18.75 52.0625 -23.28125 52.0625 -28.8125 C 52.0625 -34.414062 50.40625 -39 47.09375 -42.5625 C 43.789062 -46.132812 39.519531 -47.921875 34.28125 -47.921875 C 29.039062 -47.921875 24.765625 -46.132812 21.453125 -42.5625 C 18.140625 -39 16.445312 -34.414062 16.375 -28.8125 C 16.445312 -23.28125 18.140625 -18.75 21.453125 -15.21875 Z M 21.453125 -15.21875 "/></g></g></g><g fill="#212124" fill-opacity="1"><g transform="translate(335.615493, 729.540648)"><g><path d="M 62 -58.078125 L 62 0 L 49.453125 0 L 49.453125 -11.359375 C 45.660156 -3.640625 38.742188 0.289062 28.703125 0.4375 C 22.085938 0.4375 16.882812 -1.5625 13.09375 -5.5625 C 9.3125 -9.570312 7.421875 -15.03125 7.421875 -21.9375 L 7.421875 -58.078125 L 19.96875 -58.078125 L 19.96875 -25.4375 C 19.96875 -21.070312 21.171875 -17.632812 23.578125 -15.125 C 25.984375 -12.613281 29.296875 -11.359375 33.515625 -11.359375 C 38.390625 -11.429688 42.265625 -13.15625 45.140625 -16.53125 C 48.015625 -19.914062 49.453125 -24.226562 49.453125 -29.46875 L 49.453125 -58.078125 Z M 62 -58.078125 "/></g></g></g><g fill="#212124" fill-opacity="1"><g transform="translate(406.884824, 729.540648)"><g><path d="M 26.640625 -58.609375 C 34.640625 -58.609375 41.40625 -56.644531 46.9375 -52.71875 L 42.359375 -43.4375 C 36.828125 -46.863281 31.257812 -48.578125 25.65625 -48.578125 C 19.976562 -48.578125 17.140625 -46.648438 17.140625 -42.796875 C 17.140625 -40.898438 18.191406 -39.332031 20.296875 -38.09375 C 22.410156 -36.851562 24.976562 -35.816406 28 -34.984375 C 31.019531 -34.148438 34.039062 -33.164062 37.0625 -32.03125 C 40.082031 -30.90625 42.644531 -29.066406 44.75 -26.515625 C 46.863281 -23.972656 47.921875 -20.738281 47.921875 -16.8125 C 47.921875 -11.207031 45.789062 -6.929688 41.53125 -3.984375 C 37.269531 -1.035156 31.976562 0.4375 25.65625 0.4375 C 21.289062 0.4375 17.015625 -0.269531 12.828125 -1.6875 C 8.640625 -3.113281 5.128906 -5.097656 2.296875 -7.640625 L 6.765625 -16.59375 C 9.242188 -14.40625 12.28125 -12.65625 15.875 -11.34375 C 19.476562 -10.039062 22.921875 -9.390625 26.203125 -9.390625 C 29.035156 -9.390625 31.320312 -9.894531 33.0625 -10.90625 C 34.8125 -11.925781 35.6875 -13.492188 35.6875 -15.609375 C 35.6875 -17.796875 34.628906 -19.539062 32.515625 -20.84375 C 30.410156 -22.15625 27.863281 -23.210938 24.875 -24.015625 C 21.894531 -24.816406 18.914062 -25.757812 15.9375 -26.84375 C 12.957031 -27.9375 10.425781 -29.738281 8.34375 -32.25 C 6.269531 -34.757812 5.234375 -37.945312 5.234375 -41.8125 C 5.234375 -47.34375 7.289062 -51.523438 11.40625 -54.359375 C 15.519531 -57.191406 20.597656 -58.609375 26.640625 -58.609375 Z M 26.640625 -58.609375 "/></g></g></g><g fill="#212124" fill-opacity="1"><g transform="translate(458.181275, 729.540648)"><g><path d="M 38.96875 -13.3125 L 42.140625 -3.71875 C 37.335938 -0.875 32.566406 0.546875 27.828125 0.546875 C 23.097656 0.546875 19.207031 -0.867188 16.15625 -3.703125 C 13.101562 -6.546875 11.578125 -10.769531 11.578125 -16.375 L 11.578125 -46.5 L 3.390625 -46.5 L 3.390625 -55.890625 L 11.578125 -55.890625 L 11.578125 -71.828125 L 24.015625 -71.828125 L 24.015625 -55.890625 L 41.15625 -55.890625 L 41.15625 -46.5 L 24.015625 -46.5 L 24.015625 -18.671875 C 24.015625 -15.753906 24.523438 -13.710938 25.546875 -12.546875 C 26.566406 -11.390625 28.128906 -10.8125 30.234375 -10.8125 C 32.566406 -10.8125 35.476562 -11.644531 38.96875 -13.3125 Z M 38.96875 -13.3125 "/></g></g></g><g fill="#212124" fill-opacity="1"><g transform="translate(502.601825, 729.540648)"><g><path d="M 21.828125 -58.078125 L 21.828125 -46.5 C 25.828125 -54.5 32.523438 -58.5 41.921875 -58.5 L 41.921875 -46.5 C 36.171875 -46.789062 31.507812 -45.441406 27.9375 -42.453125 C 24.375 -39.472656 22.335938 -35.4375 21.828125 -30.34375 L 21.828125 0 L 9.28125 0 L 9.28125 -58.078125 Z M 21.828125 -58.078125 "/></g></g></g><g fill="#212124" fill-opacity="1"><g transform="translate(545.603513, 729.540648)"><g><path d="M 10.25 -80.171875 C 11.632812 -81.585938 13.382812 -82.296875 15.5 -82.296875 C 17.613281 -82.296875 19.359375 -81.585938 20.734375 -80.171875 C 22.117188 -78.753906 22.8125 -76.914062 22.8125 -74.65625 C 22.8125 -72.476562 22.117188 -70.675781 20.734375 -69.25 C 19.359375 -67.832031 17.613281 -67.125 15.5 -67.125 C 13.382812 -67.125 11.632812 -67.832031 10.25 -69.25 C 8.875 -70.675781 8.1875 -72.476562 8.1875 -74.65625 C 8.1875 -76.914062 8.875 -78.753906 10.25 -80.171875 Z M 21.71875 0 L 9.28125 0 L 9.28125 -58.078125 L 21.71875 -58.078125 Z M 21.71875 0 "/></g></g></g><g fill="#212124" fill-opacity="1"><g transform="translate(576.599684, 729.540648)"><g><path d="M 44.09375 0 L 44.09375 -7.09375 C 39.945312 -2 33.546875 0.546875 24.890625 0.546875 C 18.703125 0.546875 13.75 -1.144531 10.03125 -4.53125 C 6.320312 -7.914062 4.46875 -12.226562 4.46875 -17.46875 C 4.46875 -22.78125 6.394531 -27 10.25 -30.125 C 14.113281 -33.257812 19.503906 -34.863281 26.421875 -34.9375 L 43.984375 -34.9375 L 43.984375 -36.671875 C 43.984375 -40.390625 42.800781 -43.265625 40.4375 -45.296875 C 38.070312 -47.335938 34.632812 -48.359375 30.125 -48.359375 C 24.519531 -48.359375 18.804688 -46.394531 12.984375 -42.46875 L 7.859375 -51.1875 C 12.296875 -53.8125 16.28125 -55.6875 19.8125 -56.8125 C 23.34375 -57.9375 27.691406 -58.5 32.859375 -58.5 C 40.273438 -58.5 46.019531 -56.695312 50.09375 -53.09375 C 54.175781 -49.5 56.253906 -44.5 56.328125 -38.09375 L 56.4375 0 Z M 27.5 -9.390625 C 31.945312 -9.390625 35.710938 -10.425781 38.796875 -12.5 C 41.890625 -14.570312 43.617188 -17.207031 43.984375 -20.40625 L 43.984375 -25.765625 L 28.265625 -25.765625 C 24.117188 -25.765625 21.082031 -25.160156 19.15625 -23.953125 C 17.226562 -22.753906 16.265625 -20.773438 16.265625 -18.015625 C 16.265625 -15.390625 17.265625 -13.296875 19.265625 -11.734375 C 21.265625 -10.171875 24.007812 -9.390625 27.5 -9.390625 Z M 27.5 -9.390625 "/></g></g></g><g fill="#212124" fill-opacity="1"><g transform="translate(640.556519, 729.540648)"><g><path d="M 22.375 0 L 9.828125 0 L 9.828125 -81 L 22.375 -81 Z M 22.375 0 "/></g></g></g></svg>