<svg xmlns="http://www.w3.org/2000/svg" xmlns:xlink="http://www.w3.org/1999/xlink" width="1080" zoomAndPan="magnify" viewBox="0 0 810 809.999993" height="1080" preserveAspectRatio="xMidYMid meet" version="1.0"><defs><g/><clipPath id="3d1f2e992f"><path d="M 367.542969 134.515625 L 443 134.515625 L 443 210 L 367.542969 210 Z M 367.542969 134.515625 " clip-rule="nonzero"/></clipPath><clipPath id="c5dd279c77"><path d="M 362 72.355469 L 392 72.355469 L 392 122 L 362 122 Z M 362 72.355469 " clip-rule="nonzero"/></clipPath><clipPath id="c71ee3da08"><path d="M 427 72.355469 L 458 72.355469 L 458 122 L 427 122 Z M 427 72.355469 " clip-rule="nonzero"/></clipPath><clipPath id="3f7f2a4783"><path d="M 482 110 L 555.289062 110 L 555.289062 145 L 482 145 Z M 482 110 " clip-rule="nonzero"/></clipPath><clipPath id="051275ce79"><path d="M 332 72.355469 L 478 72.355469 L 478 387.691406 L 332 387.691406 Z M 332 72.355469 " clip-rule="nonzero"/></clipPath><clipPath id="1d49bed745"><path d="M 530 178 L 555.289062 178 L 555.289062 212 L 530 212 Z M 530 178 " clip-rule="nonzero"/></clipPath><clipPath id="0199201da8"><path d="M 253.46875 178 L 280 178 L 280 212 L 253.46875 212 Z M 253.46875 178 " clip-rule="nonzero"/></clipPath></defs><g clip-path="url(#3d1f2e992f)"><path fill="#ee1b24" d="M 368.75 174.53125 C 367.492188 173.273438 367.492188 171.214844 368.75 169.957031 L 402.984375 135.722656 C 404.242188 134.46875 406.300781 134.46875 407.558594 135.722656 L 441.789062 169.957031 C 443.046875 171.214844 443.046875 173.273438 441.789062 174.527344 L 407.558594 208.761719 C 406.300781 210.015625 404.242188 210.015625 402.984375 208.761719 Z M 368.75 174.53125 " fill-opacity="1" fill-rule="nonzero"/></g><g clip-path="url(#c5dd279c77)"><path fill="#4b545d" d="M 391.808594 72.355469 L 370.234375 72.355469 L 362.566406 121.277344 L 384.140625 121.277344 L 391.808594 72.355469 " fill-opacity="1" fill-rule="nonzero"/></g><g clip-path="url(#c71ee3da08)"><path fill="#4b545d" d="M 457.035156 72.355469 L 435.460938 72.355469 L 427.796875 121.277344 L 449.367188 121.277344 L 457.035156 72.355469 " fill-opacity="1" fill-rule="nonzero"/></g><path fill="#4b545d" d="M 327.253906 141.800781 C 328.789062 137.574219 326.605469 132.886719 322.378906 131.351562 L 266.191406 110.902344 C 261.96875 109.363281 257.28125 111.550781 255.742188 115.773438 L 254.8125 118.328125 L 326.324219 144.355469 L 327.253906 141.800781 " fill-opacity="1" fill-rule="nonzero"/><path fill="#4b545d" d="M 315.613281 152.027344 L 258.269531 131.15625 L 260.1875 135.949219 C 264.546875 146.847656 274.949219 153.890625 286.683594 153.890625 L 314.679688 153.890625 L 315.613281 152.027344 " fill-opacity="1" fill-rule="nonzero"/><path fill="#4b545d" d="M 549.832031 135.949219 L 551.75 131.15625 L 494.40625 152.027344 L 495.339844 153.890625 L 523.335938 153.890625 C 535.070312 153.890625 545.472656 146.847656 549.832031 135.949219 " fill-opacity="1" fill-rule="nonzero"/><g clip-path="url(#3f7f2a4783)"><path fill="#4b545d" d="M 483.695312 144.355469 L 555.207031 118.328125 L 554.277344 115.773438 C 553.070312 112.46875 549.9375 110.40625 546.605469 110.40625 C 545.683594 110.40625 544.742188 110.566406 543.828125 110.902344 L 487.640625 131.351562 C 483.414062 132.886719 481.230469 137.574219 482.765625 141.800781 L 483.695312 144.355469 " fill-opacity="1" fill-rule="nonzero"/></g><g clip-path="url(#051275ce79)"><path fill="#4b545d" d="M 399.574219 344.136719 L 410.445312 344.136719 L 410.445312 355.007812 L 399.574219 355.007812 Z M 415.878906 339.582031 L 411.964844 327.828125 L 410.445312 327.828125 L 410.445312 207.527344 C 410.445312 187.433594 423.046875 169.082031 441.804688 161.867188 L 477.625 148.09375 L 473.722656 137.945312 L 437.902344 151.722656 C 426.769531 156.003906 417.289062 163.40625 410.445312 173.152344 L 410.445312 121.277344 L 416.753906 121.277344 L 424.421875 72.355469 L 402.847656 72.355469 L 395.179688 121.277344 L 399.574219 121.277344 L 399.574219 173.152344 C 392.730469 163.40625 383.25 156.003906 372.117188 151.722656 L 336.296875 137.945312 L 332.394531 148.09375 L 368.214844 161.867188 C 386.972656 169.082031 399.574219 187.433594 399.574219 207.527344 L 399.574219 327.828125 L 398.054688 327.828125 L 394.136719 339.582031 L 394.136719 376.75 L 361.523438 376.75 L 361.523438 387.621094 L 448.496094 387.621094 L 448.496094 376.75 L 415.878906 376.75 L 415.878906 339.582031 " fill-opacity="1" fill-rule="nonzero"/></g><path fill="#4b545d" d="M 470.582031 222.644531 L 480.761719 226.460938 L 497.070312 182.976562 L 486.886719 179.160156 L 470.582031 222.644531 " fill-opacity="1" fill-rule="nonzero"/><g clip-path="url(#1d49bed745)"><path fill="#4b545d" d="M 540.125 178.269531 L 530.804688 183.867188 L 547.109375 211.042969 L 556.429688 205.449219 L 540.125 178.269531 " fill-opacity="1" fill-rule="nonzero"/></g><path fill="#4b545d" d="M 312.949219 182.976562 L 329.257812 226.460938 L 339.4375 222.644531 L 323.128906 179.160156 L 312.949219 182.976562 " fill-opacity="1" fill-rule="nonzero"/><g clip-path="url(#0199201da8)"><path fill="#4b545d" d="M 253.589844 205.449219 L 262.910156 211.042969 L 279.214844 183.867188 L 269.894531 178.269531 L 253.589844 205.449219 " fill-opacity="1" fill-rule="nonzero"/></g><g fill="#212124" fill-opacity="1"><g transform="translate(89.108093, 565.682489)"><g><path d="M 22.25 0 L 9.75 0 L 9.75 -74.1875 L 22.25 -74.1875 Z M 22.25 0 "/></g></g></g><g fill="#212124" fill-opacity="1"><g transform="translate(121.110148, 565.682489)"><g><path d="M 21.734375 0 L 9.53125 0 L 9.53125 -78.640625 L 21.734375 -78.640625 Z M 21.734375 0 "/></g></g></g><g fill="#212124" fill-opacity="1"><g transform="translate(152.370429, 565.682489)"><g><path d="M 60.203125 -56.390625 L 60.203125 0 L 48.015625 0 L 48.015625 -11.015625 C 44.335938 -3.523438 37.625 0.285156 27.875 0.421875 C 21.445312 0.421875 16.394531 -1.519531 12.71875 -5.40625 C 9.039062 -9.289062 7.203125 -14.585938 7.203125 -21.296875 L 7.203125 -56.390625 L 19.390625 -56.390625 L 19.390625 -24.6875 C 19.390625 -20.445312 20.554688 -17.109375 22.890625 -14.671875 C 25.222656 -12.234375 28.4375 -11.015625 32.53125 -11.015625 C 37.269531 -11.085938 41.035156 -12.765625 43.828125 -16.046875 C 46.617188 -19.335938 48.015625 -23.523438 48.015625 -28.609375 L 48.015625 -56.390625 Z M 60.203125 -56.390625 "/></g></g></g><g fill="#212124" fill-opacity="1"><g transform="translate(221.566909, 565.682489)"><g><path d="M 82.5625 -56.8125 C 88.988281 -56.8125 94.039062 -54.867188 97.71875 -50.984375 C 101.394531 -47.097656 103.234375 -41.796875 103.234375 -35.078125 L 103.234375 0 L 91.046875 0 L 91.046875 -31.6875 C 91.046875 -36 89.859375 -39.375 87.484375 -41.8125 C 85.117188 -44.25 81.851562 -45.46875 77.6875 -45.46875 C 72.945312 -45.320312 69.179688 -43.609375 66.390625 -40.328125 C 63.609375 -37.046875 62.21875 -32.894531 62.21875 -27.875 L 62.21875 0 L 50.03125 0 L 50.03125 -31.6875 C 50.03125 -36 48.84375 -39.375 46.46875 -41.8125 C 44.101562 -44.25 40.875 -45.46875 36.78125 -45.46875 C 31.96875 -45.320312 28.148438 -43.609375 25.328125 -40.328125 C 22.503906 -37.046875 21.09375 -32.894531 21.09375 -27.875 L 21.09375 0 L 9.015625 0 L 9.015625 -56.390625 L 21.09375 -56.390625 L 21.09375 -45.46875 C 24.832031 -53.03125 31.648438 -56.8125 41.546875 -56.8125 C 46.566406 -56.8125 50.753906 -55.625 54.109375 -53.25 C 57.460938 -50.882812 59.8125 -47.546875 61.15625 -43.234375 C 64.613281 -52.285156 71.75 -56.8125 82.5625 -56.8125 Z M 82.5625 -56.8125 "/></g></g></g><g fill="#212124" fill-opacity="1"><g transform="translate(332.090532, 565.682489)"><g><path d="M 9.953125 -77.84375 C 11.296875 -79.21875 12.992188 -79.90625 15.046875 -79.90625 C 17.097656 -79.90625 18.796875 -79.21875 20.140625 -77.84375 C 21.484375 -76.46875 22.15625 -74.6875 22.15625 -72.5 C 22.15625 -70.375 21.484375 -68.625 20.140625 -67.25 C 18.796875 -65.875 17.097656 -65.1875 15.046875 -65.1875 C 12.992188 -65.1875 11.296875 -65.875 9.953125 -67.25 C 8.617188 -68.625 7.953125 -70.375 7.953125 -72.5 C 7.953125 -74.6875 8.617188 -76.46875 9.953125 -77.84375 Z M 21.09375 0 L 9.015625 0 L 9.015625 -56.390625 L 21.09375 -56.390625 Z M 21.09375 0 "/></g></g></g><g fill="#212124" fill-opacity="1"><g transform="translate(362.185166, 565.682489)"><g><path d="M 41.96875 -56.8125 C 48.539062 -56.8125 53.679688 -54.882812 57.390625 -51.03125 C 61.097656 -47.175781 62.953125 -41.859375 62.953125 -35.078125 L 62.953125 0 L 50.765625 0 L 50.765625 -31.6875 C 50.765625 -35.925781 49.5625 -39.265625 47.15625 -41.703125 C 44.757812 -44.140625 41.441406 -45.359375 37.203125 -45.359375 C 32.679688 -45.285156 28.988281 -43.835938 26.125 -41.015625 C 23.257812 -38.191406 21.617188 -34.519531 21.203125 -30 L 21.203125 0 L 9.015625 0 L 9.015625 -56.390625 L 21.203125 -56.390625 L 21.203125 -45.578125 C 25.015625 -53.066406 31.9375 -56.8125 41.96875 -56.8125 Z M 41.96875 -56.8125 "/></g></g></g><g fill="#212124" fill-opacity="1"><g transform="translate(432.441318, 565.682489)"><g><path d="M 42.8125 0 L 42.8125 -6.890625 C 38.789062 -1.941406 32.578125 0.53125 24.171875 0.53125 C 18.160156 0.53125 13.351562 -1.109375 9.75 -4.390625 C 6.144531 -7.679688 4.34375 -11.867188 4.34375 -16.953125 C 4.34375 -22.109375 6.210938 -26.207031 9.953125 -29.25 C 13.703125 -32.289062 18.929688 -33.847656 25.640625 -33.921875 L 42.71875 -33.921875 L 42.71875 -35.609375 C 42.71875 -39.210938 41.566406 -42.003906 39.265625 -43.984375 C 36.972656 -45.960938 33.632812 -46.953125 29.25 -46.953125 C 23.8125 -46.953125 18.265625 -45.046875 12.609375 -41.234375 L 7.625 -49.703125 C 11.9375 -52.242188 15.804688 -54.0625 19.234375 -55.15625 C 22.660156 -56.257812 26.882812 -56.8125 31.90625 -56.8125 C 39.113281 -56.8125 44.691406 -55.0625 48.640625 -51.5625 C 52.597656 -48.0625 54.613281 -43.203125 54.6875 -36.984375 L 54.796875 0 Z M 26.703125 -9.109375 C 31.015625 -9.109375 34.671875 -10.113281 37.671875 -12.125 C 40.679688 -14.144531 42.363281 -16.707031 42.71875 -19.8125 L 42.71875 -25.015625 L 27.453125 -25.015625 C 23.421875 -25.015625 20.46875 -24.429688 18.59375 -23.265625 C 16.726562 -22.097656 15.796875 -20.171875 15.796875 -17.484375 C 15.796875 -14.941406 16.765625 -12.910156 18.703125 -11.390625 C 20.648438 -9.867188 23.316406 -9.109375 26.703125 -9.109375 Z M 26.703125 -9.109375 "/></g></g></g><g fill="#212124" fill-opacity="1"><g transform="translate(494.537984, 565.682489)"><g><path d="M 32.109375 -56.8125 C 42.285156 -56.8125 50.0625 -53.738281 55.4375 -47.59375 L 48.75 -39.75 C 44.507812 -44.050781 39.140625 -46.171875 32.640625 -46.109375 C 27.765625 -46.109375 23.753906 -44.425781 20.609375 -41.0625 C 17.460938 -37.707031 15.890625 -33.378906 15.890625 -28.078125 C 15.890625 -22.785156 17.460938 -18.457031 20.609375 -15.09375 C 23.753906 -11.738281 27.765625 -10.0625 32.640625 -10.0625 C 39.847656 -10.0625 45.394531 -12.320312 49.28125 -16.84375 L 56.0625 -10.0625 C 50.757812 -3.070312 42.773438 0.421875 32.109375 0.421875 C 23.703125 0.421875 16.863281 -2.207031 11.59375 -7.46875 C 6.332031 -12.738281 3.703125 -19.609375 3.703125 -28.078125 C 3.703125 -36.628906 6.332031 -43.554688 11.59375 -48.859375 C 16.863281 -54.160156 23.703125 -56.8125 32.109375 -56.8125 Z M 32.109375 -56.8125 "/></g></g></g><g fill="#212124" fill-opacity="1"><g transform="translate(554.303401, 565.682489)"><g><path d="M 9.953125 -77.84375 C 11.296875 -79.21875 12.992188 -79.90625 15.046875 -79.90625 C 17.097656 -79.90625 18.796875 -79.21875 20.140625 -77.84375 C 21.484375 -76.46875 22.15625 -74.6875 22.15625 -72.5 C 22.15625 -70.375 21.484375 -68.625 20.140625 -67.25 C 18.796875 -65.875 17.097656 -65.1875 15.046875 -65.1875 C 12.992188 -65.1875 11.296875 -65.875 9.953125 -67.25 C 8.617188 -68.625 7.953125 -70.375 7.953125 -72.5 C 7.953125 -74.6875 8.617188 -76.46875 9.953125 -77.84375 Z M 21.09375 0 L 9.015625 0 L 9.015625 -56.390625 L 21.09375 -56.390625 Z M 21.09375 0 "/></g></g></g><g fill="#212124" fill-opacity="1"><g transform="translate(584.398057, 565.682489)"><g><path d="M 49.703125 -74.828125 L 36.78125 -64.4375 L 25.96875 -64.4375 L 37.203125 -80.125 Z M 33.171875 -56.8125 C 41.859375 -56.8125 48.921875 -54.175781 54.359375 -48.90625 C 59.804688 -43.644531 62.53125 -36.738281 62.53125 -28.1875 C 62.53125 -19.707031 59.804688 -12.816406 54.359375 -7.515625 C 48.921875 -2.222656 41.859375 0.421875 33.171875 0.421875 C 24.410156 0.421875 17.304688 -2.222656 11.859375 -7.515625 C 6.421875 -12.816406 3.703125 -19.707031 3.703125 -28.1875 C 3.703125 -36.738281 6.421875 -43.644531 11.859375 -48.90625 C 17.304688 -54.175781 24.410156 -56.8125 33.171875 -56.8125 Z M 33.171875 -46.3125 C 28.085938 -46.3125 23.9375 -44.613281 20.71875 -41.21875 C 17.5 -37.832031 15.890625 -33.453125 15.890625 -28.078125 C 15.890625 -22.640625 17.5 -18.222656 20.71875 -14.828125 C 23.9375 -11.441406 28.085938 -9.75 33.171875 -9.75 C 38.253906 -9.75 42.382812 -11.441406 45.5625 -14.828125 C 48.75 -18.222656 50.34375 -22.640625 50.34375 -28.078125 C 50.34375 -33.453125 48.734375 -37.832031 45.515625 -41.21875 C 42.304688 -44.613281 38.191406 -46.3125 33.171875 -46.3125 Z M 33.171875 -46.3125 "/></g></g></g><g fill="#212124" fill-opacity="1"><g transform="translate(650.627442, 565.682489)"><g><path d="M 41.96875 -56.8125 C 48.539062 -56.8125 53.679688 -54.882812 57.390625 -51.03125 C 61.097656 -47.175781 62.953125 -41.859375 62.953125 -35.078125 L 62.953125 0 L 50.765625 0 L 50.765625 -31.6875 C 50.765625 -35.925781 49.5625 -39.265625 47.15625 -41.703125 C 44.757812 -44.140625 41.441406 -45.359375 37.203125 -45.359375 C 32.679688 -45.285156 28.988281 -43.835938 26.125 -41.015625 C 23.257812 -38.191406 21.617188 -34.519531 21.203125 -30 L 21.203125 0 L 9.015625 0 L 9.015625 -56.390625 L 21.203125 -56.390625 L 21.203125 -45.578125 C 25.015625 -53.066406 31.9375 -56.8125 41.96875 -56.8125 Z M 41.96875 -56.8125 "/></g></g></g><g fill="#212124" fill-opacity="1"><g transform="translate(37.603, 695.68658)"><g><path d="M 56.8125 -56.390625 L 31.15625 7.734375 C 27.695312 16.640625 21.585938 21.09375 12.828125 21.09375 C 7.953125 21.09375 3.601562 19.503906 -0.21875 16.328125 L 4.984375 6.890625 C 7.523438 8.722656 9.960938 9.640625 12.296875 9.640625 C 16.109375 9.640625 18.96875 7.554688 20.875 3.390625 L 22.78125 -0.84375 L -0.53125 -56.390625 L 12.078125 -56.390625 L 28.9375 -13.671875 L 44.625 -56.390625 Z M 56.8125 -56.390625 "/></g></g></g><g fill="#212124" fill-opacity="1"><g transform="translate(93.871497, 695.68658)"><g/></g></g><g fill="#212124" fill-opacity="1"><g transform="translate(121.210986, 695.68658)"><g><path d="M 25.859375 -56.90625 C 33.628906 -56.90625 40.203125 -55 45.578125 -51.1875 L 41.125 -42.1875 C 35.75 -45.5 30.34375 -47.15625 24.90625 -47.15625 C 19.394531 -47.15625 16.640625 -45.285156 16.640625 -41.546875 C 16.640625 -39.710938 17.660156 -38.191406 19.703125 -36.984375 C 21.753906 -35.785156 24.242188 -34.78125 27.171875 -33.96875 C 30.109375 -33.15625 33.039062 -32.203125 35.96875 -31.109375 C 38.90625 -30.015625 41.398438 -28.226562 43.453125 -25.75 C 45.503906 -23.28125 46.53125 -20.140625 46.53125 -16.328125 C 46.53125 -10.878906 44.460938 -6.722656 40.328125 -3.859375 C 36.191406 -1.003906 31.050781 0.421875 24.90625 0.421875 C 20.664062 0.421875 16.515625 -0.265625 12.453125 -1.640625 C 8.390625 -3.015625 4.976562 -4.941406 2.21875 -7.421875 L 6.578125 -16.109375 C 8.972656 -13.992188 11.921875 -12.296875 15.421875 -11.015625 C 18.921875 -9.742188 22.257812 -9.109375 25.4375 -9.109375 C 28.1875 -9.109375 30.410156 -9.601562 32.109375 -10.59375 C 33.804688 -11.582031 34.65625 -13.101562 34.65625 -15.15625 C 34.65625 -17.269531 33.628906 -18.960938 31.578125 -20.234375 C 29.535156 -21.515625 27.0625 -22.539062 24.15625 -23.3125 C 21.257812 -24.09375 18.363281 -25.007812 15.46875 -26.0625 C 12.570312 -27.125 10.117188 -28.875 8.109375 -31.3125 C 6.097656 -33.75 5.09375 -36.84375 5.09375 -40.59375 C 5.09375 -45.957031 7.085938 -50.015625 11.078125 -52.765625 C 15.066406 -55.523438 19.992188 -56.90625 25.859375 -56.90625 Z M 25.859375 -56.90625 "/></g></g></g><g fill="#212124" fill-opacity="1"><g transform="translate(171.015493, 695.68658)"><g><path d="M 32.21875 -56.8125 C 41.894531 -56.8125 48.90625 -53.894531 53.25 -48.0625 C 57.601562 -42.226562 59.390625 -34.050781 58.609375 -23.53125 L 16 -23.53125 C 16.988281 -19.144531 19.035156 -15.695312 22.140625 -13.1875 C 25.253906 -10.6875 29.035156 -9.4375 33.484375 -9.4375 C 39.847656 -9.4375 45.148438 -11.625 49.390625 -16 L 55.859375 -9.109375 C 50.054688 -2.753906 42.28125 0.421875 32.53125 0.421875 C 23.84375 0.421875 16.863281 -2.207031 11.59375 -7.46875 C 6.332031 -12.738281 3.703125 -19.609375 3.703125 -28.078125 C 3.703125 -36.554688 6.351562 -43.445312 11.65625 -48.75 C 16.957031 -54.050781 23.8125 -56.738281 32.21875 -56.8125 Z M 15.796875 -32.4375 L 48.015625 -32.4375 C 47.796875 -36.957031 46.273438 -40.523438 43.453125 -43.140625 C 40.628906 -45.753906 36.921875 -47.0625 32.328125 -47.0625 C 27.867188 -47.0625 24.171875 -45.753906 21.234375 -43.140625 C 18.304688 -40.523438 16.492188 -36.957031 15.796875 -32.4375 Z M 15.796875 -32.4375 "/></g></g></g><g fill="#212124" fill-opacity="1"><g transform="translate(233.324107, 695.68658)"><g><path d="M 31.375 -71.640625 C 28.757812 -71.640625 27.453125 -69.910156 27.453125 -66.453125 L 19.609375 -66.453125 C 19.609375 -75.710938 22.859375 -80.34375 29.359375 -80.34375 C 31.472656 -80.34375 33.851562 -79.367188 36.5 -77.421875 C 39.15625 -75.472656 40.976562 -74.5 41.96875 -74.5 C 44.65625 -74.5 46 -76.234375 46 -79.703125 L 53.734375 -79.703125 C 53.734375 -70.441406 50.519531 -65.8125 44.09375 -65.8125 C 41.757812 -65.8125 39.300781 -66.78125 36.71875 -68.71875 C 34.144531 -70.664062 32.363281 -71.640625 31.375 -71.640625 Z M 41.96875 -56.8125 C 48.539062 -56.8125 53.679688 -54.882812 57.390625 -51.03125 C 61.097656 -47.175781 62.953125 -41.859375 62.953125 -35.078125 L 62.953125 0 L 50.765625 0 L 50.765625 -31.6875 C 50.765625 -35.925781 49.5625 -39.265625 47.15625 -41.703125 C 44.757812 -44.140625 41.441406 -45.359375 37.203125 -45.359375 C 32.679688 -45.285156 28.988281 -43.835938 26.125 -41.015625 C 23.257812 -38.191406 21.617188 -34.519531 21.203125 -30 L 21.203125 0 L 9.015625 0 L 9.015625 -56.390625 L 21.203125 -56.390625 L 21.203125 -45.578125 C 25.015625 -53.066406 31.9375 -56.8125 41.96875 -56.8125 Z M 41.96875 -56.8125 "/></g></g></g><g fill="#212124" fill-opacity="1"><g transform="translate(303.580259, 695.68658)"><g><path d="M 42.8125 0 L 42.8125 -6.890625 C 38.789062 -1.941406 32.578125 0.53125 24.171875 0.53125 C 18.160156 0.53125 13.351562 -1.109375 9.75 -4.390625 C 6.144531 -7.679688 4.34375 -11.867188 4.34375 -16.953125 C 4.34375 -22.109375 6.210938 -26.207031 9.953125 -29.25 C 13.703125 -32.289062 18.929688 -33.847656 25.640625 -33.921875 L 42.71875 -33.921875 L 42.71875 -35.609375 C 42.71875 -39.210938 41.566406 -42.003906 39.265625 -43.984375 C 36.972656 -45.960938 33.632812 -46.953125 29.25 -46.953125 C 23.8125 -46.953125 18.265625 -45.046875 12.609375 -41.234375 L 7.625 -49.703125 C 11.9375 -52.242188 15.804688 -54.0625 19.234375 -55.15625 C 22.660156 -56.257812 26.882812 -56.8125 31.90625 -56.8125 C 39.113281 -56.8125 44.691406 -55.0625 48.640625 -51.5625 C 52.597656 -48.0625 54.613281 -43.203125 54.6875 -36.984375 L 54.796875 0 Z M 26.703125 -9.109375 C 31.015625 -9.109375 34.671875 -10.113281 37.671875 -12.125 C 40.679688 -14.144531 42.363281 -16.707031 42.71875 -19.8125 L 42.71875 -25.015625 L 27.453125 -25.015625 C 23.421875 -25.015625 20.46875 -24.429688 18.59375 -23.265625 C 16.726562 -22.097656 15.796875 -20.171875 15.796875 -17.484375 C 15.796875 -14.941406 16.765625 -12.910156 18.703125 -11.390625 C 20.648438 -9.867188 23.316406 -9.109375 26.703125 -9.109375 Z M 26.703125 -9.109375 "/></g></g></g><g fill="#212124" fill-opacity="1"><g transform="translate(365.676949, 695.68658)"><g><path d="M 21.734375 0 L 9.53125 0 L 9.53125 -78.640625 L 21.734375 -78.640625 Z M 21.734375 0 "/></g></g></g><g fill="#212124" fill-opacity="1"><g transform="translate(396.93723, 695.68658)"><g><path d="M 9.953125 -77.84375 C 11.296875 -79.21875 12.992188 -79.90625 15.046875 -79.90625 C 17.097656 -79.90625 18.796875 -79.21875 20.140625 -77.84375 C 21.484375 -76.46875 22.15625 -74.6875 22.15625 -72.5 C 22.15625 -70.375 21.484375 -68.625 20.140625 -67.25 C 18.796875 -65.875 17.097656 -65.1875 15.046875 -65.1875 C 12.992188 -65.1875 11.296875 -65.875 9.953125 -67.25 C 8.617188 -68.625 7.953125 -70.375 7.953125 -72.5 C 7.953125 -74.6875 8.617188 -76.46875 9.953125 -77.84375 Z M 21.09375 0 L 9.015625 0 L 9.015625 -56.390625 L 21.09375 -56.390625 Z M 21.09375 0 "/></g></g></g><g fill="#212124" fill-opacity="1"><g transform="translate(427.031885, 695.68658)"><g><path d="M 52.03125 -48.109375 L 19.8125 -9.96875 L 53 -9.859375 L 53 0.109375 L 4.765625 0 L 4.765625 -8.265625 L 36.984375 -46.421875 L 5.71875 -46.421875 L 5.71875 -56.390625 L 52.03125 -56.28125 Z M 52.03125 -48.109375 "/></g></g></g><g fill="#212124" fill-opacity="1"><g transform="translate(483.936182, 695.68658)"><g><path d="M 42.8125 0 L 42.8125 -6.890625 C 38.789062 -1.941406 32.578125 0.53125 24.171875 0.53125 C 18.160156 0.53125 13.351562 -1.109375 9.75 -4.390625 C 6.144531 -7.679688 4.34375 -11.867188 4.34375 -16.953125 C 4.34375 -22.109375 6.210938 -26.207031 9.953125 -29.25 C 13.703125 -32.289062 18.929688 -33.847656 25.640625 -33.921875 L 42.71875 -33.921875 L 42.71875 -35.609375 C 42.71875 -39.210938 41.566406 -42.003906 39.265625 -43.984375 C 36.972656 -45.960938 33.632812 -46.953125 29.25 -46.953125 C 23.8125 -46.953125 18.265625 -45.046875 12.609375 -41.234375 L 7.625 -49.703125 C 11.9375 -52.242188 15.804688 -54.0625 19.234375 -55.15625 C 22.660156 -56.257812 26.882812 -56.8125 31.90625 -56.8125 C 39.113281 -56.8125 44.691406 -55.0625 48.640625 -51.5625 C 52.597656 -48.0625 54.613281 -43.203125 54.6875 -36.984375 L 54.796875 0 Z M 26.703125 -9.109375 C 31.015625 -9.109375 34.671875 -10.113281 37.671875 -12.125 C 40.679688 -14.144531 42.363281 -16.707031 42.71875 -19.8125 L 42.71875 -25.015625 L 27.453125 -25.015625 C 23.421875 -25.015625 20.46875 -24.429688 18.59375 -23.265625 C 16.726562 -22.097656 15.796875 -20.171875 15.796875 -17.484375 C 15.796875 -14.941406 16.765625 -12.910156 18.703125 -11.390625 C 20.648438 -9.867188 23.316406 -9.109375 26.703125 -9.109375 Z M 26.703125 -9.109375 "/></g></g></g><g fill="#212124" fill-opacity="1"><g transform="translate(546.032849, 695.68658)"><g><path d="M 32.109375 -56.8125 C 42.285156 -56.8125 50.0625 -53.738281 55.4375 -47.59375 L 48.75 -39.75 C 44.507812 -44.050781 39.140625 -46.171875 32.640625 -46.109375 C 27.765625 -46.109375 23.753906 -44.425781 20.609375 -41.0625 C 17.460938 -37.707031 15.890625 -33.378906 15.890625 -28.078125 C 15.890625 -22.785156 17.460938 -18.457031 20.609375 -15.09375 C 23.753906 -11.738281 27.765625 -10.0625 32.640625 -10.0625 C 39.847656 -10.0625 45.394531 -12.320312 49.28125 -16.84375 L 56.0625 -10.0625 C 50.757812 -3.070312 42.773438 0.421875 32.109375 0.421875 C 23.703125 0.421875 16.863281 -2.207031 11.59375 -7.46875 C 6.332031 -12.738281 3.703125 -19.609375 3.703125 -28.078125 C 3.703125 -36.628906 6.332031 -43.554688 11.59375 -48.859375 C 16.863281 -54.160156 23.703125 -56.8125 32.109375 -56.8125 Z M 32.109375 -56.8125 "/></g></g></g><g fill="#212124" fill-opacity="1"><g transform="translate(605.798266, 695.68658)"><g><path d="M 9.953125 -77.84375 C 11.296875 -79.21875 12.992188 -79.90625 15.046875 -79.90625 C 17.097656 -79.90625 18.796875 -79.21875 20.140625 -77.84375 C 21.484375 -76.46875 22.15625 -74.6875 22.15625 -72.5 C 22.15625 -70.375 21.484375 -68.625 20.140625 -67.25 C 18.796875 -65.875 17.097656 -65.1875 15.046875 -65.1875 C 12.992188 -65.1875 11.296875 -65.875 9.953125 -67.25 C 8.617188 -68.625 7.953125 -70.375 7.953125 -72.5 C 7.953125 -74.6875 8.617188 -76.46875 9.953125 -77.84375 Z M 21.09375 0 L 9.015625 0 L 9.015625 -56.390625 L 21.09375 -56.390625 Z M 21.09375 0 "/></g></g></g><g fill="#212124" fill-opacity="1"><g transform="translate(635.892921, 695.68658)"><g><path d="M 49.703125 -74.828125 L 36.78125 -64.4375 L 25.96875 -64.4375 L 37.203125 -80.125 Z M 33.171875 -56.8125 C 41.859375 -56.8125 48.921875 -54.175781 54.359375 -48.90625 C 59.804688 -43.644531 62.53125 -36.738281 62.53125 -28.1875 C 62.53125 -19.707031 59.804688 -12.816406 54.359375 -7.515625 C 48.921875 -2.222656 41.859375 0.421875 33.171875 0.421875 C 24.410156 0.421875 17.304688 -2.222656 11.859375 -7.515625 C 6.421875 -12.816406 3.703125 -19.707031 3.703125 -28.1875 C 3.703125 -36.738281 6.421875 -43.644531 11.859375 -48.90625 C 17.304688 -54.175781 24.410156 -56.8125 33.171875 -56.8125 Z M 33.171875 -46.3125 C 28.085938 -46.3125 23.9375 -44.613281 20.71875 -41.21875 C 17.5 -37.832031 15.890625 -33.453125 15.890625 -28.078125 C 15.890625 -22.640625 17.5 -18.222656 20.71875 -14.828125 C 23.9375 -11.441406 28.085938 -9.75 33.171875 -9.75 C 38.253906 -9.75 42.382812 -11.441406 45.5625 -14.828125 C 48.75 -18.222656 50.34375 -22.640625 50.34375 -28.078125 C 50.34375 -33.453125 48.734375 -37.832031 45.515625 -41.21875 C 42.304688 -44.613281 38.191406 -46.3125 33.171875 -46.3125 Z M 33.171875 -46.3125 "/></g></g></g><g fill="#212124" fill-opacity="1"><g transform="translate(702.122306, 695.68658)"><g><path d="M 41.96875 -56.8125 C 48.539062 -56.8125 53.679688 -54.882812 57.390625 -51.03125 C 61.097656 -47.175781 62.953125 -41.859375 62.953125 -35.078125 L 62.953125 0 L 50.765625 0 L 50.765625 -31.6875 C 50.765625 -35.925781 49.5625 -39.265625 47.15625 -41.703125 C 44.757812 -44.140625 41.441406 -45.359375 37.203125 -45.359375 C 32.679688 -45.285156 28.988281 -43.835938 26.125 -41.015625 C 23.257812 -38.191406 21.617188 -34.519531 21.203125 -30 L 21.203125 0 L 9.015625 0 L 9.015625 -56.390625 L 21.203125 -56.390625 L 21.203125 -45.578125 C 25.015625 -53.066406 31.9375 -56.8125 41.96875 -56.8125 Z M 41.96875 -56.8125 "/></g></g></g></svg>