<svg xmlns="http://www.w3.org/2000/svg" xmlns:xlink="http://www.w3.org/1999/xlink" width="1080" zoomAndPan="magnify" viewBox="0 0 810 809.999993" height="1080" preserveAspectRatio="xMidYMid meet" version="1.0"><defs><g/><clipPath id="4b6091a5b1"><path d="M 355.488281 254.578125 L 430.878906 254.578125 L 430.878906 329.96875 L 355.488281 329.96875 Z M 355.488281 254.578125 " clip-rule="nonzero"/></clipPath><clipPath id="115948430e"><path d="M 338.25 336.019531 L 445 336.019531 L 445 362.773438 L 338.25 362.773438 Z M 338.25 336.019531 " clip-rule="nonzero"/></clipPath><clipPath id="288d4b7298"><path d="M 376 52.351562 L 407 52.351562 L 407 153 L 376 153 Z M 376 52.351562 " clip-rule="nonzero"/></clipPath><clipPath id="321c019fe1"><path d="M 252.828125 357.164062 L 530.105469 357.164062 L 530.105469 362.773438 L 252.828125 362.773438 Z M 252.828125 357.164062 " clip-rule="nonzero"/></clipPath></defs><g clip-path="url(#4b6091a5b1)"><path fill="#ee1b24" d="M 356.699219 294.558594 C 355.441406 293.300781 355.441406 291.246094 356.699219 289.988281 L 390.902344 255.785156 C 392.15625 254.53125 394.214844 254.53125 395.472656 255.785156 L 429.671875 289.988281 C 430.929688 291.246094 430.929688 293.300781 429.671875 294.558594 L 395.472656 328.757812 C 394.214844 330.015625 392.15625 330.015625 390.902344 328.757812 Z M 356.699219 294.558594 " fill-opacity="1" fill-rule="nonzero"/></g><path fill="#4b545d" d="M 424.550781 342.753906 C 422.910156 342.753906 421.507812 341.515625 421.324219 339.847656 L 405.898438 199.585938 C 405.695312 197.800781 406.996094 196.199219 408.777344 195.996094 C 410.566406 195.792969 412.167969 197.089844 412.375 198.875 L 427.800781 339.136719 C 428.003906 340.925781 426.707031 342.527344 424.917969 342.734375 C 424.796875 342.753906 424.671875 342.753906 424.550781 342.753906 Z M 358.378906 342.753906 C 358.257812 342.753906 358.136719 342.753906 358.011719 342.734375 C 356.230469 342.527344 354.949219 340.925781 355.132812 339.136719 L 370.558594 198.875 C 370.761719 197.089844 372.363281 195.8125 374.152344 195.996094 C 375.9375 196.199219 377.214844 197.800781 377.035156 199.585938 L 361.609375 339.847656 C 361.421875 341.515625 360.023438 342.753906 358.378906 342.753906 " fill-opacity="1" fill-rule="evenodd"/><g clip-path="url(#115948430e)"><path fill="#4b545d" d="M 441.601562 364.472656 L 341.734375 364.472656 C 339.949219 364.472656 338.488281 363.011719 338.488281 361.222656 L 338.488281 350.46875 C 338.488281 342.628906 344.777344 336.257812 352.492188 336.257812 L 430.640625 336.257812 C 434.375 336.257812 437.910156 337.71875 440.609375 340.398438 C 443.351562 343.097656 444.851562 346.671875 444.851562 350.46875 L 444.851562 361.222656 C 444.851562 363.011719 443.390625 364.472656 441.601562 364.472656 Z M 344.984375 357.976562 L 438.355469 357.976562 L 438.355469 350.464844 C 438.355469 346.285156 434.824219 342.753906 430.640625 342.753906 L 352.492188 342.753906 C 348.351562 342.753906 344.984375 346.203125 344.984375 350.464844 L 344.984375 357.976562 " fill-opacity="1" fill-rule="evenodd"/></g><g clip-path="url(#288d4b7298)"><path fill="#4b545d" d="M 395.523438 152.351562 C 395.242188 152.351562 394.9375 152.3125 394.652344 152.230469 C 392.925781 151.746094 391.914062 149.957031 392.398438 148.234375 C 402.246094 113.097656 400.824219 90.445312 397.878906 77.636719 C 396.035156 69.539062 393.355469 64.277344 391.46875 61.3125 C 389.578125 64.277344 386.898438 69.558594 385.050781 77.636719 C 382.109375 90.445312 380.6875 113.097656 390.53125 148.234375 C 391.019531 149.957031 390.003906 151.746094 388.28125 152.230469 C 386.550781 152.71875 384.765625 151.703125 384.28125 149.976562 C 379.710938 133.71875 377.097656 118.617188 376.484375 105.058594 C 376 94.117188 376.8125 84.148438 378.878906 75.425781 C 382.535156 60.15625 388.929688 53.867188 389.191406 53.601562 C 390.449219 52.382812 392.4375 52.382812 393.699219 53.601562 C 393.960938 53.867188 400.359375 60.179688 404.011719 75.425781 C 406.101562 84.148438 406.914062 94.117188 406.40625 105.058594 C 405.796875 118.597656 403.179688 133.71875 398.609375 149.976562 C 398.246094 151.417969 396.945312 152.351562 395.523438 152.351562 " fill-opacity="1" fill-rule="evenodd"/></g><path fill="#4b545d" d="M 488.390625 215.519531 C 487.761719 215.519531 487.113281 215.519531 486.441406 215.5 C 477.472656 215.277344 467.605469 213.492188 457.152344 210.183594 C 444.222656 206.101562 430.296875 199.667969 415.761719 191.0625 C 414.21875 190.148438 413.710938 188.160156 414.625 186.617188 C 415.539062 185.074219 417.527344 184.566406 419.070312 185.480469 C 450.878906 204.316406 473.347656 208.660156 486.582031 209.007812 C 494.523438 209.207031 500.082031 208.03125 503.351562 206.996094 C 500.953125 204.417969 496.550781 200.523438 489.242188 196.6875 C 477.613281 190.574219 456.054688 183.390625 419.476562 183.796875 C 419.457031 183.796875 419.457031 183.796875 419.4375 183.796875 C 417.648438 183.796875 416.210938 182.375 416.191406 180.585938 C 416.167969 178.804688 417.609375 177.320312 419.398438 177.300781 C 436.304688 177.117188 451.609375 178.476562 464.882812 181.378906 C 475.601562 183.714844 485.039062 187.042969 492.9375 191.285156 C 506.757812 198.695312 511.207031 206.449219 511.386719 206.773438 C 512.238281 208.296875 511.734375 210.246094 510.230469 211.136719 C 509.949219 211.34375 502.800781 215.519531 488.390625 215.519531 " fill-opacity="1" fill-rule="evenodd"/><path fill="#4b545d" d="M 294.542969 215.519531 C 280.128906 215.519531 272.984375 211.34375 272.679688 211.15625 C 271.175781 210.246094 270.652344 208.316406 271.523438 206.792969 C 271.707031 206.46875 276.152344 198.734375 289.976562 191.304688 C 297.871094 187.066406 307.308594 183.734375 318.027344 181.398438 C 331.300781 178.5 346.585938 177.136719 363.515625 177.320312 C 365.300781 177.34375 366.742188 178.804688 366.722656 180.605469 C 366.703125 182.394531 365.261719 183.816406 363.472656 183.816406 C 363.453125 183.816406 363.453125 183.816406 363.433594 183.816406 C 326.371094 183.410156 304.710938 190.777344 293.039062 197.03125 C 286.078125 200.761719 281.875 204.5 279.542969 206.996094 C 282.910156 208.050781 288.695312 209.289062 297.015625 208.988281 C 310.171875 208.515625 332.4375 204.074219 363.839844 185.480469 C 365.378906 184.566406 367.371094 185.074219 368.285156 186.617188 C 369.199219 188.160156 368.691406 190.148438 367.148438 191.0625 C 352.636719 199.667969 338.710938 206.082031 325.757812 210.183594 C 315.304688 213.492188 305.460938 215.277344 296.472656 215.5 C 295.820312 215.519531 295.171875 215.519531 294.542969 215.519531 " fill-opacity="1" fill-rule="evenodd"/><path fill="#4b545d" d="M 391.46875 208.578125 C 383.042969 208.578125 375.128906 205.3125 369.199219 199.386719 C 363.273438 193.457031 360.003906 185.539062 360.003906 177.117188 C 360.003906 168.695312 363.273438 160.777344 369.199219 154.851562 C 375.128906 148.921875 383.042969 145.65625 391.46875 145.65625 C 399.890625 145.65625 407.804688 148.921875 413.730469 154.851562 C 419.660156 160.777344 422.929688 168.695312 422.929688 177.117188 C 422.929688 185.539062 419.660156 193.457031 413.730469 199.386719 C 407.804688 205.3125 399.890625 208.578125 391.46875 208.578125 Z M 391.46875 152.152344 C 377.703125 152.152344 366.496094 163.355469 366.496094 177.117188 C 366.496094 190.878906 377.703125 202.085938 391.46875 202.085938 C 405.226562 202.085938 416.433594 190.878906 416.433594 177.117188 C 416.433594 163.355469 405.226562 152.152344 391.46875 152.152344 " fill-opacity="1" fill-rule="evenodd"/><path fill="#4b545d" d="M 391.46875 197.824219 C 385.882812 197.824219 380.667969 195.6875 376.789062 191.792969 C 372.914062 187.894531 370.761719 182.699219 370.761719 177.117188 C 370.761719 171.535156 372.894531 166.316406 376.789062 162.441406 C 380.6875 158.5625 385.882812 156.414062 391.46875 156.414062 C 397.046875 156.414062 402.265625 158.542969 406.144531 162.441406 C 410.019531 166.339844 412.167969 171.535156 412.167969 177.117188 C 412.167969 182.699219 410.039062 187.914062 406.144531 191.792969 C 402.246094 195.667969 397.046875 197.824219 391.46875 197.824219 Z M 391.46875 162.910156 C 383.488281 162.910156 377.257812 169.140625 377.257812 177.117188 C 377.257812 185.09375 383.488281 191.328125 391.46875 191.328125 C 399.441406 191.328125 405.671875 185.09375 405.671875 177.117188 C 405.671875 169.140625 399.441406 162.910156 391.46875 162.910156 " fill-opacity="1" fill-rule="evenodd"/><path fill="#4b545d" d="M 454.1875 149.714844 C 452.992188 149.714844 451.8125 149.046875 451.261719 147.886719 C 445.480469 135.933594 436.0625 125.761719 424.757812 119.246094 C 423.195312 118.355469 422.664062 116.363281 423.558594 114.800781 C 424.453125 113.238281 426.441406 112.710938 428.003906 113.601562 C 434.234375 117.199219 439.917969 121.742188 444.871094 127.101562 C 449.824219 132.441406 453.925781 138.492188 457.109375 145.046875 C 457.882812 146.671875 457.210938 148.597656 455.609375 149.390625 C 455.140625 149.613281 454.65625 149.714844 454.1875 149.714844 " fill-opacity="1" fill-rule="evenodd"/><path fill="#4b545d" d="M 426.175781 241.054688 C 425.039062 241.054688 423.945312 240.46875 423.335938 239.414062 C 422.460938 237.851562 423.007812 235.859375 424.570312 234.988281 C 431.921875 230.847656 438.496094 225.164062 444.140625 218.121094 C 445.257812 216.71875 447.308594 216.496094 448.707031 217.613281 C 450.109375 218.730469 450.332031 220.777344 449.214844 222.179688 C 443.066406 229.871094 435.835938 236.082031 427.777344 240.628906 C 427.269531 240.914062 426.726562 241.054688 426.175781 241.054688 " fill-opacity="1" fill-rule="evenodd"/><path fill="#4b545d" d="M 353.914062 239.433594 C 353.304688 239.433594 352.675781 239.253906 352.125 238.90625 C 343.90625 233.488281 336.71875 226.605469 331.363281 218.972656 C 330.328125 217.511719 330.691406 215.480469 332.15625 214.449219 C 333.613281 213.410156 335.648438 213.777344 336.679688 215.238281 C 341.574219 222.203125 348.148438 228.511719 355.699219 233.464844 C 357.199219 234.460938 357.605469 236.46875 356.632812 237.96875 C 356.003906 238.925781 354.96875 239.433594 353.914062 239.433594 " fill-opacity="1" fill-rule="evenodd"/><path fill="#4b545d" d="M 330.773438 145.453125 C 330.207031 145.453125 329.636719 145.308594 329.128906 145.003906 C 327.585938 144.089844 327.082031 142.101562 327.992188 140.558594 C 335.480469 127.933594 346.324219 117.824219 359.375 111.308594 C 360.976562 110.496094 362.925781 111.167969 363.738281 112.769531 C 364.550781 114.375 363.882812 116.320312 362.273438 117.136719 C 350.34375 123.105469 340.414062 132.359375 333.574219 143.910156 C 332.96875 144.882812 331.871094 145.453125 330.773438 145.453125 " fill-opacity="1" fill-rule="evenodd"/><path fill="#4b545d" d="M 389.84375 326.714844 C 389.601562 326.714844 389.332031 326.695312 389.070312 326.632812 C 387.589844 326.269531 386.554688 324.953125 386.59375 323.429688 L 386.960938 301.304688 L 372.730469 300.125 C 371.65625 300.046875 370.699219 299.433594 370.175781 298.503906 C 369.644531 297.566406 369.601562 296.429688 370.070312 295.476562 L 389.964844 254.878906 C 390.636719 253.5 392.199219 252.792969 393.675781 253.15625 C 395.160156 253.542969 396.195312 254.902344 396.136719 256.441406 L 395.242188 278.628906 L 410.121094 279.460938 C 411.21875 279.523438 412.191406 280.132812 412.742188 281.066406 C 413.285156 282 413.328125 283.15625 412.839844 284.128906 L 392.746094 324.929688 C 392.199219 326.027344 391.0625 326.714844 389.84375 326.714844 Z M 378.007812 294.035156 L 390.511719 295.070312 C 392.21875 295.214844 393.515625 296.65625 393.496094 298.359375 L 393.3125 309.058594 L 404.839844 285.632812 L 391.667969 284.902344 C 389.902344 284.800781 388.542969 283.296875 388.601562 281.53125 L 389.007812 271.546875 L 378.007812 294.035156 " fill-opacity="1" fill-rule="evenodd"/><g clip-path="url(#321c019fe1)"><path fill="#4b545d" d="M 526.855469 364.472656 L 256.074219 364.472656 C 254.289062 364.472656 252.828125 363.011719 252.828125 361.222656 C 252.828125 359.4375 254.289062 357.976562 256.074219 357.976562 L 526.855469 357.976562 C 528.644531 357.976562 530.105469 359.4375 530.105469 361.222656 C 530.105469 363.011719 528.644531 364.472656 526.855469 364.472656 " fill-opacity="1" fill-rule="evenodd"/></g><g fill="#212124" fill-opacity="1"><g transform="translate(38.48752, 538.859479)"><g><path d="M 14.703125 -62.75 C 22.148438 -69.8125 31.332031 -73.34375 42.25 -73.34375 C 53.164062 -73.34375 62.34375 -69.8125 69.78125 -62.75 C 77.226562 -55.695312 80.953125 -46.953125 80.953125 -36.515625 C 80.953125 -26.078125 77.226562 -17.296875 69.78125 -10.171875 C 62.34375 -3.046875 53.164062 0.515625 42.25 0.515625 C 31.332031 0.515625 22.148438 -3.046875 14.703125 -10.171875 C 7.265625 -17.296875 3.546875 -26.078125 3.546875 -36.515625 C 3.546875 -46.953125 7.265625 -55.695312 14.703125 -62.75 Z M 42.359375 -62.28125 C 35.117188 -62.28125 28.925781 -59.789062 23.78125 -54.8125 C 18.632812 -49.84375 16.0625 -43.742188 16.0625 -36.515625 C 16.0625 -29.285156 18.648438 -23.144531 23.828125 -18.09375 C 29.015625 -13.050781 35.191406 -10.53125 42.359375 -10.53125 C 49.523438 -10.53125 55.644531 -13.050781 60.71875 -18.09375 C 65.789062 -23.144531 68.328125 -29.285156 68.328125 -36.515625 C 68.328125 -43.742188 65.789062 -49.84375 60.71875 -54.8125 C 55.644531 -59.789062 49.523438 -62.28125 42.359375 -62.28125 Z M 42.359375 -62.28125 "/></g></g></g><g fill="#212124" fill-opacity="1"><g transform="translate(122.984264, 538.859479)"><g><path d="M 40.796875 -55.921875 C 48.648438 -55.921875 55.03125 -53.296875 59.9375 -48.046875 C 64.84375 -42.796875 67.296875 -35.960938 67.296875 -27.546875 C 67.296875 -19.191406 64.894531 -12.441406 60.09375 -7.296875 C 55.289062 -2.148438 48.925781 0.421875 41 0.421875 C 32.09375 0.421875 25.554688 -2.914062 21.390625 -9.59375 L 21.390625 20.234375 L 9.390625 20.234375 L 9.390625 -55.5 L 21.390625 -55.5 L 21.390625 -45.90625 C 25.554688 -52.582031 32.023438 -55.921875 40.796875 -55.921875 Z M 26.125 -14.859375 C 29.289062 -11.492188 33.34375 -9.8125 38.28125 -9.8125 C 43.226562 -9.8125 47.28125 -11.492188 50.4375 -14.859375 C 53.601562 -18.234375 55.1875 -22.597656 55.1875 -27.953125 C 55.1875 -33.171875 53.601562 -37.46875 50.4375 -40.84375 C 47.28125 -44.21875 43.226562 -45.90625 38.28125 -45.90625 C 33.34375 -45.90625 29.289062 -44.21875 26.125 -40.84375 C 22.96875 -37.46875 21.390625 -33.171875 21.390625 -27.953125 C 21.390625 -22.597656 22.96875 -18.234375 26.125 -14.859375 Z M 26.125 -14.859375 "/></g></g></g><g fill="#212124" fill-opacity="1"><g transform="translate(193.91981, 538.859479)"><g><path d="M 37.25 -12.734375 L 40.265625 -3.546875 C 35.679688 -0.835938 31.128906 0.515625 26.609375 0.515625 C 22.085938 0.515625 18.363281 -0.835938 15.4375 -3.546875 C 12.519531 -6.253906 11.0625 -10.289062 11.0625 -15.65625 L 11.0625 -44.4375 L 3.234375 -44.4375 L 3.234375 -53.421875 L 11.0625 -53.421875 L 11.0625 -68.640625 L 22.953125 -68.640625 L 22.953125 -53.421875 L 39.328125 -53.421875 L 39.328125 -44.4375 L 22.953125 -44.4375 L 22.953125 -17.84375 C 22.953125 -15.0625 23.4375 -13.113281 24.40625 -12 C 25.382812 -10.882812 26.882812 -10.328125 28.90625 -10.328125 C 31.125 -10.328125 33.90625 -11.128906 37.25 -12.734375 Z M 37.25 -12.734375 "/></g></g></g><g fill="#212124" fill-opacity="1"><g transform="translate(236.376819, 538.859479)"><g><path d="M 9.8125 -76.625 C 11.132812 -77.976562 12.800781 -78.65625 14.8125 -78.65625 C 16.832031 -78.65625 18.5 -77.976562 19.8125 -76.625 C 21.132812 -75.269531 21.796875 -73.515625 21.796875 -71.359375 C 21.796875 -69.273438 21.132812 -67.550781 19.8125 -66.1875 C 18.5 -64.832031 16.832031 -64.15625 14.8125 -64.15625 C 12.800781 -64.15625 11.132812 -64.832031 9.8125 -66.1875 C 8.488281 -67.550781 7.828125 -69.273438 7.828125 -71.359375 C 7.828125 -73.515625 8.488281 -75.269531 9.8125 -76.625 Z M 20.765625 0 L 8.875 0 L 8.875 -55.5 L 20.765625 -55.5 Z M 20.765625 0 "/></g></g></g><g fill="#212124" fill-opacity="1"><g transform="translate(266.002832, 538.859479)"><g><path d="M 81.265625 -55.921875 C 87.597656 -55.921875 92.570312 -54.003906 96.1875 -50.171875 C 99.800781 -46.347656 101.609375 -41.132812 101.609375 -34.53125 L 101.609375 0 L 89.625 0 L 89.625 -31.1875 C 89.625 -35.4375 88.457031 -38.757812 86.125 -41.15625 C 83.789062 -43.550781 80.570312 -44.75 76.46875 -44.75 C 71.8125 -44.613281 68.109375 -42.925781 65.359375 -39.6875 C 62.609375 -36.457031 61.234375 -32.375 61.234375 -27.4375 L 61.234375 0 L 49.25 0 L 49.25 -31.1875 C 49.25 -35.4375 48.082031 -38.757812 45.75 -41.15625 C 43.414062 -43.550781 40.234375 -44.75 36.203125 -44.75 C 31.472656 -44.613281 27.71875 -42.925781 24.9375 -39.6875 C 22.15625 -36.457031 20.765625 -32.375 20.765625 -27.4375 L 20.765625 0 L 8.875 0 L 8.875 -55.5 L 20.765625 -55.5 L 20.765625 -44.75 C 24.453125 -52.195312 31.160156 -55.921875 40.890625 -55.921875 C 45.828125 -55.921875 49.945312 -54.753906 53.25 -52.421875 C 56.5625 -50.097656 58.878906 -46.8125 60.203125 -42.5625 C 63.609375 -51.46875 70.628906 -55.921875 81.265625 -55.921875 Z M 81.265625 -55.921875 "/></g></g></g><g fill="#212124" fill-opacity="1"><g transform="translate(374.805426, 538.859479)"><g><path d="M 9.8125 -76.625 C 11.132812 -77.976562 12.800781 -78.65625 14.8125 -78.65625 C 16.832031 -78.65625 18.5 -77.976562 19.8125 -76.625 C 21.132812 -75.269531 21.796875 -73.515625 21.796875 -71.359375 C 21.796875 -69.273438 21.132812 -67.550781 19.8125 -66.1875 C 18.5 -64.832031 16.832031 -64.15625 14.8125 -64.15625 C 12.800781 -64.15625 11.132812 -64.832031 9.8125 -66.1875 C 8.488281 -67.550781 7.828125 -69.273438 7.828125 -71.359375 C 7.828125 -73.515625 8.488281 -75.269531 9.8125 -76.625 Z M 20.765625 0 L 8.875 0 L 8.875 -55.5 L 20.765625 -55.5 Z M 20.765625 0 "/></g></g></g><g fill="#212124" fill-opacity="1"><g transform="translate(404.431438, 538.859479)"><g><path d="M 51.21875 -47.359375 L 19.515625 -9.8125 L 52.171875 -9.703125 L 52.171875 0.109375 L 4.6875 0 L 4.6875 -8.140625 L 36.40625 -45.703125 L 5.640625 -45.703125 L 5.640625 -55.5 L 51.21875 -55.390625 Z M 51.21875 -47.359375 "/></g></g></g><g fill="#212124" fill-opacity="1"><g transform="translate(460.449644, 538.859479)"><g><path d="M 42.15625 0 L 42.15625 -6.78125 C 38.1875 -1.914062 32.0625 0.515625 23.78125 0.515625 C 17.875 0.515625 13.144531 -1.097656 9.59375 -4.328125 C 6.050781 -7.566406 4.28125 -11.6875 4.28125 -16.6875 C 4.28125 -21.769531 6.125 -25.804688 9.8125 -28.796875 C 13.5 -31.785156 18.644531 -33.316406 25.25 -33.390625 L 42.046875 -33.390625 L 42.046875 -35.046875 C 42.046875 -38.597656 40.914062 -41.347656 38.65625 -43.296875 C 36.394531 -45.242188 33.109375 -46.21875 28.796875 -46.21875 C 23.441406 -46.21875 17.984375 -44.335938 12.421875 -40.578125 L 7.515625 -48.9375 C 11.753906 -51.4375 15.5625 -53.222656 18.9375 -54.296875 C 22.3125 -55.378906 26.46875 -55.921875 31.40625 -55.921875 C 38.5 -55.921875 43.992188 -54.195312 47.890625 -50.75 C 51.785156 -47.3125 53.765625 -42.53125 53.828125 -36.40625 L 53.9375 0 Z M 26.296875 -8.96875 C 30.535156 -8.96875 34.128906 -9.957031 37.078125 -11.9375 C 40.035156 -13.925781 41.691406 -16.453125 42.046875 -19.515625 L 42.046875 -24.625 L 27.015625 -24.625 C 23.054688 -24.625 20.15625 -24.046875 18.3125 -22.890625 C 16.46875 -21.742188 15.546875 -19.851562 15.546875 -17.21875 C 15.546875 -14.707031 16.5 -12.703125 18.40625 -11.203125 C 20.320312 -9.710938 22.953125 -8.96875 26.296875 -8.96875 Z M 26.296875 -8.96875 "/></g></g></g><g fill="#212124" fill-opacity="1"><g transform="translate(521.579366, 538.859479)"><g><path d="M 31.609375 -55.921875 C 41.628906 -55.921875 49.28125 -52.894531 54.5625 -46.84375 L 47.984375 -39.125 C 43.816406 -43.363281 38.535156 -45.445312 32.140625 -45.375 C 27.335938 -45.375 23.390625 -43.722656 20.296875 -40.421875 C 17.203125 -37.117188 15.65625 -32.859375 15.65625 -27.640625 C 15.65625 -22.429688 17.203125 -18.171875 20.296875 -14.859375 C 23.390625 -11.554688 27.335938 -9.90625 32.140625 -9.90625 C 39.234375 -9.90625 44.691406 -12.132812 48.515625 -16.59375 L 55.1875 -9.90625 C 49.96875 -3.019531 42.109375 0.421875 31.609375 0.421875 C 23.335938 0.421875 16.609375 -2.164062 11.421875 -7.34375 C 6.242188 -12.53125 3.65625 -19.296875 3.65625 -27.640625 C 3.65625 -36.054688 6.242188 -42.875 11.421875 -48.09375 C 16.609375 -53.3125 23.335938 -55.921875 31.609375 -55.921875 Z M 31.609375 -55.921875 "/></g></g></g><g fill="#212124" fill-opacity="1"><g transform="translate(580.41414, 538.859479)"><g><path d="M 9.8125 -76.625 C 11.132812 -77.976562 12.800781 -78.65625 14.8125 -78.65625 C 16.832031 -78.65625 18.5 -77.976562 19.8125 -76.625 C 21.132812 -75.269531 21.796875 -73.515625 21.796875 -71.359375 C 21.796875 -69.273438 21.132812 -67.550781 19.8125 -66.1875 C 18.5 -64.832031 16.832031 -64.15625 14.8125 -64.15625 C 12.800781 -64.15625 11.132812 -64.832031 9.8125 -66.1875 C 8.488281 -67.550781 7.828125 -69.273438 7.828125 -71.359375 C 7.828125 -73.515625 8.488281 -75.269531 9.8125 -76.625 Z M 20.765625 0 L 8.875 0 L 8.875 -55.5 L 20.765625 -55.5 Z M 20.765625 0 "/></g></g></g><g fill="#212124" fill-opacity="1"><g transform="translate(610.040174, 538.859479)"><g><path d="M 48.9375 -73.65625 L 36.203125 -63.4375 L 25.5625 -63.4375 L 36.625 -78.875 Z M 32.65625 -55.921875 C 41.207031 -55.921875 48.160156 -53.328125 53.515625 -48.140625 C 58.867188 -42.960938 61.546875 -36.164062 61.546875 -27.75 C 61.546875 -19.40625 58.867188 -12.625 53.515625 -7.40625 C 48.160156 -2.1875 41.207031 0.421875 32.65625 0.421875 C 24.03125 0.421875 17.039062 -2.1875 11.6875 -7.40625 C 6.332031 -12.625 3.65625 -19.40625 3.65625 -27.75 C 3.65625 -36.164062 6.332031 -42.960938 11.6875 -48.140625 C 17.039062 -53.328125 24.03125 -55.921875 32.65625 -55.921875 Z M 32.65625 -45.59375 C 27.644531 -45.59375 23.554688 -43.921875 20.390625 -40.578125 C 17.234375 -37.242188 15.65625 -32.929688 15.65625 -27.640625 C 15.65625 -22.285156 17.234375 -17.9375 20.390625 -14.59375 C 23.554688 -11.257812 27.644531 -9.59375 32.65625 -9.59375 C 37.664062 -9.59375 41.734375 -11.257812 44.859375 -14.59375 C 47.992188 -17.9375 49.5625 -22.285156 49.5625 -27.640625 C 49.5625 -32.929688 47.976562 -37.242188 44.8125 -40.578125 C 41.644531 -43.921875 37.59375 -45.59375 32.65625 -45.59375 Z M 32.65625 -45.59375 "/></g></g></g><g fill="#212124" fill-opacity="1"><g transform="translate(675.238262, 538.859479)"><g><path d="M 41.3125 -55.921875 C 47.78125 -55.921875 52.835938 -54.023438 56.484375 -50.234375 C 60.140625 -46.441406 61.96875 -41.207031 61.96875 -34.53125 L 61.96875 0 L 49.96875 0 L 49.96875 -31.1875 C 49.96875 -35.363281 48.785156 -38.648438 46.421875 -41.046875 C 44.054688 -43.453125 40.789062 -44.65625 36.625 -44.65625 C 32.164062 -44.582031 28.523438 -43.15625 25.703125 -40.375 C 22.890625 -37.59375 21.273438 -33.976562 20.859375 -29.53125 L 20.859375 0 L 8.875 0 L 8.875 -55.5 L 20.859375 -55.5 L 20.859375 -44.859375 C 24.617188 -52.234375 31.4375 -55.921875 41.3125 -55.921875 Z M 41.3125 -55.921875 "/></g></g></g><g fill="#212124" fill-opacity="1"><g transform="translate(114.897634, 666.839199)"><g><path d="M 31.71875 -55.921875 C 41.25 -55.921875 48.148438 -53.050781 52.421875 -47.3125 C 56.703125 -41.570312 58.457031 -33.519531 57.6875 -23.15625 L 15.75 -23.15625 C 16.726562 -18.84375 18.742188 -15.453125 21.796875 -12.984375 C 24.859375 -10.515625 28.582031 -9.28125 32.96875 -9.28125 C 39.226562 -9.28125 44.441406 -11.4375 48.609375 -15.75 L 54.984375 -8.96875 C 49.273438 -2.707031 41.625 0.421875 32.03125 0.421875 C 23.476562 0.421875 16.609375 -2.164062 11.421875 -7.34375 C 6.242188 -12.53125 3.65625 -19.296875 3.65625 -27.640625 C 3.65625 -35.992188 6.257812 -42.773438 11.46875 -47.984375 C 16.6875 -53.203125 23.4375 -55.847656 31.71875 -55.921875 Z M 15.546875 -31.921875 L 47.265625 -31.921875 C 47.054688 -36.367188 45.554688 -39.878906 42.765625 -42.453125 C 39.984375 -45.035156 36.332031 -46.328125 31.8125 -46.328125 C 27.4375 -46.328125 23.804688 -45.035156 20.921875 -42.453125 C 18.035156 -39.878906 16.242188 -36.367188 15.546875 -31.921875 Z M 15.546875 -31.921875 "/></g></g></g><g fill="#212124" fill-opacity="1"><g transform="translate(176.236004, 666.839199)"><g><path d="M 41.3125 -55.921875 C 47.78125 -55.921875 52.835938 -54.023438 56.484375 -50.234375 C 60.140625 -46.441406 61.96875 -41.207031 61.96875 -34.53125 L 61.96875 0 L 49.96875 0 L 49.96875 -31.1875 C 49.96875 -35.363281 48.785156 -38.648438 46.421875 -41.046875 C 44.054688 -43.453125 40.789062 -44.65625 36.625 -44.65625 C 32.164062 -44.582031 28.523438 -43.15625 25.703125 -40.375 C 22.890625 -37.59375 21.273438 -33.976562 20.859375 -29.53125 L 20.859375 0 L 8.875 0 L 8.875 -55.5 L 20.859375 -55.5 L 20.859375 -44.859375 C 24.617188 -52.234375 31.4375 -55.921875 41.3125 -55.921875 Z M 41.3125 -55.921875 "/></g></g></g><g fill="#212124" fill-opacity="1"><g transform="translate(245.398155, 666.839199)"><g><path d="M 31.71875 -55.921875 C 41.25 -55.921875 48.148438 -53.050781 52.421875 -47.3125 C 56.703125 -41.570312 58.457031 -33.519531 57.6875 -23.15625 L 15.75 -23.15625 C 16.726562 -18.84375 18.742188 -15.453125 21.796875 -12.984375 C 24.859375 -10.515625 28.582031 -9.28125 32.96875 -9.28125 C 39.226562 -9.28125 44.441406 -11.4375 48.609375 -15.75 L 54.984375 -8.96875 C 49.273438 -2.707031 41.625 0.421875 32.03125 0.421875 C 23.476562 0.421875 16.609375 -2.164062 11.421875 -7.34375 C 6.242188 -12.53125 3.65625 -19.296875 3.65625 -27.640625 C 3.65625 -35.992188 6.257812 -42.773438 11.46875 -47.984375 C 16.6875 -53.203125 23.4375 -55.847656 31.71875 -55.921875 Z M 15.546875 -31.921875 L 47.265625 -31.921875 C 47.054688 -36.367188 45.554688 -39.878906 42.765625 -42.453125 C 39.984375 -45.035156 36.332031 -46.328125 31.8125 -46.328125 C 27.4375 -46.328125 23.804688 -45.035156 20.921875 -42.453125 C 18.035156 -39.878906 16.242188 -36.367188 15.546875 -31.921875 Z M 15.546875 -31.921875 "/></g></g></g><g fill="#212124" fill-opacity="1"><g transform="translate(306.736525, 666.839199)"><g><path d="M 20.859375 -55.5 L 20.859375 -44.4375 C 24.691406 -52.09375 31.09375 -55.921875 40.0625 -55.921875 L 40.0625 -44.4375 C 34.5625 -44.71875 30.109375 -43.429688 26.703125 -40.578125 C 23.296875 -37.734375 21.347656 -33.875 20.859375 -29 L 20.859375 0 L 8.875 0 L 8.875 -55.5 Z M 20.859375 -55.5 "/></g></g></g><g fill="#212124" fill-opacity="1"><g transform="translate(347.837413, 666.839199)"><g><path d="M 58.953125 -55.5 L 58.953125 -5.421875 C 58.953125 2.503906 56.34375 8.8125 51.125 13.5 C 45.90625 18.195312 38.914062 20.546875 30.15625 20.546875 C 21.945312 20.546875 14.257812 18.113281 7.09375 13.25 L 12.203125 4.59375 C 17.628906 8.625 23.4375 10.640625 29.625 10.640625 C 34.914062 10.640625 39.140625 9.210938 42.296875 6.359375 C 45.460938 3.515625 47.046875 -0.304688 47.046875 -5.109375 L 47.046875 -12.109375 C 43.148438 -5.847656 37.03125 -2.71875 28.6875 -2.71875 C 21.175781 -2.71875 15.125 -5.1875 10.53125 -10.125 C 5.945312 -15.0625 3.65625 -21.53125 3.65625 -29.53125 C 3.65625 -37.382812 5.914062 -43.726562 10.4375 -48.5625 C 14.957031 -53.394531 20.898438 -55.847656 28.265625 -55.921875 C 36.753906 -55.992188 43.015625 -52.863281 47.046875 -46.53125 L 47.046875 -55.5 Z M 31.09375 -12.109375 C 35.75 -12.109375 39.570312 -13.707031 42.5625 -16.90625 C 45.550781 -20.101562 47.046875 -24.203125 47.046875 -29.203125 C 47.046875 -34.210938 45.566406 -38.300781 42.609375 -41.46875 C 39.660156 -44.632812 35.820312 -46.21875 31.09375 -46.21875 C 26.363281 -46.21875 22.5 -44.632812 19.5 -41.46875 C 16.507812 -38.300781 14.984375 -34.21875 14.921875 -29.21875 C 14.984375 -24.207031 16.492188 -20.101562 19.453125 -16.90625 C 22.410156 -13.707031 26.289062 -12.109375 31.09375 -12.109375 Z M 31.09375 -12.109375 "/></g></g></g><g fill="#212124" fill-opacity="1"><g transform="translate(414.60027, 666.839199)"><g><path d="M 34.734375 -63.4375 L 24.09375 -63.4375 L 35.15625 -78.875 L 47.46875 -73.65625 Z M 31.71875 -55.921875 C 41.25 -55.921875 48.148438 -53.050781 52.421875 -47.3125 C 56.703125 -41.570312 58.457031 -33.519531 57.6875 -23.15625 L 15.75 -23.15625 C 16.726562 -18.84375 18.742188 -15.453125 21.796875 -12.984375 C 24.859375 -10.515625 28.582031 -9.28125 32.96875 -9.28125 C 39.226562 -9.28125 44.441406 -11.4375 48.609375 -15.75 L 54.984375 -8.96875 C 49.273438 -2.707031 41.625 0.421875 32.03125 0.421875 C 23.476562 0.421875 16.609375 -2.164062 11.421875 -7.34375 C 6.242188 -12.53125 3.65625 -19.296875 3.65625 -27.640625 C 3.65625 -35.992188 6.257812 -42.773438 11.46875 -47.984375 C 16.6875 -53.203125 23.4375 -55.847656 31.71875 -55.921875 Z M 15.546875 -31.921875 L 47.265625 -31.921875 C 47.054688 -36.367188 45.554688 -39.878906 42.765625 -42.453125 C 39.984375 -45.035156 36.332031 -46.328125 31.8125 -46.328125 C 27.4375 -46.328125 23.804688 -45.035156 20.921875 -42.453125 C 18.035156 -39.878906 16.242188 -36.367188 15.546875 -31.921875 Z M 15.546875 -31.921875 "/></g></g></g><g fill="#212124" fill-opacity="1"><g transform="translate(475.93864, 666.839199)"><g><path d="M 37.25 -12.734375 L 40.265625 -3.546875 C 35.679688 -0.835938 31.128906 0.515625 26.609375 0.515625 C 22.085938 0.515625 18.363281 -0.835938 15.4375 -3.546875 C 12.519531 -6.253906 11.0625 -10.289062 11.0625 -15.65625 L 11.0625 -44.4375 L 3.234375 -44.4375 L 3.234375 -53.421875 L 11.0625 -53.421875 L 11.0625 -68.640625 L 22.953125 -68.640625 L 22.953125 -53.421875 L 39.328125 -53.421875 L 39.328125 -44.4375 L 22.953125 -44.4375 L 22.953125 -17.84375 C 22.953125 -15.0625 23.4375 -13.113281 24.40625 -12 C 25.382812 -10.882812 26.882812 -10.328125 28.90625 -10.328125 C 31.125 -10.328125 33.90625 -11.128906 37.25 -12.734375 Z M 37.25 -12.734375 "/></g></g></g><g fill="#212124" fill-opacity="1"><g transform="translate(518.39567, 666.839199)"><g><path d="M 9.8125 -76.625 C 11.132812 -77.976562 12.800781 -78.65625 14.8125 -78.65625 C 16.832031 -78.65625 18.5 -77.976562 19.8125 -76.625 C 21.132812 -75.269531 21.796875 -73.515625 21.796875 -71.359375 C 21.796875 -69.273438 21.132812 -67.550781 19.8125 -66.1875 C 18.5 -64.832031 16.832031 -64.15625 14.8125 -64.15625 C 12.800781 -64.15625 11.132812 -64.832031 9.8125 -66.1875 C 8.488281 -67.550781 7.828125 -69.273438 7.828125 -71.359375 C 7.828125 -73.515625 8.488281 -75.269531 9.8125 -76.625 Z M 20.765625 0 L 8.875 0 L 8.875 -55.5 L 20.765625 -55.5 Z M 20.765625 0 "/></g></g></g><g fill="#212124" fill-opacity="1"><g transform="translate(548.021704, 666.839199)"><g><path d="M 31.609375 -55.921875 C 41.628906 -55.921875 49.28125 -52.894531 54.5625 -46.84375 L 47.984375 -39.125 C 43.816406 -43.363281 38.535156 -45.445312 32.140625 -45.375 C 27.335938 -45.375 23.390625 -43.722656 20.296875 -40.421875 C 17.203125 -37.117188 15.65625 -32.859375 15.65625 -27.640625 C 15.65625 -22.429688 17.203125 -18.171875 20.296875 -14.859375 C 23.390625 -11.554688 27.335938 -9.90625 32.140625 -9.90625 C 39.234375 -9.90625 44.691406 -12.132812 48.515625 -16.59375 L 55.1875 -9.90625 C 49.96875 -3.019531 42.109375 0.421875 31.609375 0.421875 C 23.335938 0.421875 16.609375 -2.164062 11.421875 -7.34375 C 6.242188 -12.53125 3.65625 -19.296875 3.65625 -27.640625 C 3.65625 -36.054688 6.242188 -42.875 11.421875 -48.09375 C 16.609375 -53.3125 23.335938 -55.921875 31.609375 -55.921875 Z M 31.609375 -55.921875 "/></g></g></g><g fill="#212124" fill-opacity="1"><g transform="translate(606.856478, 666.839199)"><g><path d="M 42.15625 0 L 42.15625 -6.78125 C 38.1875 -1.914062 32.0625 0.515625 23.78125 0.515625 C 17.875 0.515625 13.144531 -1.097656 9.59375 -4.328125 C 6.050781 -7.566406 4.28125 -11.6875 4.28125 -16.6875 C 4.28125 -21.769531 6.125 -25.804688 9.8125 -28.796875 C 13.5 -31.785156 18.644531 -33.316406 25.25 -33.390625 L 42.046875 -33.390625 L 42.046875 -35.046875 C 42.046875 -38.597656 40.914062 -41.347656 38.65625 -43.296875 C 36.394531 -45.242188 33.109375 -46.21875 28.796875 -46.21875 C 23.441406 -46.21875 17.984375 -44.335938 12.421875 -40.578125 L 7.515625 -48.9375 C 11.753906 -51.4375 15.5625 -53.222656 18.9375 -54.296875 C 22.3125 -55.378906 26.46875 -55.921875 31.40625 -55.921875 C 38.5 -55.921875 43.992188 -54.195312 47.890625 -50.75 C 51.785156 -47.3125 53.765625 -42.53125 53.828125 -36.40625 L 53.9375 0 Z M 26.296875 -8.96875 C 30.535156 -8.96875 34.128906 -9.957031 37.078125 -11.9375 C 40.035156 -13.925781 41.691406 -16.453125 42.046875 -19.515625 L 42.046875 -24.625 L 27.015625 -24.625 C 23.054688 -24.625 20.15625 -24.046875 18.3125 -22.890625 C 16.46875 -21.742188 15.546875 -19.851562 15.546875 -17.21875 C 15.546875 -14.707031 16.5 -12.703125 18.40625 -11.203125 C 20.320312 -9.710938 22.953125 -8.96875 26.296875 -8.96875 Z M 26.296875 -8.96875 "/></g></g></g></svg>