<svg xmlns="http://www.w3.org/2000/svg" xmlns:xlink="http://www.w3.org/1999/xlink" width="1080" zoomAndPan="magnify" viewBox="0 0 810 809.999993" height="1080" preserveAspectRatio="xMidYMid meet" version="1.0"><defs><g/><clipPath id="3b4d33bae9"><path d="M 491.667969 245.660156 L 561 245.660156 L 561 315 L 491.667969 315 Z M 491.667969 245.660156 " clip-rule="nonzero"/></clipPath><clipPath id="708b517c71"><path d="M 222 239 L 524 239 L 524 375.378906 L 222 375.378906 Z M 222 239 " clip-rule="nonzero"/></clipPath><clipPath id="a9110b84f5"><path d="M 219.300781 46.78125 L 538.847656 46.78125 L 538.847656 237 L 219.300781 237 Z M 219.300781 46.78125 " clip-rule="nonzero"/></clipPath></defs><g clip-path="url(#3b4d33bae9)"><path fill="#ee1b24" d="M 492.777344 282.417969 C 491.625 281.261719 491.625 279.371094 492.777344 278.214844 L 524.226562 246.769531 C 525.378906 245.613281 527.273438 245.613281 528.429688 246.769531 L 559.871094 278.214844 C 561.027344 279.371094 561.027344 281.261719 559.871094 282.417969 L 528.429688 313.863281 C 527.273438 315.015625 525.378906 315.015625 524.226562 313.863281 Z M 492.777344 282.417969 " fill-opacity="1" fill-rule="nonzero"/></g><path fill="#4b545d" d="M 384.492188 162.078125 L 410.113281 162.078125 L 410.113281 182.527344 L 384.492188 182.527344 L 384.492188 162.078125 " fill-opacity="1" fill-rule="nonzero"/><path fill="#4b545d" d="M 384.492188 128.953125 L 410.113281 128.953125 L 410.113281 149.402344 L 384.492188 149.402344 L 384.492188 128.953125 " fill-opacity="1" fill-rule="nonzero"/><path fill="#4b545d" d="M 384.492188 95.828125 L 410.113281 95.828125 L 410.113281 116.277344 L 384.492188 116.277344 L 384.492188 95.828125 " fill-opacity="1" fill-rule="nonzero"/><path fill="#4b545d" d="M 334.660156 162.078125 L 360.277344 162.078125 L 360.277344 182.527344 L 334.660156 182.527344 L 334.660156 162.078125 " fill-opacity="1" fill-rule="nonzero"/><path fill="#4b545d" d="M 334.660156 128.953125 L 360.277344 128.953125 L 360.277344 149.402344 L 334.660156 149.402344 L 334.660156 128.953125 " fill-opacity="1" fill-rule="nonzero"/><path fill="#4b545d" d="M 334.660156 95.828125 L 360.277344 95.828125 L 360.277344 116.277344 L 334.660156 116.277344 L 334.660156 95.828125 " fill-opacity="1" fill-rule="nonzero"/><g clip-path="url(#708b517c71)"><path fill="#4b545d" d="M 508.4375 291.105469 C 506.042969 292.742188 503.0625 294.816406 499.585938 297.242188 C 475.28125 314.125 401.289062 365.566406 387.355469 365.566406 C 378.386719 365.566406 317.863281 352.683594 273.488281 342.753906 L 269.398438 281.4375 C 292.417969 275.070312 317.308594 268.671875 320.78125 268.585938 C 325.484375 268.585938 361.765625 278.574219 407.074219 292.332031 C 414.464844 294.582031 423.285156 299.109375 423.285156 307.960938 C 423.285156 315.996094 416.800781 322.539062 408.796875 322.683594 L 395.390625 321.371094 L 349.703125 315.46875 C 346.898438 315.117188 344.328125 317.105469 343.949219 319.910156 C 343.597656 322.714844 345.582031 325.285156 348.386719 325.664062 L 394.25 331.535156 L 408.066406 332.910156 C 408.242188 332.910156 408.386719 332.910156 408.5625 332.910156 C 422.320312 332.910156 433.539062 321.71875 433.539062 307.960938 C 433.539062 296.160156 425.183594 287.132812 410.054688 282.519531 C 407.425781 281.730469 404.355469 280.796875 401.054688 279.800781 L 429.363281 262.480469 C 434.53125 259.96875 440.023438 261.136719 443.703125 264.554688 L 429.742188 272.820312 C 427.316406 274.28125 426.5 277.4375 427.960938 279.859375 C 428.925781 281.46875 430.617188 282.371094 432.339844 282.371094 C 433.246094 282.371094 434.152344 282.140625 434.972656 281.640625 L 467.160156 262.566406 C 472.566406 259.820312 478.378906 261.28125 482.058594 265.078125 L 444.523438 287.308594 C 442.097656 288.742188 441.28125 291.894531 442.742188 294.320312 C 444.171875 296.773438 447.328125 297.5625 449.75 296.132812 L 494.765625 269.433594 C 496.664062 268.46875 498.621094 268 500.519531 268 C 507.648438 268 513.433594 273.785156 513.433594 280.882812 C 513.433594 285.117188 511.5625 288.945312 508.4375 291.105469 Z M 491.171875 259.878906 C 486.878906 254.269531 480.21875 250.851562 472.917969 250.851562 C 469.382812 250.851562 465.875 251.730469 462.195312 253.570312 L 452.703125 259.207031 C 448.351562 254.007812 441.953125 250.851562 434.941406 250.851562 C 431.378906 250.851562 427.902344 251.730469 424.542969 253.425781 C 424.425781 253.484375 424.28125 253.539062 424.191406 253.597656 L 387.824219 275.859375 C 361.328125 268 327.386719 258.332031 320.78125 258.332031 C 315.320312 258.332031 283.859375 266.804688 268.726562 270.980469 L 266.652344 239.929688 L 223.011719 239.839844 L 222.777344 373.367188 L 275.503906 373.453125 L 274.191406 353.414062 C 305.125 360.308594 375.847656 375.820312 387.355469 375.820312 C 402.429688 375.820312 453.023438 342.082031 505.457031 305.652344 C 508.875 303.257812 511.855469 301.183594 514.25 299.550781 C 520.152344 295.488281 523.6875 288.535156 523.6875 280.882812 C 523.6875 265.019531 507.621094 252.636719 491.171875 259.878906 " fill-opacity="1" fill-rule="nonzero"/></g><g clip-path="url(#a9110b84f5)"><path fill="#4b545d" d="M 464.269531 152.351562 C 453.78125 152.820312 444.347656 147.824219 438.679688 139.851562 L 438.679688 105.410156 C 443.792969 98.195312 452.058594 93.316406 461.582031 92.878906 C 478 92.148438 491.933594 104.855469 492.664062 121.269531 C 493.421875 137.71875 480.6875 151.621094 464.269531 152.351562 Z M 396.089844 226.316406 L 396.089844 201.777344 C 396.089844 198.945312 393.78125 196.667969 390.976562 196.667969 L 353.792969 196.667969 C 350.988281 196.667969 348.679688 198.945312 348.679688 201.777344 L 348.679688 226.316406 L 316.34375 226.316406 L 316.371094 81.632812 L 428.425781 81.632812 L 428.425781 226.316406 Z M 385.835938 226.316406 L 358.933594 226.316406 L 358.933594 206.917969 L 385.835938 206.917969 Z M 301.707031 167.660156 C 292.214844 177.824219 276.292969 178.378906 266.128906 168.886719 C 255.992188 159.390625 255.4375 143.472656 264.929688 133.335938 C 274.394531 123.171875 290.316406 122.644531 300.480469 132.109375 C 302.90625 134.386719 304.773438 137.046875 306.089844 139.910156 L 306.089844 161.117188 C 305.007812 163.453125 303.546875 165.703125 301.707031 167.660156 Z M 350.667969 61.039062 L 394.105469 61.039062 L 394.105469 71.378906 L 350.667969 71.378906 Z M 526.929688 129.128906 C 527.453125 124.046875 527.367188 118.875 526.636719 113.707031 L 538.351562 108.621094 C 537.296875 102.925781 535.574219 97.347656 533.210938 91.941406 C 530.871094 86.539062 527.921875 81.484375 524.445312 76.871094 L 512.761719 81.953125 C 509.488281 77.921875 505.75 74.328125 501.691406 71.261719 L 506.304688 59.519531 C 496.722656 52.945312 485.710938 48.535156 474.085938 46.78125 L 469.441406 58.613281 C 464.359375 58.085938 459.1875 58.175781 454.015625 58.90625 L 448.90625 47.160156 C 443.207031 48.242188 437.628906 49.964844 432.226562 52.304688 C 426.820312 54.667969 421.796875 57.621094 417.152344 61.039062 L 421.648438 71.378906 L 404.355469 71.378906 L 404.355469 55.894531 C 404.355469 53.0625 402.050781 50.785156 399.214844 50.785156 L 345.554688 50.785156 C 342.722656 50.785156 340.414062 53.0625 340.414062 55.894531 L 340.414062 71.378906 L 311.230469 71.378906 C 308.398438 71.378906 306.089844 73.6875 306.089844 76.488281 L 306.089844 89.839844 C 301.972656 88.292969 297.734375 87.152344 293.46875 86.453125 L 289.410156 96.472656 C 285.027344 95.972656 280.648438 96.03125 276.382812 96.558594 L 272.175781 86.625 C 267.355469 87.472656 262.625 88.847656 258.035156 90.804688 C 253.449219 92.761719 249.15625 95.183594 245.214844 98.019531 L 249.417969 107.980469 C 246.03125 110.667969 242.964844 113.792969 240.277344 117.269531 L 230.257812 113.207031 C 227.480469 117.210938 225.117188 121.535156 223.214844 126.148438 C 221.347656 130.792969 220.03125 135.554688 219.300781 140.347656 L 229.261719 144.40625 C 228.765625 148.789062 228.824219 153.140625 229.378906 157.433594 L 219.535156 161.582031 C 221.230469 171.253906 225.058594 180.511719 230.898438 188.574219 L 240.800781 184.398438 C 243.460938 187.757812 246.585938 190.851562 250.0625 193.539062 L 246 203.558594 C 250.003906 206.363281 254.328125 208.730469 258.941406 210.601562 C 263.585938 212.46875 268.347656 213.785156 273.140625 214.542969 L 277.199219 204.554688 C 281.582031 205.050781 285.964844 204.992188 290.226562 204.4375 L 294.433594 214.398438 C 298.378906 213.695312 302.292969 212.617188 306.089844 211.183594 L 306.089844 226.316406 L 301.679688 226.316406 C 298.84375 226.316406 296.566406 228.625 296.566406 231.457031 C 296.566406 234.261719 298.84375 236.570312 301.679688 236.570312 L 443.089844 236.570312 C 445.894531 236.570312 448.203125 234.261719 448.203125 231.457031 C 448.203125 228.625 445.894531 226.316406 443.089844 226.316406 L 438.679688 226.316406 L 438.679688 195.265625 C 442.917969 196.695312 447.296875 197.804688 451.765625 198.476562 L 456.410156 186.648438 C 461.496094 187.171875 466.664062 187.085938 471.835938 186.355469 L 476.949219 198.066406 C 482.644531 197.015625 488.195312 195.292969 493.597656 192.957031 C 499.03125 190.589844 504.054688 187.640625 508.699219 184.191406 L 503.589844 172.480469 C 507.621094 169.207031 511.183594 165.46875 514.28125 161.378906 L 526.140625 166.050781 C 529.410156 161.292969 532.1875 156.148438 534.347656 150.65625 C 536.480469 145.167969 537.96875 139.5 538.816406 133.804688 L 526.929688 129.128906 " fill-opacity="1" fill-rule="nonzero"/></g><g fill="#212124" fill-opacity="1"><g transform="translate(170.49672, 561.106955)"><g><path d="M 59.1875 0 L 45.0625 -23.40625 C 44.320312 -23.332031 43.144531 -23.296875 41.53125 -23.296875 L 23.1875 -23.296875 L 23.1875 0 L 10.15625 0 L 10.15625 -77.3125 L 41.53125 -77.3125 C 51.394531 -77.3125 59.050781 -75.007812 64.5 -70.40625 C 69.945312 -65.800781 72.671875 -59.300781 72.671875 -50.90625 C 72.671875 -44.726562 71.289062 -39.503906 68.53125 -35.234375 C 65.769531 -30.960938 61.8125 -27.832031 56.65625 -25.84375 L 74 0 Z M 23.1875 -35.015625 L 41.53125 -35.015625 C 54.039062 -35.015625 60.296875 -40.203125 60.296875 -50.578125 C 60.296875 -60.585938 54.039062 -65.59375 41.53125 -65.59375 L 23.1875 -65.59375 Z M 23.1875 -35.015625 "/></g></g></g><g fill="#212124" fill-opacity="1"><g transform="translate(250.333334, 561.106955)"><g><path d="M 33.578125 -59.1875 C 43.660156 -59.1875 50.960938 -56.148438 55.484375 -50.078125 C 60.015625 -44.003906 61.878906 -35.484375 61.078125 -24.515625 L 16.671875 -24.515625 C 17.703125 -19.953125 19.835938 -16.363281 23.078125 -13.75 C 26.316406 -11.132812 30.253906 -9.828125 34.890625 -9.828125 C 41.523438 -9.828125 47.050781 -12.109375 51.46875 -16.671875 L 58.203125 -9.5 C 52.160156 -2.875 44.0625 0.4375 33.90625 0.4375 C 24.851562 0.4375 17.582031 -2.300781 12.09375 -7.78125 C 6.601562 -13.269531 3.859375 -20.429688 3.859375 -29.265625 C 3.859375 -38.097656 6.617188 -45.273438 12.140625 -50.796875 C 17.671875 -56.316406 24.816406 -59.113281 33.578125 -59.1875 Z M 16.453125 -33.796875 L 50.03125 -33.796875 C 49.8125 -38.503906 48.226562 -42.21875 45.28125 -44.9375 C 42.332031 -47.664062 38.46875 -49.03125 33.6875 -49.03125 C 29.039062 -49.03125 25.191406 -47.664062 22.140625 -44.9375 C 19.085938 -42.21875 17.191406 -38.503906 16.453125 -33.796875 Z M 16.453125 -33.796875 "/></g></g></g><g fill="#212124" fill-opacity="1"><g transform="translate(315.262692, 561.106955)"><g><path d="M 43.734375 -59.1875 C 50.578125 -59.1875 55.929688 -57.179688 59.796875 -53.171875 C 63.660156 -49.160156 65.59375 -43.625 65.59375 -36.5625 L 65.59375 0 L 52.90625 0 L 52.90625 -33.015625 C 52.90625 -37.429688 51.648438 -40.910156 49.140625 -43.453125 C 46.640625 -45.992188 43.179688 -47.265625 38.765625 -47.265625 C 34.054688 -47.191406 30.207031 -45.679688 27.21875 -42.734375 C 24.238281 -39.796875 22.53125 -35.96875 22.09375 -31.25 L 22.09375 0 L 9.390625 0 L 9.390625 -58.75 L 22.09375 -58.75 L 22.09375 -47.484375 C 26.0625 -55.285156 33.273438 -59.1875 43.734375 -59.1875 Z M 43.734375 -59.1875 "/></g></g></g><g fill="#212124" fill-opacity="1"><g transform="translate(388.473866, 561.106955)"><g><path d="M 39.421875 -13.46875 L 42.625 -3.75 C 37.769531 -0.882812 32.945312 0.546875 28.15625 0.546875 C 23.375 0.546875 19.4375 -0.882812 16.34375 -3.75 C 13.25 -6.625 11.703125 -10.894531 11.703125 -16.5625 L 11.703125 -47.046875 L 3.421875 -47.046875 L 3.421875 -56.546875 L 11.703125 -56.546875 L 11.703125 -72.671875 L 24.296875 -72.671875 L 24.296875 -56.546875 L 41.640625 -56.546875 L 41.640625 -47.046875 L 24.296875 -47.046875 L 24.296875 -18.890625 C 24.296875 -15.941406 24.8125 -13.878906 25.84375 -12.703125 C 26.875 -11.523438 28.457031 -10.9375 30.59375 -10.9375 C 32.945312 -10.9375 35.890625 -11.78125 39.421875 -13.46875 Z M 39.421875 -13.46875 "/></g></g></g><g fill="#212124" fill-opacity="1"><g transform="translate(433.416474, 561.106955)"><g><path d="M 10.375 -81.109375 C 11.78125 -82.546875 13.550781 -83.265625 15.6875 -83.265625 C 17.820312 -83.265625 19.585938 -82.546875 20.984375 -81.109375 C 22.378906 -79.679688 23.078125 -77.828125 23.078125 -75.546875 C 23.078125 -73.328125 22.378906 -71.5 20.984375 -70.0625 C 19.585938 -68.632812 17.820312 -67.921875 15.6875 -67.921875 C 13.550781 -67.921875 11.78125 -68.632812 10.375 -70.0625 C 8.976562 -71.5 8.28125 -73.328125 8.28125 -75.546875 C 8.28125 -77.828125 8.976562 -79.679688 10.375 -81.109375 Z M 21.984375 0 L 9.390625 0 L 9.390625 -58.75 L 21.984375 -58.75 Z M 21.984375 0 "/></g></g></g><g fill="#212124" fill-opacity="1"><g transform="translate(464.776909, 561.106955)"><g><path d="M 43.734375 -59.1875 C 50.578125 -59.1875 55.929688 -57.179688 59.796875 -53.171875 C 63.660156 -49.160156 65.59375 -43.625 65.59375 -36.5625 L 65.59375 0 L 52.90625 0 L 52.90625 -33.015625 C 52.90625 -37.429688 51.648438 -40.910156 49.140625 -43.453125 C 46.640625 -45.992188 43.179688 -47.265625 38.765625 -47.265625 C 34.054688 -47.191406 30.207031 -45.679688 27.21875 -42.734375 C 24.238281 -39.796875 22.53125 -35.96875 22.09375 -31.25 L 22.09375 0 L 9.390625 0 L 9.390625 -58.75 L 22.09375 -58.75 L 22.09375 -47.484375 C 26.0625 -55.285156 33.273438 -59.1875 43.734375 -59.1875 Z M 43.734375 -59.1875 "/></g></g></g><g fill="#212124" fill-opacity="1"><g transform="translate(537.988083, 561.106955)"><g><path d="M 62.390625 -58.75 L 62.390625 -5.75 C 62.390625 2.644531 59.628906 9.328125 54.109375 14.296875 C 48.585938 19.265625 41.191406 21.75 31.921875 21.75 C 23.234375 21.75 15.097656 19.175781 7.515625 14.03125 L 12.921875 4.859375 C 18.660156 9.128906 24.804688 11.265625 31.359375 11.265625 C 36.953125 11.265625 41.425781 9.753906 44.78125 6.734375 C 48.132812 3.710938 49.8125 -0.332031 49.8125 -5.40625 L 49.8125 -12.8125 C 45.6875 -6.1875 39.207031 -2.875 30.375 -2.875 C 22.414062 -2.875 16.003906 -5.484375 11.140625 -10.703125 C 6.285156 -15.929688 3.859375 -22.78125 3.859375 -31.25 C 3.859375 -39.570312 6.25 -46.289062 11.03125 -51.40625 C 15.820312 -56.519531 22.117188 -59.113281 29.921875 -59.1875 C 38.910156 -59.269531 45.539062 -55.957031 49.8125 -49.25 L 49.8125 -58.75 Z M 32.90625 -12.8125 C 37.84375 -12.8125 41.894531 -14.503906 45.0625 -17.890625 C 48.226562 -21.273438 49.8125 -25.617188 49.8125 -30.921875 C 49.8125 -36.222656 48.242188 -40.546875 45.109375 -43.890625 C 41.984375 -47.242188 37.914062 -48.921875 32.90625 -48.921875 C 27.90625 -48.921875 23.820312 -47.242188 20.65625 -43.890625 C 17.488281 -40.546875 15.867188 -36.222656 15.796875 -30.921875 C 15.867188 -25.617188 17.46875 -21.273438 20.59375 -17.890625 C 23.726562 -14.503906 27.832031 -12.8125 32.90625 -12.8125 Z M 32.90625 -12.8125 "/></g></g></g><g fill="#212124" fill-opacity="1"><g transform="translate(128.091114, 696.579107)"><g><path d="M 23.1875 0 L 10.15625 0 L 10.15625 -77.3125 L 23.1875 -77.3125 Z M 23.1875 0 "/></g></g></g><g fill="#212124" fill-opacity="1"><g transform="translate(161.439198, 696.579107)"><g><path d="M 43.734375 -59.1875 C 50.578125 -59.1875 55.929688 -57.179688 59.796875 -53.171875 C 63.660156 -49.160156 65.59375 -43.625 65.59375 -36.5625 L 65.59375 0 L 52.90625 0 L 52.90625 -33.015625 C 52.90625 -37.429688 51.648438 -40.910156 49.140625 -43.453125 C 46.640625 -45.992188 43.179688 -47.265625 38.765625 -47.265625 C 34.054688 -47.191406 30.207031 -45.679688 27.21875 -42.734375 C 24.238281 -39.796875 22.53125 -35.96875 22.09375 -31.25 L 22.09375 0 L 9.390625 0 L 9.390625 -58.75 L 22.09375 -58.75 L 22.09375 -47.484375 C 26.0625 -55.285156 33.273438 -59.1875 43.734375 -59.1875 Z M 43.734375 -59.1875 "/></g></g></g><g fill="#212124" fill-opacity="1"><g transform="translate(234.650372, 696.579107)"><g><path d="M 65.375 -81.9375 L 65.375 0 L 52.671875 0 L 52.671875 -10.046875 C 48.328125 -2.984375 41.445312 0.546875 32.03125 0.546875 C 23.632812 0.546875 16.835938 -2.226562 11.640625 -7.78125 C 6.453125 -13.34375 3.859375 -20.613281 3.859375 -29.59375 C 3.859375 -38.425781 6.4375 -45.585938 11.59375 -51.078125 C 16.75 -56.566406 23.488281 -59.3125 31.8125 -59.3125 C 41.226562 -59.3125 48.179688 -55.738281 52.671875 -48.59375 L 52.671875 -81.9375 Z M 21.6875 -15.40625 C 25.039062 -11.832031 29.367188 -10.046875 34.671875 -10.046875 C 39.972656 -10.046875 44.296875 -11.832031 47.640625 -15.40625 C 50.992188 -18.976562 52.671875 -23.5625 52.671875 -29.15625 C 52.671875 -34.820312 50.992188 -39.457031 47.640625 -43.0625 C 44.296875 -46.675781 39.972656 -48.484375 34.671875 -48.484375 C 29.367188 -48.484375 25.039062 -46.675781 21.6875 -43.0625 C 18.34375 -39.457031 16.632812 -34.820312 16.5625 -29.15625 C 16.632812 -23.5625 18.34375 -18.976562 21.6875 -15.40625 Z M 21.6875 -15.40625 "/></g></g></g><g fill="#212124" fill-opacity="1"><g transform="translate(309.959603, 696.579107)"><g><path d="M 62.734375 -58.75 L 62.734375 0 L 50.03125 0 L 50.03125 -11.484375 C 46.195312 -3.679688 39.203125 0.289062 29.046875 0.4375 C 22.347656 0.4375 17.082031 -1.582031 13.25 -5.625 C 9.425781 -9.675781 7.515625 -15.203125 7.515625 -22.203125 L 7.515625 -58.75 L 20.203125 -58.75 L 20.203125 -25.734375 C 20.203125 -21.316406 21.414062 -17.835938 23.84375 -15.296875 C 26.28125 -12.753906 29.632812 -11.484375 33.90625 -11.484375 C 38.832031 -11.554688 42.75 -13.300781 45.65625 -16.71875 C 48.570312 -20.144531 50.03125 -24.507812 50.03125 -29.8125 L 50.03125 -58.75 Z M 62.734375 -58.75 "/></g></g></g><g fill="#212124" fill-opacity="1"><g transform="translate(382.066534, 696.579107)"><g><path d="M 26.953125 -59.3125 C 35.046875 -59.3125 41.890625 -57.320312 47.484375 -53.34375 L 42.84375 -43.953125 C 37.25 -47.410156 31.617188 -49.140625 25.953125 -49.140625 C 20.210938 -49.140625 17.34375 -47.191406 17.34375 -43.296875 C 17.34375 -41.378906 18.410156 -39.796875 20.546875 -38.546875 C 22.679688 -37.296875 25.273438 -36.242188 28.328125 -35.390625 C 31.378906 -34.546875 34.429688 -33.550781 37.484375 -32.40625 C 40.546875 -31.269531 43.144531 -29.410156 45.28125 -26.828125 C 47.414062 -24.253906 48.484375 -20.976562 48.484375 -17 C 48.484375 -11.332031 46.328125 -7.007812 42.015625 -4.03125 C 37.710938 -1.050781 32.359375 0.4375 25.953125 0.4375 C 21.535156 0.4375 17.207031 -0.273438 12.96875 -1.703125 C 8.738281 -3.140625 5.1875 -5.148438 2.3125 -7.734375 L 6.84375 -16.78125 C 9.351562 -14.570312 12.425781 -12.804688 16.0625 -11.484375 C 19.707031 -10.160156 23.1875 -9.5 26.5 -9.5 C 29.375 -9.5 31.691406 -10.015625 33.453125 -11.046875 C 35.222656 -12.078125 36.109375 -13.660156 36.109375 -15.796875 C 36.109375 -18.003906 35.039062 -19.769531 32.90625 -21.09375 C 30.769531 -22.414062 28.191406 -23.484375 25.171875 -24.296875 C 22.160156 -25.109375 19.144531 -26.066406 16.125 -27.171875 C 13.101562 -28.273438 10.539062 -30.09375 8.4375 -32.625 C 6.34375 -35.164062 5.296875 -38.390625 5.296875 -42.296875 C 5.296875 -47.890625 7.375 -52.125 11.53125 -55 C 15.695312 -57.875 20.835938 -59.3125 26.953125 -59.3125 Z M 26.953125 -59.3125 "/></g></g></g><g fill="#212124" fill-opacity="1"><g transform="translate(433.965853, 696.579107)"><g><path d="M 39.421875 -13.46875 L 42.625 -3.75 C 37.769531 -0.882812 32.945312 0.546875 28.15625 0.546875 C 23.375 0.546875 19.4375 -0.882812 16.34375 -3.75 C 13.25 -6.625 11.703125 -10.894531 11.703125 -16.5625 L 11.703125 -47.046875 L 3.421875 -47.046875 L 3.421875 -56.546875 L 11.703125 -56.546875 L 11.703125 -72.671875 L 24.296875 -72.671875 L 24.296875 -56.546875 L 41.640625 -56.546875 L 41.640625 -47.046875 L 24.296875 -47.046875 L 24.296875 -18.890625 C 24.296875 -15.941406 24.8125 -13.878906 25.84375 -12.703125 C 26.875 -11.523438 28.457031 -10.9375 30.59375 -10.9375 C 32.945312 -10.9375 35.890625 -11.78125 39.421875 -13.46875 Z M 39.421875 -13.46875 "/></g></g></g><g fill="#212124" fill-opacity="1"><g transform="translate(478.908461, 696.579107)"><g><path d="M 22.09375 -58.75 L 22.09375 -47.046875 C 26.132812 -55.140625 32.90625 -59.1875 42.40625 -59.1875 L 42.40625 -47.046875 C 36.59375 -47.335938 31.878906 -45.972656 28.265625 -42.953125 C 24.660156 -39.941406 22.601562 -35.859375 22.09375 -30.703125 L 22.09375 0 L 9.390625 0 L 9.390625 -58.75 Z M 22.09375 -58.75 "/></g></g></g><g fill="#212124" fill-opacity="1"><g transform="translate(522.41553, 696.579107)"><g><path d="M 10.375 -81.109375 C 11.78125 -82.546875 13.550781 -83.265625 15.6875 -83.265625 C 17.820312 -83.265625 19.585938 -82.546875 20.984375 -81.109375 C 22.378906 -79.679688 23.078125 -77.828125 23.078125 -75.546875 C 23.078125 -73.328125 22.378906 -71.5 20.984375 -70.0625 C 19.585938 -68.632812 17.820312 -67.921875 15.6875 -67.921875 C 13.550781 -67.921875 11.78125 -68.632812 10.375 -70.0625 C 8.976562 -71.5 8.28125 -73.328125 8.28125 -75.546875 C 8.28125 -77.828125 8.976562 -79.679688 10.375 -81.109375 Z M 21.984375 0 L 9.390625 0 L 9.390625 -58.75 L 21.984375 -58.75 Z M 21.984375 0 "/></g></g></g><g fill="#212124" fill-opacity="1"><g transform="translate(553.775988, 696.579107)"><g><path d="M 44.609375 0 L 44.609375 -7.171875 C 40.421875 -2.023438 33.945312 0.546875 25.1875 0.546875 C 18.925781 0.546875 13.914062 -1.160156 10.15625 -4.578125 C 6.40625 -8.003906 4.53125 -12.367188 4.53125 -17.671875 C 4.53125 -23.046875 6.476562 -27.316406 10.375 -30.484375 C 14.28125 -33.648438 19.726562 -35.269531 26.71875 -35.34375 L 44.5 -35.34375 L 44.5 -37.109375 C 44.5 -40.859375 43.300781 -43.765625 40.90625 -45.828125 C 38.519531 -47.890625 35.046875 -48.921875 30.484375 -48.921875 C 24.816406 -48.921875 19.035156 -46.929688 13.140625 -42.953125 L 7.953125 -51.796875 C 12.441406 -54.441406 16.472656 -56.332031 20.046875 -57.46875 C 23.617188 -58.613281 28.015625 -59.1875 33.234375 -59.1875 C 40.742188 -59.1875 46.5625 -57.363281 50.6875 -53.71875 C 54.8125 -50.082031 56.910156 -45.023438 56.984375 -38.546875 L 57.09375 0 Z M 27.828125 -9.5 C 32.316406 -9.5 36.125 -10.546875 39.25 -12.640625 C 42.382812 -14.742188 44.132812 -17.414062 44.5 -20.65625 L 44.5 -26.0625 L 28.609375 -26.0625 C 24.410156 -26.0625 21.332031 -25.453125 19.375 -24.234375 C 17.425781 -23.023438 16.453125 -21.019531 16.453125 -18.21875 C 16.453125 -15.570312 17.460938 -13.457031 19.484375 -11.875 C 21.515625 -10.289062 24.296875 -9.5 27.828125 -9.5 Z M 27.828125 -9.5 "/></g></g></g><g fill="#212124" fill-opacity="1"><g transform="translate(618.484482, 696.579107)"><g><path d="M 22.640625 0 L 9.9375 0 L 9.9375 -81.9375 L 22.640625 -81.9375 Z M 22.640625 0 "/></g></g></g></svg>