<svg xmlns="http://www.w3.org/2000/svg" xmlns:xlink="http://www.w3.org/1999/xlink" width="1080" zoomAndPan="magnify" viewBox="0 0 810 809.999993" height="1080" preserveAspectRatio="xMidYMid meet" version="1.0"><defs><g/><clipPath id="a3482d4418"><path d="M 560.628906 228.519531 L 655 228.519531 L 655 323 L 560.628906 323 Z M 560.628906 228.519531 " clip-rule="nonzero"/></clipPath><clipPath id="2a04b75e94"><path d="M 177.375 137 L 625.417969 137 L 625.417969 444.976562 L 177.375 444.976562 Z M 177.375 137 " clip-rule="nonzero"/></clipPath><clipPath id="0b7ca20468"><path d="M 553 60.039062 L 607 60.039062 L 607 112 L 553 112 Z M 553 60.039062 " clip-rule="nonzero"/></clipPath><clipPath id="f49879a71d"><path d="M 196 60.039062 L 250 60.039062 L 250 112 L 196 112 Z M 196 60.039062 " clip-rule="nonzero"/></clipPath></defs><g clip-path="url(#a3482d4418)"><path fill="#ee1b24" d="M 562.132812 278.300781 C 560.570312 276.734375 560.570312 274.171875 562.132812 272.609375 L 604.71875 230.023438 C 606.28125 228.457031 608.847656 228.457031 610.410156 230.023438 L 652.996094 272.609375 C 654.558594 274.171875 654.558594 276.734375 652.996094 278.296875 L 610.410156 320.882812 C 608.847656 322.445312 606.28125 322.445312 604.71875 320.882812 Z M 562.132812 278.300781 " fill-opacity="1" fill-rule="nonzero"/></g><g clip-path="url(#2a04b75e94)"><path fill="#4b545d" d="M 612.058594 445.625 L 191.140625 445.625 C 183.550781 445.625 177.375 439.449219 177.375 431.855469 L 177.375 151.007812 C 177.375 143.417969 183.550781 137.242188 191.140625 137.242188 L 612.058594 137.242188 C 619.648438 137.242188 625.824219 143.417969 625.824219 151.007812 L 625.824219 431.855469 C 625.824219 439.449219 619.648438 445.625 612.058594 445.625 Z M 191.140625 147.753906 C 189.378906 147.753906 187.886719 149.246094 187.886719 151.007812 L 187.886719 431.855469 C 187.886719 433.621094 189.378906 435.113281 191.140625 435.113281 L 612.058594 435.113281 C 613.851562 435.113281 615.3125 433.65625 615.3125 431.855469 L 615.3125 151.007812 C 615.3125 149.246094 613.824219 147.753906 612.058594 147.753906 Z M 191.140625 147.753906 " fill-opacity="1" fill-rule="evenodd"/></g><path fill="#4b545d" d="M 590.78125 415.835938 L 212.421875 415.835938 C 209.519531 415.835938 207.164062 413.480469 207.164062 410.582031 L 207.164062 172.285156 C 207.164062 169.382812 209.519531 167.03125 212.421875 167.03125 L 590.78125 167.03125 C 593.683594 167.03125 596.035156 169.382812 596.035156 172.285156 L 596.035156 410.582031 C 596.035156 413.480469 593.683594 415.835938 590.78125 415.835938 Z M 217.675781 405.320312 L 585.527344 405.320312 L 585.527344 177.539062 L 217.675781 177.539062 Z M 217.675781 405.320312 " fill-opacity="1" fill-rule="evenodd"/><path fill="#4b545d" d="M 546.441406 368.054688 L 256.761719 368.054688 C 253.863281 368.054688 251.507812 365.699219 251.507812 362.800781 L 251.507812 220.066406 C 251.507812 217.164062 253.863281 214.808594 256.761719 214.808594 L 546.445312 214.808594 C 549.347656 214.808594 551.699219 217.164062 551.699219 220.066406 L 551.699219 362.800781 C 551.699219 365.703125 549.34375 368.054688 546.441406 368.054688 Z M 262.011719 357.542969 L 541.183594 357.542969 L 541.183594 225.324219 L 262.011719 225.324219 Z M 262.011719 357.542969 " fill-opacity="1" fill-rule="evenodd"/><path fill="#4b545d" d="M 452.136719 368.058594 C 449.234375 368.058594 446.878906 365.699219 446.878906 362.800781 L 446.878906 220.066406 C 446.878906 213.144531 457.390625 213.144531 457.390625 220.066406 L 457.390625 362.800781 C 457.390625 365.703125 455.035156 368.058594 452.136719 368.058594 Z M 351.070312 368.058594 C 348.167969 368.058594 345.816406 365.699219 345.816406 362.800781 L 345.816406 220.066406 C 345.816406 213.144531 356.324219 213.144531 356.324219 220.066406 L 356.324219 362.800781 C 356.324219 365.703125 353.976562 368.058594 351.070312 368.058594 Z M 351.070312 368.058594 " fill-opacity="1" fill-rule="evenodd"/><path fill="#4b545d" d="M 479.046875 147.753906 C 464.875 147.753906 485.175781 111.667969 462.726562 111.667969 L 340.472656 111.667969 C 318.019531 111.667969 338.320312 147.753906 324.148438 147.753906 C 321.246094 147.753906 318.890625 145.398438 318.890625 142.5 L 318.890625 120.382812 C 318.890625 109.777344 328.570312 101.15625 340.472656 101.15625 L 462.722656 101.15625 C 474.621094 101.15625 484.304688 109.777344 484.304688 120.382812 L 484.304688 142.5 C 484.304688 145.398438 481.949219 147.753906 479.046875 147.753906 Z M 479.046875 147.753906 " fill-opacity="1" fill-rule="evenodd"/><path fill="#4b545d" d="M 440.523438 111.667969 C 437.621094 111.667969 435.269531 109.3125 435.269531 106.414062 L 435.269531 71.4375 C 435.269531 64.515625 445.777344 64.515625 445.777344 71.4375 L 445.777344 106.414062 C 445.777344 109.320312 443.425781 111.667969 440.523438 111.667969 Z M 440.523438 111.667969 " fill-opacity="1" fill-rule="evenodd"/><path fill="#4b545d" d="M 401.601562 111.667969 C 398.699219 111.667969 396.34375 109.3125 396.34375 106.414062 L 396.34375 71.4375 C 396.34375 64.515625 406.855469 64.515625 406.855469 71.4375 L 406.855469 106.414062 C 406.855469 109.320312 404.5 111.667969 401.601562 111.667969 Z M 401.601562 111.667969 " fill-opacity="1" fill-rule="evenodd"/><path fill="#4b545d" d="M 362.675781 111.667969 C 359.773438 111.667969 357.421875 109.3125 357.421875 106.414062 L 357.421875 71.4375 C 357.421875 64.515625 367.929688 64.515625 367.929688 71.4375 L 367.929688 106.414062 C 367.929688 109.320312 365.578125 111.667969 362.675781 111.667969 Z M 362.675781 111.667969 " fill-opacity="1" fill-rule="evenodd"/><path fill="#4b545d" d="M 589.148438 147.753906 C 586.246094 147.753906 583.890625 145.398438 583.890625 142.5 L 583.890625 116.144531 C 583.890625 113.679688 581.882812 111.667969 579.414062 111.667969 L 538.050781 111.667969 C 535.585938 111.667969 533.578125 113.675781 533.578125 116.144531 L 533.578125 142.5 C 533.578125 149.417969 523.066406 149.417969 523.066406 142.5 L 523.066406 116.144531 C 523.066406 107.882812 529.792969 101.160156 538.050781 101.160156 L 579.414062 101.160156 C 587.679688 101.160156 594.402344 107.882812 594.402344 116.144531 L 594.402344 142.5 C 594.402344 145.398438 592.046875 147.753906 589.148438 147.753906 Z M 589.148438 147.753906 " fill-opacity="1" fill-rule="evenodd"/><path fill="#4b545d" d="M 274.882812 147.753906 C 271.980469 147.753906 269.628906 145.398438 269.628906 142.5 L 269.628906 116.144531 C 269.628906 113.679688 267.621094 111.667969 265.152344 111.667969 L 223.785156 111.667969 C 221.316406 111.667969 219.308594 113.675781 219.308594 116.144531 L 219.308594 142.5 C 219.308594 149.417969 208.796875 149.417969 208.796875 142.5 L 208.796875 116.144531 C 208.796875 107.882812 215.519531 101.160156 223.78125 101.160156 L 265.144531 101.160156 C 273.40625 101.160156 280.128906 107.882812 280.128906 116.144531 L 280.128906 142.5 C 280.136719 145.398438 277.785156 147.753906 274.882812 147.753906 Z M 274.882812 147.753906 " fill-opacity="1" fill-rule="evenodd"/><g clip-path="url(#0b7ca20468)"><path fill="#4b545d" d="M 558.730469 111.667969 C 555.832031 111.667969 553.476562 109.3125 553.476562 106.414062 L 553.476562 73.5625 C 553.476562 66.140625 560.203125 60.101562 568.464844 60.101562 L 601.722656 60.101562 C 608.640625 60.101562 608.640625 70.613281 601.722656 70.613281 L 568.464844 70.613281 C 565.902344 70.613281 563.988281 72.171875 563.988281 73.570312 L 563.988281 106.417969 C 563.988281 109.320312 561.632812 111.667969 558.730469 111.667969 Z M 558.730469 111.667969 " fill-opacity="1" fill-rule="evenodd"/></g><g clip-path="url(#f49879a71d)"><path fill="#4b545d" d="M 244.46875 111.667969 C 241.566406 111.667969 239.210938 109.3125 239.210938 106.414062 L 239.210938 73.5625 C 239.210938 72.167969 237.300781 70.609375 234.734375 70.609375 L 201.476562 70.609375 C 194.558594 70.609375 194.558594 60.097656 201.476562 60.097656 L 234.734375 60.097656 C 242.996094 60.097656 249.722656 66.136719 249.722656 73.558594 L 249.722656 106.40625 C 249.722656 109.316406 247.375 111.667969 244.46875 111.667969 Z M 244.46875 111.667969 " fill-opacity="1" fill-rule="evenodd"/></g><path fill="#4b545d" d="M 412.300781 330.648438 L 390.90625 330.648438 C 388.007812 330.648438 385.652344 328.292969 385.652344 325.394531 L 385.652344 278.863281 C 385.652344 271.945312 396.164062 271.949219 396.164062 278.863281 L 396.164062 320.140625 L 407.046875 320.140625 L 407.046875 278.863281 C 407.046875 271.945312 417.558594 271.949219 417.558594 278.863281 L 417.558594 325.394531 C 417.558594 328.296875 415.203125 330.648438 412.300781 330.648438 Z M 412.300781 330.648438 " fill-opacity="1" fill-rule="evenodd"/><path fill="#4b545d" d="M 427.964844 284.121094 L 375.242188 284.121094 C 372.339844 284.121094 369.988281 281.765625 369.988281 278.867188 L 369.988281 257.472656 C 369.988281 254.570312 372.339844 252.214844 375.242188 252.214844 L 427.964844 252.214844 C 430.867188 252.214844 433.222656 254.570312 433.222656 257.472656 L 433.222656 278.867188 C 433.222656 281.765625 430.867188 284.121094 427.964844 284.121094 Z M 380.496094 273.609375 L 422.707031 273.609375 L 422.707031 262.734375 L 380.496094 262.734375 L 380.496094 273.613281 Z M 380.496094 273.609375 " fill-opacity="1" fill-rule="evenodd"/><path fill="#4b545d" d="M 314.609375 309.257812 C 311.710938 309.257812 309.355469 306.902344 309.355469 304.003906 L 309.355469 262.726562 L 298.472656 262.726562 L 298.472656 304.003906 C 298.472656 310.921875 287.960938 310.917969 287.960938 304.003906 L 287.960938 257.472656 C 287.960938 254.570312 290.316406 252.214844 293.214844 252.214844 L 314.609375 252.214844 C 317.511719 252.214844 319.867188 254.570312 319.867188 257.472656 L 319.867188 304.003906 C 319.867188 306.902344 317.511719 309.257812 314.609375 309.257812 Z M 314.609375 309.257812 " fill-opacity="1" fill-rule="evenodd"/><path fill="#4b545d" d="M 330.273438 330.648438 L 277.554688 330.648438 C 274.652344 330.648438 272.296875 328.292969 272.296875 325.394531 L 272.296875 304.003906 C 272.296875 301.105469 274.652344 298.75 277.554688 298.75 L 330.273438 298.75 C 333.175781 298.75 335.53125 301.105469 335.53125 304.003906 L 335.53125 325.394531 C 335.53125 328.296875 333.175781 330.648438 330.273438 330.648438 Z M 282.808594 320.140625 L 325.019531 320.140625 L 325.019531 309.261719 L 282.808594 309.261719 Z M 282.808594 320.140625 " fill-opacity="1" fill-rule="evenodd"/><path fill="#4b545d" d="M 509.984375 309.257812 C 507.082031 309.257812 504.726562 306.902344 504.726562 304.003906 L 504.726562 262.726562 L 493.847656 262.726562 L 493.847656 304.003906 C 493.847656 310.921875 483.339844 310.917969 483.339844 304.003906 L 483.339844 257.472656 C 483.339844 254.570312 485.695312 252.214844 488.59375 252.214844 L 509.988281 252.214844 C 512.890625 252.214844 515.242188 254.570312 515.242188 257.472656 L 515.242188 304.003906 C 515.242188 306.902344 512.882812 309.257812 509.984375 309.257812 Z M 509.984375 309.257812 " fill-opacity="1" fill-rule="evenodd"/><path fill="#4b545d" d="M 525.648438 330.648438 L 472.925781 330.648438 C 470.023438 330.648438 467.671875 328.292969 467.671875 325.394531 L 467.671875 304.003906 C 467.671875 301.105469 470.027344 298.75 472.925781 298.75 L 525.648438 298.75 C 528.546875 298.75 530.902344 301.105469 530.902344 304.003906 L 530.902344 325.394531 C 530.90625 328.296875 528.546875 330.648438 525.648438 330.648438 Z M 478.179688 320.140625 L 520.386719 320.140625 L 520.386719 309.261719 L 478.179688 309.261719 Z M 478.179688 320.140625 " fill-opacity="1" fill-rule="evenodd"/><g fill="#212124" fill-opacity="1"><g transform="translate(102.949546, 723.119957)"><g><path d="M 84.625 -88.1875 L 51.671875 -88.1875 L 51.671875 0 L 34.140625 0 L 34.140625 -88.1875 L 1.34375 -88.1875 L 1.34375 -103.921875 L 84.625 -103.921875 Z M 84.625 -88.1875 "/></g></g></g><g fill="#212124" fill-opacity="1"><g transform="translate(188.897785, 723.119957)"><g><path d="M 59.984375 0 L 59.984375 -9.65625 C 54.335938 -2.71875 45.625 0.75 33.84375 0.75 C 25.4375 0.75 18.707031 -1.550781 13.65625 -6.15625 C 8.613281 -10.757812 6.09375 -16.625 6.09375 -23.75 C 6.09375 -30.976562 8.710938 -36.71875 13.953125 -40.96875 C 19.203125 -45.226562 26.523438 -47.410156 35.921875 -47.515625 L 59.828125 -47.515625 L 59.828125 -49.890625 C 59.828125 -54.929688 58.21875 -58.835938 55 -61.609375 C 51.789062 -64.378906 47.117188 -65.765625 40.984375 -65.765625 C 33.359375 -65.765625 25.585938 -63.09375 17.671875 -57.75 L 10.6875 -69.625 C 16.726562 -73.195312 22.144531 -75.75 26.9375 -77.28125 C 31.738281 -78.8125 37.65625 -79.578125 44.6875 -79.578125 C 54.78125 -79.578125 62.597656 -77.125 68.140625 -72.21875 C 73.691406 -67.320312 76.515625 -60.519531 76.609375 -51.8125 L 76.765625 0 Z M 37.421875 -12.765625 C 43.453125 -12.765625 48.570312 -14.175781 52.78125 -17 C 56.988281 -19.820312 59.335938 -23.410156 59.828125 -27.765625 L 59.828125 -35.03125 L 38.453125 -35.03125 C 32.804688 -35.03125 28.671875 -34.210938 26.046875 -32.578125 C 23.429688 -30.953125 22.125 -28.257812 22.125 -24.5 C 22.125 -20.9375 23.484375 -18.085938 26.203125 -15.953125 C 28.921875 -13.828125 32.660156 -12.765625 37.421875 -12.765625 Z M 37.421875 -12.765625 "/></g></g></g><g fill="#212124" fill-opacity="1"><g transform="translate(275.88513, 723.119957)"><g><path d="M 58.046875 -79.578125 C 69.234375 -79.578125 78.316406 -75.835938 85.296875 -68.359375 C 92.273438 -60.890625 95.765625 -51.171875 95.765625 -39.203125 C 95.765625 -27.316406 92.347656 -17.710938 85.515625 -10.390625 C 78.691406 -3.066406 69.632812 0.59375 58.34375 0.59375 C 45.675781 0.59375 36.375 -4.15625 30.4375 -13.65625 L 30.4375 0 L 13.359375 0 L 13.359375 -110.15625 L 30.4375 -110.15625 L 30.4375 -65.328125 C 36.375 -74.828125 45.578125 -79.578125 58.046875 -79.578125 Z M 37.1875 -21.15625 C 41.695312 -16.351562 47.460938 -13.953125 54.484375 -13.953125 C 61.515625 -13.953125 67.28125 -16.351562 71.78125 -21.15625 C 76.289062 -25.957031 78.546875 -32.171875 78.546875 -39.796875 C 78.546875 -47.210938 76.289062 -53.320312 71.78125 -58.125 C 67.28125 -62.925781 61.515625 -65.328125 54.484375 -65.328125 C 47.460938 -65.328125 41.695312 -62.925781 37.1875 -58.125 C 32.6875 -53.320312 30.4375 -47.210938 30.4375 -39.796875 C 30.4375 -32.171875 32.6875 -25.957031 37.1875 -21.15625 Z M 37.1875 -21.15625 "/></g></g></g><g fill="#212124" fill-opacity="1"><g transform="translate(376.826086, 723.119957)"><g><path d="M 30.4375 0 L 13.359375 0 L 13.359375 -110.15625 L 30.4375 -110.15625 Z M 30.4375 0 "/></g></g></g><g fill="#212124" fill-opacity="1"><g transform="translate(420.616646, 723.119957)"><g><path d="M 45.140625 -79.578125 C 58.691406 -79.578125 68.507812 -75.492188 74.59375 -67.328125 C 80.6875 -59.160156 83.191406 -47.703125 82.109375 -32.953125 L 22.421875 -32.953125 C 23.804688 -26.816406 26.675781 -21.992188 31.03125 -18.484375 C 35.382812 -14.972656 40.679688 -13.21875 46.921875 -13.21875 C 55.828125 -13.21875 63.25 -16.285156 69.1875 -22.421875 L 78.25 -12.765625 C 70.125 -3.859375 59.234375 0.59375 45.578125 0.59375 C 33.398438 0.59375 23.625 -3.09375 16.25 -10.46875 C 8.882812 -17.84375 5.203125 -27.46875 5.203125 -39.34375 C 5.203125 -51.21875 8.910156 -60.867188 16.328125 -68.296875 C 23.753906 -75.722656 33.359375 -79.484375 45.140625 -79.578125 Z M 22.125 -45.4375 L 67.25 -45.4375 C 66.957031 -51.769531 64.832031 -56.765625 60.875 -60.421875 C 56.914062 -64.085938 51.71875 -65.921875 45.28125 -65.921875 C 39.039062 -65.921875 33.867188 -64.085938 29.765625 -60.421875 C 25.660156 -56.765625 23.113281 -51.769531 22.125 -45.4375 Z M 22.125 -45.4375 "/></g></g></g><g fill="#212124" fill-opacity="1"><g transform="translate(507.900864, 723.119957)"><g><path d="M 29.6875 -78.984375 L 29.6875 -63.25 C 35.132812 -74.132812 44.242188 -79.578125 57.015625 -79.578125 L 57.015625 -63.25 C 49.191406 -63.644531 42.851562 -61.8125 38 -57.75 C 33.15625 -53.695312 30.382812 -48.207031 29.6875 -41.28125 L 29.6875 0 L 12.625 0 L 12.625 -78.984375 Z M 29.6875 -78.984375 "/></g></g></g><g fill="#212124" fill-opacity="1"><g transform="translate(566.387237, 723.119957)"><g><path d="M 46.46875 -79.578125 C 58.644531 -79.578125 68.539062 -75.890625 76.15625 -68.515625 C 83.78125 -61.140625 87.59375 -51.46875 87.59375 -39.5 C 87.59375 -27.613281 83.78125 -17.957031 76.15625 -10.53125 C 68.539062 -3.113281 58.644531 0.59375 46.46875 0.59375 C 34.195312 0.59375 24.25 -3.113281 16.625 -10.53125 C 9.007812 -17.957031 5.203125 -27.613281 5.203125 -39.5 C 5.203125 -51.46875 9.007812 -61.140625 16.625 -68.515625 C 24.25 -75.890625 34.195312 -79.578125 46.46875 -79.578125 Z M 46.46875 -64.875 C 39.34375 -64.875 33.523438 -62.5 29.015625 -57.75 C 24.515625 -53 22.265625 -46.863281 22.265625 -39.34375 C 22.265625 -31.71875 24.515625 -25.53125 29.015625 -20.78125 C 33.523438 -16.03125 39.34375 -13.65625 46.46875 -13.65625 C 53.59375 -13.65625 59.378906 -16.03125 63.828125 -20.78125 C 68.285156 -25.53125 70.515625 -31.71875 70.515625 -39.34375 C 70.515625 -46.863281 68.265625 -53 63.765625 -57.75 C 59.265625 -62.5 53.5 -64.875 46.46875 -64.875 Z M 46.46875 -64.875 "/></g></g></g><g fill="#212124" fill-opacity="1"><g transform="translate(659.163848, 723.119957)"><g><path d="M 36.21875 -79.734375 C 47.113281 -79.734375 56.320312 -77.054688 63.84375 -71.703125 L 57.609375 -59.09375 C 50.085938 -63.738281 42.515625 -66.0625 34.890625 -66.0625 C 27.171875 -66.0625 23.3125 -63.441406 23.3125 -58.203125 C 23.3125 -55.628906 24.742188 -53.5 27.609375 -51.8125 C 30.484375 -50.132812 33.972656 -48.722656 38.078125 -47.578125 C 42.191406 -46.441406 46.300781 -45.109375 50.40625 -43.578125 C 54.507812 -42.046875 57.992188 -39.546875 60.859375 -36.078125 C 63.734375 -32.609375 65.171875 -28.203125 65.171875 -22.859375 C 65.171875 -15.242188 62.273438 -9.429688 56.484375 -5.421875 C 50.703125 -1.410156 43.503906 0.59375 34.890625 0.59375 C 28.953125 0.59375 23.132812 -0.367188 17.4375 -2.296875 C 11.75 -4.234375 6.976562 -6.929688 3.125 -10.390625 L 9.203125 -22.5625 C 12.566406 -19.59375 16.695312 -17.21875 21.59375 -15.4375 C 26.5 -13.65625 31.175781 -12.765625 35.625 -12.765625 C 39.488281 -12.765625 42.609375 -13.457031 44.984375 -14.84375 C 47.359375 -16.226562 48.546875 -18.359375 48.546875 -21.234375 C 48.546875 -24.203125 47.109375 -26.578125 44.234375 -28.359375 C 41.367188 -30.140625 37.90625 -31.570312 33.84375 -32.65625 C 29.789062 -33.75 25.734375 -35.035156 21.671875 -36.515625 C 17.617188 -38.003906 14.179688 -40.457031 11.359375 -43.875 C 8.535156 -47.289062 7.125 -51.617188 7.125 -56.859375 C 7.125 -64.378906 9.921875 -70.070312 15.515625 -73.9375 C 21.109375 -77.800781 28.007812 -79.734375 36.21875 -79.734375 Z M 36.21875 -79.734375 "/></g></g></g></svg>